<svg width="1278" height="2049" xmlns="http://www.w3.org/2000/svg" xmlns:xlink="http://www.w3.org/1999/xlink" overflow="hidden"><defs><filter id="fx0" x="-10%" y="-10%" width="120%" height="120%" filterUnits="userSpaceOnUse" primitiveUnits="userSpaceOnUse"><feComponentTransfer color-interpolation-filters="sRGB"><feFuncR type="discrete" tableValues="0 0"/><feFuncG type="discrete" tableValues="0 0"/><feFuncB type="discrete" tableValues="0 0"/><feFuncA type="linear" slope="0.4" intercept="0"/></feComponentTransfer><feGaussianBlur stdDeviation="1.77847 1.77821"/></filter><filter id="fx1" x="-10%" y="-10%" width="120%" height="120%" filterUnits="userSpaceOnUse" primitiveUnits="userSpaceOnUse"><feComponentTransfer color-interpolation-filters="sRGB"><feFuncR type="discrete" tableValues="0 0"/><feFuncG type="discrete" tableValues="0 0"/><feFuncB type="discrete" tableValues="0 0"/><feFuncA type="linear" slope="0.4" intercept="0"/></feComponentTransfer><feGaussianBlur stdDeviation="1.77847 1.77821"/></filter><filter id="fx2" x="-10%" y="-10%" width="120%" height="120%" filterUnits="userSpaceOnUse" primitiveUnits="userSpaceOnUse"><feComponentTransfer color-interpolation-filters="sRGB"><feFuncR type="discrete" tableValues="0 0"/><feFuncG type="discrete" tableValues="0 0"/><feFuncB type="discrete" tableValues="0 0"/><feFuncA type="linear" slope="0.4" intercept="0"/></feComponentTransfer><feGaussianBlur stdDeviation="1.77847 1.77821"/></filter><clipPath id="clip3"><path d="M57.0001 1787.74 57.0001 1999.71 1227 1999.71 1227 1787.74ZM1.90437e-05 3.05325e-05 1278 3.05325e-05 1278 2049 1.90437e-05 2049Z" fill-rule="evenodd" clip-rule="evenodd"/></clipPath><linearGradient x1="636.963" y1="1829.63" x2="646.991" y2="1956.85" gradientUnits="userSpaceOnUse" spreadMethod="reflect" id="fill4"><stop offset="0" stop-color="#002C3F"/><stop offset="0.5" stop-color="#00445F"/><stop offset="1" stop-color="#005272"/></linearGradient><linearGradient x1="636.963" y1="1829.63" x2="646.991" y2="1956.85" gradientUnits="userSpaceOnUse" spreadMethod="reflect" id="fill5"><stop offset="0" stop-color="#002C3F"/><stop offset="0.5" stop-color="#00445F"/><stop offset="1" stop-color="#005272"/></linearGradient><linearGradient x1="636.963" y1="1829.63" x2="646.991" y2="1956.85" gradientUnits="userSpaceOnUse" spreadMethod="reflect" id="fill6"><stop offset="0" stop-color="#002C3F"/><stop offset="0.5" stop-color="#00445F"/><stop offset="1" stop-color="#005272"/></linearGradient><linearGradient x1="636.963" y1="1829.63" x2="646.991" y2="1956.85" gradientUnits="userSpaceOnUse" spreadMethod="reflect" id="fill7"><stop offset="0" stop-color="#002C3F"/><stop offset="0.5" stop-color="#00445F"/><stop offset="1" stop-color="#005272"/></linearGradient><clipPath id="clip8"><path d="M598.5 65.9903 598.5 149.978 558 149.978 639 230.966 720 149.978 679.5 149.978 679.5 65.9903ZM1.90437e-05 3.05325e-05 1278 3.05325e-05 1278 2049 1.90437e-05 2049Z" fill-rule="evenodd" clip-rule="evenodd"/></clipPath></defs><g><rect x="0" y="0" width="1278" height="2048.7" fill="#FFFFFF"/><path d="M57.7209 287.05 132.299 287.05 132.299 339.977 57.7209 339.977Z" fill="#156082" fill-rule="evenodd"/><path d="M132.299 287.05 838.671 287.05 838.671 339.977 132.299 339.977Z" fill="#156082" fill-rule="evenodd"/><path d="M838.671 287.05 1229.21 287.05 1229.21 339.977 838.671 339.977Z" fill="#156082" fill-rule="evenodd"/><path d="M57.7209 339.977 132.299 339.977 132.299 392.903 57.7209 392.903Z" fill="#156082" fill-rule="evenodd"/><path d="M132.299 339.977 838.671 339.977 838.671 392.903 132.299 392.903Z" fill="#CCD2D8" fill-rule="evenodd"/><path d="M838.671 339.977 1229.21 339.977 1229.21 657.534 838.671 657.534Z" fill="#CCD2D8" fill-rule="evenodd"/><path d="M57.7209 392.903 132.299 392.903 132.299 445.829 57.7209 445.829Z" fill="#156082" fill-rule="evenodd"/><path d="M132.299 392.903 838.671 392.903 838.671 445.829 132.299 445.829Z" fill="#E7EAED" fill-rule="evenodd"/><path d="M57.7209 445.829 132.299 445.829 132.299 498.756 57.7209 498.756Z" fill="#156082" fill-rule="evenodd"/><path d="M132.299 445.829 838.671 445.829 838.671 498.756 132.299 498.756Z" fill="#CCD2D8" fill-rule="evenodd"/><path d="M57.7209 498.756 132.299 498.756 132.299 551.682 57.7209 551.682Z" fill="#156082" fill-rule="evenodd"/><path d="M132.299 498.756 838.671 498.756 838.671 551.682 132.299 551.682Z" fill="#E7EAED" fill-rule="evenodd"/><path d="M57.7209 551.682 132.299 551.682 132.299 604.608 57.7209 604.608Z" fill="#156082" fill-rule="evenodd"/><path d="M132.299 551.682 838.671 551.682 838.671 604.608 132.299 604.608Z" fill="#CCD2D8" fill-rule="evenodd"/><path d="M57.7209 604.608 132.299 604.608 132.299 657.534 57.7209 657.534Z" fill="#156082" fill-rule="evenodd"/><path d="M132.299 604.608 838.671 604.608 838.671 657.534 132.299 657.534Z" fill="#E7EAED" fill-rule="evenodd"/><path d="M132.299 286.383 132.299 658.201" stroke="#FFFFFF" stroke-width="1.33386" stroke-linejoin="round" stroke-miterlimit="10" fill="none" fill-rule="evenodd"/><path d="M838.671 286.383 838.671 658.201" stroke="#FFFFFF" stroke-width="1.33386" stroke-linejoin="round" stroke-miterlimit="10" fill="none" fill-rule="evenodd"/><path d="M57.0539 339.977 1229.88 339.977" stroke="#FFFFFF" stroke-width="4.00157" stroke-linejoin="round" stroke-miterlimit="10" fill="none" fill-rule="evenodd"/><path d="M57.0539 392.903 839.338 392.903" stroke="#FFFFFF" stroke-width="1.33386" stroke-linejoin="round" stroke-miterlimit="10" fill="none" fill-rule="evenodd"/><path d="M57.0539 445.829 839.338 445.829" stroke="#FFFFFF" stroke-width="1.33386" stroke-linejoin="round" stroke-miterlimit="10" fill="none" fill-rule="evenodd"/><path d="M57.0539 498.756 839.338 498.756" stroke="#FFFFFF" stroke-width="1.33386" stroke-linejoin="round" stroke-miterlimit="10" fill="none" fill-rule="evenodd"/><path d="M57.0539 551.682 839.338 551.682" stroke="#FFFFFF" stroke-width="1.33386" stroke-linejoin="round" stroke-miterlimit="10" fill="none" fill-rule="evenodd"/><path d="M57.0539 604.608 839.338 604.608" stroke="#FFFFFF" stroke-width="1.33386" stroke-linejoin="round" stroke-miterlimit="10" fill="none" fill-rule="evenodd"/><path d="M57.7209 286.383 57.7209 658.201" stroke="#FFFFFF" stroke-width="1.33386" stroke-linejoin="round" stroke-miterlimit="10" fill="none" fill-rule="evenodd"/><path d="M1229.21 286.383 1229.21 658.201" stroke="#FFFFFF" stroke-width="1.33386" stroke-linejoin="round" stroke-miterlimit="10" fill="none" fill-rule="evenodd"/><path d="M57.0539 287.05 1229.88 287.05" stroke="#FFFFFF" stroke-width="1.33386" stroke-linejoin="round" stroke-miterlimit="10" fill="none" fill-rule="evenodd"/><path d="M57.0539 657.534 1229.88 657.534" stroke="#FFFFFF" stroke-width="1.33386" stroke-linejoin="round" stroke-miterlimit="10" fill="none" fill-rule="evenodd"/><text fill="#FFFFFF" font-family="Aptos,Aptos_MSFontService,sans-serif" font-weight="700" font-size="43" transform="matrix(1 0 0 0.999853 961.914 328)">ORDEN</text><text fill="#FFFFFF" font-family="Aptos,Aptos_MSFontService,sans-serif" font-weight="700" font-size="43" transform="matrix(1 0 0 0.999853 397.784 328)">NOMBRE</text><g><text fill="#FFFFFF" font-family="Aptos,Aptos_MSFontService,sans-serif" font-weight="700" font-size="43" transform="matrix(1 0 0 0.999853 71.5008 328)">N</text></g><g><text fill="#FFFFFF" font-family="Aptos,Aptos_MSFontService,sans-serif" font-weight="700" font-size="43" transform="matrix(1 0 0 0.999853 102.346 328)">°</text></g><text font-family="Aptos,Aptos_MSFontService,sans-serif" font-weight="400" font-size="43" transform="matrix(1 0 0 0.999853 963.834 512)">SERIE 1</text><text font-family="Aptos,Aptos_MSFontService,sans-serif" font-weight="400" font-size="43" transform="matrix(1 0 0 0.999853 875.419 577)">CLASIFICATORIO</text><g><text font-family="Aptos,Aptos_MSFontService,sans-serif" font-weight="400" font-size="43" transform="matrix(1 0 0 0.999853 139.502 381)">Valery guzmán 3M</text></g><text fill="#FFFFFF" font-family="Aptos,Aptos_MSFontService,sans-serif" font-weight="700" font-size="43" transform="matrix(1 0 0 0.999853 83.5889 381)">1</text><g><text font-family="Aptos,Aptos_MSFontService,sans-serif" font-weight="400" font-size="43" transform="matrix(1 0 0 0.999853 139.502 434)">Melanie hernandez 3M</text></g><text fill="#FFFFFF" font-family="Aptos,Aptos_MSFontService,sans-serif" font-weight="700" font-size="43" transform="matrix(1 0 0 0.999853 83.5889 434)">2</text><g><text font-family="Aptos,Aptos_MSFontService,sans-serif" font-weight="400" font-size="43" transform="matrix(1 0 0 0.999853 139.502 487)">Ainara arenas 3M</text></g><text fill="#FFFFFF" font-family="Aptos,Aptos_MSFontService,sans-serif" font-weight="700" font-size="43" transform="matrix(1 0 0 0.999853 83.5889 487)">3</text><g><text font-family="Aptos,Aptos_MSFontService,sans-serif" font-weight="400" font-size="43" transform="matrix(1 0 0 0.999853 139.502 540)">Gabriela Bustamante 3M</text></g><text fill="#FFFFFF" font-family="Aptos,Aptos_MSFontService,sans-serif" font-weight="700" font-size="43" transform="matrix(1 0 0 0.999853 83.5889 540)">4</text><g><text font-family="Aptos,Aptos_MSFontService,sans-serif" font-weight="400" font-size="43" transform="matrix(1 0 0 0.999853 139.502 593)">Ana paula ramirez 4M</text></g><text fill="#FFFFFF" font-family="Aptos,Aptos_MSFontService,sans-serif" font-weight="700" font-size="43" transform="matrix(1 0 0 0.999853 83.5889 593)">5</text><g><text font-family="Aptos,Aptos_MSFontService,sans-serif" font-weight="400" font-size="43" transform="matrix(1 0 0 0.999853 139.502 646)">Cecilia tobar 4M</text></g><text fill="#FFFFFF" font-family="Aptos,Aptos_MSFontService,sans-serif" font-weight="700" font-size="43" transform="matrix(1 0 0 0.999853 83.5889 646)">6</text><path d="M57.7209 667.244 132.105 667.244 132.105 720.17 57.7209 720.17Z" fill="#156082" fill-rule="evenodd"/><path d="M132.105 667.244 836.632 667.244 836.632 720.17 132.105 720.17Z" fill="#156082" fill-rule="evenodd"/><path d="M836.632 667.244 1226.15 667.244 1226.15 720.17 836.632 720.17Z" fill="#156082" fill-rule="evenodd"/><path d="M57.7209 720.17 132.105 720.17 132.105 773.096 57.7209 773.096Z" fill="#156082" fill-rule="evenodd"/><path d="M132.105 720.17 836.632 720.17 836.632 773.096 132.105 773.096Z" fill="#CCD2D8" fill-rule="evenodd"/><path d="M836.632 720.17 1226.15 720.17 1226.15 1037.73 836.632 1037.73Z" fill="#CCD2D8" fill-rule="evenodd"/><path d="M57.7209 773.096 132.105 773.096 132.105 826.023 57.7209 826.023Z" fill="#156082" fill-rule="evenodd"/><path d="M132.105 773.096 836.632 773.096 836.632 826.023 132.105 826.023Z" fill="#E7EAED" fill-rule="evenodd"/><path d="M57.7209 826.023 132.105 826.023 132.105 878.949 57.7209 878.949Z" fill="#156082" fill-rule="evenodd"/><path d="M132.105 826.023 836.632 826.023 836.632 878.949 132.105 878.949Z" fill="#CCD2D8" fill-rule="evenodd"/><path d="M57.7209 878.949 132.105 878.949 132.105 931.875 57.7209 931.875Z" fill="#156082" fill-rule="evenodd"/><path d="M132.105 878.949 836.632 878.949 836.632 931.875 132.105 931.875Z" fill="#E7EAED" fill-rule="evenodd"/><path d="M57.7209 931.875 132.105 931.875 132.105 984.802 57.7209 984.802Z" fill="#156082" fill-rule="evenodd"/><path d="M132.105 931.875 836.632 931.875 836.632 984.802 132.105 984.802Z" fill="#CCD2D8" fill-rule="evenodd"/><path d="M57.7209 984.802 132.105 984.802 132.105 1037.73 57.7209 1037.73Z" fill="#156082" fill-rule="evenodd"/><path d="M132.105 984.802 836.632 984.802 836.632 1037.73 132.105 1037.73Z" fill="#E7EAED" fill-rule="evenodd"/><path d="M132.105 666.577 132.105 1038.39" stroke="#FFFFFF" stroke-width="1.33386" stroke-linejoin="round" stroke-miterlimit="10" fill="none" fill-rule="evenodd"/><path d="M836.632 666.577 836.632 1038.39" stroke="#FFFFFF" stroke-width="1.33386" stroke-linejoin="round" stroke-miterlimit="10" fill="none" fill-rule="evenodd"/><path d="M57.0539 720.17 1226.82 720.17" stroke="#FFFFFF" stroke-width="4.00157" stroke-linejoin="round" stroke-miterlimit="10" fill="none" fill-rule="evenodd"/><path d="M57.0539 773.096 837.299 773.096" stroke="#FFFFFF" stroke-width="1.33386" stroke-linejoin="round" stroke-miterlimit="10" fill="none" fill-rule="evenodd"/><path d="M57.0539 826.023 837.299 826.023" stroke="#FFFFFF" stroke-width="1.33386" stroke-linejoin="round" stroke-miterlimit="10" fill="none" fill-rule="evenodd"/><path d="M57.0539 878.949 837.299 878.949" stroke="#FFFFFF" stroke-width="1.33386" stroke-linejoin="round" stroke-miterlimit="10" fill="none" fill-rule="evenodd"/><path d="M57.0539 931.875 837.299 931.875" stroke="#FFFFFF" stroke-width="1.33386" stroke-linejoin="round" stroke-miterlimit="10" fill="none" fill-rule="evenodd"/><path d="M57.0539 984.802 837.299 984.802" stroke="#FFFFFF" stroke-width="1.33386" stroke-linejoin="round" stroke-miterlimit="10" fill="none" fill-rule="evenodd"/><path d="M57.7209 666.577 57.7209 1038.39" stroke="#FFFFFF" stroke-width="1.33386" stroke-linejoin="round" stroke-miterlimit="10" fill="none" fill-rule="evenodd"/><path d="M1226.15 666.577 1226.15 1038.39" stroke="#FFFFFF" stroke-width="1.33386" stroke-linejoin="round" stroke-miterlimit="10" fill="none" fill-rule="evenodd"/><path d="M57.0539 667.244 1226.82 667.244" stroke="#FFFFFF" stroke-width="1.33386" stroke-linejoin="round" stroke-miterlimit="10" fill="none" fill-rule="evenodd"/><path d="M57.0539 1037.73 1226.82 1037.73" stroke="#FFFFFF" stroke-width="1.33386" stroke-linejoin="round" stroke-miterlimit="10" fill="none" fill-rule="evenodd"/><text fill="#FFFFFF" font-family="Aptos,Aptos_MSFontService,sans-serif" font-weight="700" font-size="43" transform="matrix(1 0 0 0.999853 959.365 708)">ORDEN</text><text fill="#FFFFFF" font-family="Aptos,Aptos_MSFontService,sans-serif" font-weight="700" font-size="43" transform="matrix(1 0 0 0.999853 396.667 708)">NOMBRE</text><g><text fill="#FFFFFF" font-family="Aptos,Aptos_MSFontService,sans-serif" font-weight="700" font-size="43" transform="matrix(1 0 0 0.999853 71.4035 708)">N</text></g><g><text fill="#FFFFFF" font-family="Aptos,Aptos_MSFontService,sans-serif" font-weight="700" font-size="43" transform="matrix(1 0 0 0.999853 102.249 708)">°</text></g><text font-family="Aptos,Aptos_MSFontService,sans-serif" font-weight="400" font-size="43" transform="matrix(1 0 0 0.999853 961.294 892)">SERIE 2</text><text font-family="Aptos,Aptos_MSFontService,sans-serif" font-weight="400" font-size="43" transform="matrix(1 0 0 0.999853 872.88 957)">CLASIFICATORIO</text><g><text font-family="Aptos,Aptos_MSFontService,sans-serif" font-weight="400" font-size="43" transform="matrix(1 0 0 0.999853 139.307 761)">Sharick barreto 4M</text></g><text fill="#FFFFFF" font-family="Aptos,Aptos_MSFontService,sans-serif" font-weight="700" font-size="43" transform="matrix(1 0 0 0.999853 83.4916 761)">1</text><g><text font-family="Aptos,Aptos_MSFontService,sans-serif" font-weight="400" font-size="43" transform="matrix(1 0 0 0.999853 139.307 814)">Grace valencia 4M</text></g><text fill="#FFFFFF" font-family="Aptos,Aptos_MSFontService,sans-serif" font-weight="700" font-size="43" transform="matrix(1 0 0 0.999853 83.4916 814)">2</text><g><text font-family="Aptos,Aptos_MSFontService,sans-serif" font-weight="400" font-size="43" transform="matrix(1 0 0 0.999853 139.307 867)">Salome galvez 3T</text></g><text fill="#FFFFFF" font-family="Aptos,Aptos_MSFontService,sans-serif" font-weight="700" font-size="43" transform="matrix(1 0 0 0.999853 83.4916 867)">3</text><g><text font-family="Aptos,Aptos_MSFontService,sans-serif" font-weight="400" font-size="43" transform="matrix(1 0 0 0.999853 139.307 920)">Sarah camila marmolejo 3T</text></g><text fill="#FFFFFF" font-family="Aptos,Aptos_MSFontService,sans-serif" font-weight="700" font-size="43" transform="matrix(1 0 0 0.999853 83.4916 920)">4</text><g><text font-family="Aptos,Aptos_MSFontService,sans-serif" font-weight="400" font-size="43" transform="matrix(1 0 0 0.999853 139.307 973)">Gabriela Esquivel 3T</text></g><text fill="#FFFFFF" font-family="Aptos,Aptos_MSFontService,sans-serif" font-weight="700" font-size="43" transform="matrix(1 0 0 0.999853 83.4916 973)">5</text><g><text font-family="Aptos,Aptos_MSFontService,sans-serif" font-weight="400" font-size="43" transform="matrix(1 0 0 0.999853 139.307 1026)">Danna Isabel garzon 3T</text></g><text fill="#FFFFFF" font-family="Aptos,Aptos_MSFontService,sans-serif" font-weight="700" font-size="43" transform="matrix(1 0 0 0.999853 83.4916 1026)">6</text><path d="M55.4071 1054.3 129.791 1054.3 129.791 1107.22 55.4071 1107.22Z" fill="#156082" fill-rule="evenodd"/><path d="M129.791 1054.3 834.318 1054.3 834.318 1107.22 129.791 1107.22Z" fill="#156082" fill-rule="evenodd"/><path d="M834.318 1054.3 1223.84 1054.3 1223.84 1107.22 834.318 1107.22Z" fill="#156082" fill-rule="evenodd"/><path d="M55.4071 1107.22 129.791 1107.22 129.791 1160.15 55.4071 1160.15Z" fill="#156082" fill-rule="evenodd"/><path d="M129.791 1107.22 834.318 1107.22 834.318 1160.15 129.791 1160.15Z" fill="#CCD2D8" fill-rule="evenodd"/><path d="M834.318 1107.22 1223.84 1107.22 1223.84 1424.78 834.318 1424.78Z" fill="#CCD2D8" fill-rule="evenodd"/><path d="M55.4071 1160.15 129.791 1160.15 129.791 1213.07 55.4071 1213.07Z" fill="#156082" fill-rule="evenodd"/><path d="M129.791 1160.15 834.318 1160.15 834.318 1213.07 129.791 1213.07Z" fill="#E7EAED" fill-rule="evenodd"/><path d="M55.4071 1213.07 129.791 1213.07 129.791 1266 55.4071 1266Z" fill="#156082" fill-rule="evenodd"/><path d="M129.791 1213.07 834.318 1213.07 834.318 1266 129.791 1266Z" fill="#CCD2D8" fill-rule="evenodd"/><path d="M55.4071 1266 129.791 1266 129.791 1318.93 55.4071 1318.93Z" fill="#156082" fill-rule="evenodd"/><path d="M129.791 1266 834.318 1266 834.318 1318.93 129.791 1318.93Z" fill="#E7EAED" fill-rule="evenodd"/><path d="M55.4071 1318.93 129.791 1318.93 129.791 1371.85 55.4071 1371.85Z" fill="#156082" fill-rule="evenodd"/><path d="M129.791 1318.93 834.318 1318.93 834.318 1371.85 129.791 1371.85Z" fill="#CCD2D8" fill-rule="evenodd"/><path d="M55.4071 1371.85 129.791 1371.85 129.791 1424.78 55.4071 1424.78Z" fill="#156082" fill-rule="evenodd"/><path d="M129.791 1371.85 834.318 1371.85 834.318 1424.78 129.791 1424.78Z" fill="#E7EAED" fill-rule="evenodd"/><path d="M129.791 1053.63 129.791 1425.45" stroke="#FFFFFF" stroke-width="1.33386" stroke-linejoin="round" stroke-miterlimit="10" fill="none" fill-rule="evenodd"/><path d="M834.318 1053.63 834.318 1425.45" stroke="#FFFFFF" stroke-width="1.33386" stroke-linejoin="round" stroke-miterlimit="10" fill="none" fill-rule="evenodd"/><path d="M54.7402 1107.22 1224.51 1107.22" stroke="#FFFFFF" stroke-width="4.00157" stroke-linejoin="round" stroke-miterlimit="10" fill="none" fill-rule="evenodd"/><path d="M54.7402 1160.15 834.985 1160.15" stroke="#FFFFFF" stroke-width="1.33386" stroke-linejoin="round" stroke-miterlimit="10" fill="none" fill-rule="evenodd"/><path d="M54.7402 1213.07 834.985 1213.07" stroke="#FFFFFF" stroke-width="1.33386" stroke-linejoin="round" stroke-miterlimit="10" fill="none" fill-rule="evenodd"/><path d="M54.7402 1266 834.985 1266" stroke="#FFFFFF" stroke-width="1.33386" stroke-linejoin="round" stroke-miterlimit="10" fill="none" fill-rule="evenodd"/><path d="M54.7402 1318.93 834.985 1318.93" stroke="#FFFFFF" stroke-width="1.33386" stroke-linejoin="round" stroke-miterlimit="10" fill="none" fill-rule="evenodd"/><path d="M54.7402 1371.85 834.985 1371.85" stroke="#FFFFFF" stroke-width="1.33386" stroke-linejoin="round" stroke-miterlimit="10" fill="none" fill-rule="evenodd"/><path d="M55.4071 1053.63 55.4071 1425.45" stroke="#FFFFFF" stroke-width="1.33386" stroke-linejoin="round" stroke-miterlimit="10" fill="none" fill-rule="evenodd"/><path d="M1223.84 1053.63 1223.84 1425.45" stroke="#FFFFFF" stroke-width="1.33386" stroke-linejoin="round" stroke-miterlimit="10" fill="none" fill-rule="evenodd"/><path d="M54.7402 1054.3 1224.51 1054.3" stroke="#FFFFFF" stroke-width="1.33386" stroke-linejoin="round" stroke-miterlimit="10" fill="none" fill-rule="evenodd"/><path d="M54.7402 1424.78 1224.51 1424.78" stroke="#FFFFFF" stroke-width="1.33386" stroke-linejoin="round" stroke-miterlimit="10" fill="none" fill-rule="evenodd"/><text fill="#FFFFFF" font-family="Aptos,Aptos_MSFontService,sans-serif" font-weight="700" font-size="43" transform="matrix(1 0 0 0.999853 957.051 1095)">ORDEN</text><text fill="#FFFFFF" font-family="Aptos,Aptos_MSFontService,sans-serif" font-weight="700" font-size="43" transform="matrix(1 0 0 0.999853 394.354 1095)">NOMBRE</text><g><text fill="#FFFFFF" font-family="Aptos,Aptos_MSFontService,sans-serif" font-weight="700" font-size="43" transform="matrix(1 0 0 0.999853 69.0898 1095)">N</text></g><g><text fill="#FFFFFF" font-family="Aptos,Aptos_MSFontService,sans-serif" font-weight="700" font-size="43" transform="matrix(1 0 0 0.999853 99.9352 1095)">°</text></g><text font-family="Aptos,Aptos_MSFontService,sans-serif" font-weight="400" font-size="43" transform="matrix(1 0 0 0.999853 958.981 1279)">SERIE 3</text><text font-family="Aptos,Aptos_MSFontService,sans-serif" font-weight="400" font-size="43" transform="matrix(1 0 0 0.999853 870.566 1344)">CLASIFICATORIO</text><g><text font-family="Aptos,Aptos_MSFontService,sans-serif" font-weight="400" font-size="43" transform="matrix(1 0 0 0.999853 136.994 1148)">Evelyn parra 3T</text></g><text fill="#FFFFFF" font-family="Aptos,Aptos_MSFontService,sans-serif" font-weight="700" font-size="43" transform="matrix(1 0 0 0.999853 81.1778 1148)">1</text><g><text font-family="Aptos,Aptos_MSFontService,sans-serif" font-weight="400" font-size="43" transform="matrix(1 0 0 0.999853 136.994 1201)">Melanie parra 3T</text></g><text fill="#FFFFFF" font-family="Aptos,Aptos_MSFontService,sans-serif" font-weight="700" font-size="43" transform="matrix(1 0 0 0.999853 81.1778 1201)">2</text><g><text font-family="Aptos,Aptos_MSFontService,sans-serif" font-weight="400" font-size="43" transform="matrix(1 0 0 0.999853 136.994 1254)">Samara castro 3T</text></g><text fill="#FFFFFF" font-family="Aptos,Aptos_MSFontService,sans-serif" font-weight="700" font-size="43" transform="matrix(1 0 0 0.999853 81.1778 1254)">3</text><g><text font-family="Aptos,Aptos_MSFontService,sans-serif" font-weight="400" font-size="43" transform="matrix(1 0 0 0.999853 136.994 1307)">Ariadna renfigo 3T</text></g><text fill="#FFFFFF" font-family="Aptos,Aptos_MSFontService,sans-serif" font-weight="700" font-size="43" transform="matrix(1 0 0 0.999853 81.1778 1307)">4</text><g><text font-family="Aptos,Aptos_MSFontService,sans-serif" font-weight="400" font-size="43" transform="matrix(1 0 0 0.999853 136.994 1360)">Antonella 4T</text></g><text fill="#FFFFFF" font-family="Aptos,Aptos_MSFontService,sans-serif" font-weight="700" font-size="43" transform="matrix(1 0 0 0.999853 81.1778 1360)">5</text><g><text font-family="Aptos,Aptos_MSFontService,sans-serif" font-weight="400" font-size="43" transform="matrix(1 0 0 0.999853 136.994 1413)">Maia salome 4T</text></g><text fill="#FFFFFF" font-family="Aptos,Aptos_MSFontService,sans-serif" font-weight="700" font-size="43" transform="matrix(1 0 0 0.999853 81.1778 1413)">6</text><path d="M56.564 1438.7 130.721 1438.7 130.721 1491.63 56.564 1491.63Z" fill="#156082" fill-rule="evenodd"/><path d="M130.721 1438.7 833.101 1438.7 833.101 1491.63 130.721 1491.63Z" fill="#156082" fill-rule="evenodd"/><path d="M833.101 1438.7 1221.44 1438.7 1221.44 1491.63 833.101 1491.63Z" fill="#156082" fill-rule="evenodd"/><path d="M56.564 1491.63 130.721 1491.63 130.721 1544.55 56.564 1544.55Z" fill="#156082" fill-rule="evenodd"/><path d="M130.721 1491.63 833.101 1491.63 833.101 1544.55 130.721 1544.55Z" fill="#CCD2D8" fill-rule="evenodd"/><path d="M833.101 1491.63 1221.44 1491.63 1221.44 1756.26 833.101 1756.26Z" fill="#CCD2D8" fill-rule="evenodd"/><path d="M56.564 1544.55 130.721 1544.55 130.721 1597.48 56.564 1597.48Z" fill="#156082" fill-rule="evenodd"/><path d="M130.721 1544.55 833.101 1544.55 833.101 1597.48 130.721 1597.48Z" fill="#E7EAED" fill-rule="evenodd"/><path d="M56.564 1597.48 130.721 1597.48 130.721 1650.41 56.564 1650.41Z" fill="#156082" fill-rule="evenodd"/><path d="M130.721 1597.48 833.101 1597.48 833.101 1650.41 130.721 1650.41Z" fill="#CCD2D8" fill-rule="evenodd"/><path d="M56.564 1650.41 130.721 1650.41 130.721 1703.33 56.564 1703.33Z" fill="#156082" fill-rule="evenodd"/><path d="M130.721 1650.41 833.101 1650.41 833.101 1703.33 130.721 1703.33Z" fill="#E7EAED" fill-rule="evenodd"/><path d="M56.564 1703.33 130.721 1703.33 130.721 1756.26 56.564 1756.26Z" fill="#156082" fill-rule="evenodd"/><path d="M130.721 1703.33 833.101 1703.33 833.101 1756.26 130.721 1756.26Z" fill="#CCD2D8" fill-rule="evenodd"/><path d="M130.721 1438.03 130.721 1756.93" stroke="#FFFFFF" stroke-width="1.33386" stroke-linejoin="round" stroke-miterlimit="10" fill="none" fill-rule="evenodd"/><path d="M833.101 1438.03 833.101 1756.93" stroke="#FFFFFF" stroke-width="1.33386" stroke-linejoin="round" stroke-miterlimit="10" fill="none" fill-rule="evenodd"/><path d="M55.897 1491.63 1222.1 1491.63" stroke="#FFFFFF" stroke-width="4.00157" stroke-linejoin="round" stroke-miterlimit="10" fill="none" fill-rule="evenodd"/><path d="M55.897 1544.55 833.768 1544.55" stroke="#FFFFFF" stroke-width="1.33386" stroke-linejoin="round" stroke-miterlimit="10" fill="none" fill-rule="evenodd"/><path d="M55.897 1597.48 833.768 1597.48" stroke="#FFFFFF" stroke-width="1.33386" stroke-linejoin="round" stroke-miterlimit="10" fill="none" fill-rule="evenodd"/><path d="M55.897 1650.41 833.768 1650.41" stroke="#FFFFFF" stroke-width="1.33386" stroke-linejoin="round" stroke-miterlimit="10" fill="none" fill-rule="evenodd"/><path d="M55.897 1703.33 833.768 1703.33" stroke="#FFFFFF" stroke-width="1.33386" stroke-linejoin="round" stroke-miterlimit="10" fill="none" fill-rule="evenodd"/><path d="M56.564 1438.03 56.564 1756.93" stroke="#FFFFFF" stroke-width="1.33386" stroke-linejoin="round" stroke-miterlimit="10" fill="none" fill-rule="evenodd"/><path d="M1221.44 1438.03 1221.44 1756.93" stroke="#FFFFFF" stroke-width="1.33386" stroke-linejoin="round" stroke-miterlimit="10" fill="none" fill-rule="evenodd"/><path d="M55.897 1438.7 1222.1 1438.7" stroke="#FFFFFF" stroke-width="1.33386" stroke-linejoin="round" stroke-miterlimit="10" fill="none" fill-rule="evenodd"/><path d="M55.897 1756.26 1222.1 1756.26" stroke="#FFFFFF" stroke-width="1.33386" stroke-linejoin="round" stroke-miterlimit="10" fill="none" fill-rule="evenodd"/><text fill="#FFFFFF" font-family="Aptos,Aptos_MSFontService,sans-serif" font-weight="700" font-size="43" transform="matrix(1 0 0 0.999853 955.24 1479)">ORDEN</text><text fill="#FFFFFF" font-family="Aptos,Aptos_MSFontService,sans-serif" font-weight="700" font-size="43" transform="matrix(1 0 0 0.999853 394.21 1479)">NOMBRE</text><g><text fill="#FFFFFF" font-family="Aptos,Aptos_MSFontService,sans-serif" font-weight="700" font-size="43" transform="matrix(1 0 0 0.999853 70.1333 1479)">N</text></g><g><text fill="#FFFFFF" font-family="Aptos,Aptos_MSFontService,sans-serif" font-weight="700" font-size="43" transform="matrix(1 0 0 0.999853 100.979 1479)">°</text></g><text font-family="Aptos,Aptos_MSFontService,sans-serif" font-weight="400" font-size="43" transform="matrix(1 0 0 0.999853 961.518 1598)">SERIE</text><text font-family="Aptos,Aptos_MSFontService,sans-serif" font-weight="400" font-size="43" transform="matrix(1 0 0 0.999853 1078.73 1598)">4</text><text font-family="Aptos,Aptos_MSFontService,sans-serif" font-weight="400" font-size="43" transform="matrix(1 0 0 0.999853 868.762 1663)">CLASIFICATORIO</text><g><text font-family="Aptos,Aptos_MSFontService,sans-serif" font-weight="400" font-size="43" transform="matrix(1 0 0 0.999853 137.924 1532)">Nahiara 4T</text></g><text fill="#FFFFFF" font-family="Aptos,Aptos_MSFontService,sans-serif" font-weight="700" font-size="43" transform="matrix(1 0 0 0.999853 82.2213 1532)">1</text><g><text font-family="Aptos,Aptos_MSFontService,sans-serif" font-weight="400" font-size="43" transform="matrix(1 0 0 0.999853 137.924 1585)">Luciana 4T</text></g><text fill="#FFFFFF" font-family="Aptos,Aptos_MSFontService,sans-serif" font-weight="700" font-size="43" transform="matrix(1 0 0 0.999853 82.2213 1585)">2</text><g><text font-family="Aptos,Aptos_MSFontService,sans-serif" font-weight="400" font-size="43" transform="matrix(1 0 0 0.999853 137.924 1638)">Sara sofia granda 4T</text></g><text fill="#FFFFFF" font-family="Aptos,Aptos_MSFontService,sans-serif" font-weight="700" font-size="43" transform="matrix(1 0 0 0.999853 82.2213 1638)">3</text><g><text font-family="Aptos,Aptos_MSFontService,sans-serif" font-weight="400" font-size="43" transform="matrix(1 0 0 0.999853 137.924 1691)">Mariana ortega 5T</text></g><text fill="#FFFFFF" font-family="Aptos,Aptos_MSFontService,sans-serif" font-weight="700" font-size="43" transform="matrix(1 0 0 0.999853 82.2213 1691)">4</text><g><text font-family="Aptos,Aptos_MSFontService,sans-serif" font-weight="400" font-size="43" transform="matrix(1 0 0 0.999853 137.924 1744)">Mariana sanchez 5M</text></g><text fill="#FFFFFF" font-family="Aptos,Aptos_MSFontService,sans-serif" font-weight="700" font-size="43" transform="matrix(1 0 0 0.999853 82.2213 1744)">5</text><g clip-path="url(#clip3)"><g filter="url(#fx0)" transform="translate(49 1784)"><g><rect x="8.00004" y="7.73767" width="1170" height="211.969" stroke="#F2F2F2" stroke-width="2" stroke-miterlimit="8" fill="#FFFFFF"/></g></g><g filter="url(#fx1)" transform="translate(232 1872)"><g><path d="M262.528 12.048 256.575 28.5822 268.428 28.5822ZM56.5275 12.048 50.5753 28.5822 62.4279 28.5822ZM210.058 11.2976 210.058 23.6142 217.977 23.6142C219.253 23.6142 220.409 23.3727 221.444 22.8897 222.48 22.4067 223.303 21.7081 223.916 20.7938 224.528 19.8795 224.835 18.7756 224.835 17.4818 224.835 15.5325 224.261 14.0145 223.114 12.9278 221.966 11.841 220.297 11.2976 218.106 11.2976ZM181.254 10.7543C178.459 10.7543 176.195 11.3882 174.461 12.6561 172.727 13.924 171.463 15.6231 170.67 17.7535 169.876 19.8839 169.479 22.2514 169.479 24.8562 169.479 27.4437 169.876 29.8027 170.67 31.933 171.463 34.0634 172.727 35.7582 174.461 37.0175 176.195 38.2767 178.459 38.9064 181.254 38.9064 184.049 38.9064 186.309 38.2767 188.034 37.0175 189.76 35.7582 191.023 34.0634 191.826 31.933 192.628 29.8027 193.029 27.4437 193.029 24.8562 193.029 22.2514 192.628 19.8839 191.826 17.7535 191.023 15.6231 189.76 13.924 188.034 12.6561 186.309 11.3882 184.049 10.7543 181.254 10.7543ZM260.095 7.41637 265.012 7.41637 277.874 42.2443 273.06 42.2443 269.748 32.4893 255.307 32.4893 251.84 42.2443 247.052 42.2443ZM238.4 7.41637 243.058 7.41637 243.058 42.2443 238.4 42.2443ZM205.4 7.41637 218.572 7.41637C220.59 7.41637 222.424 7.73551 224.071 8.37376 225.719 9.01201 227.034 10.0125 228.018 11.3753 229.001 12.738 229.493 14.5062 229.493 16.6797 229.493 18.8877 228.876 20.7679 227.642 22.3204 226.409 23.8729 224.602 24.9252 222.221 25.4772 223.532 25.6669 224.61 26.0896 225.456 26.7451 226.301 27.4006 227.004 28.2846 227.565 29.3973 228.126 30.5099 228.613 31.8856 229.027 33.5244L231.304 42.2443 226.543 42.2443 224.55 34.2489C224.205 32.8171 223.795 31.5967 223.321 30.5875 222.846 29.5784 222.212 28.8108 221.419 28.2846 220.625 27.7585 219.564 27.4955 218.235 27.4955L210.058 27.4955 210.058 42.2443 205.4 42.2443ZM99.3996 7.41637 121.63 7.41637 121.63 11.2976 104.058 11.2976 104.058 22.3981 120.232 22.3981 120.232 26.2276 104.058 26.2276 104.058 38.363 121.63 38.363 121.63 42.2443 99.3996 42.2443ZM70.3107 7.41637 94.7404 7.41637 94.7404 11.3235 84.8547 11.3235 84.8547 42.2443 80.2223 42.2443 80.2223 11.3235 70.3107 11.3235ZM54.0949 7.41637 59.0119 7.41637 71.8737 42.2443 67.0602 42.2443 63.7477 32.4893 49.3073 32.4893 45.8395 42.2443 41.0519 42.2443ZM181.254 6.95063C184.894 6.95063 187.939 7.70963 190.389 9.22764 192.839 10.7456 194.69 12.8502 195.94 15.5412 197.191 18.2322 197.817 21.3372 197.817 24.8562 197.817 28.3752 197.191 31.4716 195.94 34.1454 194.69 36.8191 192.839 38.915 190.389 40.433 187.939 41.951 184.894 42.71 181.254 42.71 177.614 42.71 174.56 41.951 172.093 40.433 169.626 38.915 167.767 36.8191 166.516 34.1454 165.265 31.4716 164.64 28.3752 164.64 24.8562 164.64 21.3372 165.265 18.2322 166.516 15.5412 167.767 12.8502 169.626 10.7456 172.093 9.22764 174.56 7.70963 177.614 6.95063 181.254 6.95063ZM143.306 6.95063C145.1 6.95063 146.817 7.17919 148.456 7.63632 150.095 8.09344 151.578 8.78345 152.907 9.70633 154.235 10.6292 155.327 11.7893 156.181 13.1865 157.035 14.5838 157.556 16.2312 157.746 18.1287L153.088 18.1287C152.916 16.8004 152.42 15.58 151.6 14.4673 150.781 13.3547 149.668 12.4577 148.262 11.7763 146.856 11.095 145.186 10.7543 143.254 10.7543 140.459 10.7543 138.182 11.3882 136.422 12.6561 134.662 13.924 133.377 15.6188 132.566 17.7405 131.755 19.8623 131.35 22.2342 131.35 24.8562 131.35 27.461 131.76 29.8199 132.579 31.933 133.399 34.0462 134.688 35.7237 136.448 36.9657 138.208 38.2077 140.494 38.8287 143.306 38.8287 145.738 38.8287 147.735 38.3932 149.297 37.5221 150.858 36.6509 152.023 35.4348 152.79 33.8737 153.558 32.3125 153.959 30.5142 153.994 28.4787L143.823 28.4787 143.823 24.6233 158.549 24.6233 158.549 27.3402C158.549 30.359 157.983 33.0241 156.853 35.3356 155.723 37.6471 154.033 39.4541 151.781 40.7564 149.53 42.0588 146.705 42.71 143.306 42.71 139.683 42.71 136.633 41.9596 134.158 40.4589 131.682 38.9581 129.81 36.8666 128.542 34.1842 127.274 31.5018 126.64 28.3925 126.64 24.8562 126.64 21.3027 127.274 18.1804 128.542 15.4894 129.81 12.7984 131.682 10.7025 134.158 9.20176 136.633 7.701 139.683 6.95063 143.306 6.95063ZM23.2541 6.95063C25.6349 6.95063 27.8821 7.36463 29.9955 8.19263 32.109 9.02064 33.8687 10.2842 35.2748 11.9833 36.6809 13.6825 37.5047 15.8258 37.7462 18.4133L33.0622 18.4133C32.8551 16.671 32.2729 15.235 31.3153 14.1051 30.3578 12.9752 29.176 12.1343 27.7699 11.5823 26.3638 11.0303 24.8585 10.7543 23.2541 10.7543 20.4591 10.7543 18.1947 11.3925 16.4608 12.669 14.727 13.9455 13.4632 15.6447 12.6696 17.7664 11.876 19.8882 11.4792 22.2514 11.4792 24.8562 11.4792 27.4437 11.876 29.7983 12.6696 31.9201 13.4632 34.0418 14.727 35.7281 16.4608 36.9787 18.1947 38.2293 20.4591 38.8546 23.2541 38.8546 26.0835 38.8546 28.3781 38.156 30.1378 36.7587 31.8976 35.3615 32.9155 33.2742 33.1916 30.497L37.9015 30.497C37.6255 33.2397 36.8232 35.5124 35.4948 37.315 34.1663 39.1177 32.4497 40.4675 30.3449 41.3645 28.2401 42.2615 25.8764 42.71 23.2541 42.71 19.6483 42.71 16.6118 41.951 14.1447 40.433 11.6776 38.915 9.80997 36.8191 8.5419 34.1454 7.27383 31.4716 6.6398 28.3752 6.6398 24.8562 6.6398 21.3372 7.27383 18.2322 8.5419 15.5412 9.80997 12.8502 11.6776 10.7456 14.1447 9.22764 16.6118 7.70963 19.6483 6.95063 23.2541 6.95063Z" fill="#FF0000" fill-rule="evenodd"/><path d="M560.359 12.048 554.407 28.5822 566.26 28.5822ZM347.359 12.048 341.407 28.5822 353.26 28.5822ZM557.927 7.41637 562.844 7.41637 575.706 42.2443 570.892 42.2443 567.58 32.4893 553.139 32.4893 549.671 42.2443 544.884 42.2443ZM512.231 7.41637 516.993 7.41637 536.092 35.1286 536.092 7.41637 540.517 7.41637 540.517 42.2443 535.755 42.2443 516.631 14.4803 516.631 42.2443 512.231 42.2443ZM498.231 7.41637 502.89 7.41637 502.89 42.2443 498.231 42.2443ZM471.231 7.41637 475.89 7.41637 475.89 38.2336 492.167 38.2336 492.167 42.2443 471.231 42.2443ZM434.791 7.41637 439.501 7.41637 439.501 28.7375C439.501 32.36 440.291 34.9432 441.869 36.4871 443.448 38.0309 445.73 38.8029 448.714 38.8029 451.716 38.8029 454.002 38.0309 455.572 36.4871 457.142 34.9432 457.927 32.36 457.927 28.7375L457.927 7.41637 462.637 7.41637 462.637 29.3067C462.637 31.8942 462.163 34.2014 461.214 36.2283 460.265 38.2552 458.768 39.8422 456.724 40.9893 454.679 42.1365 452.001 42.71 448.688 42.71 445.428 42.71 442.771 42.1365 440.718 40.9893 438.665 39.8422 437.164 38.2552 436.215 36.2283 435.266 34.2014 434.791 31.8942 434.791 29.3067ZM344.927 7.41637 349.844 7.41637 362.706 42.2443 357.892 42.2443 354.58 32.4893 340.139 32.4893 336.671 42.2443 331.884 42.2443ZM294.231 7.41637 299.33 7.41637 310.772 26.3569 322 7.41637 326.968 7.41637 326.968 42.2443 322.388 42.2443 322.388 14.0112 312.166 31.2991 309.112 31.2991 298.708 13.9703 298.708 42.2443 294.231 42.2443ZM413.086 6.95063C415.467 6.95063 417.714 7.36463 419.827 8.19263 421.941 9.02064 423.701 10.2842 425.107 11.9833 426.513 13.6825 427.337 15.8258 427.578 18.4133L422.894 18.4133C422.687 16.671 422.105 15.235 421.147 14.1051 420.19 12.9752 419.008 12.1343 417.602 11.5823 416.196 11.0303 414.69 10.7543 413.086 10.7543 410.291 10.7543 408.027 11.3925 406.293 12.669 404.559 13.9455 403.295 15.6447 402.501 17.7664 401.708 19.8882 401.311 22.2514 401.311 24.8562 401.311 27.4437 401.708 29.7983 402.501 31.9201 403.295 34.0418 404.559 35.7281 406.293 36.9787 408.027 38.2293 410.291 38.8546 413.086 38.8546 415.915 38.8546 418.21 38.156 419.97 36.7587 421.729 35.3615 422.747 33.2742 423.023 30.497L427.733 30.497C427.457 33.2397 426.655 35.5124 425.327 37.315 423.998 39.1177 422.281 40.4675 420.177 41.3645 418.072 42.2615 415.708 42.71 413.086 42.71 409.48 42.71 406.444 41.951 403.977 40.433 401.509 38.915 399.642 36.8191 398.374 34.1454 397.106 31.4716 396.472 28.3752 396.472 24.8562 396.472 21.3372 397.106 18.2322 398.374 15.5412 399.642 12.8502 401.509 10.7456 403.977 9.22764 406.444 7.70963 409.48 6.95063 413.086 6.95063ZM378.272 6.95063C380.515 6.95063 382.568 7.31288 384.432 8.03738 386.295 8.76189 387.783 9.84864 388.896 11.2976 390.008 12.7467 390.565 14.5493 390.565 16.7055L385.907 16.7055C385.924 14.739 385.199 13.2512 383.733 12.2421 382.266 11.233 380.455 10.7284 378.298 10.7284 376.073 10.7284 374.343 11.1726 373.11 12.061 371.876 12.9493 371.259 14.2474 371.259 15.9552 371.259 16.9729 371.527 17.8225 372.061 18.5039 372.596 19.1852 373.515 19.8019 374.818 20.3539 376.12 20.9059 377.936 21.4838 380.265 22.0876 382.956 22.8121 385.143 23.5883 386.825 24.4163 388.508 25.2443 389.745 26.3052 390.539 27.599 391.333 28.8927 391.729 30.5918 391.729 32.6964 391.729 34.9389 391.169 36.7975 390.047 38.2724 388.926 39.7473 387.399 40.8556 385.467 41.5974 383.534 42.3391 381.352 42.71 378.919 42.71 376.435 42.71 374.192 42.3305 372.191 41.5715 370.19 40.8125 368.598 39.6223 367.416 38.0007 366.234 36.3792 365.643 34.2747 365.643 31.6872L370.328 31.6872C370.328 33.533 370.729 34.982 371.531 36.0342 372.333 37.0865 373.398 37.8282 374.727 38.2595 376.055 38.6907 377.513 38.9064 379.101 38.9064 380.567 38.9064 381.908 38.6864 383.125 38.2466 384.341 37.8067 385.311 37.1426 386.036 36.2542 386.761 35.3658 387.123 34.223 387.123 32.8257 387.123 31.6182 386.838 30.6263 386.269 29.8501 385.7 29.0738 384.755 28.3968 383.435 27.8189 382.115 27.241 380.343 26.6674 378.117 26.0982 375.495 25.4082 373.338 24.6535 371.647 23.8341 369.957 23.0147 368.702 21.9927 367.882 20.7679 367.062 19.5432 366.653 17.9907 366.653 16.1104 366.653 14.1267 367.119 12.4577 368.05 11.1036 368.982 9.74945 370.319 8.71877 372.061 8.01151 373.804 7.30425 375.874 6.95063 378.272 6.95063Z" fill="#FF0000" fill-rule="evenodd"/><path d="M587.406 27.4696 611.784 27.4696 611.784 31.2991 587.406 31.2991Z" fill="#FF0000" fill-rule="evenodd"/><path d="M693.909 11.7893C692.477 11.7893 691.3 12.1774 690.377 12.9537 689.454 13.7299 688.734 14.7692 688.216 16.0716 687.698 17.374 687.341 18.8316 687.142 20.4445 686.944 22.0574 686.845 23.7004 686.845 25.3737 686.845 27.0297 686.944 28.6641 687.142 30.277 687.341 31.8899 687.698 33.3475 688.216 34.6499 688.734 35.9523 689.454 36.9916 690.377 37.7679 691.3 38.5441 692.477 38.9322 693.909 38.9322 695.341 38.9322 696.515 38.5441 697.429 37.7679 698.343 36.9916 699.055 35.9523 699.564 34.6499 700.073 33.3475 700.427 31.8899 700.625 30.277 700.823 28.6641 700.923 27.0297 700.923 25.3737 700.923 23.7004 700.823 22.0574 700.625 20.4445 700.427 18.8316 700.073 17.374 699.564 16.0716 699.055 14.7692 698.343 13.7299 697.429 12.9537 696.515 12.1774 695.341 11.7893 693.909 11.7893ZM665.909 11.7893C664.477 11.7893 663.3 12.1774 662.377 12.9537 661.454 13.7299 660.734 14.7692 660.216 16.0716 659.699 17.374 659.34 18.8316 659.142 20.4445 658.944 22.0574 658.844 23.7004 658.844 25.3737 658.844 27.0297 658.944 28.6641 659.142 30.277 659.34 31.8899 659.699 33.3475 660.216 34.6499 660.734 35.9523 661.454 36.9916 662.377 37.7679 663.3 38.5441 664.477 38.9322 665.909 38.9322 667.341 38.9322 668.515 38.5441 669.429 37.7679 670.343 36.9916 671.055 35.9523 671.564 34.6499 672.073 33.3475 672.427 31.8899 672.625 30.277 672.823 28.6641 672.923 27.0297 672.923 25.3737 672.923 23.7004 672.823 22.0574 672.625 20.4445 672.427 18.8316 672.073 17.374 671.564 16.0716 671.055 14.7692 670.343 13.7299 669.429 12.9537 668.515 12.1774 667.341 11.7893 665.909 11.7893ZM637.194 8.34789 641.205 8.34789 641.205 42.2443 636.677 42.2443 636.677 13.8852C636.211 14.5234 635.551 15.1401 634.697 15.7352 633.843 16.3304 632.829 16.8608 631.656 17.3265 630.483 17.7923 629.172 18.1287 627.722 18.3357L627.722 14.2474C629.154 14.0059 630.487 13.566 631.721 12.9278 632.954 12.2895 634.041 11.5564 634.981 10.7284 635.922 9.90039 636.659 9.10689 637.194 8.34789ZM693.909 8.01151C696.083 8.01151 697.916 8.45139 699.409 9.33114 700.901 10.2109 702.096 11.4486 702.993 13.0442 703.89 14.6398 704.541 16.4856 704.947 18.5815 705.352 20.6774 705.555 22.9414 705.555 25.3737 705.555 27.806 705.352 30.07 704.947 32.1659 704.541 34.2618 703.89 36.0989 702.993 37.6773 702.096 39.2557 700.901 40.4891 699.409 41.3774 697.916 42.2658 696.083 42.71 693.909 42.71 691.736 42.71 689.903 42.2658 688.41 41.3774 686.918 40.4891 685.719 39.2557 684.813 37.6773 683.907 36.0989 683.252 34.2661 682.846 32.1788 682.441 30.0916 682.238 27.8405 682.238 25.4254 682.238 22.9759 682.441 20.6989 682.846 18.5944 683.252 16.4899 683.907 14.6442 684.813 13.0572 685.719 11.4701 686.918 10.2325 688.41 9.34407 689.903 8.4557 691.736 8.01151 693.909 8.01151ZM665.909 8.01151C668.083 8.01151 669.916 8.45139 671.409 9.33114 672.901 10.2109 674.096 11.4486 674.993 13.0442 675.89 14.6398 676.541 16.4856 676.947 18.5815 677.352 20.6774 677.555 22.9414 677.555 25.3737 677.555 27.806 677.352 30.07 676.947 32.1659 676.541 34.2618 675.89 36.0989 674.993 37.6773 674.096 39.2557 672.901 40.4891 671.409 41.3774 669.916 42.2658 668.083 42.71 665.909 42.71 663.736 42.71 661.903 42.2658 660.41 41.3774 658.918 40.4891 657.719 39.2557 656.813 37.6773 655.907 36.0989 655.252 34.2661 654.846 32.1788 654.441 30.0916 654.238 27.8405 654.238 25.4254 654.238 22.9759 654.441 20.6989 654.846 18.5944 655.252 16.4899 655.907 14.6442 656.813 13.0572 657.719 11.4701 658.918 10.2325 660.41 9.34407 661.903 8.4557 663.736 8.01151 665.909 8.01151ZM762.22 7.41637 786.649 7.41637 786.649 11.3235 776.763 11.3235 776.763 42.2443 772.131 42.2443 772.131 11.3235 762.22 11.3235ZM723.308 7.41637 728.406 7.41637 739.849 26.3569 751.076 7.41637 756.045 7.41637 756.045 42.2443 751.465 42.2443 751.465 14.0112 741.242 31.2991 738.189 31.2991 727.785 13.9703 727.785 42.2443 723.308 42.2443ZM800.349 6.95063C802.592 6.95063 804.645 7.31288 806.509 8.03738 808.372 8.76189 809.86 9.84864 810.973 11.2976 812.085 12.7467 812.642 14.5493 812.642 16.7055L807.984 16.7055C808.001 14.739 807.276 13.2512 805.81 12.2421 804.343 11.233 802.532 10.7284 800.375 10.7284 798.15 10.7284 796.42 11.1726 795.187 12.061 793.953 12.9493 793.336 14.2474 793.336 15.9552 793.336 16.9729 793.604 17.8225 794.138 18.5039 794.673 19.1852 795.592 19.8019 796.895 20.3539 798.197 20.9059 800.013 21.4838 802.342 22.0876 805.033 22.8121 807.22 23.5883 808.902 24.4163 810.584 25.2443 811.822 26.3052 812.616 27.599 813.41 28.8927 813.806 30.5918 813.806 32.6964 813.806 34.9389 813.246 36.7975 812.124 38.2724 811.003 39.7473 809.476 40.8556 807.544 41.5974 805.611 42.3391 803.429 42.71 800.996 42.71 798.512 42.71 796.269 42.3305 794.268 41.5715 792.267 40.8125 790.675 39.6223 789.493 38.0007 788.311 36.3792 787.72 34.2747 787.72 31.6872L792.405 31.6872C792.405 33.533 792.806 34.982 793.608 36.0342 794.41 37.0865 795.475 37.8282 796.804 38.2595 798.132 38.6907 799.59 38.9064 801.178 38.9064 802.644 38.9064 803.985 38.6864 805.202 38.2466 806.418 37.8067 807.388 37.1426 808.113 36.2542 808.838 35.3658 809.2 34.223 809.2 32.8257 809.2 31.6182 808.915 30.6263 808.346 29.8501 807.777 29.0738 806.832 28.3968 805.512 27.8189 804.192 27.241 802.42 26.6674 800.194 26.0982 797.572 25.4082 795.415 24.6535 793.724 23.8341 792.034 23.0147 790.779 21.9927 789.959 20.7679 789.139 19.5432 788.73 17.9907 788.73 16.1104 788.73 14.1267 789.196 12.4577 790.127 11.1036 791.059 9.74945 792.396 8.71877 794.138 8.01151 795.881 7.30425 797.951 6.95063 800.349 6.95063Z" fill="#FF0000" fill-rule="evenodd"/></g></g></g><rect x="57" y="1787.74" width="1170" height="211.969" stroke="#F2F2F2" stroke-width="2.00078" stroke-miterlimit="8" fill="#FFFFFF"/><path d="M494.527 1880.05 488.575 1896.58 500.428 1896.58ZM288.527 1880.05 282.575 1896.58 294.428 1896.58ZM442.058 1879.3 442.058 1891.61 449.977 1891.61C451.253 1891.61 452.409 1891.37 453.444 1890.89 454.48 1890.41 455.303 1889.71 455.916 1888.79 456.528 1887.88 456.835 1886.77 456.835 1885.48 456.835 1883.53 456.261 1882.01 455.114 1880.93 453.966 1879.84 452.297 1879.3 450.106 1879.3ZM413.254 1878.75C410.459 1878.75 408.195 1879.39 406.461 1880.66 404.727 1881.92 403.463 1883.62 402.67 1885.75 401.876 1887.88 401.479 1890.25 401.479 1892.86 401.479 1895.44 401.876 1897.8 402.67 1899.93 403.463 1902.06 404.727 1903.76 406.461 1905.02 408.195 1906.28 410.459 1906.91 413.254 1906.91 416.049 1906.91 418.309 1906.28 420.034 1905.02 421.76 1903.76 423.023 1902.06 423.826 1899.93 424.628 1897.8 425.029 1895.44 425.029 1892.86 425.029 1890.25 424.628 1887.88 423.826 1885.75 423.023 1883.62 421.76 1881.92 420.034 1880.66 418.309 1879.39 416.049 1878.75 413.254 1878.75ZM492.095 1875.42 497.012 1875.42 509.874 1910.24 505.06 1910.24 501.748 1900.49 487.307 1900.49 483.84 1910.24 479.052 1910.24ZM470.4 1875.42 475.058 1875.42 475.058 1910.24 470.4 1910.24ZM437.4 1875.42 450.572 1875.42C452.59 1875.42 454.424 1875.73 456.071 1876.37 457.719 1877.01 459.034 1878.01 460.018 1879.37 461.001 1880.74 461.493 1882.51 461.493 1884.68 461.493 1886.89 460.876 1888.77 459.642 1890.32 458.409 1891.87 456.602 1892.92 454.221 1893.48 455.532 1893.67 456.61 1894.09 457.456 1894.74 458.301 1895.4 459.004 1896.28 459.565 1897.4 460.126 1898.51 460.613 1899.88 461.027 1901.52L463.304 1910.24 458.543 1910.24 456.55 1902.25C456.205 1900.82 455.795 1899.6 455.321 1898.59 454.846 1897.58 454.212 1896.81 453.419 1896.28 452.625 1895.76 451.564 1895.49 450.235 1895.49L442.058 1895.49 442.058 1910.24 437.4 1910.24ZM331.4 1875.42 353.63 1875.42 353.63 1879.3 336.058 1879.3 336.058 1890.4 352.232 1890.4 352.232 1894.23 336.058 1894.23 336.058 1906.36 353.63 1906.36 353.63 1910.24 331.4 1910.24ZM302.311 1875.42 326.74 1875.42 326.74 1879.32 316.855 1879.32 316.855 1910.24 312.222 1910.24 312.222 1879.32 302.311 1879.32ZM286.095 1875.42 291.012 1875.42 303.874 1910.24 299.06 1910.24 295.748 1900.49 281.307 1900.49 277.839 1910.24 273.052 1910.24ZM413.254 1874.95C416.894 1874.95 419.939 1875.71 422.389 1877.23 424.839 1878.74 426.69 1880.85 427.94 1883.54 429.191 1886.23 429.817 1889.34 429.817 1892.86 429.817 1896.37 429.191 1899.47 427.94 1902.14 426.69 1904.82 424.839 1906.91 422.389 1908.43 419.939 1909.95 416.894 1910.71 413.254 1910.71 409.614 1910.71 406.56 1909.95 404.093 1908.43 401.626 1906.91 399.767 1904.82 398.516 1902.14 397.265 1899.47 396.64 1896.37 396.64 1892.86 396.64 1889.34 397.265 1886.23 398.516 1883.54 399.767 1880.85 401.626 1878.74 404.093 1877.23 406.56 1875.71 409.614 1874.95 413.254 1874.95ZM375.306 1874.95C377.1 1874.95 378.817 1875.18 380.456 1875.64 382.095 1876.09 383.578 1876.78 384.907 1877.71 386.235 1878.63 387.327 1879.79 388.181 1881.19 389.035 1882.58 389.556 1884.23 389.746 1886.13L385.088 1886.13C384.915 1884.8 384.419 1883.58 383.6 1882.47 382.78 1881.35 381.668 1880.46 380.262 1879.78 378.856 1879.09 377.186 1878.75 375.254 1878.75 372.459 1878.75 370.182 1879.39 368.422 1880.66 366.662 1881.92 365.377 1883.62 364.566 1885.74 363.755 1887.86 363.35 1890.23 363.35 1892.86 363.35 1895.46 363.759 1897.82 364.579 1899.93 365.398 1902.05 366.688 1903.72 368.448 1904.96 370.208 1906.21 372.494 1906.83 375.306 1906.83 377.738 1906.83 379.735 1906.39 381.297 1905.52 382.858 1904.65 384.023 1903.43 384.79 1901.87 385.558 1900.31 385.959 1898.51 385.994 1896.48L375.823 1896.48 375.823 1892.62 390.548 1892.62 390.548 1895.34C390.548 1898.36 389.983 1901.02 388.853 1903.33 387.723 1905.65 386.033 1907.45 383.781 1908.76 381.53 1910.06 378.705 1910.71 375.306 1910.71 371.683 1910.71 368.633 1909.96 366.158 1908.46 363.682 1906.96 361.81 1904.87 360.542 1902.18 359.274 1899.5 358.64 1896.39 358.64 1892.86 358.64 1889.3 359.274 1886.18 360.542 1883.49 361.81 1880.8 363.682 1878.7 366.158 1877.2 368.633 1875.7 371.683 1874.95 375.306 1874.95ZM255.254 1874.95C257.635 1874.95 259.882 1875.36 261.996 1876.19 264.109 1877.02 265.869 1878.28 267.275 1879.98 268.681 1881.68 269.505 1883.82 269.746 1886.41L265.062 1886.41C264.855 1884.67 264.273 1883.23 263.315 1882.1 262.358 1880.97 261.176 1880.13 259.77 1879.58 258.364 1879.03 256.859 1878.75 255.254 1878.75 252.459 1878.75 250.195 1879.39 248.461 1880.67 246.727 1881.94 245.463 1883.64 244.67 1885.77 243.876 1887.89 243.479 1890.25 243.479 1892.86 243.479 1895.44 243.876 1897.8 244.67 1899.92 245.463 1902.04 246.727 1903.73 248.461 1904.98 250.195 1906.23 252.459 1906.85 255.254 1906.85 258.083 1906.85 260.378 1906.16 262.138 1904.76 263.898 1903.36 264.915 1901.27 265.192 1898.5L269.902 1898.5C269.625 1901.24 268.823 1903.51 267.495 1905.31 266.166 1907.12 264.45 1908.47 262.345 1909.36 260.24 1910.26 257.876 1910.71 255.254 1910.71 251.648 1910.71 248.612 1909.95 246.145 1908.43 243.678 1906.91 241.81 1904.82 240.542 1902.14 239.274 1899.47 238.64 1896.37 238.64 1892.86 238.64 1889.34 239.274 1886.23 240.542 1883.54 241.81 1880.85 243.678 1878.74 246.145 1877.23 248.612 1875.71 251.648 1874.95 255.254 1874.95Z" fill="url(#fill4)" fill-rule="evenodd"/><text fill="#000000" fill-opacity="0" font-family="Arial,Arial_MSFontService,sans-serif" font-size="35.7593" x="238.64" y="1906.24">CATEGORIA</text><path d="M792.359 1880.05 786.407 1896.58 798.26 1896.58ZM579.359 1880.05 573.407 1896.58 585.26 1896.58ZM789.927 1875.42 794.844 1875.42 807.706 1910.24 802.892 1910.24 799.58 1900.49 785.139 1900.49 781.671 1910.24 776.884 1910.24ZM744.231 1875.42 748.993 1875.42 768.092 1903.13 768.092 1875.42 772.517 1875.42 772.517 1910.24 767.755 1910.24 748.631 1882.48 748.631 1910.24 744.231 1910.24ZM730.231 1875.42 734.89 1875.42 734.89 1910.24 730.231 1910.24ZM703.231 1875.42 707.89 1875.42 707.89 1906.23 724.167 1906.23 724.167 1910.24 703.231 1910.24ZM666.791 1875.42 671.501 1875.42 671.501 1896.74C671.501 1900.36 672.291 1902.94 673.869 1904.49 675.448 1906.03 677.73 1906.8 680.714 1906.8 683.716 1906.8 686.002 1906.03 687.572 1904.49 689.142 1902.94 689.927 1900.36 689.927 1896.74L689.927 1875.42 694.637 1875.42 694.637 1897.31C694.637 1899.89 694.163 1902.2 693.214 1904.23 692.265 1906.25 690.768 1907.84 688.724 1908.99 686.679 1910.14 684.001 1910.71 680.688 1910.71 677.428 1910.71 674.771 1910.14 672.718 1908.99 670.665 1907.84 669.164 1906.25 668.215 1904.23 667.266 1902.2 666.791 1899.89 666.791 1897.31ZM576.927 1875.42 581.844 1875.42 594.706 1910.24 589.892 1910.24 586.58 1900.49 572.139 1900.49 568.671 1910.24 563.884 1910.24ZM526.231 1875.42 531.33 1875.42 542.772 1894.36 554 1875.42 558.968 1875.42 558.968 1910.24 554.388 1910.24 554.388 1882.01 544.166 1899.3 541.112 1899.3 530.708 1881.97 530.708 1910.24 526.231 1910.24ZM645.086 1874.95C647.467 1874.95 649.714 1875.36 651.827 1876.19 653.941 1877.02 655.701 1878.28 657.107 1879.98 658.513 1881.68 659.337 1883.82 659.578 1886.41L654.894 1886.41C654.687 1884.67 654.105 1883.23 653.147 1882.1 652.19 1880.97 651.008 1880.13 649.602 1879.58 648.196 1879.03 646.69 1878.75 645.086 1878.75 642.291 1878.75 640.027 1879.39 638.293 1880.67 636.559 1881.94 635.295 1883.64 634.501 1885.77 633.708 1887.89 633.311 1890.25 633.311 1892.86 633.311 1895.44 633.708 1897.8 634.501 1899.92 635.295 1902.04 636.559 1903.73 638.293 1904.98 640.027 1906.23 642.291 1906.85 645.086 1906.85 647.915 1906.85 650.21 1906.16 651.97 1904.76 653.729 1903.36 654.747 1901.27 655.023 1898.5L659.733 1898.5C659.457 1901.24 658.655 1903.51 657.327 1905.31 655.998 1907.12 654.281 1908.47 652.177 1909.36 650.072 1910.26 647.708 1910.71 645.086 1910.71 641.48 1910.71 638.444 1909.95 635.977 1908.43 633.509 1906.91 631.642 1904.82 630.374 1902.14 629.106 1899.47 628.472 1896.37 628.472 1892.86 628.472 1889.34 629.106 1886.23 630.374 1883.54 631.642 1880.85 633.509 1878.74 635.977 1877.23 638.444 1875.71 641.48 1874.95 645.086 1874.95ZM610.272 1874.95C612.515 1874.95 614.568 1875.31 616.432 1876.04 618.295 1876.76 619.783 1877.85 620.896 1879.3 622.008 1880.75 622.565 1882.55 622.565 1884.7L617.907 1884.7C617.924 1882.74 617.199 1881.25 615.733 1880.24 614.266 1879.23 612.455 1878.73 610.298 1878.73 608.073 1878.73 606.343 1879.17 605.11 1880.06 603.876 1880.95 603.259 1882.25 603.259 1883.95 603.259 1884.97 603.527 1885.82 604.061 1886.5 604.596 1887.18 605.515 1887.8 606.818 1888.35 608.12 1888.9 609.936 1889.48 612.265 1890.09 614.956 1890.81 617.143 1891.59 618.825 1892.42 620.508 1893.24 621.745 1894.3 622.539 1895.6 623.333 1896.89 623.729 1898.59 623.729 1900.7 623.729 1902.94 623.169 1904.8 622.047 1906.27 620.926 1907.75 619.399 1908.85 617.467 1909.6 615.534 1910.34 613.352 1910.71 610.919 1910.71 608.435 1910.71 606.192 1910.33 604.191 1909.57 602.19 1908.81 600.598 1907.62 599.416 1906 598.234 1904.38 597.643 1902.27 597.643 1899.69L602.328 1899.69C602.328 1901.53 602.729 1902.98 603.531 1904.03 604.333 1905.09 605.398 1905.83 606.727 1906.26 608.055 1906.69 609.513 1906.91 611.101 1906.91 612.567 1906.91 613.908 1906.69 615.125 1906.25 616.341 1905.81 617.311 1905.14 618.036 1904.25 618.761 1903.36 619.123 1902.22 619.123 1900.82 619.123 1899.62 618.838 1898.63 618.269 1897.85 617.7 1897.07 616.755 1896.4 615.435 1895.82 614.115 1895.24 612.343 1894.67 610.117 1894.1 607.495 1893.41 605.338 1892.65 603.647 1891.83 601.957 1891.01 600.702 1889.99 599.882 1888.77 599.062 1887.54 598.653 1885.99 598.653 1884.11 598.653 1882.13 599.119 1880.46 600.05 1879.1 600.982 1877.75 602.319 1876.72 604.061 1876.01 605.804 1875.3 607.874 1874.95 610.272 1874.95Z" fill="url(#fill5)" fill-rule="evenodd"/><text fill="#000000" fill-opacity="0" font-family="Arial,Arial_MSFontService,sans-serif" font-size="35.7593" x="526.231" y="1906.24">MASCULINA</text><path d="M819.406 1895.47 843.784 1895.47 843.784 1899.3 819.406 1899.3Z" fill="url(#fill6)" fill-rule="evenodd"/><text fill="#000000" fill-opacity="0" font-family="Arial,Arial_MSFontService,sans-serif" font-size="3.82947" x="819.406" y="1898.82">–</text><path d="M925.909 1879.79C924.477 1879.79 923.3 1880.18 922.377 1880.95 921.454 1881.73 920.734 1882.77 920.216 1884.07 919.698 1885.37 919.341 1886.83 919.142 1888.44 918.944 1890.06 918.845 1891.7 918.845 1893.37 918.845 1895.03 918.944 1896.66 919.142 1898.28 919.341 1899.89 919.698 1901.35 920.216 1902.65 920.734 1903.95 921.454 1904.99 922.377 1905.77 923.3 1906.54 924.477 1906.93 925.909 1906.93 927.341 1906.93 928.515 1906.54 929.429 1905.77 930.343 1904.99 931.055 1903.95 931.564 1902.65 932.073 1901.35 932.427 1899.89 932.625 1898.28 932.823 1896.66 932.923 1895.03 932.923 1893.37 932.923 1891.7 932.823 1890.06 932.625 1888.44 932.427 1886.83 932.073 1885.37 931.564 1884.07 931.055 1882.77 930.343 1881.73 929.429 1880.95 928.515 1880.18 927.341 1879.79 925.909 1879.79ZM897.909 1879.79C896.477 1879.79 895.3 1880.18 894.377 1880.95 893.454 1881.73 892.734 1882.77 892.216 1884.07 891.699 1885.37 891.34 1886.83 891.142 1888.44 890.944 1890.06 890.844 1891.7 890.844 1893.37 890.844 1895.03 890.944 1896.66 891.142 1898.28 891.34 1899.89 891.699 1901.35 892.216 1902.65 892.734 1903.95 893.454 1904.99 894.377 1905.77 895.3 1906.54 896.477 1906.93 897.909 1906.93 899.341 1906.93 900.515 1906.54 901.429 1905.77 902.343 1904.99 903.055 1903.95 903.564 1902.65 904.073 1901.35 904.427 1899.89 904.625 1898.28 904.823 1896.66 904.923 1895.03 904.923 1893.37 904.923 1891.7 904.823 1890.06 904.625 1888.44 904.427 1886.83 904.073 1885.37 903.564 1884.07 903.055 1882.77 902.343 1881.73 901.429 1880.95 900.515 1880.18 899.341 1879.79 897.909 1879.79ZM869.194 1876.35 873.205 1876.35 873.205 1910.24 868.677 1910.24 868.677 1881.88C868.211 1882.52 867.551 1883.14 866.697 1883.73 865.843 1884.33 864.829 1884.86 863.656 1885.33 862.483 1885.79 861.172 1886.13 859.722 1886.33L859.722 1882.25C861.154 1882 862.487 1881.57 863.721 1880.93 864.954 1880.29 866.041 1879.56 866.981 1878.73 867.922 1877.9 868.659 1877.11 869.194 1876.35ZM925.909 1876.01C928.083 1876.01 929.916 1876.45 931.409 1877.33 932.901 1878.21 934.096 1879.45 934.993 1881.04 935.89 1882.64 936.541 1884.48 936.947 1886.58 937.352 1888.68 937.555 1890.94 937.555 1893.37 937.555 1895.8 937.352 1898.07 936.947 1900.16 936.541 1902.26 935.89 1904.1 934.993 1905.68 934.096 1907.25 932.901 1908.49 931.409 1909.38 929.916 1910.26 928.083 1910.71 925.909 1910.71 923.736 1910.71 921.903 1910.26 920.41 1909.38 918.918 1908.49 917.719 1907.25 916.813 1905.68 915.907 1904.1 915.252 1902.27 914.846 1900.18 914.441 1898.09 914.238 1895.84 914.238 1893.42 914.238 1890.97 914.441 1888.7 914.846 1886.59 915.252 1884.49 915.907 1882.64 916.813 1881.06 917.719 1879.47 918.918 1878.23 920.41 1877.34 921.903 1876.45 923.736 1876.01 925.909 1876.01ZM897.909 1876.01C900.083 1876.01 901.916 1876.45 903.409 1877.33 904.901 1878.21 906.096 1879.45 906.993 1881.04 907.89 1882.64 908.541 1884.48 908.947 1886.58 909.352 1888.68 909.555 1890.94 909.555 1893.37 909.555 1895.8 909.352 1898.07 908.947 1900.16 908.541 1902.26 907.89 1904.1 906.993 1905.68 906.096 1907.25 904.901 1908.49 903.409 1909.38 901.916 1910.26 900.083 1910.71 897.909 1910.71 895.736 1910.71 893.903 1910.26 892.41 1909.38 890.918 1908.49 889.719 1907.25 888.813 1905.68 887.907 1904.1 887.252 1902.27 886.846 1900.18 886.441 1898.09 886.238 1895.84 886.238 1893.42 886.238 1890.97 886.441 1888.7 886.846 1886.59 887.252 1884.49 887.907 1882.64 888.813 1881.06 889.719 1879.47 890.918 1878.23 892.41 1877.34 893.903 1876.45 895.736 1876.01 897.909 1876.01ZM994.22 1875.42 1018.65 1875.42 1018.65 1879.32 1008.76 1879.32 1008.76 1910.24 1004.13 1910.24 1004.13 1879.32 994.22 1879.32ZM955.308 1875.42 960.406 1875.42 971.849 1894.36 983.076 1875.42 988.045 1875.42 988.045 1910.24 983.465 1910.24 983.465 1882.01 973.242 1899.3 970.189 1899.3 959.785 1881.97 959.785 1910.24 955.308 1910.24ZM1032.35 1874.95C1034.59 1874.95 1036.65 1875.31 1038.51 1876.04 1040.37 1876.76 1041.86 1877.85 1042.97 1879.3 1044.09 1880.75 1044.64 1882.55 1044.64 1884.7L1039.98 1884.7C1040 1882.74 1039.28 1881.25 1037.81 1880.24 1036.34 1879.23 1034.53 1878.73 1032.38 1878.73 1030.15 1878.73 1028.42 1879.17 1027.19 1880.06 1025.95 1880.95 1025.34 1882.25 1025.34 1883.95 1025.34 1884.97 1025.6 1885.82 1026.14 1886.5 1026.67 1887.18 1027.59 1887.8 1028.89 1888.35 1030.2 1888.9 1032.01 1889.48 1034.34 1890.09 1037.03 1890.81 1039.22 1891.59 1040.9 1892.42 1042.58 1893.24 1043.82 1894.3 1044.62 1895.6 1045.41 1896.89 1045.81 1898.59 1045.81 1900.7 1045.81 1902.94 1045.25 1904.8 1044.12 1906.27 1043 1907.75 1041.48 1908.85 1039.54 1909.6 1037.61 1910.34 1035.43 1910.71 1033 1910.71 1030.51 1910.71 1028.27 1910.33 1026.27 1909.57 1024.27 1908.81 1022.67 1907.62 1021.49 1906 1020.31 1904.38 1019.72 1902.27 1019.72 1899.69L1024.4 1899.69C1024.4 1901.53 1024.81 1902.98 1025.61 1904.03 1026.41 1905.09 1027.48 1905.83 1028.8 1906.26 1030.13 1906.69 1031.59 1906.91 1033.18 1906.91 1034.64 1906.91 1035.99 1906.69 1037.2 1906.25 1038.42 1905.81 1039.39 1905.14 1040.11 1904.25 1040.84 1903.36 1041.2 1902.22 1041.2 1900.82 1041.2 1899.62 1040.92 1898.63 1040.35 1897.85 1039.78 1897.07 1038.83 1896.4 1037.51 1895.82 1036.19 1895.24 1034.42 1894.67 1032.19 1894.1 1029.57 1893.41 1027.42 1892.65 1025.72 1891.83 1024.03 1891.01 1022.78 1889.99 1021.96 1888.77 1021.14 1887.54 1020.73 1885.99 1020.73 1884.11 1020.73 1882.13 1021.2 1880.46 1022.13 1879.1 1023.06 1877.75 1024.4 1876.72 1026.14 1876.01 1027.88 1875.3 1029.95 1874.95 1032.35 1874.95Z" fill="url(#fill7)" fill-rule="evenodd"/><text fill="#000000" fill-opacity="0" font-family="Arial,Arial_MSFontService,sans-serif" font-size="35.7593" x="859.722" y="1906.24">100 MTS</text><g clip-path="url(#clip8)"><g filter="url(#fx2)" transform="translate(549 62)"><g><path d="M9.00006 91.9789 49.5001 91.9789 49.5001 7.99125 130.5 7.99125 130.5 91.9789 171 91.9789 90 172.967Z" stroke="#F2F2F2" stroke-width="2" stroke-miterlimit="8" fill="#FFFFFF" fill-rule="evenodd"/></g></g></g><path d="M558 149.978 598.5 149.978 598.5 65.9903 679.5 65.9903 679.5 149.978 720 149.978 639 230.966Z" stroke="#F2F2F2" stroke-width="2.00078" stroke-miterlimit="8" fill="#FFFFFF" fill-rule="evenodd"/></g></svg>