<svg width="1278" height="2049" xmlns="http://www.w3.org/2000/svg" xmlns:xlink="http://www.w3.org/1999/xlink" overflow="hidden"><defs><linearGradient x1="627.257" y1="-3.71477" x2="650.66" y2="93.0359" gradientUnits="userSpaceOnUse" spreadMethod="reflect" id="fill0"><stop offset="0" stop-color="#002C3F"/><stop offset="0.5" stop-color="#00445F"/><stop offset="1" stop-color="#005272"/></linearGradient><linearGradient x1="627.257" y1="-3.71477" x2="650.66" y2="93.0359" gradientUnits="userSpaceOnUse" spreadMethod="reflect" id="fill1"><stop offset="0" stop-color="#002C3F"/><stop offset="0.5" stop-color="#00445F"/><stop offset="1" stop-color="#005272"/></linearGradient><linearGradient x1="627.257" y1="-3.71477" x2="650.66" y2="93.0359" gradientUnits="userSpaceOnUse" spreadMethod="reflect" id="fill2"><stop offset="0" stop-color="#002C3F"/><stop offset="0.5" stop-color="#00445F"/><stop offset="1" stop-color="#005272"/></linearGradient><linearGradient x1="627.257" y1="459.241" x2="650.66" y2="555.992" gradientUnits="userSpaceOnUse" spreadMethod="reflect" id="fill3"><stop offset="0" stop-color="#002C3F"/><stop offset="0.5" stop-color="#00445F"/><stop offset="1" stop-color="#005272"/></linearGradient><linearGradient x1="627.257" y1="459.241" x2="650.66" y2="555.992" gradientUnits="userSpaceOnUse" spreadMethod="reflect" id="fill4"><stop offset="0" stop-color="#002C3F"/><stop offset="0.5" stop-color="#00445F"/><stop offset="1" stop-color="#005272"/></linearGradient><linearGradient x1="627.257" y1="459.241" x2="650.66" y2="555.992" gradientUnits="userSpaceOnUse" spreadMethod="reflect" id="fill5"><stop offset="0" stop-color="#002C3F"/><stop offset="0.5" stop-color="#00445F"/><stop offset="1" stop-color="#005272"/></linearGradient></defs><g><rect x="0" y="0" width="1278" height="2048.7" fill="#FFFFFF"/><path d="M50.2363 78.9611 125.194 78.9611 125.194 131.887 50.2363 131.887Z" fill="#156082" fill-rule="evenodd"/><path d="M125.194 78.9611 835.154 78.9611 835.154 131.887 125.194 131.887Z" fill="#156082" fill-rule="evenodd"/><path d="M835.154 78.9611 1227.68 78.9611 1227.68 131.887 835.154 131.887Z" fill="#156082" fill-rule="evenodd"/><path d="M50.2363 131.887 125.194 131.887 125.194 184.814 50.2363 184.814Z" fill="#156082" fill-rule="evenodd"/><path d="M125.194 131.887 835.154 131.887 835.154 184.814 125.194 184.814Z" fill="#CCD2D8" fill-rule="evenodd"/><path d="M835.154 131.887 1227.68 131.887 1227.68 449.445 835.154 449.445Z" fill="#CCD2D8" fill-rule="evenodd"/><path d="M50.2363 184.814 125.194 184.814 125.194 237.74 50.2363 237.74Z" fill="#156082" fill-rule="evenodd"/><path d="M125.194 184.814 835.154 184.814 835.154 237.74 125.194 237.74Z" fill="#E7EAED" fill-rule="evenodd"/><path d="M50.2363 237.74 125.194 237.74 125.194 290.666 50.2363 290.666Z" fill="#156082" fill-rule="evenodd"/><path d="M125.194 237.74 835.154 237.74 835.154 290.666 125.194 290.666Z" fill="#CCD2D8" fill-rule="evenodd"/><path d="M50.2363 290.666 125.194 290.666 125.194 343.593 50.2363 343.593Z" fill="#156082" fill-rule="evenodd"/><path d="M125.194 290.666 835.154 290.666 835.154 343.593 125.194 343.593Z" fill="#E7EAED" fill-rule="evenodd"/><path d="M50.2363 343.593 125.194 343.593 125.194 396.519 50.2363 396.519Z" fill="#156082" fill-rule="evenodd"/><path d="M125.194 343.593 835.154 343.593 835.154 396.519 125.194 396.519Z" fill="#CCD2D8" fill-rule="evenodd"/><path d="M50.2363 396.519 125.194 396.519 125.194 449.445 50.2363 449.445Z" fill="#156082" fill-rule="evenodd"/><path d="M125.194 396.519 835.154 396.519 835.154 449.445 125.194 449.445Z" fill="#E7EAED" fill-rule="evenodd"/><path d="M125.194 78.2943 125.194 450.112" stroke="#FFFFFF" stroke-width="1.33386" stroke-linejoin="round" stroke-miterlimit="10" fill="none" fill-rule="evenodd"/><path d="M835.154 78.2943 835.154 450.112" stroke="#FFFFFF" stroke-width="1.33386" stroke-linejoin="round" stroke-miterlimit="10" fill="none" fill-rule="evenodd"/><path d="M49.5694 131.887 1228.35 131.887" stroke="#FFFFFF" stroke-width="4.00157" stroke-linejoin="round" stroke-miterlimit="10" fill="none" fill-rule="evenodd"/><path d="M49.5694 184.814 835.821 184.814" stroke="#FFFFFF" stroke-width="1.33386" stroke-linejoin="round" stroke-miterlimit="10" fill="none" fill-rule="evenodd"/><path d="M49.5694 237.74 835.821 237.74" stroke="#FFFFFF" stroke-width="1.33386" stroke-linejoin="round" stroke-miterlimit="10" fill="none" fill-rule="evenodd"/><path d="M49.5694 290.666 835.821 290.666" stroke="#FFFFFF" stroke-width="1.33386" stroke-linejoin="round" stroke-miterlimit="10" fill="none" fill-rule="evenodd"/><path d="M49.5694 343.593 835.821 343.593" stroke="#FFFFFF" stroke-width="1.33386" stroke-linejoin="round" stroke-miterlimit="10" fill="none" fill-rule="evenodd"/><path d="M49.5694 396.519 835.821 396.519" stroke="#FFFFFF" stroke-width="1.33386" stroke-linejoin="round" stroke-miterlimit="10" fill="none" fill-rule="evenodd"/><path d="M50.2363 78.2943 50.2363 450.112" stroke="#FFFFFF" stroke-width="1.33386" stroke-linejoin="round" stroke-miterlimit="10" fill="none" fill-rule="evenodd"/><path d="M1227.68 78.2943 1227.68 450.112" stroke="#FFFFFF" stroke-width="1.33386" stroke-linejoin="round" stroke-miterlimit="10" fill="none" fill-rule="evenodd"/><path d="M49.5694 78.9611 1228.35 78.9611" stroke="#FFFFFF" stroke-width="1.33386" stroke-linejoin="round" stroke-miterlimit="10" fill="none" fill-rule="evenodd"/><path d="M49.5694 449.445 1228.35 449.445" stroke="#FFFFFF" stroke-width="1.33386" stroke-linejoin="round" stroke-miterlimit="10" fill="none" fill-rule="evenodd"/><text fill="#FFFFFF" font-family="Aptos,Aptos_MSFontService,sans-serif" font-weight="700" font-size="43" transform="matrix(1 0 0 0.999853 953.847 120)">EQUIPO</text><text fill="#FFFFFF" font-family="Aptos,Aptos_MSFontService,sans-serif" font-weight="700" font-size="43" transform="matrix(1 0 0 0.999853 392.473 120)">NOMBRE</text><g><text fill="#FFFFFF" font-family="Aptos,Aptos_MSFontService,sans-serif" font-weight="700" font-size="43" transform="matrix(1 0 0 0.999853 64.2058 120)">N</text></g><g><text fill="#FFFFFF" font-family="Aptos,Aptos_MSFontService,sans-serif" font-weight="700" font-size="43" transform="matrix(1 0 0 0.999853 95.0512 120)">°</text></g><text font-family="Aptos,Aptos_MSFontService,sans-serif" font-weight="400" font-size="43" transform="matrix(1 0 0 0.999853 1003.09 304)">M3</text><g><text font-family="Aptos,Aptos_MSFontService,sans-serif" font-weight="400" font-size="43" transform="matrix(1 0 0 0.999853 132.396 173)">Pablo castaño 4T</text></g><text fill="#FFFFFF" font-family="Aptos,Aptos_MSFontService,sans-serif" font-weight="700" font-size="43" transform="matrix(1 0 0 0.999853 76.2938 173)">1</text><g><text font-family="Aptos,Aptos_MSFontService,sans-serif" font-weight="400" font-size="43" transform="matrix(1 0 0 0.999853 132.396 226)">Anthony posso 4T</text></g><text fill="#FFFFFF" font-family="Aptos,Aptos_MSFontService,sans-serif" font-weight="700" font-size="43" transform="matrix(1 0 0 0.999853 76.2938 226)">2</text><g><text font-family="Aptos,Aptos_MSFontService,sans-serif" font-weight="400" font-size="43" transform="matrix(1 0 0 0.999853 132.396 279)">Ana sofia catasmuscay 3T</text></g><text fill="#FFFFFF" font-family="Aptos,Aptos_MSFontService,sans-serif" font-weight="700" font-size="43" transform="matrix(1 0 0 0.999853 76.2938 279)">3</text><g><text font-family="Aptos,Aptos_MSFontService,sans-serif" font-weight="400" font-size="43" transform="matrix(1 0 0 0.999853 132.396 332)">Ana Beatriz 4T</text></g><text fill="#FFFFFF" font-family="Aptos,Aptos_MSFontService,sans-serif" font-weight="700" font-size="43" transform="matrix(1 0 0 0.999853 76.2938 332)">4</text><g><text font-family="Aptos,Aptos_MSFontService,sans-serif" font-weight="400" font-size="43" transform="matrix(1 0 0 0.999853 132.396 385)">Alisson huertas 4T</text></g><text fill="#FFFFFF" font-family="Aptos,Aptos_MSFontService,sans-serif" font-weight="700" font-size="43" transform="matrix(1 0 0 0.999853 76.2938 385)">5</text><g><text font-family="Aptos,Aptos_MSFontService,sans-serif" font-weight="400" font-size="43" transform="matrix(1 0 0 0.999853 132.396 437)">Mariana acevedo 4T</text></g><text fill="#FFFFFF" font-family="Aptos,Aptos_MSFontService,sans-serif" font-weight="700" font-size="43" transform="matrix(1 0 0 0.999853 76.2938 437)">6</text><path d="M50.3196 545.36 125.272 545.36 125.272 598.287 50.3196 598.287Z" fill="#156082" fill-rule="evenodd"/><path d="M125.272 545.36 835.182 545.36 835.182 598.287 125.272 598.287Z" fill="#156082" fill-rule="evenodd"/><path d="M835.182 545.36 1227.68 545.36 1227.68 598.287 835.182 598.287Z" fill="#156082" fill-rule="evenodd"/><path d="M50.3196 598.287 125.272 598.287 125.272 651.213 50.3196 651.213Z" fill="#156082" fill-rule="evenodd"/><path d="M125.272 598.287 835.182 598.287 835.182 651.213 125.272 651.213Z" fill="#CCD2D8" fill-rule="evenodd"/><path d="M835.182 598.287 1227.68 598.287 1227.68 915.844 835.182 915.844Z" fill="#CCD2D8" fill-rule="evenodd"/><path d="M50.3196 651.213 125.272 651.213 125.272 704.139 50.3196 704.139Z" fill="#156082" fill-rule="evenodd"/><path d="M125.272 651.213 835.182 651.213 835.182 704.139 125.272 704.139Z" fill="#E7EAED" fill-rule="evenodd"/><path d="M50.3196 704.139 125.272 704.139 125.272 757.066 50.3196 757.066Z" fill="#156082" fill-rule="evenodd"/><path d="M125.272 704.139 835.182 704.139 835.182 757.066 125.272 757.066Z" fill="#CCD2D8" fill-rule="evenodd"/><path d="M50.3196 757.066 125.272 757.066 125.272 809.992 50.3196 809.992Z" fill="#156082" fill-rule="evenodd"/><path d="M125.272 757.066 835.182 757.066 835.182 809.992 125.272 809.992Z" fill="#E7EAED" fill-rule="evenodd"/><path d="M50.3196 809.992 125.272 809.992 125.272 862.918 50.3196 862.918Z" fill="#156082" fill-rule="evenodd"/><path d="M125.272 809.992 835.182 809.992 835.182 862.918 125.272 862.918Z" fill="#CCD2D8" fill-rule="evenodd"/><path d="M50.3196 862.918 125.272 862.918 125.272 915.844 50.3196 915.844Z" fill="#156082" fill-rule="evenodd"/><path d="M125.272 862.918 835.182 862.918 835.182 915.844 125.272 915.844Z" fill="#E7EAED" fill-rule="evenodd"/><path d="M125.272 544.694 125.272 916.511" stroke="#FFFFFF" stroke-width="1.33386" stroke-linejoin="round" stroke-miterlimit="10" fill="none" fill-rule="evenodd"/><path d="M835.182 544.694 835.182 916.511" stroke="#FFFFFF" stroke-width="1.33386" stroke-linejoin="round" stroke-miterlimit="10" fill="none" fill-rule="evenodd"/><path d="M49.6527 598.287 1228.35 598.287" stroke="#FFFFFF" stroke-width="4.00157" stroke-linejoin="round" stroke-miterlimit="10" fill="none" fill-rule="evenodd"/><path d="M49.6527 651.213 835.849 651.213" stroke="#FFFFFF" stroke-width="1.33386" stroke-linejoin="round" stroke-miterlimit="10" fill="none" fill-rule="evenodd"/><path d="M49.6527 704.139 835.849 704.139" stroke="#FFFFFF" stroke-width="1.33386" stroke-linejoin="round" stroke-miterlimit="10" fill="none" fill-rule="evenodd"/><path d="M49.6527 757.066 835.849 757.066" stroke="#FFFFFF" stroke-width="1.33386" stroke-linejoin="round" stroke-miterlimit="10" fill="none" fill-rule="evenodd"/><path d="M49.6527 809.992 835.849 809.992" stroke="#FFFFFF" stroke-width="1.33386" stroke-linejoin="round" stroke-miterlimit="10" fill="none" fill-rule="evenodd"/><path d="M49.6527 862.918 835.849 862.918" stroke="#FFFFFF" stroke-width="1.33386" stroke-linejoin="round" stroke-miterlimit="10" fill="none" fill-rule="evenodd"/><path d="M50.3196 544.694 50.3196 916.511" stroke="#FFFFFF" stroke-width="1.33386" stroke-linejoin="round" stroke-miterlimit="10" fill="none" fill-rule="evenodd"/><path d="M1227.68 544.694 1227.68 916.511" stroke="#FFFFFF" stroke-width="1.33386" stroke-linejoin="round" stroke-miterlimit="10" fill="none" fill-rule="evenodd"/><path d="M49.6527 545.36 1228.35 545.36" stroke="#FFFFFF" stroke-width="1.33386" stroke-linejoin="round" stroke-miterlimit="10" fill="none" fill-rule="evenodd"/><path d="M49.6527 915.844 1228.35 915.844" stroke="#FFFFFF" stroke-width="1.33386" stroke-linejoin="round" stroke-miterlimit="10" fill="none" fill-rule="evenodd"/><text fill="#FFFFFF" font-family="Aptos,Aptos_MSFontService,sans-serif" font-weight="700" font-size="43" transform="matrix(1 0 0 0.999853 953.861 586)">EQUIPO</text><text fill="#FFFFFF" font-family="Aptos,Aptos_MSFontService,sans-serif" font-weight="700" font-size="43" transform="matrix(1 0 0 0.999853 392.526 586)">NOMBRE</text><g><text fill="#FFFFFF" font-family="Aptos,Aptos_MSFontService,sans-serif" font-weight="700" font-size="43" transform="matrix(1 0 0 0.999853 64.2865 586)">N</text></g><g><text fill="#FFFFFF" font-family="Aptos,Aptos_MSFontService,sans-serif" font-weight="700" font-size="43" transform="matrix(1 0 0 0.999853 95.1319 586)">°</text></g><text font-family="Aptos,Aptos_MSFontService,sans-serif" font-weight="400" font-size="43" transform="matrix(1 0 0 0.999853 1003.11 770)">M4</text><g><text font-family="Aptos,Aptos_MSFontService,sans-serif" font-weight="400" font-size="43" transform="matrix(1 0 0 0.999853 132.475 639)">Jhosuan serrano 5M</text></g><text fill="#FFFFFF" font-family="Aptos,Aptos_MSFontService,sans-serif" font-weight="700" font-size="43" transform="matrix(1 0 0 0.999853 76.3745 639)">1</text><g><text font-family="Aptos,Aptos_MSFontService,sans-serif" font-weight="400" font-size="43" transform="matrix(1 0 0 0.999853 132.475 692)">Jeronimo aristizabal 5M</text></g><text fill="#FFFFFF" font-family="Aptos,Aptos_MSFontService,sans-serif" font-weight="700" font-size="43" transform="matrix(1 0 0 0.999853 76.3745 692)">2</text><g><text font-family="Aptos,Aptos_MSFontService,sans-serif" font-weight="400" font-size="43" transform="matrix(1 0 0 0.999853 132.475 745)">María jose roldan 4T</text></g><text fill="#FFFFFF" font-family="Aptos,Aptos_MSFontService,sans-serif" font-weight="700" font-size="43" transform="matrix(1 0 0 0.999853 76.3745 745)">3</text><g><text font-family="Aptos,Aptos_MSFontService,sans-serif" font-weight="400" font-size="43" transform="matrix(1 0 0 0.999853 132.475 798)">Miley sofia alvarez 5M</text></g><text fill="#FFFFFF" font-family="Aptos,Aptos_MSFontService,sans-serif" font-weight="700" font-size="43" transform="matrix(1 0 0 0.999853 76.3745 798)">4</text><g><text font-family="Aptos,Aptos_MSFontService,sans-serif" font-weight="400" font-size="43" transform="matrix(1 0 0 0.999853 132.475 851)">Alison Valeria 4M</text></g><text fill="#FFFFFF" font-family="Aptos,Aptos_MSFontService,sans-serif" font-weight="700" font-size="43" transform="matrix(1 0 0 0.999853 76.3745 851)">5</text><g><text font-family="Aptos,Aptos_MSFontService,sans-serif" font-weight="400" font-size="43" transform="matrix(1 0 0 0.999853 132.475 904)">Daniela pizarro 5T</text></g><text fill="#FFFFFF" font-family="Aptos,Aptos_MSFontService,sans-serif" font-weight="700" font-size="43" transform="matrix(1 0 0 0.999853 76.3745 904)">6</text><path d="M642.451 34.5707 642.451 43.2618 647.091 43.2618C648.463 43.2618 649.572 42.8979 650.419 42.1701 651.266 41.4424 651.689 40.3647 651.689 38.9372 651.689 37.4537 651.256 36.3551 650.388 35.6413 649.52 34.9276 648.421 34.5707 647.091 34.5707ZM675.023 34.3397C673.175 34.3397 671.688 34.7736 670.561 35.6413 669.435 36.509 668.616 37.6706 668.105 39.1262 667.594 40.5817 667.338 42.1911 667.338 43.9545 667.338 45.69 667.594 47.2854 668.105 48.7409 668.616 50.1965 669.435 51.3581 670.561 52.2258 671.688 53.0935 673.175 53.5273 675.023 53.5273 676.857 53.5273 678.333 53.0935 679.453 52.2258 680.573 51.3581 681.392 50.1965 681.91 48.7409 682.428 47.2854 682.687 45.69 682.687 43.9545 682.687 42.1911 682.428 40.5817 681.91 39.1262 681.392 37.6706 680.573 36.509 679.453 35.6413 678.333 34.7736 676.857 34.3397 675.023 34.3397ZM575.023 34.3397C573.175 34.3397 571.688 34.7736 570.561 35.6413 569.435 36.509 568.616 37.6706 568.105 39.1262 567.594 40.5817 567.338 42.1911 567.338 43.9545 567.338 45.69 567.594 47.2854 568.105 48.7409 568.616 50.1965 569.435 51.3581 570.561 52.2258 571.688 53.0935 573.175 53.5273 575.023 53.5273 576.857 53.5273 578.333 53.0935 579.453 52.2258 580.573 51.3581 581.392 50.1965 581.91 48.7409 582.428 47.2854 582.687 45.69 582.687 43.9545 582.687 42.1911 582.428 40.5817 581.91 39.1262 581.392 37.6706 580.573 36.509 579.453 35.6413 578.333 34.7736 576.857 34.3397 575.023 34.3397ZM636.551 29.8053 647.637 29.8053C649.499 29.8053 651.196 30.1341 652.729 30.7919 654.261 31.4497 655.483 32.4504 656.393 33.7939 657.302 35.1375 657.757 36.8519 657.757 38.9372 657.757 40.9945 657.302 42.695 656.393 44.0385 655.483 45.3821 654.261 46.3792 652.729 47.03 651.196 47.6808 649.499 48.0062 647.637 48.0062L642.451 48.0062 642.451 58.0618 636.551 58.0618ZM623.551 29.8053 629.451 29.8053 629.451 58.0618 623.551 58.0618ZM594.215 29.8053 600.262 29.8053 600.262 46.6836C600.262 49.0069 600.738 50.7353 601.69 51.8689 602.642 53.0025 604.139 53.5693 606.183 53.5693 608.241 53.5693 609.728 53.0025 610.645 51.8689 611.562 50.7353 612.02 49.0069 612.02 46.6836L612.02 29.8053 618.088 29.8053 618.088 46.8306C618.088 49.3218 617.675 51.435 616.849 53.1705 616.023 54.9059 614.732 56.218 612.975 57.1067 611.219 57.9954 608.941 58.4397 606.141 58.4397 603.37 58.4397 601.102 57.9954 599.338 57.1067 597.575 56.218 596.28 54.9059 595.454 53.1705 594.628 51.435 594.215 49.3218 594.215 46.8306ZM538.551 29.8053 557.511 29.8053 557.511 34.6966 544.451 34.6966 544.451 41.2674 556.293 41.2674 556.293 45.9909 544.451 45.9909 544.451 53.1705 557.511 53.1705 557.511 58.0618 538.551 58.0618ZM675.023 29.4274C677.976 29.4274 680.475 30.0257 682.519 31.2223 684.562 32.4189 686.116 34.1053 687.18 36.2816 688.243 38.4579 688.775 41.0155 688.775 43.9545 688.775 46.8936 688.244 49.4442 687.18 51.6065 686.116 53.7688 684.562 55.4482 682.519 56.6448 680.475 57.8414 677.976 58.4397 675.023 58.4397 672.07 58.4397 669.568 57.8414 667.517 56.6448 665.466 55.4482 663.909 53.7688 662.845 51.6065 661.781 49.4442 661.25 46.8936 661.25 43.9545 661.25 41.0155 661.781 38.4579 662.845 36.2816 663.909 34.1053 665.466 32.4189 667.517 31.2223 669.567 30.0257 672.07 29.4274 675.023 29.4274ZM575.023 29.4274C577.976 29.4274 580.475 30.0257 582.519 31.2223 584.562 32.4189 586.116 34.1053 587.18 36.2816 588.243 38.4579 588.775 41.0155 588.775 43.9545 588.775 46.8936 588.243 49.4442 587.18 51.6065 586.116 53.7688 584.562 55.4482 582.519 56.6448 582.008 56.944 581.468 57.2057 580.901 57.4301L579.704 57.8053 580.723 58.8176C581.304 59.2095 582.067 59.4999 583.012 59.6888 583.957 59.8777 585.178 59.9722 586.676 59.9722L587.789 59.9722 587.789 65.0315 586.382 65.0315C584.352 65.0315 582.666 64.8391 581.322 64.4542 579.978 64.0693 578.876 63.534 578.015 62.8482 577.154 62.1625 576.437 61.3612 575.863 60.4445L574.772 58.4265 572.893 58.3275C570.847 58.1032 569.055 57.5423 567.517 56.6448 565.466 55.4482 563.909 53.7688 562.845 51.6065 561.781 49.4442 561.25 46.8936 561.25 43.9545 561.25 41.0155 561.781 38.4579 562.845 36.2816 563.909 34.1053 565.466 32.4189 567.517 31.2223 569.567 30.0257 572.07 29.4274 575.023 29.4274Z" fill="url(#fill0)" fill-rule="evenodd"/><text fill="#000000" fill-opacity="0" font-family="Arial,Arial_MSFontService,sans-serif" font-size="35.6041" x="538.551" y="60.581">EQUIPO</text><path d="M708.829 41.8133 708.157 46.7046 712.356 46.7046 712.986 41.8133ZM706.582 30.561 710.383 30.561 709.312 38.3494 713.49 38.3494 714.561 30.561 718.403 30.561 717.311 38.3494 721.258 38.3494 721.258 41.8133 716.807 41.8133 716.156 46.7046 720.062 46.7046 720.062 50.1895 715.674 50.1895 714.582 58.0618 710.76 58.0618 711.831 50.1895 707.653 50.1895 706.561 58.0618 702.719 58.0618 703.811 50.1895 699.801 50.1895 699.801 46.7046 704.315 46.7046 704.987 41.8133 700.955 41.8133 700.955 38.3494 705.49 38.3494Z" fill="url(#fill1)" fill-rule="evenodd"/><text fill="#000000" fill-opacity="0" font-family="Arial,Arial_MSFontService,sans-serif" font-size="27.5008" x="699.801" y="54.6242">#</text><path d="M733.539 30.1831C735.19 30.1831 736.716 30.4385 738.116 30.9494 739.515 31.4602 740.639 32.2509 741.486 33.3216 742.332 34.3922 742.756 35.7673 742.756 37.4467 742.756 39.1401 742.332 40.4802 741.486 41.4669 740.639 42.4535 739.494 43.1498 738.053 43.5557 739.62 43.8776 740.922 44.5738 741.958 45.6445 742.994 46.7151 743.512 48.2301 743.512 50.1895 743.512 51.9669 743.109 53.4679 742.304 54.6925 741.5 55.9171 740.359 56.8442 738.882 57.474 737.405 58.1038 735.645 58.4187 733.602 58.4187 730.368 58.4187 727.863 57.677 726.085 56.1935 724.307 54.71 723.418 52.4637 723.418 49.4547L728.751 49.4547C728.751 50.8402 729.175 51.9214 730.022 52.6981 730.869 53.4749 732.055 53.8632 733.581 53.8632 734.966 53.8632 736.02 53.5343 736.74 52.8766 737.461 52.2188 737.822 51.1831 737.822 49.7696 737.822 48.3981 737.374 47.4044 736.478 46.7886 735.582 46.1728 734.434 45.8649 733.035 45.8649L731.334 45.8649 731.334 41.4984 733.203 41.4984C734.462 41.4984 735.477 41.173 736.247 40.5222 737.017 39.8714 737.402 39.0142 737.402 37.9505 737.402 36.8589 737.062 36.0542 736.383 35.5363 735.705 35.0185 734.763 34.7596 733.56 34.7596 732.258 34.7596 731.253 35.092 730.547 35.7568 729.84 36.4216 729.486 37.3417 729.486 38.5174L724.153 38.5174C724.153 36.614 724.57 35.05 725.403 33.8254 726.235 32.6008 727.359 31.6876 728.772 31.0858 730.186 30.484 731.775 30.1831 733.539 30.1831Z" fill="url(#fill2)" fill-rule="evenodd"/><text fill="#000000" fill-opacity="0" font-family="Arial,Arial_MSFontService,sans-serif" font-size="28.2356" x="723.418" y="54.8893">3</text><path d="M642.451 497.526 642.451 506.217 647.091 506.217C648.463 506.217 649.572 505.854 650.419 505.126 651.266 504.398 651.689 503.32 651.689 501.893 651.689 500.409 651.255 499.311 650.388 498.597 649.52 497.883 648.421 497.526 647.091 497.526ZM675.023 497.295C673.175 497.295 671.688 497.729 670.561 498.597 669.434 499.465 668.616 500.626 668.105 502.082 667.594 503.537 667.338 505.147 667.338 506.91 667.338 508.646 667.594 510.241 668.105 511.697 668.616 513.152 669.434 514.314 670.561 515.181 671.688 516.049 673.175 516.483 675.023 516.483 676.857 516.483 678.333 516.049 679.453 515.181 680.573 514.314 681.392 513.152 681.91 511.697 682.427 510.241 682.686 508.646 682.686 506.91 682.686 505.147 682.427 503.537 681.91 502.082 681.392 500.626 680.573 499.465 679.453 498.597 678.333 497.729 676.857 497.295 675.023 497.295ZM575.023 497.295C573.175 497.295 571.688 497.729 570.561 498.597 569.434 499.465 568.616 500.626 568.105 502.082 567.594 503.537 567.338 505.147 567.338 506.91 567.338 508.646 567.594 510.241 568.105 511.697 568.616 513.152 569.434 514.314 570.561 515.181 571.688 516.049 573.175 516.483 575.023 516.483 576.857 516.483 578.333 516.049 579.453 515.181 580.573 514.314 581.392 513.152 581.91 511.697 582.427 510.241 582.686 508.646 582.686 506.91 582.686 505.147 582.427 503.537 581.91 502.082 581.392 500.626 580.573 499.465 579.453 498.597 578.333 497.729 576.857 497.295 575.023 497.295ZM636.551 492.761 647.637 492.761C649.499 492.761 651.196 493.09 652.729 493.748 654.261 494.405 655.483 495.406 656.392 496.75 657.302 498.093 657.757 499.808 657.757 501.893 657.757 503.95 657.302 505.651 656.392 506.994 655.483 508.338 654.261 509.335 652.729 509.986 651.196 510.636 649.499 510.962 647.637 510.962L642.451 510.962 642.451 521.018 636.551 521.018ZM623.551 492.761 629.451 492.761 629.451 521.018 623.551 521.018ZM594.215 492.761 600.262 492.761 600.262 509.639C600.262 511.963 600.738 513.691 601.69 514.825 602.642 515.958 604.139 516.525 606.183 516.525 608.241 516.525 609.728 515.958 610.645 514.825 611.561 513.691 612.02 511.963 612.02 509.639L612.02 492.761 618.088 492.761 618.088 509.786C618.088 512.277 617.675 514.391 616.849 516.126 616.023 517.862 614.732 519.174 612.975 520.062 611.219 520.951 608.94 521.395 606.141 521.395 603.37 521.395 601.102 520.951 599.338 520.062 597.575 519.174 596.28 517.862 595.454 516.126 594.628 514.391 594.215 512.277 594.215 509.786ZM538.551 492.761 557.511 492.761 557.511 497.652 544.451 497.652 544.451 504.223 556.293 504.223 556.293 508.947 544.451 508.947 544.451 516.126 557.511 516.126 557.511 521.018 538.551 521.018ZM675.023 492.383C677.976 492.383 680.475 492.981 682.518 494.178 684.562 495.375 686.116 497.061 687.18 499.237 688.243 501.414 688.775 503.971 688.775 506.91 688.775 509.849 688.243 512.4 687.18 514.562 686.116 516.724 684.562 518.404 682.518 519.6 680.475 520.797 677.976 521.395 675.023 521.395 672.069 521.395 669.567 520.797 667.517 519.6 665.466 518.404 663.909 516.724 662.845 514.562 661.781 512.4 661.249 509.849 661.249 506.91 661.249 503.971 661.781 501.414 662.845 499.237 663.909 497.061 665.466 495.375 667.517 494.178 669.567 492.981 672.069 492.383 675.023 492.383ZM575.023 492.383C577.976 492.383 580.475 492.981 582.518 494.178 584.562 495.375 586.116 497.061 587.18 499.237 588.243 501.414 588.775 503.971 588.775 506.91 588.775 509.849 588.243 512.4 587.18 514.562 586.116 516.724 584.562 518.404 582.518 519.6 582.008 519.9 581.468 520.161 580.9 520.386L579.704 520.761 580.723 521.773C581.304 522.165 582.067 522.456 583.012 522.644 583.957 522.833 585.178 522.928 586.676 522.928L587.788 522.928 587.788 527.987 586.382 527.987C584.352 527.987 582.665 527.795 581.322 527.41 579.978 527.025 578.876 526.49 578.015 525.804 577.154 525.118 576.437 524.317 575.863 523.4L574.772 521.382 572.892 521.283C570.847 521.059 569.055 520.498 567.517 519.6 565.466 518.404 563.909 516.724 562.845 514.562 561.781 512.4 561.249 509.849 561.249 506.91 561.249 503.971 561.781 501.414 562.845 499.237 563.909 497.061 565.466 495.375 567.517 494.178 569.567 492.981 572.069 492.383 575.023 492.383Z" fill="url(#fill3)" fill-rule="evenodd"/><text fill="#000000" fill-opacity="0" font-family="Arial,Arial_MSFontService,sans-serif" font-size="35.6041" x="538.551" y="523.537">EQUIPO</text><path d="M708.829 504.769 708.157 509.66 712.356 509.66 712.986 504.769ZM706.582 493.517 710.382 493.517 709.312 501.305 713.49 501.305 714.561 493.517 718.403 493.517 717.311 501.305 721.258 501.305 721.258 504.769 716.807 504.769 716.156 509.66 720.062 509.66 720.062 513.145 715.673 513.145 714.582 521.018 710.76 521.018 711.831 513.145 707.653 513.145 706.561 521.018 702.719 521.018 703.811 513.145 699.8 513.145 699.8 509.66 704.315 509.66 704.986 504.769 700.955 504.769 700.955 501.305 705.49 501.305Z" fill="url(#fill4)" fill-rule="evenodd"/><text fill="#000000" fill-opacity="0" font-family="Arial,Arial_MSFontService,sans-serif" font-size="27.5009" x="699.8" y="517.58">#</text><path d="M735.113 500.486 727.827 511.382 735.113 511.382ZM735.008 493.454 740.53 493.454 740.53 511.382 744.183 511.382 744.183 515.958 740.53 515.958 740.53 521.018 735.008 521.018 735.008 515.958 722.746 515.958 722.746 511.235Z" fill="url(#fill5)" fill-rule="evenodd"/><text fill="#000000" fill-opacity="0" font-family="Arial,Arial_MSFontService,sans-serif" font-size="27.5638" x="722.746" y="517.572">4</text></g></svg>