<svg width="1278" height="2049" xmlns="http://www.w3.org/2000/svg" xmlns:xlink="http://www.w3.org/1999/xlink" overflow="hidden"><defs><linearGradient x1="628.926" y1="1115.08" x2="652.329" y2="1211.83" gradientUnits="userSpaceOnUse" spreadMethod="reflect" id="fill0"><stop offset="0" stop-color="#002C3F"/><stop offset="0.5" stop-color="#00445F"/><stop offset="1" stop-color="#005272"/></linearGradient><linearGradient x1="627.298" y1="750.214" x2="650.701" y2="846.964" gradientUnits="userSpaceOnUse" spreadMethod="reflect" id="fill1"><stop offset="0" stop-color="#002C3F"/><stop offset="0.5" stop-color="#00445F"/><stop offset="1" stop-color="#005272"/></linearGradient><linearGradient x1="627.298" y1="383.552" x2="650.701" y2="480.302" gradientUnits="userSpaceOnUse" spreadMethod="reflect" id="fill2"><stop offset="0" stop-color="#002C3F"/><stop offset="0.5" stop-color="#00445F"/><stop offset="1" stop-color="#005272"/></linearGradient><linearGradient x1="627.298" y1="19.271" x2="650.701" y2="116.022" gradientUnits="userSpaceOnUse" spreadMethod="reflect" id="fill3"><stop offset="0" stop-color="#002C3F"/><stop offset="0.5" stop-color="#00445F"/><stop offset="1" stop-color="#005272"/></linearGradient></defs><g><rect x="0" y="0" width="1278" height="2048.7" fill="#FFFFFF"/><path d="M90.4462 466.475 160.289 466.475 160.289 519.401 90.4462 519.401Z" fill="#156082" fill-rule="evenodd"/><path d="M160.289 466.475 821.81 466.475 821.81 519.401 160.289 519.401Z" fill="#156082" fill-rule="evenodd"/><path d="M821.81 466.475 1187.55 466.475 1187.55 519.401 821.81 519.401Z" fill="#156082" fill-rule="evenodd"/><path d="M90.4462 519.401 160.289 519.401 160.289 572.328 90.4462 572.328Z" fill="#156082" fill-rule="evenodd"/><path d="M160.289 519.401 821.81 519.401 821.81 572.328 160.289 572.328Z" fill="#CCD2D8" fill-rule="evenodd"/><path d="M821.81 519.401 1187.55 519.401 1187.55 731.107 821.81 731.107Z" fill="#CCD2D8" fill-rule="evenodd"/><path d="M90.4462 572.328 160.289 572.328 160.289 625.254 90.4462 625.254Z" fill="#156082" fill-rule="evenodd"/><path d="M160.289 572.328 821.81 572.328 821.81 625.254 160.289 625.254Z" fill="#E7EAED" fill-rule="evenodd"/><path d="M90.4462 625.254 160.289 625.254 160.289 678.18 90.4462 678.18Z" fill="#156082" fill-rule="evenodd"/><path d="M160.289 625.254 821.81 625.254 821.81 678.18 160.289 678.18Z" fill="#CCD2D8" fill-rule="evenodd"/><path d="M90.4462 678.18 160.289 678.18 160.289 731.107 90.4462 731.107Z" fill="#156082" fill-rule="evenodd"/><path d="M160.289 678.18 821.81 678.18 821.81 731.107 160.289 731.107Z" fill="#E7EAED" fill-rule="evenodd"/><path d="M160.289 465.808 160.289 731.773" stroke="#FFFFFF" stroke-width="1.33386" stroke-linejoin="round" stroke-miterlimit="10" fill="none" fill-rule="evenodd"/><path d="M821.81 465.808 821.81 731.773" stroke="#FFFFFF" stroke-width="1.33386" stroke-linejoin="round" stroke-miterlimit="10" fill="none" fill-rule="evenodd"/><path d="M89.7793 519.401 1188.22 519.401" stroke="#FFFFFF" stroke-width="4.00157" stroke-linejoin="round" stroke-miterlimit="10" fill="none" fill-rule="evenodd"/><path d="M89.7793 572.328 822.477 572.328" stroke="#FFFFFF" stroke-width="1.33386" stroke-linejoin="round" stroke-miterlimit="10" fill="none" fill-rule="evenodd"/><path d="M89.7793 625.254 822.477 625.254" stroke="#FFFFFF" stroke-width="1.33386" stroke-linejoin="round" stroke-miterlimit="10" fill="none" fill-rule="evenodd"/><path d="M89.7793 678.18 822.477 678.18" stroke="#FFFFFF" stroke-width="1.33386" stroke-linejoin="round" stroke-miterlimit="10" fill="none" fill-rule="evenodd"/><path d="M90.4462 465.808 90.4462 731.773" stroke="#FFFFFF" stroke-width="1.33386" stroke-linejoin="round" stroke-miterlimit="10" fill="none" fill-rule="evenodd"/><path d="M1187.55 465.808 1187.55 731.773" stroke="#FFFFFF" stroke-width="1.33386" stroke-linejoin="round" stroke-miterlimit="10" fill="none" fill-rule="evenodd"/><path d="M89.7793 466.475 1188.22 466.475" stroke="#FFFFFF" stroke-width="1.33386" stroke-linejoin="round" stroke-miterlimit="10" fill="none" fill-rule="evenodd"/><path d="M89.7793 731.107 1188.22 731.107" stroke="#FFFFFF" stroke-width="1.33386" stroke-linejoin="round" stroke-miterlimit="10" fill="none" fill-rule="evenodd"/><text fill="#FFFFFF" font-family="Aptos,Aptos_MSFontService,sans-serif" font-weight="700" font-size="43" transform="matrix(1 0 0 0.999853 927.112 507)">EQUIPO</text><text fill="#FFFFFF" font-family="Aptos,Aptos_MSFontService,sans-serif" font-weight="700" font-size="43" transform="matrix(1 0 0 0.999853 403.349 507)">NOMBRE</text><g><text fill="#FFFFFF" font-family="Aptos,Aptos_MSFontService,sans-serif" font-weight="700" font-size="43" transform="matrix(1 0 0 0.999853 101.858 507)">N</text></g><g><text fill="#FFFFFF" font-family="Aptos,Aptos_MSFontService,sans-serif" font-weight="700" font-size="43" transform="matrix(1 0 0 0.999853 132.704 507)">°</text></g><text font-family="Aptos,Aptos_MSFontService,sans-serif" font-weight="400" font-size="43" transform="matrix(1 0 0 0.999853 982.986 626)">3T</text><g><text font-family="Aptos,Aptos_MSFontService,sans-serif" font-weight="400" font-size="43" transform="matrix(1 0 0 0.999853 167.492 560)">Victoria guerra 3T</text></g><g><text fill="#FFFFFF" font-family="Aptos,Aptos_MSFontService,sans-serif" font-weight="700" font-size="43" transform="matrix(1 0 0 0.999853 113.947 560)">1</text></g><g><text font-family="Aptos,Aptos_MSFontService,sans-serif" font-weight="400" font-size="43" transform="matrix(1 0 0 0.999853 167.492 613)">Mariana quiñonez 3T</text></g><g><text fill="#FFFFFF" font-family="Aptos,Aptos_MSFontService,sans-serif" font-weight="700" font-size="43" transform="matrix(1 0 0 0.999853 113.947 613)">2</text></g><g><text font-family="Aptos,Aptos_MSFontService,sans-serif" font-weight="400" font-size="43" transform="matrix(1 0 0 0.999853 167.492 666)">Luciana olivarez 3T</text></g><g><text fill="#FFFFFF" font-family="Aptos,Aptos_MSFontService,sans-serif" font-weight="700" font-size="43" transform="matrix(1 0 0 0.999853 113.947 666)">3</text></g><g><text font-family="Aptos,Aptos_MSFontService,sans-serif" font-weight="400" font-size="43" transform="matrix(1 0 0 0.999853 167.492 719)">Samantha peña 3T</text></g><g><text fill="#FFFFFF" font-family="Aptos,Aptos_MSFontService,sans-serif" font-weight="700" font-size="43" transform="matrix(1 0 0 0.999853 113.947 719)">4</text></g><path d="M90.4462 834.475 160.289 834.475 160.289 887.401 90.4462 887.401Z" fill="#156082" fill-rule="evenodd"/><path d="M160.289 834.475 821.81 834.475 821.81 887.401 160.289 887.401Z" fill="#156082" fill-rule="evenodd"/><path d="M821.81 834.475 1187.55 834.475 1187.55 887.401 821.81 887.401Z" fill="#156082" fill-rule="evenodd"/><path d="M90.4462 887.401 160.289 887.401 160.289 940.328 90.4462 940.328Z" fill="#156082" fill-rule="evenodd"/><path d="M160.289 887.401 821.81 887.401 821.81 940.328 160.289 940.328Z" fill="#CCD2D8" fill-rule="evenodd"/><path d="M821.81 887.401 1187.55 887.401 1187.55 1099.11 821.81 1099.11Z" fill="#CCD2D8" fill-rule="evenodd"/><path d="M90.4462 940.328 160.289 940.328 160.289 993.254 90.4462 993.254Z" fill="#156082" fill-rule="evenodd"/><path d="M160.289 940.328 821.81 940.328 821.81 993.254 160.289 993.254Z" fill="#E7EAED" fill-rule="evenodd"/><path d="M90.4462 993.254 160.289 993.254 160.289 1046.18 90.4462 1046.18Z" fill="#156082" fill-rule="evenodd"/><path d="M160.289 993.254 821.81 993.254 821.81 1046.18 160.289 1046.18Z" fill="#CCD2D8" fill-rule="evenodd"/><path d="M90.4462 1046.18 160.289 1046.18 160.289 1099.11 90.4462 1099.11Z" fill="#156082" fill-rule="evenodd"/><path d="M160.289 1046.18 821.81 1046.18 821.81 1099.11 160.289 1099.11Z" fill="#E7EAED" fill-rule="evenodd"/><path d="M160.289 833.808 160.289 1099.77" stroke="#FFFFFF" stroke-width="1.33386" stroke-linejoin="round" stroke-miterlimit="10" fill="none" fill-rule="evenodd"/><path d="M821.81 833.808 821.81 1099.77" stroke="#FFFFFF" stroke-width="1.33386" stroke-linejoin="round" stroke-miterlimit="10" fill="none" fill-rule="evenodd"/><path d="M89.7793 887.401 1188.22 887.401" stroke="#FFFFFF" stroke-width="4.00157" stroke-linejoin="round" stroke-miterlimit="10" fill="none" fill-rule="evenodd"/><path d="M89.7793 940.328 822.477 940.328" stroke="#FFFFFF" stroke-width="1.33386" stroke-linejoin="round" stroke-miterlimit="10" fill="none" fill-rule="evenodd"/><path d="M89.7793 993.254 822.477 993.254" stroke="#FFFFFF" stroke-width="1.33386" stroke-linejoin="round" stroke-miterlimit="10" fill="none" fill-rule="evenodd"/><path d="M89.7793 1046.18 822.477 1046.18" stroke="#FFFFFF" stroke-width="1.33386" stroke-linejoin="round" stroke-miterlimit="10" fill="none" fill-rule="evenodd"/><path d="M90.4462 833.808 90.4462 1099.77" stroke="#FFFFFF" stroke-width="1.33386" stroke-linejoin="round" stroke-miterlimit="10" fill="none" fill-rule="evenodd"/><path d="M1187.55 833.808 1187.55 1099.77" stroke="#FFFFFF" stroke-width="1.33386" stroke-linejoin="round" stroke-miterlimit="10" fill="none" fill-rule="evenodd"/><path d="M89.7793 834.475 1188.22 834.475" stroke="#FFFFFF" stroke-width="1.33386" stroke-linejoin="round" stroke-miterlimit="10" fill="none" fill-rule="evenodd"/><path d="M89.7793 1099.11 1188.22 1099.11" stroke="#FFFFFF" stroke-width="1.33386" stroke-linejoin="round" stroke-miterlimit="10" fill="none" fill-rule="evenodd"/><text fill="#FFFFFF" font-family="Aptos,Aptos_MSFontService,sans-serif" font-weight="700" font-size="43" transform="matrix(1 0 0 0.999853 927.112 875)">EQUIPO</text><text fill="#FFFFFF" font-family="Aptos,Aptos_MSFontService,sans-serif" font-weight="700" font-size="43" transform="matrix(1 0 0 0.999853 403.349 875)">NOMBRE</text><g><text fill="#FFFFFF" font-family="Aptos,Aptos_MSFontService,sans-serif" font-weight="700" font-size="43" transform="matrix(1 0 0 0.999853 101.858 875)">N</text></g><g><text fill="#FFFFFF" font-family="Aptos,Aptos_MSFontService,sans-serif" font-weight="700" font-size="43" transform="matrix(1 0 0 0.999853 132.704 875)">°</text></g><text font-family="Aptos,Aptos_MSFontService,sans-serif" font-weight="400" font-size="43" transform="matrix(1 0 0 0.999853 976.404 994)">4M</text><g><text font-family="Aptos,Aptos_MSFontService,sans-serif" font-weight="400" font-size="43" transform="matrix(1 0 0 0.999853 167.492 928)">Lauren bolivar 4M</text></g><g><text fill="#FFFFFF" font-family="Aptos,Aptos_MSFontService,sans-serif" font-weight="700" font-size="43" transform="matrix(1 0 0 0.999853 113.947 928)">1</text></g><g><text font-family="Aptos,Aptos_MSFontService,sans-serif" font-weight="400" font-size="43" transform="matrix(1 0 0 0.999853 167.492 981)">Juliana solarte 4M</text></g><g><text fill="#FFFFFF" font-family="Aptos,Aptos_MSFontService,sans-serif" font-weight="700" font-size="43" transform="matrix(1 0 0 0.999853 113.947 981)">2</text></g><g><text font-family="Aptos,Aptos_MSFontService,sans-serif" font-weight="400" font-size="43" transform="matrix(1 0 0 0.999853 167.492 1034)">Maria jose baltan 4M</text></g><g><text fill="#FFFFFF" font-family="Aptos,Aptos_MSFontService,sans-serif" font-weight="700" font-size="43" transform="matrix(1 0 0 0.999853 113.947 1034)">3</text></g><g><text font-family="Aptos,Aptos_MSFontService,sans-serif" font-weight="400" font-size="43" transform="matrix(1 0 0 0.999853 167.492 1087)">Alaia gomez 3M</text></g><g><text fill="#FFFFFF" font-family="Aptos,Aptos_MSFontService,sans-serif" font-weight="700" font-size="43" transform="matrix(1 0 0 0.999853 113.947 1087)">4</text></g><path d="M90.4462 1198.11 160.289 1198.11 160.289 1251.04 90.4462 1251.04Z" fill="#156082" fill-rule="evenodd"/><path d="M160.289 1198.11 821.81 1198.11 821.81 1251.04 160.289 1251.04Z" fill="#156082" fill-rule="evenodd"/><path d="M821.81 1198.11 1187.55 1198.11 1187.55 1251.04 821.81 1251.04Z" fill="#156082" fill-rule="evenodd"/><path d="M90.4462 1251.04 160.289 1251.04 160.289 1303.96 90.4462 1303.96Z" fill="#156082" fill-rule="evenodd"/><path d="M160.289 1251.04 821.81 1251.04 821.81 1303.96 160.289 1303.96Z" fill="#CCD2D8" fill-rule="evenodd"/><path d="M821.81 1251.04 1187.55 1251.04 1187.55 1462.74 821.81 1462.74Z" fill="#CCD2D8" fill-rule="evenodd"/><path d="M90.4462 1303.96 160.289 1303.96 160.289 1356.89 90.4462 1356.89Z" fill="#156082" fill-rule="evenodd"/><path d="M160.289 1303.96 821.81 1303.96 821.81 1356.89 160.289 1356.89Z" fill="#E7EAED" fill-rule="evenodd"/><path d="M90.4462 1356.89 160.289 1356.89 160.289 1409.81 90.4462 1409.81Z" fill="#156082" fill-rule="evenodd"/><path d="M160.289 1356.89 821.81 1356.89 821.81 1409.81 160.289 1409.81Z" fill="#CCD2D8" fill-rule="evenodd"/><path d="M90.4462 1409.81 160.289 1409.81 160.289 1462.74 90.4462 1462.74Z" fill="#156082" fill-rule="evenodd"/><path d="M160.289 1409.81 821.81 1409.81 821.81 1462.74 160.289 1462.74Z" fill="#E7EAED" fill-rule="evenodd"/><path d="M160.289 1197.44 160.289 1463.41" stroke="#FFFFFF" stroke-width="1.33386" stroke-linejoin="round" stroke-miterlimit="10" fill="none" fill-rule="evenodd"/><path d="M821.81 1197.44 821.81 1463.41" stroke="#FFFFFF" stroke-width="1.33386" stroke-linejoin="round" stroke-miterlimit="10" fill="none" fill-rule="evenodd"/><path d="M89.7793 1251.04 1188.22 1251.04" stroke="#FFFFFF" stroke-width="4.00157" stroke-linejoin="round" stroke-miterlimit="10" fill="none" fill-rule="evenodd"/><path d="M89.7793 1303.96 822.477 1303.96" stroke="#FFFFFF" stroke-width="1.33386" stroke-linejoin="round" stroke-miterlimit="10" fill="none" fill-rule="evenodd"/><path d="M89.7793 1356.89 822.477 1356.89" stroke="#FFFFFF" stroke-width="1.33386" stroke-linejoin="round" stroke-miterlimit="10" fill="none" fill-rule="evenodd"/><path d="M89.7793 1409.81 822.477 1409.81" stroke="#FFFFFF" stroke-width="1.33386" stroke-linejoin="round" stroke-miterlimit="10" fill="none" fill-rule="evenodd"/><path d="M90.4462 1197.44 90.4462 1463.41" stroke="#FFFFFF" stroke-width="1.33386" stroke-linejoin="round" stroke-miterlimit="10" fill="none" fill-rule="evenodd"/><path d="M1187.55 1197.44 1187.55 1463.41" stroke="#FFFFFF" stroke-width="1.33386" stroke-linejoin="round" stroke-miterlimit="10" fill="none" fill-rule="evenodd"/><path d="M89.7793 1198.11 1188.22 1198.11" stroke="#FFFFFF" stroke-width="1.33386" stroke-linejoin="round" stroke-miterlimit="10" fill="none" fill-rule="evenodd"/><path d="M89.7793 1462.74 1188.22 1462.74" stroke="#FFFFFF" stroke-width="1.33386" stroke-linejoin="round" stroke-miterlimit="10" fill="none" fill-rule="evenodd"/><text fill="#FFFFFF" font-family="Aptos,Aptos_MSFontService,sans-serif" font-weight="700" font-size="43" transform="matrix(1 0 0 0.999853 927.112 1239)">EQUIPO</text><text fill="#FFFFFF" font-family="Aptos,Aptos_MSFontService,sans-serif" font-weight="700" font-size="43" transform="matrix(1 0 0 0.999853 403.349 1239)">NOMBRE</text><g><text fill="#FFFFFF" font-family="Aptos,Aptos_MSFontService,sans-serif" font-weight="700" font-size="43" transform="matrix(1 0 0 0.999853 101.858 1239)">N</text></g><g><text fill="#FFFFFF" font-family="Aptos,Aptos_MSFontService,sans-serif" font-weight="700" font-size="43" transform="matrix(1 0 0 0.999853 132.704 1239)">°</text></g><text font-family="Aptos,Aptos_MSFontService,sans-serif" font-weight="400" font-size="43" transform="matrix(1 0 0 0.999853 976.404 1358)">5M</text><g><text font-family="Aptos,Aptos_MSFontService,sans-serif" font-weight="400" font-size="43" transform="matrix(1 0 0 0.999853 167.492 1292)">Dulce Angarita 3M</text></g><g><text fill="#FFFFFF" font-family="Aptos,Aptos_MSFontService,sans-serif" font-weight="700" font-size="43" transform="matrix(1 0 0 0.999853 113.947 1292)">1</text></g><g><text font-family="Aptos,Aptos_MSFontService,sans-serif" font-weight="400" font-size="43" transform="matrix(1 0 0 0.999853 167.492 1345)">Luciana arredondo 5M</text></g><g><text fill="#FFFFFF" font-family="Aptos,Aptos_MSFontService,sans-serif" font-weight="700" font-size="43" transform="matrix(1 0 0 0.999853 113.947 1345)">2</text></g><g><text font-family="Aptos,Aptos_MSFontService,sans-serif" font-weight="400" font-size="43" transform="matrix(1 0 0 0.999853 167.492 1398)">Sara hernandez 5M</text></g><g><text fill="#FFFFFF" font-family="Aptos,Aptos_MSFontService,sans-serif" font-weight="700" font-size="43" transform="matrix(1 0 0 0.999853 113.947 1398)">3</text></g><g><text font-family="Aptos,Aptos_MSFontService,sans-serif" font-weight="400" font-size="43" transform="matrix(1 0 0 0.999853 167.492 1451)">Joselyn campo 5M</text></g><g><text fill="#FFFFFF" font-family="Aptos,Aptos_MSFontService,sans-serif" font-weight="700" font-size="43" transform="matrix(1 0 0 0.999853 113.947 1451)">4</text></g><path d="M710.687 1160.61 710.016 1165.5 714.215 1165.5 714.845 1160.61ZM736.963 1156.32 729.677 1167.22 736.963 1167.22ZM644.12 1153.36 644.12 1162.05 648.761 1162.05C650.132 1162.05 651.242 1161.69 652.089 1160.96 652.935 1160.24 653.359 1159.16 653.359 1157.73 653.359 1156.25 652.925 1155.15 652.057 1154.43 651.189 1153.72 650.09 1153.36 648.761 1153.36ZM676.692 1153.13C674.845 1153.13 673.357 1153.57 672.231 1154.43 671.104 1155.3 670.285 1156.46 669.774 1157.92 669.263 1159.37 669.008 1160.98 669.008 1162.75 669.008 1164.48 669.263 1166.08 669.774 1167.53 670.285 1168.99 671.104 1170.15 672.231 1171.02 673.357 1171.89 674.845 1172.32 676.692 1172.32 678.526 1172.32 680.003 1171.89 681.122 1171.02 682.242 1170.15 683.061 1168.99 683.579 1167.53 684.097 1166.08 684.356 1164.48 684.356 1162.75 684.356 1160.98 684.097 1159.37 683.579 1157.92 683.061 1156.46 682.242 1155.3 681.122 1154.43 680.003 1153.57 678.526 1153.13 676.692 1153.13ZM576.692 1153.13C574.845 1153.13 573.357 1153.57 572.231 1154.43 571.104 1155.3 570.285 1156.46 569.774 1157.92 569.263 1159.37 569.008 1160.98 569.008 1162.75 569.008 1164.48 569.263 1166.08 569.774 1167.53 570.285 1168.99 571.104 1170.15 572.231 1171.02 573.357 1171.89 574.845 1172.32 576.692 1172.32 578.526 1172.32 580.003 1171.89 581.122 1171.02 582.242 1170.15 583.061 1168.99 583.579 1167.53 584.097 1166.08 584.356 1164.48 584.356 1162.75 584.356 1160.98 584.097 1159.37 583.579 1157.92 583.061 1156.46 582.242 1155.3 581.122 1154.43 580.003 1153.57 578.526 1153.13 576.692 1153.13ZM708.441 1149.35 712.241 1149.35 711.17 1157.14 715.349 1157.14 716.419 1149.35 720.262 1149.35 719.17 1157.14 723.117 1157.14 723.117 1160.61 718.666 1160.61 718.015 1165.5 721.92 1165.5 721.92 1168.98 717.532 1168.98 716.44 1176.85 712.619 1176.85 713.69 1168.98 709.512 1168.98 708.42 1176.85 704.578 1176.85 705.669 1168.98 701.659 1168.98 701.659 1165.5 706.173 1165.5 706.845 1160.61 702.814 1160.61 702.814 1157.14 707.349 1157.14ZM736.858 1149.29 742.38 1149.29 742.38 1167.22 746.033 1167.22 746.033 1171.8 742.38 1171.8 742.38 1176.85 736.858 1176.85 736.858 1171.8 724.596 1171.8 724.596 1167.07ZM638.221 1148.6 649.307 1148.6C651.168 1148.6 652.865 1148.93 654.398 1149.58 655.931 1150.24 657.152 1151.24 658.062 1152.59 658.972 1153.93 659.427 1155.64 659.427 1157.73 659.427 1159.79 658.972 1161.49 658.062 1162.83 657.152 1164.18 655.931 1165.17 654.398 1165.82 652.865 1166.47 651.168 1166.8 649.307 1166.8L644.12 1166.8 644.12 1176.85 638.221 1176.85ZM625.221 1148.6 631.12 1148.6 631.12 1176.85 625.221 1176.85ZM595.885 1148.6 601.932 1148.6 601.932 1165.48C601.932 1167.8 602.407 1169.53 603.359 1170.66 604.311 1171.8 605.809 1172.36 607.852 1172.36 609.91 1172.36 611.397 1171.8 612.314 1170.66 613.231 1169.53 613.689 1167.8 613.689 1165.48L613.689 1148.6 619.757 1148.6 619.757 1165.62C619.757 1168.11 619.344 1170.23 618.518 1171.96 617.693 1173.7 616.401 1175.01 614.645 1175.9 612.888 1176.79 610.61 1177.23 607.81 1177.23 605.039 1177.23 602.771 1176.79 601.008 1175.9 599.244 1175.01 597.949 1173.7 597.123 1171.96 596.298 1170.23 595.885 1168.11 595.885 1165.62ZM540.221 1148.6 559.18 1148.6 559.18 1153.49 546.12 1153.49 546.12 1160.06 557.962 1160.06 557.962 1164.78 546.12 1164.78 546.12 1171.96 559.18 1171.96 559.18 1176.85 540.221 1176.85ZM676.692 1148.22C679.646 1148.22 682.144 1148.82 684.188 1150.02 686.232 1151.21 687.785 1152.9 688.849 1155.07 689.913 1157.25 690.445 1159.81 690.445 1162.75 690.445 1165.69 689.913 1168.24 688.849 1170.4 687.785 1172.56 686.232 1174.24 684.188 1175.44 682.144 1176.63 679.646 1177.23 676.692 1177.23 673.739 1177.23 671.237 1176.63 669.186 1175.44 667.136 1174.24 665.578 1172.56 664.515 1170.4 663.451 1168.24 662.919 1165.69 662.919 1162.75 662.919 1159.81 663.451 1157.25 664.515 1155.07 665.578 1152.9 667.136 1151.21 669.186 1150.02 671.237 1148.82 673.739 1148.22 676.692 1148.22ZM576.692 1148.22C579.646 1148.22 582.144 1148.82 584.188 1150.02 586.232 1151.21 587.785 1152.9 588.849 1155.07 589.913 1157.25 590.445 1159.81 590.445 1162.75 590.445 1165.69 589.913 1168.24 588.849 1170.4 587.785 1172.56 586.232 1174.24 584.188 1175.44 583.677 1175.74 583.138 1176 582.57 1176.22L581.373 1176.6 582.393 1177.61C582.974 1178 583.736 1178.29 584.681 1178.48 585.626 1178.67 586.847 1178.77 588.345 1178.77L589.458 1178.77 589.458 1183.82 588.051 1183.82C586.022 1183.82 584.335 1183.63 582.991 1183.25 581.647 1182.86 580.545 1182.33 579.684 1181.64 578.823 1180.96 578.106 1180.15 577.532 1179.24L576.442 1177.22 574.562 1177.12C572.516 1176.9 570.724 1176.34 569.186 1175.44 567.136 1174.24 565.578 1172.56 564.515 1170.4 563.451 1168.24 562.919 1165.69 562.919 1162.75 562.919 1159.81 563.451 1157.25 564.515 1155.07 565.578 1152.9 567.136 1151.21 569.186 1150.02 571.237 1148.82 573.739 1148.22 576.692 1148.22Z" fill="url(#fill0)" fill-rule="evenodd"/><text fill="#000000" fill-opacity="0" font-family="Arial,Arial_MSFontService,sans-serif" font-size="35.6041" x="540.221" y="1179.37">EQUIPO #4</text><path d="M709.06 795.742 708.388 800.633 712.587 800.633 713.217 795.742ZM642.493 788.499 642.493 797.19 647.133 797.19C648.505 797.19 649.614 796.826 650.461 796.099 651.308 795.371 651.731 794.293 651.731 792.866 651.731 791.382 651.297 790.284 650.43 789.57 649.562 788.856 648.463 788.499 647.133 788.499ZM675.065 788.268C673.217 788.268 671.73 788.702 670.603 789.57 669.476 790.438 668.657 791.599 668.147 793.055 667.636 794.51 667.38 796.12 667.38 797.883 667.38 799.618 667.636 801.214 668.147 802.669 668.657 804.125 669.476 805.287 670.603 806.154 671.73 807.022 673.217 807.456 675.065 807.456 676.898 807.456 678.375 807.022 679.495 806.154 680.615 805.287 681.434 804.125 681.951 802.669 682.469 801.214 682.728 799.618 682.728 797.883 682.728 796.12 682.469 794.51 681.951 793.055 681.434 791.599 680.615 790.438 679.495 789.57 678.375 788.702 676.898 788.268 675.065 788.268ZM575.065 788.268C573.217 788.268 571.73 788.702 570.603 789.57 569.476 790.438 568.657 791.599 568.147 793.055 567.636 794.51 567.38 796.12 567.38 797.883 567.38 799.618 567.636 801.214 568.147 802.669 568.657 804.125 569.476 805.287 570.603 806.154 571.73 807.022 573.217 807.456 575.065 807.456 576.898 807.456 578.375 807.022 579.495 806.154 580.615 805.287 581.434 804.125 581.951 802.669 582.469 801.214 582.728 799.618 582.728 797.883 582.728 796.12 582.469 794.51 581.951 793.055 581.434 791.599 580.615 790.438 579.495 789.57 578.375 788.702 576.898 788.268 575.065 788.268ZM706.813 784.49 710.614 784.49 709.543 792.278 713.721 792.278 714.792 784.49 718.634 784.49 717.542 792.278 721.49 792.278 721.49 795.742 717.038 795.742 716.388 800.633 720.293 800.633 720.293 804.118 715.905 804.118 714.813 811.99 710.992 811.99 712.062 804.118 707.884 804.118 706.792 811.99 702.95 811.99 704.042 804.118 700.032 804.118 700.032 800.633 704.546 800.633 705.218 795.742 701.186 795.742 701.186 792.278 705.721 792.278ZM733.761 784.112C735.412 784.112 736.938 784.367 738.338 784.878 739.737 785.389 740.861 786.179 741.708 787.25 742.554 788.321 742.978 789.696 742.978 791.375 742.978 793.069 742.554 794.409 741.708 795.395 740.861 796.382 739.716 797.078 738.275 797.484 739.842 797.806 741.144 798.502 742.18 799.573 743.216 800.644 743.734 802.159 743.734 804.118 743.734 805.895 743.331 807.396 742.526 808.621 741.722 809.846 740.581 810.773 739.104 811.403 737.627 812.032 735.867 812.347 733.824 812.347 730.59 812.347 728.085 811.605 726.307 810.122 724.529 808.638 723.64 806.392 723.64 803.383L728.973 803.383C728.973 804.769 729.397 805.85 730.244 806.627 731.091 807.403 732.277 807.792 733.803 807.792 735.188 807.792 736.242 807.463 736.962 806.805 737.683 806.147 738.044 805.112 738.044 803.698 738.044 802.327 737.596 801.333 736.7 800.717 735.804 800.101 734.656 799.793 733.257 799.793L731.556 799.793 731.556 795.427 733.425 795.427C734.684 795.427 735.699 795.101 736.469 794.451 737.239 793.8 737.624 792.943 737.624 791.879 737.624 790.787 737.284 789.983 736.606 789.465 735.927 788.947 734.985 788.688 733.782 788.688 732.48 788.688 731.475 789.021 730.769 789.685 730.062 790.35 729.708 791.27 729.708 792.446L724.375 792.446C724.375 790.542 724.792 788.979 725.625 787.754 726.457 786.529 727.581 785.616 728.994 785.014 730.408 784.413 731.997 784.112 733.761 784.112ZM636.593 783.734 647.679 783.734C649.541 783.734 651.238 784.063 652.771 784.72 654.303 785.378 655.525 786.379 656.434 787.722 657.344 789.066 657.799 790.78 657.799 792.866 657.799 794.923 657.344 796.623 656.434 797.967 655.525 799.311 654.303 800.308 652.771 800.958 651.238 801.609 649.541 801.935 647.679 801.935L642.493 801.935 642.493 811.99 636.593 811.99ZM623.593 783.734 629.493 783.734 629.493 811.99 623.593 811.99ZM594.257 783.734 600.304 783.734 600.304 800.612C600.304 802.935 600.78 804.664 601.732 805.797 602.684 806.931 604.181 807.498 606.225 807.498 608.283 807.498 609.77 806.931 610.687 805.797 611.603 804.664 612.062 802.935 612.062 800.612L612.062 783.734 618.13 783.734 618.13 800.759C618.13 803.25 617.717 805.364 616.891 807.099 616.065 808.834 614.774 810.146 613.017 811.035 611.26 811.924 608.982 812.368 606.183 812.368 603.411 812.368 601.144 811.924 599.38 811.035 597.617 810.146 596.322 808.834 595.496 807.099 594.67 805.364 594.257 803.25 594.257 800.759ZM538.593 783.734 557.553 783.734 557.553 788.625 544.493 788.625 544.493 795.196 556.335 795.196 556.335 799.919 544.493 799.919 544.493 807.099 557.553 807.099 557.553 811.99 538.593 811.99ZM675.065 783.356C678.018 783.356 680.517 783.954 682.56 785.151 684.604 786.347 686.158 788.034 687.221 790.21 688.285 792.386 688.817 794.944 688.817 797.883 688.817 800.822 688.285 803.373 687.221 805.535 686.158 807.697 684.604 809.377 682.56 810.573 680.517 811.77 678.018 812.368 675.065 812.368 672.111 812.368 669.609 811.77 667.559 810.573 665.508 809.377 663.951 807.697 662.887 805.535 661.823 803.373 661.291 800.822 661.291 797.883 661.291 794.944 661.823 792.386 662.887 790.21 663.951 788.034 665.508 786.347 667.559 785.151 669.609 783.954 672.111 783.356 675.065 783.356ZM575.065 783.356C578.018 783.356 580.517 783.954 582.56 785.151 584.604 786.347 586.158 788.034 587.221 790.21 588.285 792.386 588.817 794.944 588.817 797.883 588.817 800.822 588.285 803.373 587.221 805.535 586.158 807.697 584.604 809.377 582.56 810.573 582.049 810.872 581.51 811.134 580.942 811.359L579.746 811.734 580.765 812.746C581.346 813.138 582.109 813.428 583.054 813.617 583.999 813.806 585.22 813.901 586.718 813.901L587.83 813.901 587.83 818.96 586.424 818.96C584.394 818.96 582.707 818.768 581.364 818.383 580.02 817.998 578.918 817.463 578.057 816.777 577.196 816.091 576.479 815.29 575.905 814.373L574.814 812.355 572.934 812.256C570.888 812.032 569.097 811.471 567.559 810.573 565.508 809.377 563.951 807.697 562.887 805.535 561.823 803.373 561.291 800.822 561.291 797.883 561.291 794.944 561.823 792.386 562.887 790.21 563.951 788.034 565.508 786.347 567.559 785.151 569.609 783.954 572.111 783.356 575.065 783.356Z" fill="url(#fill1)" fill-rule="evenodd"/><text fill="#000000" fill-opacity="0" font-family="Arial,Arial_MSFontService,sans-serif" font-size="35.6041" x="538.593" y="814.51">EQUIPO #3</text><path d="M709.06 429.08 708.388 433.971 712.587 433.971 713.217 429.08ZM642.493 421.837 642.493 430.528 647.133 430.528C648.505 430.528 649.614 430.164 650.461 429.436 651.308 428.709 651.731 427.631 651.731 426.204 651.731 424.72 651.297 423.621 650.429 422.908 649.562 422.194 648.463 421.837 647.133 421.837ZM675.065 421.606C673.217 421.606 671.73 422.04 670.603 422.908 669.476 423.775 668.657 424.937 668.146 426.393 667.635 427.848 667.38 429.457 667.38 431.221 667.38 432.956 667.635 434.552 668.146 436.007 668.657 437.463 669.476 438.624 670.603 439.492 671.73 440.36 673.217 440.794 675.065 440.794 676.898 440.794 678.375 440.36 679.495 439.492 680.615 438.624 681.433 437.463 681.951 436.007 682.469 434.552 682.728 432.956 682.728 431.221 682.728 429.457 682.469 427.848 681.951 426.393 681.433 424.937 680.615 423.775 679.495 422.908 678.375 422.04 676.898 421.606 675.065 421.606ZM575.065 421.606C573.217 421.606 571.73 422.04 570.603 422.908 569.476 423.775 568.657 424.937 568.146 426.393 567.635 427.848 567.38 429.457 567.38 431.221 567.38 432.956 567.635 434.552 568.146 436.007 568.657 437.463 569.476 438.624 570.603 439.492 571.73 440.36 573.217 440.794 575.065 440.794 576.898 440.794 578.375 440.36 579.495 439.492 580.615 438.624 581.433 437.463 581.951 436.007 582.469 434.552 582.728 432.956 582.728 431.221 582.728 429.457 582.469 427.848 581.951 426.393 581.433 424.937 580.615 423.775 579.495 422.908 578.375 422.04 576.898 421.606 575.065 421.606ZM706.813 417.827 710.613 417.827 709.543 425.616 713.721 425.616 714.792 417.827 718.634 417.827 717.542 425.616 721.489 425.616 721.489 429.08 717.038 429.08 716.387 433.971 720.293 433.971 720.293 437.456 715.904 437.456 714.813 445.328 710.991 445.328 712.062 437.456 707.884 437.456 706.792 445.328 702.95 445.328 704.042 437.456 700.031 437.456 700.031 433.971 704.546 433.971 705.217 429.08 701.186 429.08 701.186 425.616 705.721 425.616ZM733.76 417.449C735.608 417.449 737.218 417.778 738.59 418.436 739.961 419.094 741.025 420.039 741.781 421.27 742.537 422.502 742.915 423.999 742.915 425.763 742.915 427.232 742.652 428.537 742.127 429.678 741.602 430.819 740.889 431.875 739.986 432.848 739.083 433.821 738.072 434.804 736.952 435.797L731.514 440.605 743.65 440.605 743.65 445.328 723.724 445.328 723.724 441.465 733.781 432.313C734.943 431.249 735.808 430.22 736.374 429.227 736.941 428.233 737.225 427.211 737.225 426.162 737.225 425.07 736.966 424.16 736.448 423.432 735.93 422.705 735.034 422.341 733.76 422.341 732.319 422.341 731.286 422.782 730.664 423.663 730.041 424.545 729.729 425.686 729.729 427.085L724.396 427.085C724.396 425.07 724.76 423.342 725.488 421.9 726.216 420.458 727.28 419.356 728.679 418.594 730.079 417.831 731.773 417.449 733.76 417.449ZM636.593 417.072 647.679 417.072C649.541 417.072 651.238 417.401 652.77 418.058 654.303 418.716 655.524 419.717 656.434 421.06 657.344 422.404 657.799 424.118 657.799 426.204 657.799 428.261 657.344 429.961 656.434 431.305 655.524 432.648 654.303 433.646 652.77 434.296 651.238 434.947 649.541 435.273 647.679 435.273L642.493 435.273 642.493 445.328 636.593 445.328ZM623.593 417.072 629.493 417.072 629.493 445.328 623.593 445.328ZM594.257 417.072 600.304 417.072 600.304 433.95C600.304 436.273 600.78 438.002 601.732 439.135 602.683 440.269 604.181 440.836 606.225 440.836 608.282 440.836 609.77 440.269 610.686 439.135 611.603 438.002 612.062 436.273 612.062 433.95L612.062 417.072 618.13 417.072 618.13 434.097C618.13 436.588 617.717 438.701 616.891 440.437 616.065 442.172 614.774 443.484 613.017 444.373 611.26 445.262 608.982 445.706 606.183 445.706 603.411 445.706 601.144 445.262 599.38 444.373 597.616 443.484 596.322 442.172 595.496 440.437 594.67 438.701 594.257 436.588 594.257 434.097ZM538.593 417.072 557.552 417.072 557.552 421.963 544.493 421.963 544.493 428.534 556.335 428.534 556.335 433.257 544.493 433.257 544.493 440.437 557.552 440.437 557.552 445.328 538.593 445.328ZM675.065 416.694C678.018 416.694 680.517 417.292 682.56 418.489 684.604 419.685 686.158 421.372 687.221 423.548 688.285 425.724 688.817 428.282 688.817 431.221 688.817 434.16 688.285 436.711 687.221 438.873 686.158 441.035 684.604 442.715 682.56 443.911 680.517 445.108 678.018 445.706 675.065 445.706 672.111 445.706 669.609 445.108 667.559 443.911 665.508 442.715 663.951 441.035 662.887 438.873 661.823 436.711 661.291 434.16 661.291 431.221 661.291 428.282 661.823 425.724 662.887 423.548 663.951 421.372 665.508 419.685 667.559 418.489 669.609 417.292 672.111 416.694 675.065 416.694ZM575.065 416.694C578.018 416.694 580.517 417.292 582.56 418.489 584.604 419.685 586.158 421.372 587.221 423.548 588.285 425.724 588.817 428.282 588.817 431.221 588.817 434.16 588.285 436.711 587.221 438.873 586.158 441.035 584.604 442.715 582.56 443.911 582.049 444.21 581.51 444.472 580.942 444.696L579.746 445.072 580.765 446.084C581.346 446.476 582.109 446.766 583.054 446.955 583.998 447.144 585.22 447.239 586.717 447.239L587.83 447.239 587.83 452.298 586.424 452.298C584.394 452.298 582.707 452.105 581.363 451.721 580.02 451.336 578.917 450.8 578.057 450.115 577.196 449.429 576.478 448.628 575.904 447.711L574.814 445.693 572.934 445.594C570.888 445.37 569.096 444.809 567.559 443.911 565.508 442.715 563.951 441.035 562.887 438.873 561.823 436.711 561.291 434.16 561.291 431.221 561.291 428.282 561.823 425.724 562.887 423.548 563.951 421.372 565.508 419.685 567.559 418.489 569.609 417.292 572.111 416.694 575.065 416.694Z" fill="url(#fill2)" fill-rule="evenodd"/><text fill="#000000" fill-opacity="0" font-family="Arial,Arial_MSFontService,sans-serif" font-size="35.6041" x="538.593" y="447.847">EQUIPO #2</text><path d="M90.4462 101.79 160.289 101.79 160.289 154.716 90.4462 154.716Z" fill="#156082" fill-rule="evenodd"/><path d="M160.289 101.79 821.81 101.79 821.81 154.716 160.289 154.716Z" fill="#156082" fill-rule="evenodd"/><path d="M821.81 101.79 1187.55 101.79 1187.55 154.716 821.81 154.716Z" fill="#156082" fill-rule="evenodd"/><path d="M90.4462 154.716 160.289 154.716 160.289 207.643 90.4462 207.643Z" fill="#156082" fill-rule="evenodd"/><path d="M160.289 154.716 821.81 154.716 821.81 207.643 160.289 207.643Z" fill="#CCD2D8" fill-rule="evenodd"/><path d="M821.81 154.716 1187.55 154.716 1187.55 366.421 821.81 366.421Z" fill="#CCD2D8" fill-rule="evenodd"/><path d="M90.4462 207.643 160.289 207.643 160.289 260.569 90.4462 260.569Z" fill="#156082" fill-rule="evenodd"/><path d="M160.289 207.643 821.81 207.643 821.81 260.569 160.289 260.569Z" fill="#E7EAED" fill-rule="evenodd"/><path d="M90.4462 260.569 160.289 260.569 160.289 313.495 90.4462 313.495Z" fill="#156082" fill-rule="evenodd"/><path d="M160.289 260.569 821.81 260.569 821.81 313.495 160.289 313.495Z" fill="#CCD2D8" fill-rule="evenodd"/><path d="M90.4462 313.495 160.289 313.495 160.289 366.421 90.4462 366.421Z" fill="#156082" fill-rule="evenodd"/><path d="M160.289 313.495 821.81 313.495 821.81 366.421 160.289 366.421Z" fill="#E7EAED" fill-rule="evenodd"/><path d="M160.289 101.123 160.289 367.088" stroke="#FFFFFF" stroke-width="1.33386" stroke-linejoin="round" stroke-miterlimit="10" fill="none" fill-rule="evenodd"/><path d="M821.81 101.123 821.81 367.088" stroke="#FFFFFF" stroke-width="1.33386" stroke-linejoin="round" stroke-miterlimit="10" fill="none" fill-rule="evenodd"/><path d="M89.7793 154.716 1188.22 154.716" stroke="#FFFFFF" stroke-width="4.00157" stroke-linejoin="round" stroke-miterlimit="10" fill="none" fill-rule="evenodd"/><path d="M89.7793 207.643 822.477 207.643" stroke="#FFFFFF" stroke-width="1.33386" stroke-linejoin="round" stroke-miterlimit="10" fill="none" fill-rule="evenodd"/><path d="M89.7793 260.569 822.477 260.569" stroke="#FFFFFF" stroke-width="1.33386" stroke-linejoin="round" stroke-miterlimit="10" fill="none" fill-rule="evenodd"/><path d="M89.7793 313.495 822.477 313.495" stroke="#FFFFFF" stroke-width="1.33386" stroke-linejoin="round" stroke-miterlimit="10" fill="none" fill-rule="evenodd"/><path d="M90.4462 101.123 90.4462 367.088" stroke="#FFFFFF" stroke-width="1.33386" stroke-linejoin="round" stroke-miterlimit="10" fill="none" fill-rule="evenodd"/><path d="M1187.55 101.123 1187.55 367.088" stroke="#FFFFFF" stroke-width="1.33386" stroke-linejoin="round" stroke-miterlimit="10" fill="none" fill-rule="evenodd"/><path d="M89.7793 101.79 1188.22 101.79" stroke="#FFFFFF" stroke-width="1.33386" stroke-linejoin="round" stroke-miterlimit="10" fill="none" fill-rule="evenodd"/><path d="M89.7793 366.421 1188.22 366.421" stroke="#FFFFFF" stroke-width="1.33386" stroke-linejoin="round" stroke-miterlimit="10" fill="none" fill-rule="evenodd"/><text fill="#FFFFFF" font-family="Aptos,Aptos_MSFontService,sans-serif" font-weight="700" font-size="43" transform="matrix(1 0 0 0.999853 927.112 143)">EQUIPO</text><text fill="#FFFFFF" font-family="Aptos,Aptos_MSFontService,sans-serif" font-weight="700" font-size="43" transform="matrix(1 0 0 0.999853 403.349 143)">NOMBRE</text><g><text fill="#FFFFFF" font-family="Aptos,Aptos_MSFontService,sans-serif" font-weight="700" font-size="43" transform="matrix(1 0 0 0.999853 101.858 143)">N</text></g><g><text fill="#FFFFFF" font-family="Aptos,Aptos_MSFontService,sans-serif" font-weight="700" font-size="43" transform="matrix(1 0 0 0.999853 132.704 143)">°</text></g><text font-family="Aptos,Aptos_MSFontService,sans-serif" font-weight="400" font-size="43" transform="matrix(1 0 0 0.999853 976.404 262)">3M</text><g><text font-family="Aptos,Aptos_MSFontService,sans-serif" font-weight="400" font-size="43" transform="matrix(1 0 0 0.999853 167.492 196)">Danna marles 3T</text></g><g><text fill="#FFFFFF" font-family="Aptos,Aptos_MSFontService,sans-serif" font-weight="700" font-size="43" transform="matrix(1 0 0 0.999853 113.947 196)">1</text></g><g><text font-family="Aptos,Aptos_MSFontService,sans-serif" font-weight="400" font-size="43" transform="matrix(1 0 0 0.999853 167.492 249)">Emily vasco 3T</text></g><g><text fill="#FFFFFF" font-family="Aptos,Aptos_MSFontService,sans-serif" font-weight="700" font-size="43" transform="matrix(1 0 0 0.999853 113.947 249)">2</text></g><g><text font-family="Aptos,Aptos_MSFontService,sans-serif" font-weight="400" font-size="43" transform="matrix(1 0 0 0.999853 167.492 302)">Melanie torres 3M</text></g><g><text fill="#FFFFFF" font-family="Aptos,Aptos_MSFontService,sans-serif" font-weight="700" font-size="43" transform="matrix(1 0 0 0.999853 113.947 302)">3</text></g><g><text font-family="Aptos,Aptos_MSFontService,sans-serif" font-weight="400" font-size="43" transform="matrix(1 0 0 0.999853 167.492 354)">Dahiana sanchez 3M</text></g><g><text fill="#FFFFFF" font-family="Aptos,Aptos_MSFontService,sans-serif" font-weight="700" font-size="43" transform="matrix(1 0 0 0.999853 113.947 354)">4</text></g><path d="M709.06 64.799 708.388 69.6904 712.587 69.6904 713.217 64.799ZM642.493 57.5564 642.493 66.2475 647.133 66.2475C648.505 66.2475 649.614 65.8836 650.461 65.1559 651.308 64.4281 651.731 63.3505 651.731 61.923 651.731 60.4395 651.297 59.3408 650.429 58.6271 649.561 57.9133 648.463 57.5564 647.133 57.5564ZM675.065 57.3255C673.217 57.3255 671.73 57.7593 670.603 58.6271 669.476 59.4948 668.657 60.6564 668.146 62.1119 667.635 63.5674 667.38 65.1769 667.38 66.9403 667.38 68.6757 667.635 70.2712 668.146 71.7267 668.657 73.1822 669.476 74.3438 670.603 75.2115 671.73 76.0792 673.217 76.5131 675.065 76.5131 676.898 76.5131 678.375 76.0792 679.495 75.2115 680.615 74.3438 681.433 73.1822 681.951 71.7267 682.469 70.2712 682.728 68.6757 682.728 66.9403 682.728 65.1769 682.469 63.5674 681.951 62.1119 681.433 60.6564 680.615 59.4948 679.495 58.6271 678.375 57.7593 676.898 57.3255 675.065 57.3255ZM575.065 57.3255C573.217 57.3255 571.73 57.7593 570.603 58.6271 569.476 59.4948 568.657 60.6564 568.146 62.1119 567.635 63.5674 567.38 65.1769 567.38 66.9403 567.38 68.6757 567.635 70.2712 568.146 71.7267 568.657 73.1822 569.476 74.3438 570.603 75.2115 571.73 76.0792 573.217 76.5131 575.065 76.5131 576.898 76.5131 578.375 76.0792 579.495 75.2115 580.615 74.3438 581.433 73.1822 581.951 71.7267 582.469 70.2712 582.728 68.6757 582.728 66.9403 582.728 65.1769 582.469 63.5674 581.951 62.1119 581.433 60.6564 580.615 59.4948 579.495 58.6271 578.375 57.7593 576.898 57.3255 575.065 57.3255ZM706.813 53.5468 710.613 53.5468 709.543 61.3352 713.721 61.3352 714.792 53.5468 718.634 53.5468 717.542 61.3352 721.489 61.3352 721.489 64.799 717.038 64.799 716.387 69.6904 720.293 69.6904 720.293 73.1752 715.904 73.1752 714.813 81.0476 710.991 81.0476 712.062 73.1752 707.884 73.1752 706.792 81.0476 702.95 81.0476 704.042 73.1752 700.031 73.1752 700.031 69.6904 704.545 69.6904 705.217 64.799 701.186 64.799 701.186 61.3352 705.721 61.3352ZM733.361 53.5048 738.652 53.5048 738.652 81.0476 732.794 81.0476 732.794 60.0336C732.347 60.5514 731.794 61.0448 731.136 61.5136 730.478 61.9824 729.684 62.3953 728.753 62.7522 727.822 63.1091 726.72 63.3785 725.446 63.5604L725.446 58.3961C726.734 58.1162 727.864 57.7383 728.837 57.2625 729.81 56.7867 730.663 56.2304 731.398 55.5936 732.133 54.9568 732.787 54.2605 733.361 53.5048ZM636.593 52.791 647.679 52.791C649.54 52.791 651.238 53.1199 652.77 53.7777 654.303 54.4355 655.524 55.4361 656.434 56.7797 657.344 58.1232 657.799 59.8377 657.799 61.923 657.799 63.9803 657.344 65.6807 656.434 67.0243 655.524 68.3678 654.303 69.365 652.77 70.0158 651.238 70.6665 649.54 70.9919 647.679 70.9919L642.493 70.9919 642.493 81.0476 636.593 81.0476ZM623.593 52.791 629.493 52.791 629.493 81.0476 623.593 81.0476ZM594.257 52.791 600.304 52.791 600.304 69.6694C600.304 71.9926 600.78 73.721 601.732 74.8546 602.683 75.9883 604.181 76.5551 606.225 76.5551 608.282 76.5551 609.77 75.9883 610.686 74.8546 611.603 73.721 612.062 71.9926 612.062 69.6694L612.062 52.791 618.129 52.791 618.129 69.8163C618.129 72.3075 617.717 74.4208 616.891 76.1562 616.065 77.8916 614.774 79.2037 613.017 80.0924 611.26 80.9811 608.982 81.4255 606.183 81.4255 603.411 81.4255 601.144 80.9811 599.38 80.0924 597.616 79.2037 596.322 77.8916 595.496 76.1562 594.67 74.4208 594.257 72.3075 594.257 69.8163ZM538.593 52.791 557.552 52.791 557.552 57.6824 544.493 57.6824 544.493 64.2532 556.335 64.2532 556.335 68.9766 544.493 68.9766 544.493 76.1562 557.552 76.1562 557.552 81.0476 538.593 81.0476ZM675.065 52.4131C678.018 52.4131 680.516 53.0114 682.56 54.208 684.604 55.4046 686.157 57.0911 687.221 59.2673 688.285 61.4436 688.817 64.0013 688.817 66.9403 688.817 69.8793 688.285 72.43 687.221 74.5922 686.157 76.7545 684.604 78.434 682.56 79.6306 680.516 80.8272 678.018 81.4255 675.065 81.4255 672.111 81.4255 669.609 80.8272 667.558 79.6306 665.508 78.434 663.951 76.7545 662.887 74.5922 661.823 72.43 661.291 69.8793 661.291 66.9403 661.291 64.0013 661.823 61.4436 662.887 59.2673 663.951 57.0911 665.508 55.4046 667.558 54.208 669.609 53.0114 672.111 52.4131 675.065 52.4131ZM575.065 52.4131C578.018 52.4131 580.516 53.0114 582.56 54.208 584.604 55.4046 586.157 57.0911 587.221 59.2673 588.285 61.4436 588.817 64.0013 588.817 66.9403 588.817 69.8793 588.285 72.43 587.221 74.5922 586.157 76.7545 584.604 78.434 582.56 79.6306 582.049 79.9297 581.51 80.1915 580.942 80.4158L579.745 80.7911 580.765 81.8033C581.346 82.1952 582.109 82.4856 583.054 82.6745 583.998 82.8635 585.22 82.9579 586.717 82.9579L587.83 82.9579 587.83 88.0173 586.423 88.0173C584.394 88.0173 582.707 87.8248 581.363 87.4399 580.02 87.0551 578.917 86.5198 578.056 85.834 577.196 85.1482 576.478 84.347 575.904 83.4303L574.814 81.4122 572.934 81.3133C570.888 81.0889 569.096 80.528 567.558 79.6306 565.508 78.434 563.951 76.7545 562.887 74.5922 561.823 72.43 561.291 69.8793 561.291 66.9403 561.291 64.0013 561.823 61.4436 562.887 59.2673 563.951 57.0911 565.508 55.4046 567.558 54.208 569.609 53.0114 572.111 52.4131 575.065 52.4131Z" fill="url(#fill3)" fill-rule="evenodd"/><text fill="#000000" fill-opacity="0" font-family="Arial,Arial_MSFontService,sans-serif" font-size="35.6041" x="538.593" y="83.5667">EQUIPO #1</text></g></svg>