<svg width="1278" height="2049" xmlns="http://www.w3.org/2000/svg" xmlns:xlink="http://www.w3.org/1999/xlink" overflow="hidden"><defs><filter id="fx0" x="-10%" y="-10%" width="120%" height="120%" filterUnits="userSpaceOnUse" primitiveUnits="userSpaceOnUse"><feComponentTransfer color-interpolation-filters="sRGB"><feFuncR type="discrete" tableValues="0 0"/><feFuncG type="discrete" tableValues="0 0"/><feFuncB type="discrete" tableValues="0 0"/><feFuncA type="linear" slope="0.4" intercept="0"/></feComponentTransfer><feGaussianBlur stdDeviation="1.77847 1.77821"/></filter><filter id="fx1" x="-10%" y="-10%" width="120%" height="120%" filterUnits="userSpaceOnUse" primitiveUnits="userSpaceOnUse"><feComponentTransfer color-interpolation-filters="sRGB"><feFuncR type="discrete" tableValues="0 0"/><feFuncG type="discrete" tableValues="0 0"/><feFuncB type="discrete" tableValues="0 0"/><feFuncA type="linear" slope="0.4" intercept="0"/></feComponentTransfer><feGaussianBlur stdDeviation="1.77847 1.77821"/></filter><linearGradient x1="628.926" y1="1265.95" x2="652.329" y2="1362.7" gradientUnits="userSpaceOnUse" spreadMethod="reflect" id="fill2"><stop offset="0" stop-color="#002C3F"/><stop offset="0.5" stop-color="#00445F"/><stop offset="1" stop-color="#005272"/></linearGradient><linearGradient x1="627.298" y1="901.085" x2="650.701" y2="997.836" gradientUnits="userSpaceOnUse" spreadMethod="reflect" id="fill3"><stop offset="0" stop-color="#002C3F"/><stop offset="0.5" stop-color="#00445F"/><stop offset="1" stop-color="#005272"/></linearGradient><linearGradient x1="627.298" y1="534.423" x2="650.701" y2="631.174" gradientUnits="userSpaceOnUse" spreadMethod="reflect" id="fill4"><stop offset="0" stop-color="#002C3F"/><stop offset="0.5" stop-color="#00445F"/><stop offset="1" stop-color="#005272"/></linearGradient><linearGradient x1="627.298" y1="180.429" x2="650.701" y2="277.18" gradientUnits="userSpaceOnUse" spreadMethod="reflect" id="fill5"><stop offset="0" stop-color="#002C3F"/><stop offset="0.5" stop-color="#00445F"/><stop offset="1" stop-color="#005272"/></linearGradient><clipPath id="clip6"><path d="M75.0001 37.9944 75.0001 150.978 1203 150.978 1203 37.9944ZM1.90437e-05 3.05325e-05 1278 3.05325e-05 1278 2049 1.90437e-05 2049Z" fill-rule="evenodd" clip-rule="evenodd"/></clipPath><linearGradient x1="633.016" y1="43.7748" x2="644.984" y2="144.767" gradientUnits="userSpaceOnUse" spreadMethod="reflect" id="fill7"><stop offset="0" stop-color="#002C3F"/><stop offset="0.5" stop-color="#00445F"/><stop offset="1" stop-color="#005272"/></linearGradient></defs><g><rect x="0" y="0" width="1278" height="2048.7" fill="#FFFFFF"/><path d="M90.4462 617.369 160.289 617.369 160.289 670.295 90.4462 670.295Z" fill="#156082" fill-rule="evenodd"/><path d="M160.289 617.369 821.81 617.369 821.81 670.295 160.289 670.295Z" fill="#156082" fill-rule="evenodd"/><path d="M821.81 617.369 1187.55 617.369 1187.55 670.295 821.81 670.295Z" fill="#156082" fill-rule="evenodd"/><path d="M90.4462 670.295 160.289 670.295 160.289 723.221 90.4462 723.221Z" fill="#156082" fill-rule="evenodd"/><path d="M160.289 670.295 821.81 670.295 821.81 723.221 160.289 723.221Z" fill="#CCD2D8" fill-rule="evenodd"/><path d="M821.81 670.295 1187.55 670.295 1187.55 882 821.81 882Z" fill="#CCD2D8" fill-rule="evenodd"/><path d="M90.4462 723.221 160.289 723.221 160.289 776.148 90.4462 776.148Z" fill="#156082" fill-rule="evenodd"/><path d="M160.289 723.221 821.81 723.221 821.81 776.148 160.289 776.148Z" fill="#E7EAED" fill-rule="evenodd"/><path d="M90.4462 776.148 160.289 776.148 160.289 829.074 90.4462 829.074Z" fill="#156082" fill-rule="evenodd"/><path d="M160.289 776.148 821.81 776.148 821.81 829.074 160.289 829.074Z" fill="#CCD2D8" fill-rule="evenodd"/><path d="M90.4462 829.074 160.289 829.074 160.289 882 90.4462 882Z" fill="#156082" fill-rule="evenodd"/><path d="M160.289 829.074 821.81 829.074 821.81 882 160.289 882Z" fill="#E7EAED" fill-rule="evenodd"/><path d="M160.289 616.702 160.289 882.667" stroke="#FFFFFF" stroke-width="1.33386" stroke-linejoin="round" stroke-miterlimit="10" fill="none" fill-rule="evenodd"/><path d="M821.81 616.702 821.81 882.667" stroke="#FFFFFF" stroke-width="1.33386" stroke-linejoin="round" stroke-miterlimit="10" fill="none" fill-rule="evenodd"/><path d="M89.7793 670.295 1188.22 670.295" stroke="#FFFFFF" stroke-width="4.00157" stroke-linejoin="round" stroke-miterlimit="10" fill="none" fill-rule="evenodd"/><path d="M89.7793 723.221 822.477 723.221" stroke="#FFFFFF" stroke-width="1.33386" stroke-linejoin="round" stroke-miterlimit="10" fill="none" fill-rule="evenodd"/><path d="M89.7793 776.148 822.477 776.148" stroke="#FFFFFF" stroke-width="1.33386" stroke-linejoin="round" stroke-miterlimit="10" fill="none" fill-rule="evenodd"/><path d="M89.7793 829.074 822.477 829.074" stroke="#FFFFFF" stroke-width="1.33386" stroke-linejoin="round" stroke-miterlimit="10" fill="none" fill-rule="evenodd"/><path d="M90.4462 616.702 90.4462 882.667" stroke="#FFFFFF" stroke-width="1.33386" stroke-linejoin="round" stroke-miterlimit="10" fill="none" fill-rule="evenodd"/><path d="M1187.55 616.702 1187.55 882.667" stroke="#FFFFFF" stroke-width="1.33386" stroke-linejoin="round" stroke-miterlimit="10" fill="none" fill-rule="evenodd"/><path d="M89.7793 617.369 1188.22 617.369" stroke="#FFFFFF" stroke-width="1.33386" stroke-linejoin="round" stroke-miterlimit="10" fill="none" fill-rule="evenodd"/><path d="M89.7793 882 1188.22 882" stroke="#FFFFFF" stroke-width="1.33386" stroke-linejoin="round" stroke-miterlimit="10" fill="none" fill-rule="evenodd"/><text fill="#FFFFFF" font-family="Aptos,Aptos_MSFontService,sans-serif" font-weight="700" font-size="43" transform="matrix(1 0 0 0.999853 927.112 658)">EQUIPO</text><text fill="#FFFFFF" font-family="Aptos,Aptos_MSFontService,sans-serif" font-weight="700" font-size="43" transform="matrix(1 0 0 0.999853 403.349 658)">NOMBRE</text><g><text fill="#FFFFFF" font-family="Aptos,Aptos_MSFontService,sans-serif" font-weight="700" font-size="43" transform="matrix(1 0 0 0.999853 101.858 658)">N</text></g><g><text fill="#FFFFFF" font-family="Aptos,Aptos_MSFontService,sans-serif" font-weight="700" font-size="43" transform="matrix(1 0 0 0.999853 132.704 658)">°</text></g><text font-family="Aptos,Aptos_MSFontService,sans-serif" font-weight="400" font-size="43" transform="matrix(1 0 0 0.999853 982.986 777)">3T</text><g><text font-family="Aptos,Aptos_MSFontService,sans-serif" font-weight="400" font-size="43" transform="matrix(1 0 0 0.999853 167.492 711)">Victoria guerra 3T</text></g><g><text fill="#FFFFFF" font-family="Aptos,Aptos_MSFontService,sans-serif" font-weight="700" font-size="43" transform="matrix(1 0 0 0.999853 113.947 711)">1</text></g><g><text font-family="Aptos,Aptos_MSFontService,sans-serif" font-weight="400" font-size="43" transform="matrix(1 0 0 0.999853 167.492 764)">Mariana quiñonez 3T</text></g><g><text fill="#FFFFFF" font-family="Aptos,Aptos_MSFontService,sans-serif" font-weight="700" font-size="43" transform="matrix(1 0 0 0.999853 113.947 764)">2</text></g><g><text font-family="Aptos,Aptos_MSFontService,sans-serif" font-weight="400" font-size="43" transform="matrix(1 0 0 0.999853 167.492 817)">Luciana olivarez 3T</text></g><g><text fill="#FFFFFF" font-family="Aptos,Aptos_MSFontService,sans-serif" font-weight="700" font-size="43" transform="matrix(1 0 0 0.999853 113.947 817)">3</text></g><g><text font-family="Aptos,Aptos_MSFontService,sans-serif" font-weight="400" font-size="43" transform="matrix(1 0 0 0.999853 167.492 870)">Samantha peña 3T</text></g><g><text fill="#FFFFFF" font-family="Aptos,Aptos_MSFontService,sans-serif" font-weight="700" font-size="43" transform="matrix(1 0 0 0.999853 113.947 870)">4</text></g><path d="M90.4462 985.369 160.289 985.369 160.289 1038.3 90.4462 1038.3Z" fill="#156082" fill-rule="evenodd"/><path d="M160.289 985.369 821.81 985.369 821.81 1038.3 160.289 1038.3Z" fill="#156082" fill-rule="evenodd"/><path d="M821.81 985.369 1187.55 985.369 1187.55 1038.3 821.81 1038.3Z" fill="#156082" fill-rule="evenodd"/><path d="M90.4462 1038.3 160.289 1038.3 160.289 1091.22 90.4462 1091.22Z" fill="#156082" fill-rule="evenodd"/><path d="M160.289 1038.3 821.81 1038.3 821.81 1091.22 160.289 1091.22Z" fill="#CCD2D8" fill-rule="evenodd"/><path d="M821.81 1038.3 1187.55 1038.3 1187.55 1250 821.81 1250Z" fill="#CCD2D8" fill-rule="evenodd"/><path d="M90.4462 1091.22 160.289 1091.22 160.289 1144.15 90.4462 1144.15Z" fill="#156082" fill-rule="evenodd"/><path d="M160.289 1091.22 821.81 1091.22 821.81 1144.15 160.289 1144.15Z" fill="#E7EAED" fill-rule="evenodd"/><path d="M90.4462 1144.15 160.289 1144.15 160.289 1197.07 90.4462 1197.07Z" fill="#156082" fill-rule="evenodd"/><path d="M160.289 1144.15 821.81 1144.15 821.81 1197.07 160.289 1197.07Z" fill="#CCD2D8" fill-rule="evenodd"/><path d="M90.4462 1197.07 160.289 1197.07 160.289 1250 90.4462 1250Z" fill="#156082" fill-rule="evenodd"/><path d="M160.289 1197.07 821.81 1197.07 821.81 1250 160.289 1250Z" fill="#E7EAED" fill-rule="evenodd"/><path d="M160.289 984.702 160.289 1250.67" stroke="#FFFFFF" stroke-width="1.33386" stroke-linejoin="round" stroke-miterlimit="10" fill="none" fill-rule="evenodd"/><path d="M821.81 984.702 821.81 1250.67" stroke="#FFFFFF" stroke-width="1.33386" stroke-linejoin="round" stroke-miterlimit="10" fill="none" fill-rule="evenodd"/><path d="M89.7793 1038.3 1188.22 1038.3" stroke="#FFFFFF" stroke-width="4.00157" stroke-linejoin="round" stroke-miterlimit="10" fill="none" fill-rule="evenodd"/><path d="M89.7793 1091.22 822.477 1091.22" stroke="#FFFFFF" stroke-width="1.33386" stroke-linejoin="round" stroke-miterlimit="10" fill="none" fill-rule="evenodd"/><path d="M89.7793 1144.15 822.477 1144.15" stroke="#FFFFFF" stroke-width="1.33386" stroke-linejoin="round" stroke-miterlimit="10" fill="none" fill-rule="evenodd"/><path d="M89.7793 1197.07 822.477 1197.07" stroke="#FFFFFF" stroke-width="1.33386" stroke-linejoin="round" stroke-miterlimit="10" fill="none" fill-rule="evenodd"/><path d="M90.4462 984.702 90.4462 1250.67" stroke="#FFFFFF" stroke-width="1.33386" stroke-linejoin="round" stroke-miterlimit="10" fill="none" fill-rule="evenodd"/><path d="M1187.55 984.702 1187.55 1250.67" stroke="#FFFFFF" stroke-width="1.33386" stroke-linejoin="round" stroke-miterlimit="10" fill="none" fill-rule="evenodd"/><path d="M89.7793 985.369 1188.22 985.369" stroke="#FFFFFF" stroke-width="1.33386" stroke-linejoin="round" stroke-miterlimit="10" fill="none" fill-rule="evenodd"/><path d="M89.7793 1250 1188.22 1250" stroke="#FFFFFF" stroke-width="1.33386" stroke-linejoin="round" stroke-miterlimit="10" fill="none" fill-rule="evenodd"/><text fill="#FFFFFF" font-family="Aptos,Aptos_MSFontService,sans-serif" font-weight="700" font-size="43" transform="matrix(1 0 0 0.999853 927.112 1026)">EQUIPO</text><text fill="#FFFFFF" font-family="Aptos,Aptos_MSFontService,sans-serif" font-weight="700" font-size="43" transform="matrix(1 0 0 0.999853 403.349 1026)">NOMBRE</text><g><text fill="#FFFFFF" font-family="Aptos,Aptos_MSFontService,sans-serif" font-weight="700" font-size="43" transform="matrix(1 0 0 0.999853 101.858 1026)">N</text></g><g><text fill="#FFFFFF" font-family="Aptos,Aptos_MSFontService,sans-serif" font-weight="700" font-size="43" transform="matrix(1 0 0 0.999853 132.704 1026)">°</text></g><text font-family="Aptos,Aptos_MSFontService,sans-serif" font-weight="400" font-size="43" transform="matrix(1 0 0 0.999853 976.404 1145)">4M</text><g><text font-family="Aptos,Aptos_MSFontService,sans-serif" font-weight="400" font-size="43" transform="matrix(1 0 0 0.999853 167.492 1079)">Lauren bolivar 4M</text></g><g><text fill="#FFFFFF" font-family="Aptos,Aptos_MSFontService,sans-serif" font-weight="700" font-size="43" transform="matrix(1 0 0 0.999853 113.947 1079)">1</text></g><g><text font-family="Aptos,Aptos_MSFontService,sans-serif" font-weight="400" font-size="43" transform="matrix(1 0 0 0.999853 167.492 1132)">Juliana solarte 4M</text></g><g><text fill="#FFFFFF" font-family="Aptos,Aptos_MSFontService,sans-serif" font-weight="700" font-size="43" transform="matrix(1 0 0 0.999853 113.947 1132)">2</text></g><g><text font-family="Aptos,Aptos_MSFontService,sans-serif" font-weight="400" font-size="43" transform="matrix(1 0 0 0.999853 167.492 1185)">Maria jose baltan 4M</text></g><g><text fill="#FFFFFF" font-family="Aptos,Aptos_MSFontService,sans-serif" font-weight="700" font-size="43" transform="matrix(1 0 0 0.999853 113.947 1185)">3</text></g><g><text font-family="Aptos,Aptos_MSFontService,sans-serif" font-weight="400" font-size="43" transform="matrix(1 0 0 0.999853 167.492 1238)">Alaia gomez 3M</text></g><g><text fill="#FFFFFF" font-family="Aptos,Aptos_MSFontService,sans-serif" font-weight="700" font-size="43" transform="matrix(1 0 0 0.999853 113.947 1238)">4</text></g><path d="M90.4462 1349 160.289 1349 160.289 1401.93 90.4462 1401.93Z" fill="#156082" fill-rule="evenodd"/><path d="M160.289 1349 821.81 1349 821.81 1401.93 160.289 1401.93Z" fill="#156082" fill-rule="evenodd"/><path d="M821.81 1349 1187.55 1349 1187.55 1401.93 821.81 1401.93Z" fill="#156082" fill-rule="evenodd"/><path d="M90.4462 1401.93 160.289 1401.93 160.289 1454.86 90.4462 1454.86Z" fill="#156082" fill-rule="evenodd"/><path d="M160.289 1401.93 821.81 1401.93 821.81 1454.86 160.289 1454.86Z" fill="#CCD2D8" fill-rule="evenodd"/><path d="M821.81 1401.93 1187.55 1401.93 1187.55 1613.63 821.81 1613.63Z" fill="#CCD2D8" fill-rule="evenodd"/><path d="M90.4462 1454.86 160.289 1454.86 160.289 1507.78 90.4462 1507.78Z" fill="#156082" fill-rule="evenodd"/><path d="M160.289 1454.86 821.81 1454.86 821.81 1507.78 160.289 1507.78Z" fill="#E7EAED" fill-rule="evenodd"/><path d="M90.4462 1507.78 160.289 1507.78 160.289 1560.71 90.4462 1560.71Z" fill="#156082" fill-rule="evenodd"/><path d="M160.289 1507.78 821.81 1507.78 821.81 1560.71 160.289 1560.71Z" fill="#CCD2D8" fill-rule="evenodd"/><path d="M90.4462 1560.71 160.289 1560.71 160.289 1613.63 90.4462 1613.63Z" fill="#156082" fill-rule="evenodd"/><path d="M160.289 1560.71 821.81 1560.71 821.81 1613.63 160.289 1613.63Z" fill="#E7EAED" fill-rule="evenodd"/><path d="M160.289 1348.34 160.289 1614.3" stroke="#FFFFFF" stroke-width="1.33386" stroke-linejoin="round" stroke-miterlimit="10" fill="none" fill-rule="evenodd"/><path d="M821.81 1348.34 821.81 1614.3" stroke="#FFFFFF" stroke-width="1.33386" stroke-linejoin="round" stroke-miterlimit="10" fill="none" fill-rule="evenodd"/><path d="M89.7793 1401.93 1188.22 1401.93" stroke="#FFFFFF" stroke-width="4.00157" stroke-linejoin="round" stroke-miterlimit="10" fill="none" fill-rule="evenodd"/><path d="M89.7793 1454.86 822.477 1454.86" stroke="#FFFFFF" stroke-width="1.33386" stroke-linejoin="round" stroke-miterlimit="10" fill="none" fill-rule="evenodd"/><path d="M89.7793 1507.78 822.477 1507.78" stroke="#FFFFFF" stroke-width="1.33386" stroke-linejoin="round" stroke-miterlimit="10" fill="none" fill-rule="evenodd"/><path d="M89.7793 1560.71 822.477 1560.71" stroke="#FFFFFF" stroke-width="1.33386" stroke-linejoin="round" stroke-miterlimit="10" fill="none" fill-rule="evenodd"/><path d="M90.4462 1348.34 90.4462 1614.3" stroke="#FFFFFF" stroke-width="1.33386" stroke-linejoin="round" stroke-miterlimit="10" fill="none" fill-rule="evenodd"/><path d="M1187.55 1348.34 1187.55 1614.3" stroke="#FFFFFF" stroke-width="1.33386" stroke-linejoin="round" stroke-miterlimit="10" fill="none" fill-rule="evenodd"/><path d="M89.7793 1349 1188.22 1349" stroke="#FFFFFF" stroke-width="1.33386" stroke-linejoin="round" stroke-miterlimit="10" fill="none" fill-rule="evenodd"/><path d="M89.7793 1613.63 1188.22 1613.63" stroke="#FFFFFF" stroke-width="1.33386" stroke-linejoin="round" stroke-miterlimit="10" fill="none" fill-rule="evenodd"/><text fill="#FFFFFF" font-family="Aptos,Aptos_MSFontService,sans-serif" font-weight="700" font-size="43" transform="matrix(1 0 0 0.999853 927.112 1390)">EQUIPO</text><text fill="#FFFFFF" font-family="Aptos,Aptos_MSFontService,sans-serif" font-weight="700" font-size="43" transform="matrix(1 0 0 0.999853 403.349 1390)">NOMBRE</text><g><text fill="#FFFFFF" font-family="Aptos,Aptos_MSFontService,sans-serif" font-weight="700" font-size="43" transform="matrix(1 0 0 0.999853 101.858 1390)">N</text></g><g><text fill="#FFFFFF" font-family="Aptos,Aptos_MSFontService,sans-serif" font-weight="700" font-size="43" transform="matrix(1 0 0 0.999853 132.704 1390)">°</text></g><text font-family="Aptos,Aptos_MSFontService,sans-serif" font-weight="400" font-size="43" transform="matrix(1 0 0 0.999853 976.404 1509)">5M</text><g><text font-family="Aptos,Aptos_MSFontService,sans-serif" font-weight="400" font-size="43" transform="matrix(1 0 0 0.999853 167.492 1443)">Dulce Angarita 3M</text></g><g><text fill="#FFFFFF" font-family="Aptos,Aptos_MSFontService,sans-serif" font-weight="700" font-size="43" transform="matrix(1 0 0 0.999853 113.947 1443)">1</text></g><g><text font-family="Aptos,Aptos_MSFontService,sans-serif" font-weight="400" font-size="43" transform="matrix(1 0 0 0.999853 167.492 1496)">Luciana arredondo 5M</text></g><g><text fill="#FFFFFF" font-family="Aptos,Aptos_MSFontService,sans-serif" font-weight="700" font-size="43" transform="matrix(1 0 0 0.999853 113.947 1496)">2</text></g><g><text font-family="Aptos,Aptos_MSFontService,sans-serif" font-weight="400" font-size="43" transform="matrix(1 0 0 0.999853 167.492 1549)">Sara hernandez 5M</text></g><g><text fill="#FFFFFF" font-family="Aptos,Aptos_MSFontService,sans-serif" font-weight="700" font-size="43" transform="matrix(1 0 0 0.999853 113.947 1549)">3</text></g><g><text font-family="Aptos,Aptos_MSFontService,sans-serif" font-weight="400" font-size="43" transform="matrix(1 0 0 0.999853 167.492 1601)">Joselyn campo 5M</text></g><g><text fill="#FFFFFF" font-family="Aptos,Aptos_MSFontService,sans-serif" font-weight="700" font-size="43" transform="matrix(1 0 0 0.999853 113.947 1601)">4</text></g><path d="M90.4462 262.972 160.289 262.972 160.289 315.898 90.4462 315.898Z" fill="#156082" fill-rule="evenodd"/><path d="M160.289 262.972 821.81 262.972 821.81 315.898 160.289 315.898Z" fill="#156082" fill-rule="evenodd"/><path d="M821.81 262.972 1187.55 262.972 1187.55 315.898 821.81 315.898Z" fill="#156082" fill-rule="evenodd"/><path d="M90.4462 315.898 160.289 315.898 160.289 368.825 90.4462 368.825Z" fill="#156082" fill-rule="evenodd"/><path d="M160.289 315.898 821.81 315.898 821.81 368.825 160.289 368.825Z" fill="#CCD2D8" fill-rule="evenodd"/><path d="M821.81 315.898 1187.55 315.898 1187.55 527.604 821.81 527.604Z" fill="#CCD2D8" fill-rule="evenodd"/><path d="M90.4462 368.825 160.289 368.825 160.289 421.751 90.4462 421.751Z" fill="#156082" fill-rule="evenodd"/><path d="M160.289 368.825 821.81 368.825 821.81 421.751 160.289 421.751Z" fill="#E7EAED" fill-rule="evenodd"/><path d="M90.4462 421.751 160.289 421.751 160.289 474.677 90.4462 474.677Z" fill="#156082" fill-rule="evenodd"/><path d="M160.289 421.751 821.81 421.751 821.81 474.677 160.289 474.677Z" fill="#CCD2D8" fill-rule="evenodd"/><path d="M90.4462 474.677 160.289 474.677 160.289 527.604 90.4462 527.604Z" fill="#156082" fill-rule="evenodd"/><path d="M160.289 474.677 821.81 474.677 821.81 527.604 160.289 527.604Z" fill="#E7EAED" fill-rule="evenodd"/><path d="M160.289 262.305 160.289 528.27" stroke="#FFFFFF" stroke-width="1.33386" stroke-linejoin="round" stroke-miterlimit="10" fill="none" fill-rule="evenodd"/><path d="M821.81 262.305 821.81 528.27" stroke="#FFFFFF" stroke-width="1.33386" stroke-linejoin="round" stroke-miterlimit="10" fill="none" fill-rule="evenodd"/><path d="M89.7793 315.898 1188.22 315.898" stroke="#FFFFFF" stroke-width="4.00157" stroke-linejoin="round" stroke-miterlimit="10" fill="none" fill-rule="evenodd"/><path d="M89.7793 368.825 822.477 368.825" stroke="#FFFFFF" stroke-width="1.33386" stroke-linejoin="round" stroke-miterlimit="10" fill="none" fill-rule="evenodd"/><path d="M89.7793 421.751 822.477 421.751" stroke="#FFFFFF" stroke-width="1.33386" stroke-linejoin="round" stroke-miterlimit="10" fill="none" fill-rule="evenodd"/><path d="M89.7793 474.677 822.477 474.677" stroke="#FFFFFF" stroke-width="1.33386" stroke-linejoin="round" stroke-miterlimit="10" fill="none" fill-rule="evenodd"/><path d="M90.4462 262.305 90.4462 528.27" stroke="#FFFFFF" stroke-width="1.33386" stroke-linejoin="round" stroke-miterlimit="10" fill="none" fill-rule="evenodd"/><path d="M1187.55 262.305 1187.55 528.27" stroke="#FFFFFF" stroke-width="1.33386" stroke-linejoin="round" stroke-miterlimit="10" fill="none" fill-rule="evenodd"/><path d="M89.7793 262.972 1188.22 262.972" stroke="#FFFFFF" stroke-width="1.33386" stroke-linejoin="round" stroke-miterlimit="10" fill="none" fill-rule="evenodd"/><path d="M89.7793 527.604 1188.22 527.604" stroke="#FFFFFF" stroke-width="1.33386" stroke-linejoin="round" stroke-miterlimit="10" fill="none" fill-rule="evenodd"/><text fill="#FFFFFF" font-family="Aptos,Aptos_MSFontService,sans-serif" font-weight="700" font-size="43" transform="matrix(1 0 0 0.999853 927.112 304)">EQUIPO</text><text fill="#FFFFFF" font-family="Aptos,Aptos_MSFontService,sans-serif" font-weight="700" font-size="43" transform="matrix(1 0 0 0.999853 403.349 304)">NOMBRE</text><g><text fill="#FFFFFF" font-family="Aptos,Aptos_MSFontService,sans-serif" font-weight="700" font-size="43" transform="matrix(1 0 0 0.999853 101.858 304)">N</text></g><g><text fill="#FFFFFF" font-family="Aptos,Aptos_MSFontService,sans-serif" font-weight="700" font-size="43" transform="matrix(1 0 0 0.999853 132.704 304)">°</text></g><text font-family="Aptos,Aptos_MSFontService,sans-serif" font-weight="400" font-size="43" transform="matrix(1 0 0 0.999853 976.404 423)">3M</text><g><text font-family="Aptos,Aptos_MSFontService,sans-serif" font-weight="400" font-size="43" transform="matrix(1 0 0 0.999853 167.492 357)">Danna marles 3T</text></g><g><text fill="#FFFFFF" font-family="Aptos,Aptos_MSFontService,sans-serif" font-weight="700" font-size="43" transform="matrix(1 0 0 0.999853 113.947 357)">1</text></g><g><text font-family="Aptos,Aptos_MSFontService,sans-serif" font-weight="400" font-size="43" transform="matrix(1 0 0 0.999853 167.492 410)">Emily vasco 3T</text></g><g><text fill="#FFFFFF" font-family="Aptos,Aptos_MSFontService,sans-serif" font-weight="700" font-size="43" transform="matrix(1 0 0 0.999853 113.947 410)">2</text></g><g><text font-family="Aptos,Aptos_MSFontService,sans-serif" font-weight="400" font-size="43" transform="matrix(1 0 0 0.999853 167.492 463)">Melanie torres 3M</text></g><g><text fill="#FFFFFF" font-family="Aptos,Aptos_MSFontService,sans-serif" font-weight="700" font-size="43" transform="matrix(1 0 0 0.999853 113.947 463)">3</text></g><g><text font-family="Aptos,Aptos_MSFontService,sans-serif" font-weight="400" font-size="43" transform="matrix(1 0 0 0.999853 167.492 516)">Dahiana sanchez 3M</text></g><g><text fill="#FFFFFF" font-family="Aptos,Aptos_MSFontService,sans-serif" font-weight="700" font-size="43" transform="matrix(1 0 0 0.999853 113.947 516)">4</text></g><path d="M710.687 1311.48 710.016 1316.37 714.215 1316.37 714.845 1311.48ZM736.963 1307.2 729.677 1318.09 736.963 1318.09ZM644.12 1304.24 644.12 1312.93 648.761 1312.93C650.132 1312.93 651.242 1312.56 652.089 1311.83 652.935 1311.11 653.359 1310.03 653.359 1308.6 653.359 1307.12 652.925 1306.02 652.057 1305.31 651.189 1304.59 650.09 1304.24 648.761 1304.24ZM676.692 1304C674.845 1304 673.357 1304.44 672.231 1305.31 671.104 1306.17 670.285 1307.34 669.774 1308.79 669.263 1310.25 669.008 1311.86 669.008 1313.62 669.008 1315.35 669.263 1316.95 669.774 1318.41 670.285 1319.86 671.104 1321.02 672.231 1321.89 673.357 1322.76 674.845 1323.19 676.692 1323.19 678.526 1323.19 680.003 1322.76 681.122 1321.89 682.242 1321.02 683.061 1319.86 683.579 1318.41 684.097 1316.95 684.356 1315.35 684.356 1313.62 684.356 1311.86 684.097 1310.25 683.579 1308.79 683.061 1307.34 682.242 1306.17 681.122 1305.31 680.003 1304.44 678.526 1304 676.692 1304ZM576.692 1304C574.845 1304 573.357 1304.44 572.231 1305.31 571.104 1306.17 570.285 1307.34 569.774 1308.79 569.263 1310.25 569.008 1311.86 569.008 1313.62 569.008 1315.35 569.263 1316.95 569.774 1318.41 570.285 1319.86 571.104 1321.02 572.231 1321.89 573.357 1322.76 574.845 1323.19 576.692 1323.19 578.526 1323.19 580.003 1322.76 581.122 1321.89 582.242 1321.02 583.061 1319.86 583.579 1318.41 584.097 1316.95 584.356 1315.35 584.356 1313.62 584.356 1311.86 584.097 1310.25 583.579 1308.79 583.061 1307.34 582.242 1306.17 581.122 1305.31 580.003 1304.44 578.526 1304 576.692 1304ZM708.441 1300.23 712.241 1300.23 711.17 1308.01 715.349 1308.01 716.419 1300.23 720.262 1300.23 719.17 1308.01 723.117 1308.01 723.117 1311.48 718.666 1311.48 718.015 1316.37 721.92 1316.37 721.92 1319.85 717.532 1319.85 716.44 1327.73 712.619 1327.73 713.69 1319.85 709.512 1319.85 708.42 1327.73 704.578 1327.73 705.669 1319.85 701.659 1319.85 701.659 1316.37 706.173 1316.37 706.845 1311.48 702.814 1311.48 702.814 1308.01 707.349 1308.01ZM736.858 1300.16 742.38 1300.16 742.38 1318.09 746.033 1318.09 746.033 1322.67 742.38 1322.67 742.38 1327.73 736.858 1327.73 736.858 1322.67 724.596 1322.67 724.596 1317.94ZM638.221 1299.47 649.307 1299.47C651.168 1299.47 652.865 1299.8 654.398 1300.46 655.931 1301.11 657.152 1302.11 658.062 1303.46 658.972 1304.8 659.427 1306.52 659.427 1308.6 659.427 1310.66 658.972 1312.36 658.062 1313.7 657.152 1315.05 655.931 1316.04 654.398 1316.69 652.865 1317.35 651.168 1317.67 649.307 1317.67L644.12 1317.67 644.12 1327.73 638.221 1327.73ZM625.221 1299.47 631.12 1299.47 631.12 1327.73 625.221 1327.73ZM595.885 1299.47 601.932 1299.47 601.932 1316.35C601.932 1318.67 602.407 1320.4 603.359 1321.53 604.311 1322.67 605.809 1323.23 607.852 1323.23 609.91 1323.23 611.397 1322.67 612.314 1321.53 613.231 1320.4 613.689 1318.67 613.689 1316.35L613.689 1299.47 619.757 1299.47 619.757 1316.49C619.757 1318.99 619.344 1321.1 618.518 1322.83 617.693 1324.57 616.401 1325.88 614.645 1326.77 612.888 1327.66 610.61 1328.1 607.81 1328.1 605.039 1328.1 602.771 1327.66 601.008 1326.77 599.244 1325.88 597.949 1324.57 597.123 1322.83 596.298 1321.1 595.885 1318.99 595.885 1316.49ZM540.221 1299.47 559.18 1299.47 559.18 1304.36 546.12 1304.36 546.12 1310.93 557.962 1310.93 557.962 1315.66 546.12 1315.66 546.12 1322.83 559.18 1322.83 559.18 1327.73 540.221 1327.73ZM676.692 1299.09C679.646 1299.09 682.144 1299.69 684.188 1300.89 686.232 1302.08 687.785 1303.77 688.849 1305.95 689.913 1308.12 690.445 1310.68 690.445 1313.62 690.445 1316.56 689.913 1319.11 688.849 1321.27 687.785 1323.43 686.232 1325.11 684.188 1326.31 682.144 1327.51 679.646 1328.1 676.692 1328.1 673.739 1328.1 671.237 1327.51 669.186 1326.31 667.136 1325.11 665.578 1323.43 664.515 1321.27 663.451 1319.11 662.919 1316.56 662.919 1313.62 662.919 1310.68 663.451 1308.12 664.515 1305.95 665.578 1303.77 667.136 1302.08 669.186 1300.89 671.237 1299.69 673.739 1299.09 676.692 1299.09ZM576.692 1299.09C579.646 1299.09 582.144 1299.69 584.188 1300.89 586.232 1302.08 587.785 1303.77 588.849 1305.95 589.913 1308.12 590.445 1310.68 590.445 1313.62 590.445 1316.56 589.913 1319.11 588.849 1321.27 587.785 1323.43 586.232 1325.11 584.188 1326.31 583.677 1326.61 583.138 1326.87 582.57 1327.09L581.373 1327.47 582.393 1328.48C582.974 1328.87 583.736 1329.16 584.681 1329.35 585.626 1329.54 586.847 1329.64 588.345 1329.64L589.458 1329.64 589.458 1334.7 588.051 1334.7C586.022 1334.7 584.335 1334.5 582.991 1334.12 581.647 1333.73 580.545 1333.2 579.684 1332.51 578.823 1331.83 578.106 1331.03 577.532 1330.11L576.442 1328.09 574.562 1327.99C572.516 1327.77 570.724 1327.21 569.186 1326.31 567.136 1325.11 565.578 1323.43 564.515 1321.27 563.451 1319.11 562.919 1316.56 562.919 1313.62 562.919 1310.68 563.451 1308.12 564.515 1305.95 565.578 1303.77 567.136 1302.08 569.186 1300.89 571.237 1299.69 573.739 1299.09 576.692 1299.09Z" fill="url(#fill2)" fill-rule="evenodd"/><text fill="#000000" fill-opacity="0" font-family="Arial,Arial_MSFontService,sans-serif" font-size="35.6041" x="540.221" y="1330.25">EQUIPO #4</text><path d="M709.06 946.613 708.388 951.505 712.587 951.505 713.217 946.613ZM642.493 939.371 642.493 948.062 647.133 948.062C648.505 948.062 649.614 947.698 650.461 946.97 651.308 946.242 651.731 945.165 651.731 943.737 651.731 942.254 651.297 941.155 650.43 940.441 649.562 939.728 648.463 939.371 647.133 939.371ZM675.065 939.14C673.217 939.14 671.73 939.574 670.603 940.441 669.476 941.309 668.657 942.471 668.147 943.926 667.636 945.382 667.38 946.991 667.38 948.755 667.38 950.49 667.636 952.085 668.147 953.541 668.657 954.996 669.476 956.158 670.603 957.026 671.73 957.893 673.217 958.327 675.065 958.327 676.898 958.327 678.375 957.893 679.495 957.026 680.615 956.158 681.434 954.996 681.951 953.541 682.469 952.085 682.728 950.49 682.728 948.755 682.728 946.991 682.469 945.382 681.951 943.926 681.434 942.471 680.615 941.309 679.495 940.441 678.375 939.574 676.898 939.14 675.065 939.14ZM575.065 939.14C573.217 939.14 571.73 939.574 570.603 940.441 569.476 941.309 568.657 942.471 568.147 943.926 567.636 945.382 567.38 946.991 567.38 948.755 567.38 950.49 567.636 952.085 568.147 953.541 568.657 954.996 569.476 956.158 570.603 957.026 571.73 957.893 573.217 958.327 575.065 958.327 576.898 958.327 578.375 957.893 579.495 957.026 580.615 956.158 581.434 954.996 581.951 953.541 582.469 952.085 582.728 950.49 582.728 948.755 582.728 946.991 582.469 945.382 581.951 943.926 581.434 942.471 580.615 941.309 579.495 940.441 578.375 939.574 576.898 939.14 575.065 939.14ZM706.813 935.361 710.614 935.361 709.543 943.149 713.721 943.149 714.792 935.361 718.634 935.361 717.542 943.149 721.49 943.149 721.49 946.613 717.038 946.613 716.388 951.505 720.293 951.505 720.293 954.99 715.905 954.99 714.813 962.862 710.992 962.862 712.062 954.99 707.884 954.99 706.792 962.862 702.95 962.862 704.042 954.99 700.032 954.99 700.032 951.505 704.546 951.505 705.218 946.613 701.186 946.613 701.186 943.149 705.721 943.149ZM733.761 934.983C735.412 934.983 736.938 935.239 738.338 935.749 739.737 936.26 740.861 937.051 741.708 938.122 742.554 939.192 742.978 940.567 742.978 942.247 742.978 943.94 742.554 945.28 741.708 946.267 740.861 947.254 739.716 947.95 738.275 948.356 739.842 948.678 741.144 949.374 742.18 950.445 743.216 951.515 743.734 953.03 743.734 954.99 743.734 956.767 743.331 958.268 742.526 959.492 741.722 960.717 740.581 961.644 739.104 962.274 737.627 962.904 735.867 963.219 733.824 963.219 730.59 963.219 728.085 962.477 726.307 960.993 724.529 959.51 723.64 957.264 723.64 954.255L728.973 954.255C728.973 955.64 729.397 956.721 730.244 957.498 731.091 958.275 732.277 958.663 733.803 958.663 735.188 958.663 736.242 958.334 736.962 957.677 737.683 957.019 738.044 955.983 738.044 954.57 738.044 953.198 737.596 952.204 736.7 951.589 735.804 950.973 734.656 950.665 733.257 950.665L731.556 950.665 731.556 946.298 733.425 946.298C734.684 946.298 735.699 945.973 736.469 945.322 737.239 944.671 737.624 943.814 737.624 942.751 737.624 941.659 737.284 940.854 736.606 940.336 735.927 939.819 734.985 939.56 733.782 939.56 732.48 939.56 731.475 939.892 730.769 940.557 730.062 941.222 729.708 942.142 729.708 943.317L724.375 943.317C724.375 941.414 724.792 939.85 725.625 938.625 726.457 937.401 727.581 936.488 728.994 935.886 730.408 935.284 731.997 934.983 733.761 934.983ZM636.593 934.605 647.679 934.605C649.541 934.605 651.238 934.934 652.771 935.592 654.303 936.25 655.525 937.25 656.434 938.594 657.344 939.938 657.799 941.652 657.799 943.737 657.799 945.795 657.344 947.495 656.434 948.839 655.525 950.182 654.303 951.179 652.771 951.83 651.238 952.481 649.541 952.806 647.679 952.806L642.493 952.806 642.493 962.862 636.593 962.862ZM623.593 934.605 629.493 934.605 629.493 962.862 623.593 962.862ZM594.257 934.605 600.304 934.605 600.304 951.484C600.304 953.807 600.78 955.535 601.732 956.669 602.684 957.803 604.181 958.369 606.225 958.369 608.283 958.369 609.77 957.803 610.687 956.669 611.603 955.535 612.062 953.807 612.062 951.484L612.062 934.605 618.13 934.605 618.13 951.631C618.13 954.122 617.717 956.235 616.891 957.97 616.065 959.706 614.774 961.018 613.017 961.907 611.26 962.795 608.982 963.24 606.183 963.24 603.411 963.24 601.144 962.795 599.38 961.907 597.617 961.018 596.322 959.706 595.496 957.97 594.67 956.235 594.257 954.122 594.257 951.631ZM538.593 934.605 557.553 934.605 557.553 939.497 544.493 939.497 544.493 946.067 556.335 946.067 556.335 950.791 544.493 950.791 544.493 957.97 557.553 957.97 557.553 962.862 538.593 962.862ZM675.065 934.227C678.018 934.227 680.517 934.826 682.56 936.022 684.604 937.219 686.158 938.905 687.221 941.082 688.285 943.258 688.817 945.816 688.817 948.755 688.817 951.694 688.285 954.244 687.221 956.406 686.158 958.569 684.604 960.248 682.56 961.445 680.517 962.641 678.018 963.24 675.065 963.24 672.111 963.24 669.609 962.641 667.559 961.445 665.508 960.248 663.951 958.569 662.887 956.406 661.823 954.244 661.291 951.694 661.291 948.755 661.291 945.816 661.823 943.258 662.887 941.082 663.951 938.905 665.508 937.219 667.559 936.022 669.609 934.826 672.111 934.227 675.065 934.227ZM575.065 934.227C578.018 934.227 580.517 934.826 582.56 936.022 584.604 937.219 586.158 938.905 587.221 941.082 588.285 943.258 588.817 945.816 588.817 948.755 588.817 951.694 588.285 954.244 587.221 956.406 586.158 958.569 584.604 960.248 582.56 961.445 582.049 961.744 581.51 962.006 580.942 962.23L579.746 962.605 580.765 963.618C581.346 964.009 582.109 964.3 583.054 964.489 583.999 964.678 585.22 964.772 586.718 964.772L587.83 964.772 587.83 969.832 586.424 969.832C584.394 969.832 582.707 969.639 581.364 969.254 580.02 968.869 578.918 968.334 578.057 967.648 577.196 966.963 576.479 966.161 575.905 965.245L574.814 963.227 572.934 963.128C570.888 962.903 569.097 962.342 567.559 961.445 565.508 960.248 563.951 958.569 562.887 956.406 561.823 954.244 561.291 951.694 561.291 948.755 561.291 945.816 561.823 943.258 562.887 941.082 563.951 938.905 565.508 937.219 567.559 936.022 569.609 934.826 572.111 934.227 575.065 934.227Z" fill="url(#fill3)" fill-rule="evenodd"/><text fill="#000000" fill-opacity="0" font-family="Arial,Arial_MSFontService,sans-serif" font-size="35.6041" x="538.593" y="965.381">EQUIPO #3</text><path d="M709.06 579.951 708.388 584.842 712.587 584.842 713.217 579.951ZM642.493 572.708 642.493 581.4 647.133 581.4C648.505 581.4 649.614 581.036 650.461 580.308 651.308 579.58 651.731 578.503 651.731 577.075 651.731 575.592 651.297 574.493 650.429 573.779 649.562 573.065 648.463 572.708 647.133 572.708ZM675.065 572.478C673.217 572.478 671.73 572.911 670.603 573.779 669.476 574.647 668.657 575.808 668.146 577.264 667.635 578.72 667.38 580.329 667.38 582.092 667.38 583.828 667.635 585.423 668.146 586.879 668.657 588.334 669.476 589.496 670.603 590.364 671.73 591.231 673.217 591.665 675.065 591.665 676.898 591.665 678.375 591.231 679.495 590.364 680.615 589.496 681.433 588.334 681.951 586.879 682.469 585.423 682.728 583.828 682.728 582.092 682.728 580.329 682.469 578.72 681.951 577.264 681.433 575.808 680.615 574.647 679.495 573.779 678.375 572.911 676.898 572.478 675.065 572.478ZM575.065 572.478C573.217 572.478 571.73 572.911 570.603 573.779 569.476 574.647 568.657 575.808 568.146 577.264 567.635 578.72 567.38 580.329 567.38 582.092 567.38 583.828 567.635 585.423 568.146 586.879 568.657 588.334 569.476 589.496 570.603 590.364 571.73 591.231 573.217 591.665 575.065 591.665 576.898 591.665 578.375 591.231 579.495 590.364 580.615 589.496 581.433 588.334 581.951 586.879 582.469 585.423 582.728 583.828 582.728 582.092 582.728 580.329 582.469 578.72 581.951 577.264 581.433 575.808 580.615 574.647 579.495 573.779 578.375 572.911 576.898 572.478 575.065 572.478ZM706.813 568.699 710.613 568.699 709.543 576.487 713.721 576.487 714.792 568.699 718.634 568.699 717.542 576.487 721.489 576.487 721.489 579.951 717.038 579.951 716.387 584.842 720.293 584.842 720.293 588.327 715.904 588.327 714.813 596.2 710.991 596.2 712.062 588.327 707.884 588.327 706.792 596.2 702.95 596.2 704.042 588.327 700.031 588.327 700.031 584.842 704.546 584.842 705.217 579.951 701.186 579.951 701.186 576.487 705.721 576.487ZM733.76 568.321C735.608 568.321 737.218 568.65 738.59 569.308 739.961 569.965 741.025 570.91 741.781 572.142 742.537 573.373 742.915 574.871 742.915 576.634 742.915 578.104 742.652 579.409 742.127 580.549 741.602 581.69 740.889 582.747 739.986 583.719 739.083 584.692 738.072 585.675 736.952 586.669L731.514 591.476 743.65 591.476 743.65 596.2 723.724 596.2 723.724 592.337 733.781 583.184C734.943 582.12 735.808 581.092 736.374 580.098 736.941 579.104 737.225 578.083 737.225 577.033 737.225 575.941 736.966 575.032 736.448 574.304 735.93 573.576 735.034 573.212 733.76 573.212 732.319 573.212 731.286 573.653 730.664 574.535 730.041 575.417 729.729 576.557 729.729 577.957L724.396 577.957C724.396 575.941 724.76 574.213 725.488 572.771 726.216 571.33 727.28 570.228 728.679 569.465 730.079 568.702 731.773 568.321 733.76 568.321ZM636.593 567.943 647.679 567.943C649.541 567.943 651.238 568.272 652.77 568.93 654.303 569.588 655.524 570.588 656.434 571.932 657.344 573.275 657.799 574.99 657.799 577.075 657.799 579.132 657.344 580.833 656.434 582.176 655.524 583.52 654.303 584.517 652.77 585.168 651.238 585.819 649.541 586.144 647.679 586.144L642.493 586.144 642.493 596.2 636.593 596.2ZM623.593 567.943 629.493 567.943 629.493 596.2 623.593 596.2ZM594.257 567.943 600.304 567.943 600.304 584.821C600.304 587.145 600.78 588.873 601.732 590.007 602.683 591.14 604.181 591.707 606.225 591.707 608.282 591.707 609.77 591.14 610.686 590.007 611.603 588.873 612.062 587.145 612.062 584.821L612.062 567.943 618.13 567.943 618.13 584.968C618.13 587.46 617.717 589.573 616.891 591.308 616.065 593.044 614.774 594.356 613.017 595.245 611.26 596.133 608.982 596.578 606.183 596.578 603.411 596.578 601.144 596.133 599.38 595.245 597.616 594.356 596.322 593.044 595.496 591.308 594.67 589.573 594.257 587.46 594.257 584.968ZM538.593 567.943 557.552 567.943 557.552 572.834 544.493 572.834 544.493 579.405 556.335 579.405 556.335 584.129 544.493 584.129 544.493 591.308 557.552 591.308 557.552 596.2 538.593 596.2ZM675.065 567.565C678.018 567.565 680.517 568.164 682.56 569.36 684.604 570.557 686.158 572.243 687.221 574.419 688.285 576.596 688.817 579.153 688.817 582.092 688.817 585.031 688.285 587.582 687.221 589.744 686.158 591.907 684.604 593.586 682.56 594.783 680.517 595.979 678.018 596.578 675.065 596.578 672.111 596.578 669.609 595.979 667.559 594.783 665.508 593.586 663.951 591.907 662.887 589.744 661.823 587.582 661.291 585.031 661.291 582.092 661.291 579.153 661.823 576.596 662.887 574.419 663.951 572.243 665.508 570.557 667.559 569.36 669.609 568.164 672.111 567.565 675.065 567.565ZM575.065 567.565C578.018 567.565 580.517 568.164 582.56 569.36 584.604 570.557 586.158 572.243 587.221 574.419 588.285 576.596 588.817 579.153 588.817 582.092 588.817 585.031 588.285 587.582 587.221 589.744 586.158 591.907 584.604 593.586 582.56 594.783 582.049 595.082 581.51 595.344 580.942 595.568L579.746 595.943 580.765 596.955C581.346 597.347 582.109 597.638 583.054 597.827 583.998 598.016 585.22 598.11 586.717 598.11L587.83 598.11 587.83 603.169 586.424 603.169C584.394 603.169 582.707 602.977 581.363 602.592 580.02 602.207 578.917 601.672 578.057 600.986 577.196 600.3 576.478 599.499 575.904 598.582L574.814 596.564 572.934 596.465C570.888 596.241 569.096 595.68 567.559 594.783 565.508 593.586 563.951 591.907 562.887 589.744 561.823 587.582 561.291 585.031 561.291 582.092 561.291 579.153 561.823 576.596 562.887 574.419 563.951 572.243 565.508 570.557 567.559 569.36 569.609 568.164 572.111 567.565 575.065 567.565Z" fill="url(#fill4)" fill-rule="evenodd"/><text fill="#000000" fill-opacity="0" font-family="Arial,Arial_MSFontService,sans-serif" font-size="35.6041" x="538.593" y="598.719">EQUIPO #2</text><path d="M709.06 225.957 708.388 230.849 712.587 230.849 713.217 225.957ZM642.493 218.715 642.493 227.406 647.133 227.406C648.505 227.406 649.614 227.042 650.461 226.314 651.308 225.587 651.731 224.509 651.731 223.081 651.731 221.598 651.297 220.499 650.429 219.785 649.561 219.072 648.463 218.715 647.133 218.715ZM675.065 218.484C673.217 218.484 671.73 218.918 670.603 219.785 669.476 220.653 668.657 221.815 668.146 223.27 667.635 224.726 667.38 226.335 667.38 228.099 667.38 229.834 667.635 231.43 668.146 232.885 668.657 234.341 669.476 235.502 670.603 236.37 671.73 237.238 673.217 237.671 675.065 237.671 676.898 237.671 678.375 237.238 679.495 236.37 680.615 235.502 681.433 234.341 681.951 232.885 682.469 231.43 682.728 229.834 682.728 228.099 682.728 226.335 682.469 224.726 681.951 223.27 681.433 221.815 680.615 220.653 679.495 219.785 678.375 218.918 676.898 218.484 675.065 218.484ZM575.065 218.484C573.217 218.484 571.73 218.918 570.603 219.785 569.476 220.653 568.657 221.815 568.146 223.27 567.635 224.726 567.38 226.335 567.38 228.099 567.38 229.834 567.635 231.43 568.146 232.885 568.657 234.341 569.476 235.502 570.603 236.37 571.73 237.238 573.217 237.671 575.065 237.671 576.898 237.671 578.375 237.238 579.495 236.37 580.615 235.502 581.433 234.341 581.951 232.885 582.469 231.43 582.728 229.834 582.728 228.099 582.728 226.335 582.469 224.726 581.951 223.27 581.433 221.815 580.615 220.653 579.495 219.785 578.375 218.918 576.898 218.484 575.065 218.484ZM706.813 214.705 710.613 214.705 709.543 222.494 713.721 222.494 714.792 214.705 718.634 214.705 717.542 222.494 721.489 222.494 721.489 225.957 717.038 225.957 716.387 230.849 720.293 230.849 720.293 234.334 715.904 234.334 714.813 242.206 710.991 242.206 712.062 234.334 707.884 234.334 706.792 242.206 702.95 242.206 704.042 234.334 700.031 234.334 700.031 230.849 704.545 230.849 705.217 225.957 701.186 225.957 701.186 222.494 705.721 222.494ZM733.361 214.663 738.652 214.663 738.652 242.206 732.794 242.206 732.794 221.192C732.347 221.71 731.794 222.203 731.136 222.672 730.478 223.141 729.684 223.554 728.753 223.911 727.822 224.267 726.72 224.537 725.446 224.719L725.446 219.555C726.734 219.275 727.864 218.897 728.837 218.421 729.81 217.945 730.663 217.389 731.398 216.752 732.133 216.115 732.787 215.419 733.361 214.663ZM636.593 213.949 647.679 213.949C649.54 213.949 651.238 214.278 652.77 214.936 654.303 215.594 655.524 216.594 656.434 217.938 657.344 219.282 657.799 220.996 657.799 223.081 657.799 225.139 657.344 226.839 656.434 228.183 655.524 229.526 654.303 230.523 652.77 231.174 651.238 231.825 649.54 232.15 647.679 232.15L642.493 232.15 642.493 242.206 636.593 242.206ZM623.593 213.949 629.493 213.949 629.493 242.206 623.593 242.206ZM594.257 213.949 600.304 213.949 600.304 230.828C600.304 233.151 600.78 234.879 601.732 236.013 602.683 237.147 604.181 237.713 606.225 237.713 608.282 237.713 609.77 237.147 610.686 236.013 611.603 234.879 612.062 233.151 612.062 230.828L612.062 213.949 618.129 213.949 618.129 230.975C618.129 233.466 617.717 235.579 616.891 237.315 616.065 239.05 614.774 240.362 613.017 241.251 611.26 242.139 608.982 242.584 606.183 242.584 603.411 242.584 601.144 242.139 599.38 241.251 597.616 240.362 596.322 239.05 595.496 237.315 594.67 235.579 594.257 233.466 594.257 230.975ZM538.593 213.949 557.552 213.949 557.552 218.841 544.493 218.841 544.493 225.412 556.335 225.412 556.335 230.135 544.493 230.135 544.493 237.315 557.552 237.315 557.552 242.206 538.593 242.206ZM675.065 213.572C678.018 213.572 680.516 214.17 682.56 215.366 684.604 216.563 686.157 218.249 687.221 220.426 688.285 222.602 688.817 225.16 688.817 228.099 688.817 231.038 688.285 233.588 687.221 235.751 686.157 237.913 684.604 239.592 682.56 240.789 680.516 241.986 678.018 242.584 675.065 242.584 672.111 242.584 669.609 241.986 667.558 240.789 665.508 239.592 663.951 237.913 662.887 235.751 661.823 233.588 661.291 231.038 661.291 228.099 661.291 225.16 661.823 222.602 662.887 220.426 663.951 218.249 665.508 216.563 667.558 215.366 669.609 214.17 672.111 213.572 675.065 213.572ZM575.065 213.572C578.018 213.572 580.516 214.17 582.56 215.366 584.604 216.563 586.157 218.249 587.221 220.426 588.285 222.602 588.817 225.16 588.817 228.099 588.817 231.038 588.285 233.588 587.221 235.751 586.157 237.913 584.604 239.592 582.56 240.789 582.049 241.088 581.51 241.35 580.942 241.574L579.745 241.949 580.765 242.962C581.346 243.354 582.109 243.644 583.054 243.833 583.998 244.022 585.22 244.116 586.717 244.116L587.83 244.116 587.83 249.176 586.423 249.176C584.394 249.176 582.707 248.983 581.363 248.598 580.02 248.213 578.917 247.678 578.056 246.992 577.196 246.307 576.478 245.505 575.904 244.589L574.814 242.571 572.934 242.472C570.888 242.247 569.096 241.686 567.558 240.789 565.508 239.592 563.951 237.913 562.887 235.751 561.823 233.588 561.291 231.038 561.291 228.099 561.291 225.16 561.823 222.602 562.887 220.426 563.951 218.249 565.508 216.563 567.558 215.366 569.609 214.17 572.111 213.572 575.065 213.572Z" fill="url(#fill5)" fill-rule="evenodd"/><text fill="#000000" fill-opacity="0" font-family="Arial,Arial_MSFontService,sans-serif" font-size="35.6041" x="538.593" y="244.725">EQUIPO #1</text><g clip-path="url(#clip6)"><g filter="url(#fx0)" transform="translate(67 34)"><g><rect x="8.00005" y="7.99534" width="1128" height="112.983" stroke="#F2F2F2" stroke-width="2" stroke-miterlimit="8" fill="#FFFFFF"/></g></g><g filter="url(#fx1)" transform="translate(418 76)"><g><path d="M424.622 11.1742 419.793 24.5887 429.409 24.5887ZM212.622 11.1742 207.793 24.5887 217.409 24.5887ZM46.6222 11.1742 41.7931 24.5887 51.4093 24.5887ZM170.373 10.5654 170.373 20.5581 176.798 20.5581C177.834 20.5581 178.772 20.3621 179.611 19.9703 180.451 19.5784 181.12 19.0116 181.617 18.2698 182.113 17.5281 182.362 16.6324 182.362 15.5827 182.362 14.0012 181.896 12.7697 180.966 11.888 180.035 11.0062 178.681 10.5654 176.903 10.5654ZM146.646 10.1245C144.378 10.1245 142.541 10.6389 141.134 11.6675 139.727 12.6962 138.702 14.0747 138.058 15.8031 137.414 17.5316 137.092 19.4524 137.092 21.5657 137.092 23.665 137.414 25.5789 138.058 27.3073 138.702 29.0357 139.727 30.4108 141.134 31.4324 142.541 32.4541 144.378 32.9649 146.646 32.9649 148.913 32.9649 150.747 32.4541 152.147 31.4324 153.546 30.4108 154.572 29.0357 155.223 27.3073 155.873 25.5789 156.199 23.665 156.199 21.5657 156.199 19.4524 155.873 17.5316 155.223 15.8031 154.572 14.0747 153.546 12.6962 152.147 11.6675 150.747 10.6389 148.913 10.1245 146.646 10.1245ZM422.649 7.41644 426.638 7.41644 437.073 35.673 433.168 35.673 430.48 27.7587 418.764 27.7587 415.951 35.673 412.066 35.673ZM404.594 7.41644 408.373 7.41644 408.373 35.673 404.594 35.673ZM374.594 7.41644 378.457 7.41644 393.952 29.8999 393.952 7.41644 397.543 7.41644 397.543 35.673 393.679 35.673 378.163 13.1475 378.163 35.673 374.594 35.673ZM340.594 7.41644 344.73 7.41644 354.014 22.7833 363.123 7.41644 367.154 7.41644 367.154 35.673 363.438 35.673 363.438 12.7669 355.144 26.793 352.667 26.793 344.226 12.7337 344.226 35.673 340.594 35.673ZM316.594 7.41644 334.629 7.41644 334.629 10.5654 320.373 10.5654 320.373 19.5714 333.496 19.5714 333.496 22.6784 320.373 22.6784 320.373 32.5241 334.629 32.5241 334.629 35.673 316.594 35.673ZM283.594 7.41644 287.73 7.41644 297.014 22.7833 306.123 7.41644 310.154 7.41644 310.154 35.673 306.438 35.673 306.438 12.7669 298.144 26.793 295.667 26.793 287.226 12.7337 287.226 35.673 283.594 35.673ZM259.594 7.41644 277.63 7.41644 277.63 10.5654 263.373 10.5654 263.373 19.5714 276.496 19.5714 276.496 22.6784 263.373 22.6784 263.373 32.5241 277.63 32.5241 277.63 35.673 259.594 35.673ZM237.594 7.41644 255.189 7.41644 255.189 10.5654 241.373 10.5654 241.373 19.5924 253.887 19.5924 253.887 22.6784 241.373 22.6784 241.373 35.673 237.594 35.673ZM210.649 7.41644 214.638 7.41644 225.073 35.673 221.168 35.673 218.48 27.7587 206.764 27.7587 203.951 35.673 200.066 35.673ZM192.594 7.41644 196.373 7.41644 196.373 35.673 192.594 35.673ZM166.594 7.41644 177.281 7.41644C178.919 7.41644 180.406 7.67535 181.743 8.19318 183.079 8.71101 184.147 9.52274 184.944 10.6284 185.742 11.734 186.141 13.1685 186.141 14.9319 186.141 16.7233 185.641 18.2488 184.64 19.5084 183.639 20.768 182.173 21.6217 180.241 22.0696 181.305 22.2235 182.18 22.5664 182.866 23.0982 183.552 23.63 184.122 24.3473 184.577 25.25 185.032 26.1527 185.427 27.2688 185.763 28.5984L187.611 35.673 183.748 35.673 182.131 29.1862C181.851 28.0246 181.519 27.0344 181.134 26.2157 180.749 25.3969 180.234 24.7742 179.59 24.3473 178.947 23.9204 178.086 23.707 177.008 23.707L170.373 23.707 170.373 35.673 166.594 35.673ZM81.5938 7.41644 99.6295 7.41644 99.6295 10.5654 85.3731 10.5654 85.3731 19.5714 98.4957 19.5714 98.4957 22.6784 85.3731 22.6784 85.3731 32.5241 99.6295 32.5241 99.6295 35.673 81.5938 35.673ZM57.2765 7.41644 77.0968 7.41644 77.0968 10.5864 69.0763 10.5864 69.0763 35.673 65.318 35.673 65.318 10.5864 57.2765 10.5864ZM44.6486 7.41644 48.6378 7.41644 59.0728 35.673 55.1676 35.673 52.4801 27.7587 40.7643 27.7587 37.9508 35.673 34.0665 35.673ZM146.646 7.03857C149.599 7.03857 152.07 7.65436 154.057 8.88595 156.045 10.1175 157.546 11.825 158.561 14.0082 159.576 16.1915 160.083 18.7107 160.083 21.5657 160.083 24.4208 159.576 26.9329 158.561 29.1022 157.546 31.2715 156.045 32.9719 154.057 34.2035 152.07 35.4351 149.599 36.0509 146.646 36.0509 143.692 36.0509 141.215 35.4351 139.213 34.2035 137.211 32.9719 135.703 31.2715 134.688 29.1022 133.674 26.9329 133.166 24.4208 133.166 21.5657 133.166 18.7107 133.674 16.1915 134.688 14.0082 135.703 11.825 137.211 10.1175 139.213 8.88595 141.215 7.65436 143.692 7.03857 146.646 7.03857ZM116.688 7.03857C118.143 7.03857 119.536 7.22401 120.866 7.59488 122.196 7.96576 123.399 8.52557 124.477 9.27432 125.555 10.0231 126.44 10.9643 127.133 12.0979 127.826 13.2315 128.249 14.5681 128.403 16.1075L124.624 16.1075C124.484 15.0299 124.082 14.0397 123.417 13.137 122.752 12.2343 121.849 11.5066 120.708 10.9538 119.568 10.4009 118.213 10.1245 116.646 10.1245 114.378 10.1245 112.53 10.6389 111.103 11.6675 109.675 12.6962 108.632 14.0712 107.974 15.7926 107.316 17.5141 106.987 19.4384 106.987 21.5657 106.987 23.679 107.32 25.5929 107.985 27.3073 108.65 29.0217 109.696 30.3828 111.124 31.3904 112.551 32.3981 114.406 32.9019 116.688 32.9019 118.661 32.9019 120.281 32.5486 121.548 31.8418 122.815 31.135 123.76 30.1484 124.383 28.8818 125.006 27.6152 125.331 26.1562 125.359 24.5047L117.108 24.5047 117.108 21.3768 129.054 21.3768 129.054 23.5811C129.054 26.0302 128.596 28.1925 127.679 30.0679 126.762 31.9433 125.391 33.4093 123.564 34.4659 121.737 35.5226 119.445 36.0509 116.688 36.0509 113.748 36.0509 111.274 35.4421 109.266 34.2245 107.257 33.0069 105.738 31.31 104.709 29.1337 103.681 26.9574 103.166 24.4348 103.166 21.5657 103.166 18.6827 103.681 16.1495 104.709 13.9663 105.738 11.783 107.257 10.0826 109.266 8.86496 111.274 7.64737 113.748 7.03857 116.688 7.03857ZM20.6456 7.03857C22.5773 7.03857 24.4004 7.37445 26.1151 8.04623 27.8298 8.71801 29.2575 9.74316 30.3983 11.1217 31.5391 12.5002 32.2075 14.2392 32.4034 16.3385L28.6031 16.3385C28.4352 14.9249 27.9628 13.7598 27.1859 12.8431 26.4091 11.9264 25.4502 11.2442 24.3094 10.7963 23.1686 10.3485 21.9474 10.1245 20.6456 10.1245 18.378 10.1245 16.5409 10.6424 15.1342 11.678 13.7274 12.7137 12.7021 14.0922 12.0582 15.8136 11.4143 17.5351 11.0924 19.4524 11.0924 21.5657 11.0924 23.665 11.4143 25.5754 12.0582 27.2968 12.7021 29.0182 13.7274 30.3863 15.1342 31.4009 16.5409 32.4156 18.378 32.9229 20.6456 32.9229 22.9412 32.9229 24.8028 32.3561 26.2306 31.2225 27.6583 30.0889 28.4841 28.3955 28.7081 26.1422L32.5294 26.1422C32.3055 28.3675 31.6546 30.2113 30.5768 31.6739 29.499 33.1364 28.1062 34.2315 26.3986 34.9593 24.6909 35.687 22.7732 36.0509 20.6456 36.0509 17.7202 36.0509 15.2566 35.4351 13.255 34.2035 11.2534 32.9719 9.73816 31.2715 8.70932 29.1022 7.68051 26.9329 7.16611 24.4208 7.16611 21.5657 7.16611 18.7107 7.68051 16.1915 8.70932 14.0082 9.73816 11.825 11.2534 10.1175 13.255 8.88595 15.2566 7.65436 17.7202 7.03857 20.6456 7.03857Z" fill="#FF0000" fill-rule="evenodd"/></g></g></g><rect x="75.0001" y="37.9944" width="1128" height="112.983" stroke="#F2F2F2" stroke-width="2.00078" stroke-miterlimit="8" fill="#FFFFFF"/><path d="M842.622 83.1732 837.793 96.5877 847.409 96.5877ZM630.622 83.1732 625.793 96.5877 635.409 96.5877ZM464.622 83.1732 459.793 96.5877 469.409 96.5877ZM588.373 82.5644 588.373 92.5571 594.798 92.5571C595.834 92.5571 596.772 92.3612 597.611 91.9693 598.451 91.5774 599.12 91.0106 599.617 90.2688 600.113 89.5271 600.362 88.6314 600.362 87.5817 600.362 86.0003 599.896 84.7687 598.966 83.887 598.035 83.0053 596.681 82.5644 594.903 82.5644ZM564.646 82.1236C562.378 82.1236 560.541 82.6379 559.134 83.6665 557.727 84.6952 556.702 86.0737 556.058 87.8022 555.414 89.5306 555.092 91.4515 555.092 93.5648 555.092 95.664 555.414 97.5779 556.058 99.3063 556.702 101.035 557.727 102.41 559.134 103.431 560.541 104.453 562.378 104.964 564.646 104.964 566.913 104.964 568.747 104.453 570.147 103.431 571.546 102.41 572.572 101.035 573.222 99.3063 573.873 97.5779 574.199 95.664 574.199 93.5648 574.199 91.4515 573.873 89.5306 573.222 87.8022 572.572 86.0737 571.546 84.6952 570.147 83.6665 568.747 82.6379 566.913 82.1236 564.646 82.1236ZM840.649 79.4155 844.638 79.4155 855.073 107.672 851.168 107.672 848.48 99.7577 836.764 99.7577 833.951 107.672 830.066 107.672ZM822.594 79.4155 826.373 79.4155 826.373 107.672 822.594 107.672ZM792.594 79.4155 796.457 79.4155 811.952 101.899 811.952 79.4155 815.543 79.4155 815.543 107.672 811.679 107.672 796.163 85.1466 796.163 107.672 792.594 107.672ZM758.594 79.4155 762.73 79.4155 772.014 94.7823 781.123 79.4155 785.154 79.4155 785.154 107.672 781.438 107.672 781.438 84.766 773.144 98.792 770.667 98.792 762.226 84.7328 762.226 107.672 758.594 107.672ZM734.594 79.4155 752.629 79.4155 752.629 82.5644 738.373 82.5644 738.373 91.5704 751.496 91.5704 751.496 94.6774 738.373 94.6774 738.373 104.523 752.629 104.523 752.629 107.672 734.594 107.672ZM701.594 79.4155 705.73 79.4155 715.014 94.7823 724.123 79.4155 728.154 79.4155 728.154 107.672 724.438 107.672 724.438 84.766 716.144 98.792 713.667 98.792 705.226 84.7328 705.226 107.672 701.594 107.672ZM677.594 79.4155 695.63 79.4155 695.63 82.5644 681.373 82.5644 681.373 91.5704 694.496 91.5704 694.496 94.6774 681.373 94.6774 681.373 104.523 695.63 104.523 695.63 107.672 677.594 107.672ZM655.594 79.4155 673.189 79.4155 673.189 82.5644 659.373 82.5644 659.373 91.5914 671.887 91.5914 671.887 94.6774 659.373 94.6774 659.373 107.672 655.594 107.672ZM628.649 79.4155 632.638 79.4155 643.073 107.672 639.168 107.672 636.48 99.7577 624.764 99.7577 621.951 107.672 618.066 107.672ZM610.594 79.4155 614.373 79.4155 614.373 107.672 610.594 107.672ZM584.594 79.4155 595.281 79.4155C596.919 79.4155 598.406 79.6744 599.743 80.1922 601.079 80.71 602.147 81.5218 602.944 82.6274 603.742 83.733 604.141 85.1675 604.141 86.931 604.141 88.7224 603.641 90.2479 602.64 91.5074 601.639 92.767 600.173 93.6207 598.241 94.0686 599.305 94.2225 600.18 94.5654 600.866 95.0972 601.552 95.6291 602.122 96.3463 602.577 97.249 603.032 98.1517 603.427 99.2679 603.763 100.597L605.611 107.672 601.748 107.672 600.131 101.185C599.851 100.024 599.519 99.0334 599.134 98.2147 598.749 97.396 598.234 96.7732 597.59 96.3463 596.947 95.9195 596.086 95.706 595.008 95.706L588.373 95.706 588.373 107.672 584.594 107.672ZM499.594 79.4155 517.63 79.4155 517.63 82.5644 503.373 82.5644 503.373 91.5704 516.496 91.5704 516.496 94.6774 503.373 94.6774 503.373 104.523 517.63 104.523 517.63 107.672 499.594 107.672ZM475.276 79.4155 495.097 79.4155 495.097 82.5854 487.076 82.5854 487.076 107.672 483.318 107.672 483.318 82.5854 475.276 82.5854ZM462.649 79.4155 466.638 79.4155 477.073 107.672 473.168 107.672 470.48 99.7577 458.764 99.7577 455.951 107.672 452.066 107.672ZM564.646 79.0376C567.599 79.0376 570.07 79.6534 572.057 80.885 574.045 82.1166 575.546 83.824 576.561 86.0073 577.576 88.1905 578.083 90.7097 578.083 93.5648 578.083 96.4198 577.576 98.932 576.561 101.101 575.546 103.271 574.045 104.971 572.057 106.203 570.07 107.434 567.599 108.05 564.646 108.05 561.692 108.05 559.215 107.434 557.213 106.203 555.211 104.971 553.703 103.271 552.688 101.101 551.674 98.932 551.166 96.4198 551.166 93.5648 551.166 90.7097 551.674 88.1905 552.688 86.0073 553.703 83.824 555.211 82.1166 557.213 80.885 559.215 79.6534 561.692 79.0376 564.646 79.0376ZM534.688 79.0376C536.143 79.0376 537.536 79.223 538.866 79.5939 540.196 79.9648 541.399 80.5246 542.477 81.2733 543.555 82.0221 544.44 82.9633 545.133 84.0969 545.826 85.2305 546.249 86.5671 546.403 88.1066L542.624 88.1066C542.484 87.0289 542.082 86.0388 541.417 85.1361 540.752 84.2334 539.849 83.5056 538.708 82.9528 537.568 82.4 536.213 82.1236 534.646 82.1236 532.378 82.1236 530.53 82.6379 529.103 83.6665 527.675 84.6952 526.632 86.0703 525.974 87.7917 525.316 89.5131 524.987 91.4375 524.987 93.5648 524.987 95.6781 525.32 97.5919 525.985 99.3063 526.65 101.021 527.696 102.382 529.124 103.389 530.551 104.397 532.406 104.901 534.688 104.901 536.661 104.901 538.281 104.548 539.548 103.841 540.815 103.134 541.76 102.147 542.383 100.881 543.006 99.6142 543.331 98.1552 543.359 96.5038L535.107 96.5038 535.107 93.3758 547.054 93.3758 547.054 95.5801C547.054 98.0293 546.596 100.192 545.679 102.067 544.762 103.942 543.391 105.408 541.564 106.465 539.737 107.522 537.445 108.05 534.688 108.05 531.748 108.05 529.274 107.441 527.266 106.224 525.257 105.006 523.738 103.309 522.709 101.133 521.681 98.9565 521.166 96.4338 521.166 93.5648 521.166 90.6817 521.681 88.1486 522.709 85.9653 523.738 83.782 525.257 82.0816 527.266 80.864 529.274 79.6464 531.748 79.0376 534.688 79.0376ZM438.646 79.0376C440.577 79.0376 442.4 79.3735 444.115 80.0453 445.83 80.717 447.258 81.7422 448.398 83.1207 449.539 84.4993 450.207 86.2382 450.403 88.3375L446.603 88.3375C446.435 86.924 445.963 85.7589 445.186 84.8422 444.409 83.9255 443.45 83.2432 442.309 82.7953 441.169 82.3475 439.947 82.1236 438.646 82.1236 436.378 82.1236 434.541 82.6414 433.134 83.677 431.727 84.7127 430.702 86.0912 430.058 87.8127 429.414 89.5341 429.092 91.4515 429.092 93.5648 429.092 95.664 429.414 97.5744 430.058 99.2958 430.702 101.017 431.727 102.385 433.134 103.4 434.541 104.415 436.378 104.922 438.646 104.922 440.941 104.922 442.803 104.355 444.231 103.222 445.658 102.088 446.484 100.394 446.708 98.1412L450.529 98.1412C450.305 100.366 449.655 102.21 448.577 103.673 447.499 105.135 446.106 106.231 444.399 106.958 442.691 107.686 440.773 108.05 438.646 108.05 435.72 108.05 433.257 107.434 431.255 106.203 429.253 104.971 427.738 103.271 426.709 101.101 425.681 98.932 425.166 96.4198 425.166 93.5648 425.166 90.7097 425.681 88.1905 426.709 86.0073 427.738 83.824 429.253 82.1166 431.255 80.885 433.257 79.6534 435.72 79.0376 438.646 79.0376Z" fill="url(#fill7)" fill-rule="evenodd"/><text fill="#000000" fill-opacity="0" font-family="Arial,Arial_MSFontService,sans-serif" font-size="29.0123" x="425.166" y="104.423">CATEGORIA FEMEMNIA</text></g></svg>