<svg width="1278" height="2049" xmlns="http://www.w3.org/2000/svg" xmlns:xlink="http://www.w3.org/1999/xlink" overflow="hidden"><defs><filter id="fx0" x="-10%" y="-10%" width="120%" height="120%" filterUnits="userSpaceOnUse" primitiveUnits="userSpaceOnUse"><feComponentTransfer color-interpolation-filters="sRGB"><feFuncR type="discrete" tableValues="0 0"/><feFuncG type="discrete" tableValues="0 0"/><feFuncB type="discrete" tableValues="0 0"/><feFuncA type="linear" slope="0.4" intercept="0"/></feComponentTransfer><feGaussianBlur stdDeviation="1.77847 1.77821"/></filter><filter id="fx1" x="-10%" y="-10%" width="120%" height="120%" filterUnits="userSpaceOnUse" primitiveUnits="userSpaceOnUse"><feComponentTransfer color-interpolation-filters="sRGB"><feFuncR type="discrete" tableValues="0 0"/><feFuncG type="discrete" tableValues="0 0"/><feFuncB type="discrete" tableValues="0 0"/><feFuncA type="linear" slope="0.4" intercept="0"/></feComponentTransfer><feGaussianBlur stdDeviation="1.77847 1.77821"/></filter><linearGradient x1="627.298" y1="360.257" x2="650.701" y2="457.008" gradientUnits="userSpaceOnUse" spreadMethod="reflect" id="fill2"><stop offset="0" stop-color="#002C3F"/><stop offset="0.5" stop-color="#00445F"/><stop offset="1" stop-color="#005272"/></linearGradient><linearGradient x1="627.298" y1="776.964" x2="650.701" y2="873.715" gradientUnits="userSpaceOnUse" spreadMethod="reflect" id="fill3"><stop offset="0" stop-color="#002C3F"/><stop offset="0.5" stop-color="#00445F"/><stop offset="1" stop-color="#005272"/></linearGradient><linearGradient x1="628.883" y1="1179.74" x2="652.286" y2="1276.49" gradientUnits="userSpaceOnUse" spreadMethod="reflect" id="fill4"><stop offset="0" stop-color="#002C3F"/><stop offset="0.5" stop-color="#00445F"/><stop offset="1" stop-color="#005272"/></linearGradient><clipPath id="clip5"><path d="M75.0001 32.9952 75.0001 320.953 1203 320.953 1203 32.9952ZM1.90437e-05 3.05325e-05 1278 3.05325e-05 1278 2049 1.90437e-05 2049Z" fill-rule="evenodd" clip-rule="evenodd"/></clipPath><linearGradient x1="631.933" y1="113.601" x2="646.067" y2="240.033" gradientUnits="userSpaceOnUse" spreadMethod="reflect" id="fill6"><stop offset="0" stop-color="#002C3F"/><stop offset="0.5" stop-color="#00445F"/><stop offset="1" stop-color="#005272"/></linearGradient><linearGradient x1="628.883" y1="1587.56" x2="652.286" y2="1684.31" gradientUnits="userSpaceOnUse" spreadMethod="reflect" id="fill7"><stop offset="0" stop-color="#002C3F"/><stop offset="0.5" stop-color="#00445F"/><stop offset="1" stop-color="#005272"/></linearGradient></defs><g><rect x="0" y="0" width="1278" height="2048.7" fill="#FFFFFF"/><path d="M75.0676 445.159 183.034 445.159 183.034 498.085 75.0676 498.085Z" fill="#156082" fill-rule="evenodd"/><path d="M183.034 445.159 826.935 445.159 826.935 498.085 183.034 498.085Z" fill="#156082" fill-rule="evenodd"/><path d="M826.935 445.159 1202.93 445.159 1202.93 498.085 826.935 498.085Z" fill="#156082" fill-rule="evenodd"/><path d="M75.0676 498.085 183.034 498.085 183.034 551.011 75.0676 551.011Z" fill="#156082" fill-rule="evenodd"/><path d="M183.034 498.085 826.935 498.085 826.935 551.011 183.034 551.011Z" fill="#CCD2D8" fill-rule="evenodd"/><path d="M826.935 498.085 1202.93 498.085 1202.93 762.716 826.935 762.716Z" fill="#CCD2D8" fill-rule="evenodd"/><path d="M75.0676 551.011 183.034 551.011 183.034 603.938 75.0676 603.938Z" fill="#156082" fill-rule="evenodd"/><path d="M183.034 551.011 826.935 551.011 826.935 603.938 183.034 603.938Z" fill="#E7EAED" fill-rule="evenodd"/><path d="M75.0676 603.938 183.034 603.938 183.034 656.864 75.0676 656.864Z" fill="#156082" fill-rule="evenodd"/><path d="M183.034 603.938 826.935 603.938 826.935 656.864 183.034 656.864Z" fill="#CCD2D8" fill-rule="evenodd"/><path d="M75.0676 656.864 183.034 656.864 183.034 709.79 75.0676 709.79Z" fill="#156082" fill-rule="evenodd"/><path d="M183.034 656.864 826.935 656.864 826.935 709.79 183.034 709.79Z" fill="#E7EAED" fill-rule="evenodd"/><path d="M75.0676 709.79 183.034 709.79 183.034 762.716 75.0676 762.716Z" fill="#156082" fill-rule="evenodd"/><path d="M183.034 709.79 826.935 709.79 826.935 762.716 183.034 762.716Z" fill="#CCD2D8" fill-rule="evenodd"/><path d="M183.034 444.492 183.034 763.383" stroke="#FFFFFF" stroke-width="1.33386" stroke-linejoin="round" stroke-miterlimit="10" fill="none" fill-rule="evenodd"/><path d="M826.935 444.492 826.935 763.383" stroke="#FFFFFF" stroke-width="1.33386" stroke-linejoin="round" stroke-miterlimit="10" fill="none" fill-rule="evenodd"/><path d="M74.4007 498.085 1203.6 498.085" stroke="#FFFFFF" stroke-width="4.00157" stroke-linejoin="round" stroke-miterlimit="10" fill="none" fill-rule="evenodd"/><path d="M74.4007 551.011 827.602 551.011" stroke="#FFFFFF" stroke-width="1.33386" stroke-linejoin="round" stroke-miterlimit="10" fill="none" fill-rule="evenodd"/><path d="M74.4007 603.938 827.602 603.938" stroke="#FFFFFF" stroke-width="1.33386" stroke-linejoin="round" stroke-miterlimit="10" fill="none" fill-rule="evenodd"/><path d="M74.4007 656.864 827.602 656.864" stroke="#FFFFFF" stroke-width="1.33386" stroke-linejoin="round" stroke-miterlimit="10" fill="none" fill-rule="evenodd"/><path d="M74.4007 709.79 827.602 709.79" stroke="#FFFFFF" stroke-width="1.33386" stroke-linejoin="round" stroke-miterlimit="10" fill="none" fill-rule="evenodd"/><path d="M75.0676 444.492 75.0676 763.383" stroke="#FFFFFF" stroke-width="1.33386" stroke-linejoin="round" stroke-miterlimit="10" fill="none" fill-rule="evenodd"/><path d="M1202.93 444.492 1202.93 763.383" stroke="#FFFFFF" stroke-width="1.33386" stroke-linejoin="round" stroke-miterlimit="10" fill="none" fill-rule="evenodd"/><path d="M74.4007 445.159 1203.6 445.159" stroke="#FFFFFF" stroke-width="1.33386" stroke-linejoin="round" stroke-miterlimit="10" fill="none" fill-rule="evenodd"/><path d="M74.4007 762.716 1203.6 762.716" stroke="#FFFFFF" stroke-width="1.33386" stroke-linejoin="round" stroke-miterlimit="10" fill="none" fill-rule="evenodd"/><text fill="#FFFFFF" font-family="Aptos,Aptos_MSFontService,sans-serif" font-weight="700" font-size="43" transform="matrix(1 0 0 0.999853 942.018 486)">GRADO</text><text fill="#FFFFFF" font-family="Aptos,Aptos_MSFontService,sans-serif" font-weight="700" font-size="43" transform="matrix(1 0 0 0.999853 417.284 486)">NOMBRE</text><text fill="#FFFFFF" font-family="Aptos,Aptos_MSFontService,sans-serif" font-weight="700" font-size="43" transform="matrix(1 0 0 0.999853 105.542 486)">N</text><text fill="#FFFFFF" font-family="Aptos,Aptos_MSFontService,sans-serif" font-weight="700" font-size="43" transform="matrix(1 0 0 0.999853 136.387 486)">°</text><text font-family="Aptos,Aptos_MSFontService,sans-serif" font-weight="400" font-size="43" transform="matrix(1 0 0 0.999853 986.656 679)">3M</text><g><text font-family="Aptos,Aptos_MSFontService,sans-serif" font-weight="400" font-size="43" transform="matrix(1 0 0 0.999853 196.033 539)">Diego gil</text></g><text fill="#FFFFFF" font-family="Aptos,Aptos_MSFontService,sans-serif" font-weight="700" font-size="43" transform="matrix(1 0 0 0.999853 117.63 539)">1</text><g><text font-family="Aptos,Aptos_MSFontService,sans-serif" font-weight="400" font-size="43" transform="matrix(1 0 0 0.999853 196.033 592)">Brian narváez</text></g><text fill="#FFFFFF" font-family="Aptos,Aptos_MSFontService,sans-serif" font-weight="700" font-size="43" transform="matrix(1 0 0 0.999853 117.63 592)">2</text><g><text font-family="Aptos,Aptos_MSFontService,sans-serif" font-weight="400" font-size="43" transform="matrix(1 0 0 0.999853 196.033 645)">Jeremy zambrano</text></g><text fill="#FFFFFF" font-family="Aptos,Aptos_MSFontService,sans-serif" font-weight="700" font-size="43" transform="matrix(1 0 0 0.999853 117.63 645)">3</text><g><text font-family="Aptos,Aptos_MSFontService,sans-serif" font-weight="400" font-size="43" transform="matrix(1 0 0 0.999853 196.033 698)">Thomas muller</text></g><text fill="#FFFFFF" font-family="Aptos,Aptos_MSFontService,sans-serif" font-weight="700" font-size="43" transform="matrix(1 0 0 0.999853 117.63 698)">4</text><g><text font-family="Aptos,Aptos_MSFontService,sans-serif" font-weight="400" font-size="43" transform="matrix(1 0 0 0.999853 196.033 751)">Samuel feria</text></g><text fill="#FFFFFF" font-family="Aptos,Aptos_MSFontService,sans-serif" font-weight="700" font-size="43" transform="matrix(1 0 0 0.999853 117.63 751)">5</text><path d="M709.06 405.785 708.388 410.677 712.587 410.677 713.217 405.785ZM642.493 398.543 642.493 407.234 647.133 407.234C648.505 407.234 649.614 406.87 650.461 406.142 651.308 405.415 651.731 404.337 651.731 402.909 651.731 401.426 651.297 400.327 650.429 399.613 649.562 398.9 648.463 398.543 647.133 398.543ZM675.065 398.312C673.217 398.312 671.73 398.746 670.603 399.613 669.476 400.481 668.657 401.643 668.146 403.098 667.635 404.554 667.38 406.163 667.38 407.927 667.38 409.662 667.635 411.258 668.146 412.713 668.657 414.169 669.476 415.33 670.603 416.198 671.73 417.066 673.217 417.499 675.065 417.499 676.898 417.499 678.375 417.066 679.495 416.198 680.615 415.33 681.433 414.169 681.951 412.713 682.469 411.258 682.728 409.662 682.728 407.927 682.728 406.163 682.469 404.554 681.951 403.098 681.433 401.643 680.615 400.481 679.495 399.613 678.375 398.746 676.898 398.312 675.065 398.312ZM575.065 398.312C573.217 398.312 571.73 398.746 570.603 399.613 569.476 400.481 568.657 401.643 568.146 403.098 567.635 404.554 567.38 406.163 567.38 407.927 567.38 409.662 567.635 411.258 568.146 412.713 568.657 414.169 569.476 415.33 570.603 416.198 571.73 417.066 573.217 417.499 575.065 417.499 576.898 417.499 578.375 417.066 579.495 416.198 580.615 415.33 581.433 414.169 581.951 412.713 582.469 411.258 582.728 409.662 582.728 407.927 582.728 406.163 582.469 404.554 581.951 403.098 581.433 401.643 580.615 400.481 579.495 399.613 578.375 398.746 576.898 398.312 575.065 398.312ZM706.813 394.533 710.613 394.533 709.543 402.322 713.721 402.322 714.792 394.533 718.634 394.533 717.542 402.322 721.489 402.322 721.489 405.785 717.038 405.785 716.387 410.677 720.293 410.677 720.293 414.162 715.904 414.162 714.813 422.034 710.991 422.034 712.062 414.162 707.884 414.162 706.792 422.034 702.95 422.034 704.042 414.162 700.031 414.162 700.031 410.677 704.546 410.677 705.217 405.785 701.186 405.785 701.186 402.322 705.721 402.322ZM733.362 394.491 738.653 394.491 738.653 422.034 732.795 422.034 732.795 401.02C732.347 401.538 731.794 402.031 731.136 402.5 730.478 402.969 729.684 403.382 728.753 403.739 727.822 404.095 726.72 404.365 725.446 404.547L725.446 399.383C726.734 399.103 727.864 398.725 728.837 398.249 729.81 397.773 730.664 397.217 731.398 396.58 732.133 395.943 732.788 395.247 733.362 394.491ZM636.593 393.777 647.679 393.777C649.541 393.777 651.238 394.106 652.77 394.764 654.303 395.422 655.524 396.423 656.434 397.766 657.344 399.11 657.799 400.824 657.799 402.909 657.799 404.967 657.344 406.667 656.434 408.011 655.524 409.354 654.303 410.351 652.77 411.002 651.238 411.653 649.541 411.978 647.679 411.978L642.493 411.978 642.493 422.034 636.593 422.034ZM623.593 393.777 629.493 393.777 629.493 422.034 623.593 422.034ZM594.257 393.777 600.304 393.777 600.304 410.656C600.304 412.979 600.78 414.707 601.732 415.841 602.683 416.975 604.181 417.541 606.225 417.541 608.282 417.541 609.77 416.975 610.686 415.841 611.603 414.707 612.062 412.979 612.062 410.656L612.062 393.777 618.13 393.777 618.13 410.803C618.13 413.294 617.717 415.407 616.891 417.143 616.065 418.878 614.774 420.19 613.017 421.079 611.26 421.967 608.982 422.412 606.183 422.412 603.411 422.412 601.144 421.967 599.38 421.079 597.616 420.19 596.322 418.878 595.496 417.143 594.67 415.407 594.257 413.294 594.257 410.803ZM538.593 393.777 557.552 393.777 557.552 398.669 544.493 398.669 544.493 405.24 556.335 405.24 556.335 409.963 544.493 409.963 544.493 417.143 557.552 417.143 557.552 422.034 538.593 422.034ZM675.065 393.4C678.018 393.4 680.517 393.998 682.56 395.194 684.604 396.391 686.158 398.077 687.221 400.254 688.285 402.43 688.817 404.988 688.817 407.927 688.817 410.866 688.285 413.416 687.221 415.579 686.158 417.741 684.604 419.42 682.56 420.617 680.517 421.814 678.018 422.412 675.065 422.412 672.111 422.412 669.609 421.814 667.559 420.617 665.508 419.42 663.951 417.741 662.887 415.579 661.823 413.416 661.291 410.866 661.291 407.927 661.291 404.988 661.823 402.43 662.887 400.254 663.951 398.077 665.508 396.391 667.559 395.194 669.609 393.998 672.111 393.4 675.065 393.4ZM575.065 393.4C578.018 393.4 580.517 393.998 582.56 395.194 584.604 396.391 586.158 398.077 587.221 400.254 588.285 402.43 588.817 404.988 588.817 407.927 588.817 410.866 588.285 413.416 587.221 415.579 586.158 417.741 584.604 419.42 582.56 420.617 582.049 420.916 581.51 421.178 580.942 421.402L579.746 421.777 580.765 422.79C581.346 423.182 582.109 423.472 583.054 423.661 583.998 423.85 585.22 423.944 586.717 423.944L587.83 423.944 587.83 429.004 586.424 429.004C584.394 429.004 582.707 428.811 581.363 428.426 580.02 428.041 578.917 427.506 578.057 426.82 577.196 426.135 576.478 425.333 575.904 424.417L574.814 422.399 572.934 422.3C570.888 422.075 569.096 421.514 567.559 420.617 565.508 419.42 563.951 417.741 562.887 415.579 561.823 413.416 561.291 410.866 561.291 407.927 561.291 404.988 561.823 402.43 562.887 400.254 563.951 398.077 565.508 396.391 567.559 395.194 569.609 393.998 572.111 393.4 575.065 393.4Z" fill="url(#fill2)" fill-rule="evenodd"/><text fill="#000000" fill-opacity="0" font-family="Arial,Arial_MSFontService,sans-serif" font-size="35.6041" x="538.593" y="424.553">EQUIPO #1</text><path d="M709.06 822.492 708.388 827.384 712.587 827.384 713.217 822.492ZM642.493 815.25 642.493 823.941 647.133 823.941C648.505 823.941 649.614 823.577 650.461 822.849 651.308 822.122 651.731 821.044 651.731 819.616 651.731 818.133 651.297 817.034 650.429 816.321 649.561 815.607 648.463 815.25 647.133 815.25ZM675.065 815.019C673.217 815.019 671.73 815.453 670.603 816.321 669.476 817.188 668.657 818.35 668.146 819.805 667.635 821.261 667.38 822.87 667.38 824.634 667.38 826.369 667.635 827.965 668.146 829.42 668.657 830.876 669.476 832.037 670.603 832.905 671.73 833.773 673.217 834.207 675.065 834.207 676.898 834.207 678.375 833.773 679.495 832.905 680.615 832.037 681.433 830.876 681.951 829.42 682.469 827.965 682.728 826.369 682.728 824.634 682.728 822.87 682.469 821.261 681.951 819.805 681.433 818.35 680.615 817.188 679.495 816.321 678.375 815.453 676.898 815.019 675.065 815.019ZM575.065 815.019C573.217 815.019 571.73 815.453 570.603 816.321 569.476 817.188 568.657 818.35 568.146 819.805 567.635 821.261 567.38 822.87 567.38 824.634 567.38 826.369 567.635 827.965 568.146 829.42 568.657 830.876 569.476 832.037 570.603 832.905 571.73 833.773 573.217 834.207 575.065 834.207 576.898 834.207 578.375 833.773 579.495 832.905 580.615 832.037 581.433 830.876 581.951 829.42 582.469 827.965 582.728 826.369 582.728 824.634 582.728 822.87 582.469 821.261 581.951 819.805 581.433 818.35 580.615 817.188 579.495 816.321 578.375 815.453 576.898 815.019 575.065 815.019ZM706.813 811.24 710.613 811.24 709.543 819.029 713.721 819.029 714.792 811.24 718.634 811.24 717.542 819.029 721.489 819.029 721.489 822.492 717.038 822.492 716.387 827.384 720.293 827.384 720.293 830.869 715.904 830.869 714.813 838.741 710.991 838.741 712.062 830.869 707.884 830.869 706.792 838.741 702.95 838.741 704.042 830.869 700.031 830.869 700.031 827.384 704.545 827.384 705.217 822.492 701.186 822.492 701.186 819.029 705.721 819.029ZM733.76 810.862C735.608 810.862 737.218 811.191 738.589 811.849 739.961 812.507 741.025 813.451 741.781 814.683 742.537 815.915 742.915 817.412 742.915 819.176 742.915 820.645 742.652 821.95 742.127 823.091 741.602 824.231 740.888 825.288 739.986 826.261 739.083 827.233 738.072 828.217 736.952 829.21L731.514 834.018 743.649 834.018 743.649 838.741 723.724 838.741 723.724 834.878 733.781 825.725C734.943 824.662 735.807 823.633 736.374 822.639 736.941 821.646 737.225 820.624 737.225 819.574 737.225 818.483 736.966 817.573 736.448 816.845 735.93 816.118 735.034 815.754 733.76 815.754 732.319 815.754 731.286 816.195 730.663 817.076 730.041 817.958 729.729 819.099 729.729 820.498L724.396 820.498C724.396 818.483 724.76 816.754 725.488 815.313 726.216 813.871 727.28 812.769 728.679 812.006 730.079 811.244 731.773 810.862 733.76 810.862ZM636.593 810.484 647.679 810.484C649.54 810.484 651.238 810.813 652.77 811.471 654.303 812.129 655.524 813.13 656.434 814.473 657.344 815.817 657.799 817.531 657.799 819.616 657.799 821.674 657.344 823.374 656.434 824.718 655.524 826.061 654.303 827.058 652.77 827.709 651.238 828.36 649.54 828.685 647.679 828.685L642.493 828.685 642.493 838.741 636.593 838.741ZM623.593 810.484 629.493 810.484 629.493 838.741 623.593 838.741ZM594.257 810.484 600.304 810.484 600.304 827.363C600.304 829.686 600.78 831.414 601.732 832.548 602.683 833.682 604.181 834.249 606.225 834.249 608.282 834.249 609.77 833.682 610.686 832.548 611.603 831.414 612.062 829.686 612.062 827.363L612.062 810.484 618.129 810.484 618.129 827.51C618.129 830.001 617.717 832.114 616.891 833.85 616.065 835.585 614.774 836.897 613.017 837.786 611.26 838.675 608.982 839.119 606.183 839.119 603.411 839.119 601.144 838.675 599.38 837.786 597.616 836.897 596.322 835.585 595.496 833.85 594.67 832.114 594.257 830.001 594.257 827.51ZM538.593 810.484 557.552 810.484 557.552 815.376 544.493 815.376 544.493 821.947 556.335 821.947 556.335 826.67 544.493 826.67 544.493 833.85 557.552 833.85 557.552 838.741 538.593 838.741ZM675.065 810.107C678.018 810.107 680.516 810.705 682.56 811.901 684.604 813.098 686.157 814.785 687.221 816.961 688.285 819.137 688.817 821.695 688.817 824.634 688.817 827.573 688.285 830.123 687.221 832.286 686.157 834.448 684.604 836.127 682.56 837.324 680.516 838.521 678.018 839.119 675.065 839.119 672.111 839.119 669.609 838.521 667.558 837.324 665.508 836.127 663.951 834.448 662.887 832.286 661.823 830.123 661.291 827.573 661.291 824.634 661.291 821.695 661.823 819.137 662.887 816.961 663.951 814.785 665.508 813.098 667.558 811.901 669.609 810.705 672.111 810.107 675.065 810.107ZM575.065 810.107C578.018 810.107 580.516 810.705 582.56 811.901 584.604 813.098 586.157 814.785 587.221 816.961 588.285 819.137 588.817 821.695 588.817 824.634 588.817 827.573 588.285 830.123 587.221 832.286 586.157 834.448 584.604 836.127 582.56 837.324 582.049 837.623 581.51 837.885 580.942 838.109L579.745 838.485 580.765 839.497C581.346 839.889 582.109 840.179 583.054 840.368 583.998 840.557 585.22 840.651 586.717 840.651L587.83 840.651 587.83 845.711 586.423 845.711C584.394 845.711 582.707 845.518 581.363 845.133 580.02 844.749 578.917 844.213 578.056 843.527 577.196 842.842 576.478 842.04 575.904 841.124L574.814 839.106 572.934 839.007C570.888 838.782 569.096 838.221 567.558 837.324 565.508 836.127 563.951 834.448 562.887 832.286 561.823 830.123 561.291 827.573 561.291 824.634 561.291 821.695 561.823 819.137 562.887 816.961 563.951 814.785 565.508 813.098 567.558 811.901 569.609 810.705 572.111 810.107 575.065 810.107Z" fill="url(#fill3)" fill-rule="evenodd"/><text fill="#000000" fill-opacity="0" font-family="Arial,Arial_MSFontService,sans-serif" font-size="35.6041" x="538.593" y="841.26">EQUIPO #2</text><path d="M75.0676 861.927 180.886 861.927 180.886 914.853 75.0676 914.853Z" fill="#156082" fill-rule="evenodd"/><path d="M180.886 861.927 826.935 861.927 826.935 914.853 180.886 914.853Z" fill="#156082" fill-rule="evenodd"/><path d="M826.935 861.927 1202.93 861.927 1202.93 914.853 826.935 914.853Z" fill="#156082" fill-rule="evenodd"/><path d="M75.0676 914.853 180.886 914.853 180.886 967.78 75.0676 967.78Z" fill="#156082" fill-rule="evenodd"/><path d="M180.886 914.853 826.935 914.853 826.935 967.78 180.886 967.78Z" fill="#CCD2D8" fill-rule="evenodd"/><path d="M826.935 914.853 1202.93 914.853 1202.93 1179.48 826.935 1179.48Z" fill="#CCD2D8" fill-rule="evenodd"/><path d="M75.0676 967.78 180.886 967.78 180.886 1020.71 75.0676 1020.71Z" fill="#156082" fill-rule="evenodd"/><path d="M180.886 967.78 826.935 967.78 826.935 1020.71 180.886 1020.71Z" fill="#E7EAED" fill-rule="evenodd"/><path d="M75.0676 1020.71 180.886 1020.71 180.886 1073.63 75.0676 1073.63Z" fill="#156082" fill-rule="evenodd"/><path d="M180.886 1020.71 826.935 1020.71 826.935 1073.63 180.886 1073.63Z" fill="#CCD2D8" fill-rule="evenodd"/><path d="M75.0676 1073.63 180.886 1073.63 180.886 1126.56 75.0676 1126.56Z" fill="#156082" fill-rule="evenodd"/><path d="M180.886 1073.63 826.935 1073.63 826.935 1126.56 180.886 1126.56Z" fill="#E7EAED" fill-rule="evenodd"/><path d="M75.0676 1126.56 180.886 1126.56 180.886 1179.48 75.0676 1179.48Z" fill="#156082" fill-rule="evenodd"/><path d="M180.886 1126.56 826.935 1126.56 826.935 1179.48 180.886 1179.48Z" fill="#CCD2D8" fill-rule="evenodd"/><path d="M180.886 861.26 180.886 1180.15" stroke="#FFFFFF" stroke-width="1.33386" stroke-linejoin="round" stroke-miterlimit="10" fill="none" fill-rule="evenodd"/><path d="M826.935 861.26 826.935 1180.15" stroke="#FFFFFF" stroke-width="1.33386" stroke-linejoin="round" stroke-miterlimit="10" fill="none" fill-rule="evenodd"/><path d="M74.4007 914.853 1203.6 914.853" stroke="#FFFFFF" stroke-width="4.00157" stroke-linejoin="round" stroke-miterlimit="10" fill="none" fill-rule="evenodd"/><path d="M74.4007 967.78 827.602 967.78" stroke="#FFFFFF" stroke-width="1.33386" stroke-linejoin="round" stroke-miterlimit="10" fill="none" fill-rule="evenodd"/><path d="M74.4007 1020.71 827.602 1020.71" stroke="#FFFFFF" stroke-width="1.33386" stroke-linejoin="round" stroke-miterlimit="10" fill="none" fill-rule="evenodd"/><path d="M74.4007 1073.63 827.602 1073.63" stroke="#FFFFFF" stroke-width="1.33386" stroke-linejoin="round" stroke-miterlimit="10" fill="none" fill-rule="evenodd"/><path d="M74.4007 1126.56 827.602 1126.56" stroke="#FFFFFF" stroke-width="1.33386" stroke-linejoin="round" stroke-miterlimit="10" fill="none" fill-rule="evenodd"/><path d="M75.0676 861.26 75.0676 1180.15" stroke="#FFFFFF" stroke-width="1.33386" stroke-linejoin="round" stroke-miterlimit="10" fill="none" fill-rule="evenodd"/><path d="M1202.93 861.26 1202.93 1180.15" stroke="#FFFFFF" stroke-width="1.33386" stroke-linejoin="round" stroke-miterlimit="10" fill="none" fill-rule="evenodd"/><path d="M74.4007 861.927 1203.6 861.927" stroke="#FFFFFF" stroke-width="1.33386" stroke-linejoin="round" stroke-miterlimit="10" fill="none" fill-rule="evenodd"/><path d="M74.4007 1179.48 1203.6 1179.48" stroke="#FFFFFF" stroke-width="1.33386" stroke-linejoin="round" stroke-miterlimit="10" fill="none" fill-rule="evenodd"/><text fill="#FFFFFF" font-family="Aptos,Aptos_MSFontService,sans-serif" font-weight="700" font-size="43" transform="matrix(1 0 0 0.999853 942.018 903)">GRADO</text><text fill="#FFFFFF" font-family="Aptos,Aptos_MSFontService,sans-serif" font-weight="700" font-size="43" transform="matrix(1 0 0 0.999853 416.21 903)">NOMBRE</text><text fill="#FFFFFF" font-family="Aptos,Aptos_MSFontService,sans-serif" font-weight="700" font-size="43" transform="matrix(1 0 0 0.999853 104.468 903)">N</text><text fill="#FFFFFF" font-family="Aptos,Aptos_MSFontService,sans-serif" font-weight="700" font-size="43" transform="matrix(1 0 0 0.999853 135.313 903)">°</text><text font-family="Aptos,Aptos_MSFontService,sans-serif" font-weight="400" font-size="43" transform="matrix(1 0 0 0.999853 967.937 1087)">3M</text><text font-family="Aptos,Aptos_MSFontService,sans-serif" font-weight="400" font-size="43" transform="matrix(1 0 0 0.999853 1024.46 1087)">-</text><text font-family="Aptos,Aptos_MSFontService,sans-serif" font-weight="400" font-size="43" transform="matrix(1 0 0 0.999853 1038.96 1087)">2</text><g><text font-family="Aptos,Aptos_MSFontService,sans-serif" font-weight="400" font-size="43" transform="matrix(1 0 0 0.999853 188.089 956)">Lucas Henao</text></g><text fill="#FFFFFF" font-family="Aptos,Aptos_MSFontService,sans-serif" font-weight="700" font-size="43" transform="matrix(1 0 0 0.999853 116.556 956)">1</text><g><text font-family="Aptos,Aptos_MSFontService,sans-serif" font-weight="400" font-size="43" transform="matrix(1 0 0 0.999853 188.089 1009)">Martin jimenez</text></g><text fill="#FFFFFF" font-family="Aptos,Aptos_MSFontService,sans-serif" font-weight="700" font-size="43" transform="matrix(1 0 0 0.999853 116.556 1009)">2</text><g><text font-family="Aptos,Aptos_MSFontService,sans-serif" font-weight="400" font-size="43" transform="matrix(1 0 0 0.999853 188.089 1062)">Dylan Insuasty</text></g><text fill="#FFFFFF" font-family="Aptos,Aptos_MSFontService,sans-serif" font-weight="700" font-size="43" transform="matrix(1 0 0 0.999853 116.556 1062)">3</text><g><text font-family="Aptos,Aptos_MSFontService,sans-serif" font-weight="400" font-size="43" transform="matrix(1 0 0 0.999853 188.089 1114)">Yasser martinez</text></g><text fill="#FFFFFF" font-family="Aptos,Aptos_MSFontService,sans-serif" font-weight="700" font-size="43" transform="matrix(1 0 0 0.999853 116.556 1114)">4</text><g><text font-family="Aptos,Aptos_MSFontService,sans-serif" font-weight="400" font-size="43" transform="matrix(1 0 0 0.999853 188.089 1167)">Christopher barbosa</text></g><text fill="#FFFFFF" font-family="Aptos,Aptos_MSFontService,sans-serif" font-weight="700" font-size="43" transform="matrix(1 0 0 0.999853 116.556 1167)">5</text><path d="M710.644 1225.27 709.972 1230.16 714.171 1230.16 714.801 1225.27ZM644.077 1218.02 644.077 1226.71 648.717 1226.71C650.089 1226.71 651.198 1226.35 652.045 1225.62 652.892 1224.9 653.315 1223.82 653.315 1222.39 653.315 1220.91 652.881 1219.81 652.014 1219.09 651.146 1218.38 650.047 1218.02 648.717 1218.02ZM676.649 1217.79C674.801 1217.79 673.314 1218.23 672.187 1219.09 671.06 1219.96 670.242 1221.12 669.731 1222.58 669.22 1224.03 668.964 1225.64 668.964 1227.41 668.964 1229.14 669.22 1230.74 669.731 1232.19 670.242 1233.65 671.06 1234.81 672.187 1235.68 673.314 1236.55 674.801 1236.98 676.649 1236.98 678.482 1236.98 679.959 1236.55 681.079 1235.68 682.199 1234.81 683.018 1233.65 683.536 1232.19 684.053 1230.74 684.312 1229.14 684.312 1227.41 684.312 1225.64 684.053 1224.03 683.536 1222.58 683.018 1221.12 682.199 1219.96 681.079 1219.09 679.959 1218.23 678.482 1217.79 676.649 1217.79ZM576.649 1217.79C574.801 1217.79 573.314 1218.23 572.187 1219.09 571.06 1219.96 570.242 1221.12 569.731 1222.58 569.22 1224.03 568.964 1225.64 568.964 1227.41 568.964 1229.14 569.22 1230.74 569.731 1232.19 570.242 1233.65 571.06 1234.81 572.187 1235.68 573.314 1236.55 574.801 1236.98 576.649 1236.98 578.482 1236.98 579.959 1236.55 581.079 1235.68 582.199 1234.81 583.018 1233.65 583.536 1232.19 584.053 1230.74 584.312 1229.14 584.312 1227.41 584.312 1225.64 584.053 1224.03 583.536 1222.58 583.018 1221.12 582.199 1219.96 581.079 1219.09 579.959 1218.23 578.482 1217.79 576.649 1217.79ZM708.397 1214.01 712.198 1214.01 711.127 1221.8 715.305 1221.8 716.376 1214.01 720.218 1214.01 719.126 1221.8 723.074 1221.8 723.074 1225.27 718.622 1225.27 717.972 1230.16 721.877 1230.16 721.877 1233.64 717.489 1233.64 716.397 1241.52 712.576 1241.52 713.646 1233.64 709.468 1233.64 708.376 1241.52 704.534 1241.52 705.626 1233.64 701.616 1233.64 701.616 1230.16 706.13 1230.16 706.802 1225.27 702.77 1225.27 702.77 1221.8 707.306 1221.8ZM735.345 1213.64C736.996 1213.64 738.522 1213.89 739.922 1214.4 741.321 1214.91 742.445 1215.7 743.292 1216.77 744.138 1217.85 744.562 1219.22 744.562 1220.9 744.562 1222.59 744.138 1223.93 743.292 1224.92 742.445 1225.91 741.3 1226.6 739.859 1227.01 741.426 1227.33 742.728 1228.03 743.764 1229.1 744.8 1230.17 745.318 1231.68 745.318 1233.64 745.318 1235.42 744.915 1236.92 744.11 1238.15 743.306 1239.37 742.165 1240.3 740.688 1240.93 739.211 1241.56 737.451 1241.87 735.408 1241.87 732.174 1241.87 729.669 1241.13 727.891 1239.65 726.113 1238.16 725.224 1235.92 725.224 1232.91L730.557 1232.91C730.557 1234.29 730.981 1235.37 731.828 1236.15 732.675 1236.93 733.861 1237.32 735.387 1237.32 736.772 1237.32 737.826 1236.99 738.547 1236.33 739.267 1235.67 739.628 1234.64 739.628 1233.22 739.628 1231.85 739.18 1230.86 738.284 1230.24 737.388 1229.63 736.24 1229.32 734.841 1229.32L733.14 1229.32 733.14 1224.95 735.009 1224.95C736.268 1224.95 737.283 1224.63 738.053 1223.98 738.823 1223.32 739.208 1222.47 739.208 1221.4 739.208 1220.31 738.868 1219.51 738.19 1218.99 737.511 1218.47 736.569 1218.21 735.366 1218.21 734.064 1218.21 733.06 1218.55 732.353 1219.21 731.646 1219.87 731.292 1220.79 731.292 1221.97L725.959 1221.97C725.959 1220.07 726.376 1218.5 727.209 1217.28 728.041 1216.05 729.165 1215.14 730.578 1214.54 731.992 1213.94 733.581 1213.64 735.345 1213.64ZM638.177 1213.26 649.263 1213.26C651.125 1213.26 652.822 1213.59 654.355 1214.25 655.887 1214.9 657.109 1215.9 658.018 1217.25 658.928 1218.59 659.383 1220.31 659.383 1222.39 659.383 1224.45 658.928 1226.15 658.018 1227.49 657.109 1228.84 655.887 1229.83 654.355 1230.48 652.822 1231.13 651.125 1231.46 649.263 1231.46L644.077 1231.46 644.077 1241.52 638.177 1241.52ZM625.177 1213.26 631.077 1213.26 631.077 1241.52 625.177 1241.52ZM595.841 1213.26 601.888 1213.26 601.888 1230.14C601.888 1232.46 602.364 1234.19 603.316 1235.32 604.268 1236.46 605.765 1237.02 607.809 1237.02 609.867 1237.02 611.354 1236.46 612.271 1235.32 613.188 1234.19 613.646 1232.46 613.646 1230.14L613.646 1213.26 619.714 1213.26 619.714 1230.28C619.714 1232.78 619.301 1234.89 618.475 1236.62 617.649 1238.36 616.358 1239.67 614.601 1240.56 612.845 1241.45 610.566 1241.89 607.767 1241.89 604.995 1241.89 602.728 1241.45 600.964 1240.56 599.201 1239.67 597.906 1238.36 597.08 1236.62 596.254 1234.89 595.841 1232.78 595.841 1230.28ZM540.177 1213.26 559.137 1213.26 559.137 1218.15 546.077 1218.15 546.077 1224.72 557.919 1224.72 557.919 1229.44 546.077 1229.44 546.077 1236.62 559.137 1236.62 559.137 1241.52 540.177 1241.52ZM676.649 1212.88C679.602 1212.88 682.101 1213.48 684.144 1214.68 686.188 1215.87 687.742 1217.56 688.806 1219.73 689.869 1221.91 690.401 1224.47 690.401 1227.41 690.401 1230.35 689.869 1232.9 688.806 1235.06 687.742 1237.22 686.188 1238.9 684.144 1240.1 682.101 1241.29 679.602 1241.89 676.649 1241.89 673.695 1241.89 671.193 1241.29 669.143 1240.1 667.092 1238.9 665.535 1237.22 664.471 1235.06 663.407 1232.9 662.875 1230.35 662.875 1227.41 662.875 1224.47 663.407 1221.91 664.471 1219.73 665.535 1217.56 667.092 1215.87 669.143 1214.68 671.193 1213.48 673.695 1212.88 676.649 1212.88ZM576.649 1212.88C579.602 1212.88 582.101 1213.48 584.144 1214.68 586.188 1215.87 587.742 1217.56 588.806 1219.73 589.869 1221.91 590.401 1224.47 590.401 1227.41 590.401 1230.35 589.869 1232.9 588.806 1235.06 587.742 1237.22 586.188 1238.9 584.144 1240.1 583.633 1240.4 583.094 1240.66 582.526 1240.88L581.33 1241.26 582.349 1242.27C582.93 1242.66 583.693 1242.95 584.638 1243.14 585.583 1243.33 586.804 1243.43 588.302 1243.43L589.414 1243.43 589.414 1248.48 588.008 1248.48C585.978 1248.48 584.291 1248.29 582.948 1247.91 581.604 1247.52 580.502 1246.99 579.641 1246.3 578.78 1245.62 578.063 1244.81 577.489 1243.9L576.398 1241.88 574.518 1241.78C572.473 1241.56 570.681 1241 569.143 1240.1 567.092 1238.9 565.535 1237.22 564.471 1235.06 563.407 1232.9 562.875 1230.35 562.875 1227.41 562.875 1224.47 563.407 1221.91 564.471 1219.73 565.535 1217.56 567.092 1215.87 569.143 1214.68 571.193 1213.48 573.695 1212.88 576.649 1212.88Z" fill="url(#fill4)" fill-rule="evenodd"/><text fill="#000000" fill-opacity="0" font-family="Arial,Arial_MSFontService,sans-serif" font-size="35.6041" x="540.177" y="1244.03">EQUIPO #3</text><path d="M69.0152 1263.68 180.07 1263.68 180.07 1316.61 69.0152 1316.61Z" fill="#156082" fill-rule="evenodd"/><path d="M180.07 1263.68 820.882 1263.68 820.882 1316.61 180.07 1316.61Z" fill="#156082" fill-rule="evenodd"/><path d="M820.882 1263.68 1196.88 1263.68 1196.88 1316.61 820.882 1316.61Z" fill="#156082" fill-rule="evenodd"/><path d="M69.0152 1316.61 180.07 1316.61 180.07 1369.53 69.0152 1369.53Z" fill="#156082" fill-rule="evenodd"/><path d="M180.07 1316.61 820.882 1316.61 820.882 1369.53 180.07 1369.53Z" fill="#CCD2D8" fill-rule="evenodd"/><path d="M820.882 1316.61 1196.88 1316.61 1196.88 1581.24 820.882 1581.24Z" fill="#CCD2D8" fill-rule="evenodd"/><path d="M69.0152 1369.53 180.07 1369.53 180.07 1422.46 69.0152 1422.46Z" fill="#156082" fill-rule="evenodd"/><path d="M180.07 1369.53 820.882 1369.53 820.882 1422.46 180.07 1422.46Z" fill="#E7EAED" fill-rule="evenodd"/><path d="M69.0152 1422.46 180.07 1422.46 180.07 1475.39 69.0152 1475.39Z" fill="#156082" fill-rule="evenodd"/><path d="M180.07 1422.46 820.882 1422.46 820.882 1475.39 180.07 1475.39Z" fill="#CCD2D8" fill-rule="evenodd"/><path d="M69.0152 1475.39 180.07 1475.39 180.07 1528.31 69.0152 1528.31Z" fill="#156082" fill-rule="evenodd"/><path d="M180.07 1475.39 820.882 1475.39 820.882 1528.31 180.07 1528.31Z" fill="#E7EAED" fill-rule="evenodd"/><path d="M69.0152 1528.31 180.07 1528.31 180.07 1581.24 69.0152 1581.24Z" fill="#156082" fill-rule="evenodd"/><path d="M180.07 1528.31 820.882 1528.31 820.882 1581.24 180.07 1581.24Z" fill="#CCD2D8" fill-rule="evenodd"/><path d="M180.07 1263.01 180.07 1581.9" stroke="#FFFFFF" stroke-width="1.33386" stroke-linejoin="round" stroke-miterlimit="10" fill="none" fill-rule="evenodd"/><path d="M820.882 1263.01 820.882 1581.9" stroke="#FFFFFF" stroke-width="1.33386" stroke-linejoin="round" stroke-miterlimit="10" fill="none" fill-rule="evenodd"/><path d="M68.3483 1316.61 1197.55 1316.61" stroke="#FFFFFF" stroke-width="4.00157" stroke-linejoin="round" stroke-miterlimit="10" fill="none" fill-rule="evenodd"/><path d="M68.3483 1369.53 821.549 1369.53" stroke="#FFFFFF" stroke-width="1.33386" stroke-linejoin="round" stroke-miterlimit="10" fill="none" fill-rule="evenodd"/><path d="M68.3483 1422.46 821.549 1422.46" stroke="#FFFFFF" stroke-width="1.33386" stroke-linejoin="round" stroke-miterlimit="10" fill="none" fill-rule="evenodd"/><path d="M68.3483 1475.39 821.549 1475.39" stroke="#FFFFFF" stroke-width="1.33386" stroke-linejoin="round" stroke-miterlimit="10" fill="none" fill-rule="evenodd"/><path d="M68.3483 1528.31 821.549 1528.31" stroke="#FFFFFF" stroke-width="1.33386" stroke-linejoin="round" stroke-miterlimit="10" fill="none" fill-rule="evenodd"/><path d="M69.0152 1263.01 69.0152 1581.9" stroke="#FFFFFF" stroke-width="1.33386" stroke-linejoin="round" stroke-miterlimit="10" fill="none" fill-rule="evenodd"/><path d="M1196.88 1263.01 1196.88 1581.9" stroke="#FFFFFF" stroke-width="1.33386" stroke-linejoin="round" stroke-miterlimit="10" fill="none" fill-rule="evenodd"/><path d="M68.3483 1263.68 1197.55 1263.68" stroke="#FFFFFF" stroke-width="1.33386" stroke-linejoin="round" stroke-miterlimit="10" fill="none" fill-rule="evenodd"/><path d="M68.3483 1581.24 1197.55 1581.24" stroke="#FFFFFF" stroke-width="1.33386" stroke-linejoin="round" stroke-miterlimit="10" fill="none" fill-rule="evenodd"/><text fill="#FFFFFF" font-family="Aptos,Aptos_MSFontService,sans-serif" font-weight="700" font-size="43" transform="matrix(1 0 0 0.999853 935.966 1304)">GRADO</text><text fill="#FFFFFF" font-family="Aptos,Aptos_MSFontService,sans-serif" font-weight="700" font-size="43" transform="matrix(1 0 0 0.999853 412.775 1304)">NOMBRE</text><text fill="#FFFFFF" font-family="Aptos,Aptos_MSFontService,sans-serif" font-weight="700" font-size="43" transform="matrix(1 0 0 0.999853 101.034 1304)">N</text><text fill="#FFFFFF" font-family="Aptos,Aptos_MSFontService,sans-serif" font-weight="700" font-size="43" transform="matrix(1 0 0 0.999853 131.879 1304)">°</text><text font-family="Aptos,Aptos_MSFontService,sans-serif" font-weight="400" font-size="43" transform="matrix(1 0 0 0.999853 987.147 1488)">3T</text><g><text font-family="Aptos,Aptos_MSFontService,sans-serif" font-weight="400" font-size="43" transform="matrix(1 0 0 0.999853 187.273 1357)">Zabdiel viera</text></g><text fill="#FFFFFF" font-family="Aptos,Aptos_MSFontService,sans-serif" font-weight="700" font-size="43" transform="matrix(1 0 0 0.999853 113.122 1357)">1</text><g><text font-family="Aptos,Aptos_MSFontService,sans-serif" font-weight="400" font-size="43" transform="matrix(1 0 0 0.999853 187.273 1410)">Danier guali</text></g><text fill="#FFFFFF" font-family="Aptos,Aptos_MSFontService,sans-serif" font-weight="700" font-size="43" transform="matrix(1 0 0 0.999853 113.122 1410)">2</text><g><text font-family="Aptos,Aptos_MSFontService,sans-serif" font-weight="400" font-size="43" transform="matrix(1 0 0 0.999853 187.273 1463)">Mathias aragon</text></g><text fill="#FFFFFF" font-family="Aptos,Aptos_MSFontService,sans-serif" font-weight="700" font-size="43" transform="matrix(1 0 0 0.999853 113.122 1463)">3</text><g><text font-family="Aptos,Aptos_MSFontService,sans-serif" font-weight="400" font-size="43" transform="matrix(1 0 0 0.999853 187.273 1516)">Samuel acosta</text></g><text fill="#FFFFFF" font-family="Aptos,Aptos_MSFontService,sans-serif" font-weight="700" font-size="43" transform="matrix(1 0 0 0.999853 113.122 1516)">4</text><g><text font-family="Aptos,Aptos_MSFontService,sans-serif" font-weight="400" font-size="43" transform="matrix(1 0 0 0.999853 187.273 1569)">Jhoan chapal</text></g><text fill="#FFFFFF" font-family="Aptos,Aptos_MSFontService,sans-serif" font-weight="700" font-size="43" transform="matrix(1 0 0 0.999853 113.122 1569)">5</text><g clip-path="url(#clip5)"><g filter="url(#fx0)" transform="translate(67 29)"><g><rect x="8.00005" y="7.99611" width="1128" height="287.958" stroke="#F2F2F2" stroke-width="2" stroke-miterlimit="8" fill="#FFFFFF"/></g></g><g filter="url(#fx1)" transform="translate(348 156)"><g><path d="M561.32 11.6234 555.368 28.1576 567.221 28.1576ZM348.32 11.6234 342.368 28.1576 354.221 28.1576ZM263.32 11.6234 257.368 28.1576 269.221 28.1576ZM57.3203 11.6234 51.3682 28.1576 63.2207 28.1576ZM210.851 10.8731 210.851 23.1896 218.77 23.1896C220.046 23.1896 221.202 22.9481 222.237 22.4651 223.272 21.9821 224.096 21.2835 224.709 20.3692 225.321 19.455 225.627 18.351 225.627 17.0572 225.627 15.108 225.054 13.5899 223.906 12.5032 222.759 11.4164 221.09 10.8731 218.899 10.8731ZM182.047 10.3297C179.252 10.3297 176.988 10.9636 175.254 12.2315 173.52 13.4994 172.256 15.1985 171.462 17.3289 170.669 19.4593 170.272 21.8269 170.272 24.4316 170.272 27.0191 170.669 29.3781 171.462 31.5085 172.256 33.6388 173.52 35.3337 175.254 36.5929 176.988 37.8521 179.252 38.4818 182.047 38.4818 184.842 38.4818 187.102 37.8521 188.827 36.5929 190.552 35.3337 191.816 33.6388 192.618 31.5085 193.421 29.3781 193.822 27.0191 193.822 24.4316 193.822 21.8269 193.421 19.4593 192.618 17.3289 191.816 15.1985 190.552 13.4994 188.827 12.2315 187.102 10.9636 184.842 10.3297 182.047 10.3297ZM558.888 6.99179 563.805 6.99179 576.667 41.8197 571.853 41.8197 568.541 32.0648 554.1 32.0648 550.632 41.8197 545.845 41.8197ZM513.192 6.99179 517.954 6.99179 537.053 34.704 537.053 6.99179 541.478 6.99179 541.478 41.8197 536.716 41.8197 517.592 14.0557 517.592 41.8197 513.192 41.8197ZM499.192 6.99179 503.851 6.99179 503.851 41.8197 499.192 41.8197ZM472.192 6.99179 476.851 6.99179 476.851 37.809 493.128 37.809 493.128 41.8197 472.192 41.8197ZM435.752 6.99179 440.462 6.99179 440.462 28.3129C440.462 31.9354 441.252 34.5186 442.83 36.0625 444.409 37.6063 446.691 38.3783 449.675 38.3783 452.677 38.3783 454.963 37.6063 456.533 36.0625 458.103 34.5186 458.888 31.9354 458.888 28.3129L458.888 6.99179 463.598 6.99179 463.598 28.8821C463.598 31.4696 463.124 33.7768 462.175 35.8037 461.226 37.8306 459.729 39.4176 457.685 40.5647 455.64 41.7119 452.962 42.2854 449.649 42.2854 446.389 42.2854 443.732 41.7119 441.679 40.5647 439.626 39.4176 438.125 37.8306 437.176 35.8037 436.227 33.7768 435.752 31.4696 435.752 28.8821ZM345.888 6.99179 350.805 6.99179 363.667 41.8197 358.853 41.8197 355.541 32.0648 341.1 32.0648 337.632 41.8197 332.845 41.8197ZM295.192 6.99179 300.291 6.99179 311.733 25.9324 322.96 6.99179 327.929 6.99179 327.929 41.8197 323.349 41.8197 323.349 13.5866 313.126 30.8745 310.073 30.8745 299.669 13.5457 299.669 41.8197 295.192 41.8197ZM260.888 6.99179 265.805 6.99179 278.667 41.8197 273.853 41.8197 270.541 32.0648 256.1 32.0648 252.632 41.8197 247.845 41.8197ZM239.192 6.99179 243.851 6.99179 243.851 41.8197 239.192 41.8197ZM206.192 6.99179 219.365 6.99179C221.383 6.99179 223.216 7.31092 224.864 7.94917 226.512 8.58743 227.827 9.58793 228.811 10.9507 229.794 12.3134 230.286 14.0816 230.286 16.2551 230.286 18.4631 229.669 20.3433 228.435 21.8959 227.202 23.4484 225.395 24.5006 223.014 25.0526 224.325 25.2424 225.403 25.665 226.249 26.3205 227.094 26.976 227.797 27.8601 228.358 28.9727 228.918 30.0853 229.406 31.461 229.82 33.0998L232.097 41.8197 227.335 41.8197 225.343 33.8243C224.998 32.3925 224.588 31.1721 224.114 30.1629 223.639 29.1538 223.005 28.3862 222.211 27.8601 221.418 27.3339 220.357 27.0709 219.028 27.0709L210.851 27.0709 210.851 41.8197 206.192 41.8197ZM100.192 6.99179 122.422 6.99179 122.422 10.8731 104.851 10.8731 104.851 21.9735 121.025 21.9735 121.025 25.803 104.851 25.803 104.851 37.9384 122.422 37.9384 122.422 41.8197 100.192 41.8197ZM71.1035 6.99179 95.5332 6.99179 95.5332 10.8989 85.6475 10.8989 85.6475 41.8197 81.0152 41.8197 81.0152 10.8989 71.1035 10.8989ZM54.8877 6.99179 59.8047 6.99179 72.6665 41.8197 67.8531 41.8197 64.5406 32.0648 50.1001 32.0648 46.6324 41.8197 41.8448 41.8197ZM414.047 6.52605C416.428 6.52605 418.675 6.94005 420.788 7.76806 422.902 8.59605 424.662 9.85961 426.068 11.5587 427.474 13.2579 428.298 15.4012 428.539 17.9887L423.855 17.9887C423.648 16.2465 423.066 14.8104 422.108 13.6805 421.151 12.5506 419.969 11.7097 418.563 11.1577 417.157 10.6057 415.651 10.3297 414.047 10.3297 411.252 10.3297 408.988 10.9679 407.254 12.2444 405.52 13.5209 404.256 15.2201 403.462 17.3418 402.669 19.4636 402.272 21.8269 402.272 24.4316 402.272 27.0191 402.669 29.3737 403.462 31.4955 404.256 33.6173 405.52 35.3035 407.254 36.5541 408.988 37.8047 411.252 38.43 414.047 38.43 416.876 38.43 419.171 37.7314 420.931 36.3342 422.69 34.9369 423.708 32.8496 423.984 30.0724L428.694 30.0724C428.418 32.8151 427.616 35.0878 426.288 36.8905 424.959 38.6931 423.243 40.0429 421.138 40.9399 419.033 41.8369 416.669 42.2854 414.047 42.2854 410.441 42.2854 407.405 41.5264 404.938 40.0084 402.47 38.4904 400.603 36.3945 399.335 33.7208 398.067 31.047 397.433 27.9506 397.433 24.4316 397.433 20.9126 398.067 17.8076 399.335 15.1166 400.603 12.4256 402.47 10.3211 404.938 8.80305 407.405 7.28505 410.441 6.52605 414.047 6.52605ZM378.233 6.52605C380.476 6.52605 382.529 6.8883 384.393 7.61279 386.256 8.3373 387.744 9.42405 388.857 10.8731 389.97 12.3221 390.526 14.1247 390.526 16.281L385.868 16.281C385.885 14.3144 385.16 12.8266 383.694 11.8175 382.227 10.8084 380.416 10.3038 378.259 10.3038 376.034 10.3038 374.304 10.748 373.071 11.6364 371.837 12.5248 371.22 13.8228 371.22 15.5306 371.22 16.5483 371.488 17.3979 372.023 18.0793 372.557 18.7606 373.476 19.3773 374.779 19.9293 376.081 20.4813 377.897 21.0592 380.226 21.663 382.918 22.3875 385.104 23.1637 386.786 23.9917 388.469 24.8197 389.706 25.8806 390.5 27.1744 391.294 28.4681 391.69 30.1673 391.69 32.2718 391.69 34.5143 391.13 36.373 390.008 37.8478 388.887 39.3227 387.36 40.431 385.428 41.1728 383.495 41.9145 381.313 42.2854 378.88 42.2854 376.396 42.2854 374.153 41.9059 372.152 41.1469 370.151 40.3879 368.559 39.1977 367.377 37.5761 366.195 35.9547 365.604 33.8501 365.604 31.2626L370.289 31.2626C370.289 33.1084 370.69 34.5574 371.492 35.6097 372.294 36.6619 373.36 37.4037 374.688 37.8349 376.016 38.2662 377.474 38.4818 379.062 38.4818 380.528 38.4818 381.869 38.2618 383.086 37.822 384.302 37.3821 385.272 36.718 385.997 35.8296 386.722 34.9412 387.084 33.7984 387.084 32.4011 387.084 31.1936 386.799 30.2018 386.23 29.4255 385.661 28.6493 384.716 27.9722 383.396 27.3943 382.076 26.8164 380.304 26.2429 378.078 25.6736 375.456 24.9836 373.299 24.2289 371.608 23.4096 369.918 22.5902 368.663 21.5681 367.843 20.3433 367.024 19.1186 366.614 17.5661 366.614 15.6858 366.614 13.7021 367.08 12.0331 368.011 10.679 368.943 9.32487 370.28 8.29418 372.023 7.58692 373.765 6.87966 375.835 6.52605 378.233 6.52605ZM182.047 6.52605C185.687 6.52605 188.732 7.28505 191.182 8.80305 193.632 10.3211 195.482 12.4256 196.733 15.1166 197.984 17.8076 198.609 20.9126 198.609 24.4316 198.609 27.9506 197.984 31.047 196.733 33.7208 195.482 36.3945 193.632 38.4904 191.182 40.0084 188.732 41.5264 185.687 42.2854 182.047 42.2854 178.407 42.2854 175.353 41.5264 172.886 40.0084 170.419 38.4904 168.56 36.3945 167.309 33.7208 166.058 31.047 165.433 27.9506 165.433 24.4316 165.433 20.9126 166.058 17.8076 167.309 15.1166 168.56 12.4256 170.419 10.3211 172.886 8.80305 175.353 7.28505 178.407 6.52605 182.047 6.52605ZM144.099 6.52605C145.893 6.52605 147.61 6.75461 149.249 7.21174 150.888 7.66886 152.371 8.35887 153.7 9.28175 155.028 10.2046 156.119 11.3647 156.973 12.7619 157.827 14.1592 158.349 15.8066 158.539 17.7041L153.881 17.7041C153.708 16.3758 153.212 15.1554 152.393 14.0428 151.573 12.9301 150.461 12.0331 149.054 11.3518 147.648 10.6704 145.979 10.3297 144.047 10.3297 141.252 10.3297 138.975 10.9636 137.215 12.2315 135.455 13.4994 134.17 15.1942 133.359 17.316 132.548 19.4377 132.143 21.8096 132.143 24.4316 132.143 27.0364 132.552 29.3953 133.372 31.5085 134.191 33.6216 135.481 35.2992 137.241 36.5411 139.001 37.7832 141.286 38.4042 144.099 38.4042 146.531 38.4042 148.528 37.9686 150.09 37.0975 151.651 36.2263 152.816 35.0102 153.583 33.4491 154.351 31.8879 154.752 30.0896 154.787 28.0541L144.616 28.0541 144.616 24.1987 159.341 24.1987 159.341 26.9156C159.341 29.9344 158.776 32.5995 157.646 34.911 156.516 37.2225 154.825 39.0295 152.574 40.3319 150.323 41.6342 147.497 42.2854 144.099 42.2854 140.476 42.2854 137.426 41.535 134.95 40.0343 132.475 38.5335 130.603 36.442 129.335 33.7596 128.067 31.0772 127.433 27.9679 127.433 24.4316 127.433 20.8781 128.067 17.7558 129.335 15.0648 130.603 12.3738 132.475 10.2779 134.95 8.77718 137.426 7.27643 140.476 6.52605 144.099 6.52605ZM24.0469 6.52605C26.4278 6.52605 28.6749 6.94005 30.7884 7.76806 32.9018 8.59605 34.6616 9.85961 36.0677 11.5587 37.4737 13.2579 38.2975 15.4012 38.5391 17.9887L33.855 17.9887C33.648 16.2465 33.0657 14.8104 32.1082 13.6805 31.1507 12.5506 29.9688 11.7097 28.5628 11.1577 27.1567 10.6057 25.6514 10.3297 24.0469 10.3297 21.252 10.3297 18.9876 10.9679 17.2537 12.2444 15.5198 13.5209 14.256 15.2201 13.4624 17.3418 12.6688 19.4636 12.272 21.8269 12.272 24.4316 12.272 27.0191 12.6688 29.3737 13.4624 31.4955 14.256 33.6173 15.5198 35.3035 17.2537 36.5541 18.9876 37.8047 21.252 38.43 24.0469 38.43 26.8763 38.43 29.1709 37.7314 30.9307 36.3342 32.6905 34.9369 33.7083 32.8496 33.9844 30.0724L38.6944 30.0724C38.4183 32.8151 37.6161 35.0878 36.2876 36.8905 34.9592 38.6931 33.2426 40.0429 31.1377 40.9399 29.0329 41.8369 26.6693 42.2854 24.0469 42.2854 20.4411 42.2854 17.4047 41.5264 14.9375 40.0084 12.4704 38.4904 10.6028 36.3945 9.33475 33.7208 8.06665 31.047 7.43265 27.9506 7.43265 24.4316 7.43265 20.9126 8.06665 17.8076 9.33475 15.1166 10.6028 12.4256 12.4704 10.3211 14.9375 8.80305 17.4047 7.28505 20.4411 6.52605 24.0469 6.52605Z" fill="#FF0000" fill-rule="evenodd"/></g></g></g><rect x="75.0001" y="32.9951" width="1128" height="287.958" stroke="#F2F2F2" stroke-width="2.00078" stroke-miterlimit="8" fill="#FFFFFF"/><path d="M909.32 163.622 903.368 180.157 915.221 180.157ZM696.32 163.622 690.368 180.157 702.221 180.157ZM611.32 163.622 605.368 180.157 617.221 180.157ZM405.32 163.622 399.368 180.157 411.221 180.157ZM558.851 162.872 558.851 175.189 566.77 175.189C568.046 175.189 569.202 174.947 570.237 174.464 571.272 173.981 572.096 173.283 572.709 172.368 573.321 171.454 573.627 170.35 573.627 169.056 573.627 167.107 573.054 165.589 571.906 164.502 570.759 163.415 569.09 162.872 566.899 162.872ZM530.047 162.329C527.252 162.329 524.988 162.963 523.254 164.231 521.52 165.498 520.256 167.198 519.462 169.328 518.669 171.458 518.272 173.826 518.272 176.431 518.272 179.018 518.669 181.377 519.462 183.507 520.256 185.638 521.52 187.333 523.254 188.592 524.988 189.851 527.252 190.481 530.047 190.481 532.842 190.481 535.102 189.851 536.827 188.592 538.552 187.333 539.816 185.638 540.618 183.507 541.421 181.377 541.822 179.018 541.822 176.431 541.822 173.826 541.421 171.458 540.618 169.328 539.816 167.198 538.552 165.498 536.827 164.231 535.102 162.963 532.842 162.329 530.047 162.329ZM906.888 158.991 911.805 158.991 924.667 193.819 919.853 193.819 916.541 184.064 902.1 184.064 898.632 193.819 893.845 193.819ZM861.192 158.991 865.954 158.991 885.053 186.703 885.053 158.991 889.478 158.991 889.478 193.819 884.716 193.819 865.592 166.055 865.592 193.819 861.192 193.819ZM847.192 158.991 851.851 158.991 851.851 193.819 847.192 193.819ZM820.192 158.991 824.851 158.991 824.851 189.808 841.128 189.808 841.128 193.819 820.192 193.819ZM783.752 158.991 788.462 158.991 788.462 180.312C788.462 183.934 789.252 186.518 790.83 188.061 792.409 189.605 794.691 190.377 797.675 190.377 800.677 190.377 802.963 189.605 804.533 188.061 806.103 186.518 806.888 183.934 806.888 180.312L806.888 158.991 811.598 158.991 811.598 180.881C811.598 183.469 811.124 185.776 810.175 187.803 809.226 189.83 807.729 191.417 805.685 192.564 803.64 193.711 800.962 194.284 797.649 194.284 794.389 194.284 791.732 193.711 789.679 192.564 787.626 191.417 786.125 189.83 785.176 187.803 784.227 185.776 783.752 183.469 783.752 180.881ZM693.888 158.991 698.805 158.991 711.667 193.819 706.853 193.819 703.541 184.064 689.1 184.064 685.632 193.819 680.845 193.819ZM643.192 158.991 648.291 158.991 659.733 177.931 670.96 158.991 675.929 158.991 675.929 193.819 671.349 193.819 671.349 165.586 661.126 182.874 658.073 182.874 647.669 165.545 647.669 193.819 643.192 193.819ZM608.888 158.991 613.805 158.991 626.667 193.819 621.853 193.819 618.541 184.064 604.1 184.064 600.632 193.819 595.845 193.819ZM587.192 158.991 591.851 158.991 591.851 193.819 587.192 193.819ZM554.192 158.991 567.365 158.991C569.383 158.991 571.216 159.31 572.864 159.948 574.512 160.586 575.827 161.587 576.811 162.95 577.794 164.312 578.286 166.081 578.286 168.254 578.286 170.462 577.669 172.342 576.435 173.895 575.202 175.447 573.395 176.5 571.014 177.052 572.325 177.241 573.403 177.664 574.248 178.32 575.094 178.975 575.797 179.859 576.358 180.972 576.918 182.084 577.406 183.46 577.82 185.099L580.097 193.819 575.335 193.819 573.343 185.823C572.998 184.392 572.588 183.171 572.114 182.162 571.639 181.153 571.005 180.385 570.211 179.859 569.418 179.333 568.357 179.07 567.028 179.07L558.851 179.07 558.851 193.819 554.192 193.819ZM448.192 158.991 470.422 158.991 470.422 162.872 452.851 162.872 452.851 173.973 469.025 173.973 469.025 177.802 452.851 177.802 452.851 189.937 470.422 189.937 470.422 193.819 448.192 193.819ZM419.104 158.991 443.533 158.991 443.533 162.898 433.647 162.898 433.647 193.819 429.015 193.819 429.015 162.898 419.104 162.898ZM402.888 158.991 407.805 158.991 420.667 193.819 415.853 193.819 412.541 184.064 398.1 184.064 394.632 193.819 389.845 193.819ZM762.047 158.525C764.428 158.525 766.675 158.939 768.788 159.767 770.902 160.595 772.662 161.859 774.068 163.558 775.474 165.257 776.298 167.4 776.539 169.988L771.855 169.988C771.648 168.245 771.066 166.809 770.108 165.68 769.151 164.55 767.969 163.709 766.563 163.157 765.157 162.605 763.651 162.329 762.047 162.329 759.252 162.329 756.988 162.967 755.254 164.243 753.52 165.52 752.256 167.219 751.462 169.341 750.669 171.463 750.272 173.826 750.272 176.431 750.272 179.018 750.669 181.373 751.462 183.495 752.256 185.616 753.52 187.302 755.254 188.553 756.988 189.804 759.252 190.429 762.047 190.429 764.876 190.429 767.171 189.73 768.931 188.333 770.69 186.936 771.708 184.849 771.984 182.071L776.694 182.071C776.418 184.814 775.616 187.087 774.288 188.889 772.959 190.692 771.243 192.042 769.138 192.939 767.033 193.836 764.669 194.284 762.047 194.284 758.441 194.284 755.405 193.525 752.938 192.007 750.47 190.489 748.603 188.394 747.335 185.72 746.067 183.046 745.433 179.95 745.433 176.431 745.433 172.912 746.067 169.807 747.335 167.116 748.603 164.425 750.47 162.32 752.938 160.802 755.405 159.284 758.441 158.525 762.047 158.525ZM726.233 158.525C728.476 158.525 730.529 158.887 732.393 159.612 734.256 160.336 735.744 161.423 736.857 162.872 737.97 164.321 738.526 166.124 738.526 168.28L733.868 168.28C733.885 166.313 733.16 164.826 731.694 163.817 730.227 162.807 728.416 162.303 726.259 162.303 724.034 162.303 722.304 162.747 721.071 163.635 719.837 164.524 719.22 165.822 719.22 167.53 719.22 168.547 719.488 169.397 720.023 170.078 720.557 170.76 721.476 171.376 722.779 171.928 724.081 172.48 725.897 173.058 728.226 173.662 730.918 174.387 733.104 175.163 734.786 175.991 736.469 176.819 737.706 177.88 738.5 179.173 739.294 180.467 739.69 182.166 739.69 184.271 739.69 186.513 739.13 188.372 738.008 189.847 736.887 191.322 735.36 192.43 733.428 193.172 731.495 193.914 729.313 194.284 726.88 194.284 724.396 194.284 722.153 193.905 720.152 193.146 718.151 192.387 716.559 191.197 715.377 189.575 714.195 187.954 713.604 185.849 713.604 183.262L718.289 183.262C718.289 185.107 718.69 186.556 719.492 187.609 720.294 188.661 721.36 189.403 722.688 189.834 724.016 190.265 725.474 190.481 727.062 190.481 728.528 190.481 729.869 190.261 731.086 189.821 732.302 189.381 733.272 188.717 733.997 187.829 734.722 186.94 735.084 185.797 735.084 184.4 735.084 183.193 734.799 182.201 734.23 181.425 733.661 180.648 732.716 179.971 731.396 179.393 730.076 178.815 728.304 178.242 726.078 177.673 723.456 176.983 721.299 176.228 719.608 175.409 717.918 174.589 716.663 173.567 715.843 172.342 715.024 171.118 714.614 169.565 714.614 167.685 714.614 165.701 715.08 164.032 716.011 162.678 716.943 161.324 718.28 160.293 720.023 159.586 721.765 158.879 723.835 158.525 726.233 158.525ZM530.047 158.525C533.687 158.525 536.732 159.284 539.182 160.802 541.632 162.32 543.482 164.425 544.733 167.116 545.984 169.807 546.609 172.912 546.609 176.431 546.609 179.95 545.984 183.046 544.733 185.72 543.482 188.394 541.632 190.489 539.182 192.007 536.732 193.525 533.687 194.284 530.047 194.284 526.407 194.284 523.353 193.525 520.886 192.007 518.419 190.489 516.56 188.394 515.309 185.72 514.058 183.046 513.433 179.95 513.433 176.431 513.433 172.912 514.058 169.807 515.309 167.116 516.56 164.425 518.419 162.32 520.886 160.802 523.353 159.284 526.407 158.525 530.047 158.525ZM492.099 158.525C493.893 158.525 495.61 158.754 497.249 159.211 498.888 159.668 500.371 160.358 501.7 161.281 503.028 162.204 504.119 163.364 504.973 164.761 505.827 166.158 506.349 167.806 506.539 169.703L501.881 169.703C501.708 168.375 501.212 167.154 500.393 166.042 499.573 164.929 498.461 164.032 497.054 163.351 495.648 162.669 493.979 162.329 492.047 162.329 489.252 162.329 486.975 162.963 485.215 164.231 483.455 165.498 482.17 167.193 481.359 169.315 480.548 171.437 480.143 173.809 480.143 176.431 480.143 179.035 480.552 181.394 481.372 183.507 482.191 185.621 483.481 187.298 485.241 188.54 487.001 189.782 489.286 190.403 492.099 190.403 494.531 190.403 496.528 189.968 498.09 189.096 499.651 188.225 500.816 187.009 501.583 185.448 502.351 183.887 502.752 182.089 502.787 180.053L492.616 180.053 492.616 176.198 507.341 176.198 507.341 178.915C507.341 181.933 506.776 184.599 505.646 186.91 504.516 189.222 502.825 191.029 500.574 192.331 498.323 193.633 495.497 194.284 492.099 194.284 488.476 194.284 485.426 193.534 482.95 192.033 480.475 190.533 478.603 188.441 477.335 185.759 476.067 183.076 475.433 179.967 475.433 176.431 475.433 172.877 476.067 169.755 477.335 167.064 478.603 164.373 480.475 162.277 482.95 160.776 485.426 159.275 488.476 158.525 492.099 158.525ZM372.047 158.525C374.428 158.525 376.675 158.939 378.788 159.767 380.902 160.595 382.662 161.859 384.068 163.558 385.474 165.257 386.298 167.4 386.539 169.988L381.855 169.988C381.648 168.245 381.066 166.809 380.108 165.68 379.151 164.55 377.969 163.709 376.563 163.157 375.157 162.605 373.651 162.329 372.047 162.329 369.252 162.329 366.988 162.967 365.254 164.243 363.52 165.52 362.256 167.219 361.462 169.341 360.669 171.463 360.272 173.826 360.272 176.431 360.272 179.018 360.669 181.373 361.462 183.495 362.256 185.616 363.52 187.302 365.254 188.553 366.988 189.804 369.252 190.429 372.047 190.429 374.876 190.429 377.171 189.73 378.931 188.333 380.69 186.936 381.708 184.849 381.984 182.071L386.694 182.071C386.418 184.814 385.616 187.087 384.288 188.889 382.959 190.692 381.243 192.042 379.138 192.939 377.033 193.836 374.669 194.284 372.047 194.284 368.441 194.284 365.405 193.525 362.938 192.007 360.47 190.489 358.603 188.394 357.335 185.72 356.067 183.046 355.433 179.95 355.433 176.431 355.433 172.912 356.067 169.807 357.335 167.116 358.603 164.425 360.47 162.32 362.938 160.802 365.405 159.284 368.441 158.525 372.047 158.525Z" fill="url(#fill6)" fill-rule="evenodd"/><text fill="#000000" fill-opacity="0" font-family="Arial,Arial_MSFontService,sans-serif" font-size="35.7594" x="355.433" y="189.815">CATEGORIA MASCULINA</text><path d="M90.4464 1675.28 160.497 1675.28 160.497 1728.2 90.4464 1728.2Z" fill="#156082" fill-rule="evenodd"/><path d="M160.497 1675.28 823.98 1675.28 823.98 1728.2 160.497 1728.2Z" fill="#156082" fill-rule="evenodd"/><path d="M823.98 1675.28 1190.81 1675.28 1190.81 1728.2 823.98 1728.2Z" fill="#156082" fill-rule="evenodd"/><path d="M90.4464 1728.2 160.497 1728.2 160.497 1781.13 90.4464 1781.13Z" fill="#156082" fill-rule="evenodd"/><path d="M160.497 1728.2 823.98 1728.2 823.98 1781.13 160.497 1781.13Z" fill="#CCD2D8" fill-rule="evenodd"/><path d="M823.98 1728.2 1190.81 1728.2 1190.81 1992.83 823.98 1992.83Z" fill="#CCD2D8" fill-rule="evenodd"/><path d="M90.4464 1781.13 160.497 1781.13 160.497 1834.06 90.4464 1834.06Z" fill="#156082" fill-rule="evenodd"/><path d="M160.497 1781.13 823.98 1781.13 823.98 1834.06 160.497 1834.06Z" fill="#E7EAED" fill-rule="evenodd"/><path d="M90.4464 1834.06 160.497 1834.06 160.497 1886.98 90.4464 1886.98Z" fill="#156082" fill-rule="evenodd"/><path d="M160.497 1834.06 823.98 1834.06 823.98 1886.98 160.497 1886.98Z" fill="#CCD2D8" fill-rule="evenodd"/><path d="M90.4464 1886.98 160.497 1886.98 160.497 1939.91 90.4464 1939.91Z" fill="#156082" fill-rule="evenodd"/><path d="M160.497 1886.98 823.98 1886.98 823.98 1939.91 160.497 1939.91Z" fill="#E7EAED" fill-rule="evenodd"/><path d="M90.4464 1939.91 160.497 1939.91 160.497 1992.83 90.4464 1992.83Z" fill="#156082" fill-rule="evenodd"/><path d="M160.497 1939.91 823.98 1939.91 823.98 1992.83 160.497 1992.83Z" fill="#CCD2D8" fill-rule="evenodd"/><path d="M160.497 1674.61 160.497 1993.5" stroke="#FFFFFF" stroke-width="1.33386" stroke-linejoin="round" stroke-miterlimit="10" fill="none" fill-rule="evenodd"/><path d="M823.98 1674.61 823.98 1993.5" stroke="#FFFFFF" stroke-width="1.33386" stroke-linejoin="round" stroke-miterlimit="10" fill="none" fill-rule="evenodd"/><path d="M89.7795 1728.2 1191.48 1728.2" stroke="#FFFFFF" stroke-width="4.00157" stroke-linejoin="round" stroke-miterlimit="10" fill="none" fill-rule="evenodd"/><path d="M89.7795 1781.13 824.647 1781.13" stroke="#FFFFFF" stroke-width="1.33386" stroke-linejoin="round" stroke-miterlimit="10" fill="none" fill-rule="evenodd"/><path d="M89.7795 1834.06 824.647 1834.06" stroke="#FFFFFF" stroke-width="1.33386" stroke-linejoin="round" stroke-miterlimit="10" fill="none" fill-rule="evenodd"/><path d="M89.7795 1886.98 824.647 1886.98" stroke="#FFFFFF" stroke-width="1.33386" stroke-linejoin="round" stroke-miterlimit="10" fill="none" fill-rule="evenodd"/><path d="M89.7795 1939.91 824.647 1939.91" stroke="#FFFFFF" stroke-width="1.33386" stroke-linejoin="round" stroke-miterlimit="10" fill="none" fill-rule="evenodd"/><path d="M90.4464 1674.61 90.4464 1993.5" stroke="#FFFFFF" stroke-width="1.33386" stroke-linejoin="round" stroke-miterlimit="10" fill="none" fill-rule="evenodd"/><path d="M1190.81 1674.61 1190.81 1993.5" stroke="#FFFFFF" stroke-width="1.33386" stroke-linejoin="round" stroke-miterlimit="10" fill="none" fill-rule="evenodd"/><path d="M89.7795 1675.28 1191.48 1675.28" stroke="#FFFFFF" stroke-width="1.33386" stroke-linejoin="round" stroke-miterlimit="10" fill="none" fill-rule="evenodd"/><path d="M89.7795 1992.83 1191.48 1992.83" stroke="#FFFFFF" stroke-width="1.33386" stroke-linejoin="round" stroke-miterlimit="10" fill="none" fill-rule="evenodd"/><text fill="#FFFFFF" font-family="Aptos,Aptos_MSFontService,sans-serif" font-weight="700" font-size="43" transform="matrix(1 0 0 0.999853 934.479 1716)">GRADO</text><text fill="#FFFFFF" font-family="Aptos,Aptos_MSFontService,sans-serif" font-weight="700" font-size="43" transform="matrix(1 0 0 0.999853 404.537 1716)">NOMBRE</text><g><text fill="#FFFFFF" font-family="Aptos,Aptos_MSFontService,sans-serif" font-weight="700" font-size="43" transform="matrix(1 0 0 0.999853 101.962 1716)">N</text></g><g><text fill="#FFFFFF" font-family="Aptos,Aptos_MSFontService,sans-serif" font-weight="700" font-size="43" transform="matrix(1 0 0 0.999853 132.808 1716)">°</text></g><text font-family="Aptos,Aptos_MSFontService,sans-serif" font-weight="400" font-size="43" transform="matrix(1 0 0 0.999853 979.074 1900)">4M</text><g><text font-family="Aptos,Aptos_MSFontService,sans-serif" font-weight="400" font-size="43" transform="matrix(1 0 0 0.999853 167.7 1769)">Johan posada</text></g><g><text fill="#FFFFFF" font-family="Aptos,Aptos_MSFontService,sans-serif" font-weight="700" font-size="43" transform="matrix(1 0 0 0.999853 114.05 1769)">1</text></g><g><text font-family="Aptos,Aptos_MSFontService,sans-serif" font-weight="400" font-size="43" transform="matrix(1 0 0 0.999853 167.7 1822)">Samuel forero</text></g><g><text fill="#FFFFFF" font-family="Aptos,Aptos_MSFontService,sans-serif" font-weight="700" font-size="43" transform="matrix(1 0 0 0.999853 114.05 1822)">2</text></g><g><text font-family="Aptos,Aptos_MSFontService,sans-serif" font-weight="400" font-size="43" transform="matrix(1 0 0 0.999853 167.7 1875)">Mathew ospina</text></g><g><text fill="#FFFFFF" font-family="Aptos,Aptos_MSFontService,sans-serif" font-weight="700" font-size="43" transform="matrix(1 0 0 0.999853 114.05 1875)">3</text></g><g><text font-family="Aptos,Aptos_MSFontService,sans-serif" font-weight="400" font-size="43" transform="matrix(1 0 0 0.999853 167.7 1928)">Dominick dominguez</text></g><g><text fill="#FFFFFF" font-family="Aptos,Aptos_MSFontService,sans-serif" font-weight="700" font-size="43" transform="matrix(1 0 0 0.999853 114.05 1928)">4</text></g><g><text font-family="Aptos,Aptos_MSFontService,sans-serif" font-weight="400" font-size="43" transform="matrix(1 0 0 0.999853 167.7 1981)">Diego cardozo</text></g><g><text fill="#FFFFFF" font-family="Aptos,Aptos_MSFontService,sans-serif" font-weight="700" font-size="43" transform="matrix(1 0 0 0.999853 114.05 1981)">5</text></g><path d="M710.644 1633.09 709.972 1637.98 714.171 1637.98 714.801 1633.09ZM736.919 1628.81 729.634 1639.7 736.919 1639.7ZM644.077 1625.85 644.077 1634.54 648.717 1634.54C650.089 1634.54 651.198 1634.17 652.045 1633.45 652.892 1632.72 653.315 1631.64 653.315 1630.21 653.315 1628.73 652.881 1627.63 652.014 1626.92 651.146 1626.2 650.047 1625.85 648.717 1625.85ZM676.649 1625.62C674.801 1625.62 673.314 1626.05 672.187 1626.92 671.06 1627.79 670.242 1628.95 669.731 1630.4 669.22 1631.86 668.964 1633.47 668.964 1635.23 668.964 1636.97 669.22 1638.56 669.731 1640.02 670.242 1641.47 671.06 1642.63 672.187 1643.5 673.314 1644.37 674.801 1644.8 676.649 1644.8 678.482 1644.8 679.959 1644.37 681.079 1643.5 682.199 1642.63 683.018 1641.47 683.536 1640.02 684.053 1638.56 684.312 1636.97 684.312 1635.23 684.312 1633.47 684.053 1631.86 683.536 1630.4 683.018 1628.95 682.199 1627.79 681.079 1626.92 679.959 1626.05 678.482 1625.62 676.649 1625.62ZM576.649 1625.62C574.801 1625.62 573.314 1626.05 572.187 1626.92 571.06 1627.79 570.242 1628.95 569.731 1630.4 569.22 1631.86 568.964 1633.47 568.964 1635.23 568.964 1636.97 569.22 1638.56 569.731 1640.02 570.242 1641.47 571.06 1642.63 572.187 1643.5 573.314 1644.37 574.801 1644.8 576.649 1644.8 578.482 1644.8 579.959 1644.37 581.079 1643.5 582.199 1642.63 583.018 1641.47 583.536 1640.02 584.053 1638.56 584.312 1636.97 584.312 1635.23 584.312 1633.47 584.053 1631.86 583.536 1630.4 583.018 1628.95 582.199 1627.79 581.079 1626.92 579.959 1626.05 578.482 1625.62 576.649 1625.62ZM708.397 1621.84 712.198 1621.84 711.127 1629.63 715.305 1629.63 716.376 1621.84 720.218 1621.84 719.126 1629.63 723.074 1629.63 723.074 1633.09 718.622 1633.09 717.972 1637.98 721.877 1637.98 721.877 1641.47 717.489 1641.47 716.397 1649.34 712.576 1649.34 713.646 1641.47 709.468 1641.47 708.376 1649.34 704.534 1649.34 705.626 1641.47 701.616 1641.47 701.616 1637.98 706.13 1637.98 706.802 1633.09 702.77 1633.09 702.77 1629.63 707.306 1629.63ZM736.814 1621.77 742.336 1621.77 742.336 1639.7 745.99 1639.7 745.99 1644.28 742.336 1644.28 742.336 1649.34 736.814 1649.34 736.814 1644.28 724.553 1644.28 724.553 1639.56ZM638.177 1621.08 649.263 1621.08C651.125 1621.08 652.822 1621.41 654.355 1622.07 655.887 1622.73 657.109 1623.73 658.018 1625.07 658.928 1626.41 659.383 1628.13 659.383 1630.21 659.383 1632.27 658.928 1633.97 658.018 1635.31 657.109 1636.66 655.887 1637.66 654.355 1638.31 652.822 1638.96 651.125 1639.28 649.263 1639.28L644.077 1639.28 644.077 1649.34 638.177 1649.34ZM625.177 1621.08 631.077 1621.08 631.077 1649.34 625.177 1649.34ZM595.841 1621.08 601.888 1621.08 601.888 1637.96C601.888 1640.28 602.364 1642.01 603.316 1643.15 604.268 1644.28 605.765 1644.85 607.809 1644.85 609.867 1644.85 611.354 1644.28 612.271 1643.15 613.187 1642.01 613.646 1640.28 613.646 1637.96L613.646 1621.08 619.714 1621.08 619.714 1638.11C619.714 1640.6 619.301 1642.71 618.475 1644.45 617.649 1646.18 616.358 1647.49 614.601 1648.38 612.845 1649.27 610.566 1649.72 607.767 1649.72 604.995 1649.72 602.728 1649.27 600.964 1648.38 599.201 1647.49 597.906 1646.18 597.08 1644.45 596.254 1642.71 595.841 1640.6 595.841 1638.11ZM540.177 1621.08 559.137 1621.08 559.137 1625.97 546.077 1625.97 546.077 1632.54 557.919 1632.54 557.919 1637.27 546.077 1637.27 546.077 1644.45 559.137 1644.45 559.137 1649.34 540.177 1649.34ZM676.649 1620.7C679.602 1620.7 682.101 1621.3 684.144 1622.5 686.188 1623.69 687.742 1625.38 688.806 1627.56 689.869 1629.73 690.401 1632.29 690.401 1635.23 690.401 1638.17 689.869 1640.72 688.806 1642.88 687.742 1645.04 686.188 1646.72 684.144 1647.92 682.101 1649.12 679.602 1649.72 676.649 1649.72 673.695 1649.72 671.193 1649.12 669.143 1647.92 667.092 1646.72 665.535 1645.04 664.471 1642.88 663.407 1640.72 662.875 1638.17 662.875 1635.23 662.875 1632.29 663.407 1629.73 664.471 1627.56 665.535 1625.38 667.092 1623.69 669.143 1622.5 671.193 1621.3 673.695 1620.7 676.649 1620.7ZM576.649 1620.7C579.602 1620.7 582.101 1621.3 584.144 1622.5 586.188 1623.69 587.742 1625.38 588.806 1627.56 589.869 1629.73 590.401 1632.29 590.401 1635.23 590.401 1638.17 589.869 1640.72 588.806 1642.88 587.742 1645.04 586.188 1646.72 584.144 1647.92 583.633 1648.22 583.094 1648.48 582.526 1648.71L581.33 1649.08 582.349 1650.09C582.93 1650.49 583.693 1650.78 584.638 1650.96 585.583 1651.15 586.804 1651.25 588.302 1651.25L589.414 1651.25 589.414 1656.31 588.008 1656.31C585.978 1656.31 584.291 1656.12 582.948 1655.73 581.604 1655.35 580.502 1654.81 579.641 1654.12 578.78 1653.44 578.063 1652.64 577.489 1651.72L576.398 1649.7 574.518 1649.6C572.473 1649.38 570.681 1648.82 569.143 1647.92 567.092 1646.72 565.535 1645.04 564.471 1642.88 563.407 1640.72 562.875 1638.17 562.875 1635.23 562.875 1632.29 563.407 1629.73 564.471 1627.56 565.535 1625.38 567.092 1623.69 569.143 1622.5 571.193 1621.3 573.695 1620.7 576.649 1620.7Z" fill="url(#fill7)" fill-rule="evenodd"/><text fill="#000000" fill-opacity="0" font-family="Arial,Arial_MSFontService,sans-serif" font-size="35.6041" x="540.177" y="1651.86">EQUIPO #4</text></g></svg>