<svg width="1278" height="2049" xmlns="http://www.w3.org/2000/svg" xmlns:xlink="http://www.w3.org/1999/xlink" overflow="hidden"><defs><linearGradient x1="627.298" y1="13.9387" x2="650.701" y2="110.689" gradientUnits="userSpaceOnUse" spreadMethod="reflect" id="fill0"><stop offset="0" stop-color="#002C3F"/><stop offset="0.5" stop-color="#00445F"/><stop offset="1" stop-color="#005272"/></linearGradient><linearGradient x1="627.298" y1="420.359" x2="650.701" y2="517.11" gradientUnits="userSpaceOnUse" spreadMethod="reflect" id="fill1"><stop offset="0" stop-color="#002C3F"/><stop offset="0.5" stop-color="#00445F"/><stop offset="1" stop-color="#005272"/></linearGradient><linearGradient x1="628.883" y1="823.133" x2="652.286" y2="919.884" gradientUnits="userSpaceOnUse" spreadMethod="reflect" id="fill2"><stop offset="0" stop-color="#002C3F"/><stop offset="0.5" stop-color="#00445F"/><stop offset="1" stop-color="#005272"/></linearGradient><linearGradient x1="628.883" y1="1230.96" x2="652.286" y2="1327.71" gradientUnits="userSpaceOnUse" spreadMethod="reflect" id="fill3"><stop offset="0" stop-color="#002C3F"/><stop offset="0.5" stop-color="#00445F"/><stop offset="1" stop-color="#005272"/></linearGradient><linearGradient x1="627.298" y1="1623.08" x2="650.701" y2="1719.83" gradientUnits="userSpaceOnUse" spreadMethod="reflect" id="fill4"><stop offset="0" stop-color="#002C3F"/><stop offset="0.5" stop-color="#00445F"/><stop offset="1" stop-color="#005272"/></linearGradient></defs><g><rect x="0" y="0" width="1278" height="2048.7" fill="#FFFFFF"/><path d="M75.0676 98.7889 183.034 98.7889 183.034 151.715 75.0676 151.715Z" fill="#156082" fill-rule="evenodd"/><path d="M183.034 98.7889 826.935 98.7889 826.935 151.715 183.034 151.715Z" fill="#156082" fill-rule="evenodd"/><path d="M826.935 98.7889 1202.93 98.7889 1202.93 151.715 826.935 151.715Z" fill="#156082" fill-rule="evenodd"/><path d="M75.0676 151.715 183.034 151.715 183.034 204.642 75.0676 204.642Z" fill="#156082" fill-rule="evenodd"/><path d="M183.034 151.715 826.935 151.715 826.935 204.642 183.034 204.642Z" fill="#CCD2D8" fill-rule="evenodd"/><path d="M826.935 151.715 1202.93 151.715 1202.93 416.347 826.935 416.347Z" fill="#CCD2D8" fill-rule="evenodd"/><path d="M75.0676 204.642 183.034 204.642 183.034 257.568 75.0676 257.568Z" fill="#156082" fill-rule="evenodd"/><path d="M183.034 204.642 826.935 204.642 826.935 257.568 183.034 257.568Z" fill="#E7EAED" fill-rule="evenodd"/><path d="M75.0676 257.568 183.034 257.568 183.034 310.494 75.0676 310.494Z" fill="#156082" fill-rule="evenodd"/><path d="M183.034 257.568 826.935 257.568 826.935 310.494 183.034 310.494Z" fill="#CCD2D8" fill-rule="evenodd"/><path d="M75.0676 310.494 183.034 310.494 183.034 363.42 75.0676 363.42Z" fill="#156082" fill-rule="evenodd"/><path d="M183.034 310.494 826.935 310.494 826.935 363.42 183.034 363.42Z" fill="#E7EAED" fill-rule="evenodd"/><path d="M75.0676 363.42 183.034 363.42 183.034 416.347 75.0676 416.347Z" fill="#156082" fill-rule="evenodd"/><path d="M183.034 363.42 826.935 363.42 826.935 416.347 183.034 416.347Z" fill="#CCD2D8" fill-rule="evenodd"/><path d="M183.034 98.1221 183.034 417.014" stroke="#FFFFFF" stroke-width="1.33386" stroke-linejoin="round" stroke-miterlimit="10" fill="none" fill-rule="evenodd"/><path d="M826.935 98.1221 826.935 417.014" stroke="#FFFFFF" stroke-width="1.33386" stroke-linejoin="round" stroke-miterlimit="10" fill="none" fill-rule="evenodd"/><path d="M74.4007 151.715 1203.6 151.715" stroke="#FFFFFF" stroke-width="4.00157" stroke-linejoin="round" stroke-miterlimit="10" fill="none" fill-rule="evenodd"/><path d="M74.4007 204.642 827.602 204.642" stroke="#FFFFFF" stroke-width="1.33386" stroke-linejoin="round" stroke-miterlimit="10" fill="none" fill-rule="evenodd"/><path d="M74.4007 257.568 827.602 257.568" stroke="#FFFFFF" stroke-width="1.33386" stroke-linejoin="round" stroke-miterlimit="10" fill="none" fill-rule="evenodd"/><path d="M74.4007 310.494 827.602 310.494" stroke="#FFFFFF" stroke-width="1.33386" stroke-linejoin="round" stroke-miterlimit="10" fill="none" fill-rule="evenodd"/><path d="M74.4007 363.42 827.602 363.42" stroke="#FFFFFF" stroke-width="1.33386" stroke-linejoin="round" stroke-miterlimit="10" fill="none" fill-rule="evenodd"/><path d="M75.0676 98.1221 75.0676 417.014" stroke="#FFFFFF" stroke-width="1.33386" stroke-linejoin="round" stroke-miterlimit="10" fill="none" fill-rule="evenodd"/><path d="M1202.93 98.1221 1202.93 417.014" stroke="#FFFFFF" stroke-width="1.33386" stroke-linejoin="round" stroke-miterlimit="10" fill="none" fill-rule="evenodd"/><path d="M74.4007 98.7889 1203.6 98.7889" stroke="#FFFFFF" stroke-width="1.33386" stroke-linejoin="round" stroke-miterlimit="10" fill="none" fill-rule="evenodd"/><path d="M74.4007 416.347 1203.6 416.347" stroke="#FFFFFF" stroke-width="1.33386" stroke-linejoin="round" stroke-miterlimit="10" fill="none" fill-rule="evenodd"/><text fill="#FFFFFF" font-family="Aptos,Aptos_MSFontService,sans-serif" font-weight="700" font-size="43" transform="matrix(1 0 0 0.999853 942.018 140)">GRADO</text><text fill="#FFFFFF" font-family="Aptos,Aptos_MSFontService,sans-serif" font-weight="700" font-size="43" transform="matrix(1 0 0 0.999853 417.284 140)">NOMBRE</text><text fill="#FFFFFF" font-family="Aptos,Aptos_MSFontService,sans-serif" font-weight="700" font-size="43" transform="matrix(1 0 0 0.999853 105.542 140)">N</text><text fill="#FFFFFF" font-family="Aptos,Aptos_MSFontService,sans-serif" font-weight="700" font-size="43" transform="matrix(1 0 0 0.999853 136.387 140)">°</text><text font-family="Aptos,Aptos_MSFontService,sans-serif" font-weight="400" font-size="43" transform="matrix(1 0 0 0.999853 986.656 332)">3M</text><g><text font-family="Aptos,Aptos_MSFontService,sans-serif" font-weight="400" font-size="43" transform="matrix(1 0 0 0.999853 196.033 193)">Diego gil</text></g><text fill="#FFFFFF" font-family="Aptos,Aptos_MSFontService,sans-serif" font-weight="700" font-size="43" transform="matrix(1 0 0 0.999853 117.63 193)">1</text><g><text font-family="Aptos,Aptos_MSFontService,sans-serif" font-weight="400" font-size="43" transform="matrix(1 0 0 0.999853 196.033 246)">Brian narváez</text></g><text fill="#FFFFFF" font-family="Aptos,Aptos_MSFontService,sans-serif" font-weight="700" font-size="43" transform="matrix(1 0 0 0.999853 117.63 246)">2</text><g><text font-family="Aptos,Aptos_MSFontService,sans-serif" font-weight="400" font-size="43" transform="matrix(1 0 0 0.999853 196.033 299)">Jeremy zambrano</text></g><text fill="#FFFFFF" font-family="Aptos,Aptos_MSFontService,sans-serif" font-weight="700" font-size="43" transform="matrix(1 0 0 0.999853 117.63 299)">3</text><g><text font-family="Aptos,Aptos_MSFontService,sans-serif" font-weight="400" font-size="43" transform="matrix(1 0 0 0.999853 196.033 351)">Thomas muller</text></g><text fill="#FFFFFF" font-family="Aptos,Aptos_MSFontService,sans-serif" font-weight="700" font-size="43" transform="matrix(1 0 0 0.999853 117.63 351)">4</text><g><text font-family="Aptos,Aptos_MSFontService,sans-serif" font-weight="400" font-size="43" transform="matrix(1 0 0 0.999853 196.033 404)">Samuel feria</text></g><text fill="#FFFFFF" font-family="Aptos,Aptos_MSFontService,sans-serif" font-weight="700" font-size="43" transform="matrix(1 0 0 0.999853 117.63 404)">5</text><path d="M709.06 59.4667 708.388 64.3581 712.587 64.3581 713.217 59.4667ZM642.493 52.2241 642.493 60.9152 647.133 60.9152C648.505 60.9152 649.614 60.5514 650.461 59.8236 651.308 59.0958 651.731 58.0182 651.731 56.5907 651.731 55.1072 651.297 54.0085 650.429 53.2948 649.562 52.581 648.463 52.2241 647.133 52.2241ZM675.065 51.9932C673.217 51.9932 671.73 52.4271 670.603 53.2948 669.476 54.1625 668.657 55.3241 668.146 56.7796 667.635 58.2351 667.38 59.8446 667.38 61.608 667.38 63.3434 667.635 64.9389 668.146 66.3944 668.657 67.8499 669.476 69.0115 670.603 69.8792 671.73 70.747 673.217 71.1808 675.065 71.1808 676.898 71.1808 678.375 70.747 679.495 69.8792 680.615 69.0115 681.433 67.8499 681.951 66.3944 682.469 64.9389 682.728 63.3434 682.728 61.608 682.728 59.8446 682.469 58.2351 681.951 56.7796 681.433 55.3241 680.615 54.1625 679.495 53.2948 678.375 52.4271 676.898 51.9932 675.065 51.9932ZM575.065 51.9932C573.217 51.9932 571.73 52.4271 570.603 53.2948 569.476 54.1625 568.657 55.3241 568.146 56.7796 567.635 58.2351 567.38 59.8446 567.38 61.608 567.38 63.3434 567.635 64.9389 568.146 66.3944 568.657 67.8499 569.476 69.0115 570.603 69.8792 571.73 70.747 573.217 71.1808 575.065 71.1808 576.898 71.1808 578.375 70.747 579.495 69.8792 580.615 69.0115 581.433 67.8499 581.951 66.3944 582.469 64.9389 582.728 63.3434 582.728 61.608 582.728 59.8446 582.469 58.2351 581.951 56.7796 581.433 55.3241 580.615 54.1625 579.495 53.2948 578.375 52.4271 576.898 51.9932 575.065 51.9932ZM706.813 48.2145 710.613 48.2145 709.543 56.0029 713.721 56.0029 714.792 48.2145 718.634 48.2145 717.542 56.0029 721.489 56.0029 721.489 59.4667 717.038 59.4667 716.387 64.3581 720.293 64.3581 720.293 67.8429 715.904 67.8429 714.813 75.7153 710.991 75.7153 712.062 67.8429 707.884 67.8429 706.792 75.7153 702.95 75.7153 704.042 67.8429 700.031 67.8429 700.031 64.3581 704.546 64.3581 705.217 59.4667 701.186 59.4667 701.186 56.0029 705.721 56.0029ZM733.362 48.1725 738.653 48.1725 738.653 75.7153 732.795 75.7153 732.795 54.7013C732.347 55.2191 731.794 55.7125 731.136 56.1813 730.478 56.6502 729.684 57.063 728.753 57.4199 727.822 57.7768 726.72 58.0462 725.446 58.2281L725.446 53.0639C726.734 52.784 727.864 52.4061 728.837 51.9302 729.81 51.4544 730.664 50.8981 731.398 50.2613 732.133 49.6245 732.788 48.9282 733.362 48.1725ZM636.593 47.4587 647.679 47.4587C649.541 47.4587 651.238 47.7876 652.77 48.4454 654.303 49.1032 655.524 50.1038 656.434 51.4474 657.344 52.7909 657.799 54.5054 657.799 56.5907 657.799 58.648 657.344 60.3484 656.434 61.692 655.524 63.0355 654.303 64.0327 652.77 64.6835 651.238 65.3343 649.541 65.6597 647.679 65.6597L642.493 65.6597 642.493 75.7153 636.593 75.7153ZM623.593 47.4587 629.493 47.4587 629.493 75.7153 623.593 75.7153ZM594.257 47.4587 600.304 47.4587 600.304 64.3371C600.304 66.6603 600.78 68.3887 601.732 69.5224 602.683 70.656 604.181 71.2228 606.225 71.2228 608.282 71.2228 609.77 70.656 610.686 69.5224 611.603 68.3887 612.062 66.6603 612.062 64.3371L612.062 47.4587 618.13 47.4587 618.13 64.4841C618.13 66.9752 617.717 69.0885 616.891 70.8239 616.065 72.5594 614.774 73.8714 613.017 74.7601 611.26 75.6488 608.982 76.0932 606.183 76.0932 603.411 76.0932 601.144 75.6488 599.38 74.7601 597.616 73.8714 596.322 72.5594 595.496 70.8239 594.67 69.0885 594.257 66.9752 594.257 64.4841ZM538.593 47.4587 557.552 47.4587 557.552 52.3501 544.493 52.3501 544.493 58.9209 556.335 58.9209 556.335 63.6443 544.493 63.6443 544.493 70.8239 557.552 70.8239 557.552 75.7153 538.593 75.7153ZM675.065 47.0809C678.018 47.0809 680.517 47.6792 682.56 48.8758 684.604 50.0724 686.158 51.7588 687.221 53.9351 688.285 56.1113 688.817 58.669 688.817 61.608 688.817 64.547 688.285 67.0977 687.221 69.26 686.158 71.4222 684.604 73.1017 682.56 74.2983 680.517 75.4949 678.018 76.0932 675.065 76.0932 672.111 76.0932 669.609 75.4949 667.559 74.2983 665.508 73.1017 663.951 71.4222 662.887 69.26 661.823 67.0977 661.291 64.547 661.291 61.608 661.291 58.669 661.823 56.1113 662.887 53.9351 663.951 51.7588 665.508 50.0724 667.559 48.8758 669.609 47.6792 672.111 47.0809 675.065 47.0809ZM575.065 47.0809C578.018 47.0809 580.517 47.6792 582.56 48.8758 584.604 50.0724 586.158 51.7588 587.221 53.9351 588.285 56.1113 588.817 58.669 588.817 61.608 588.817 64.547 588.285 67.0977 587.221 69.26 586.158 71.4222 584.604 73.1017 582.56 74.2983 582.049 74.5974 581.51 74.8592 580.942 75.0835L579.746 75.4588 580.765 76.4711C581.346 76.8629 582.109 77.1533 583.054 77.3423 583.998 77.5312 585.22 77.6257 586.717 77.6257L587.83 77.6257 587.83 82.685 586.424 82.685C584.394 82.685 582.707 82.4926 581.363 82.1077 580.02 81.7228 578.917 81.1875 578.057 80.5017 577.196 79.8159 576.478 79.0147 575.904 78.098L574.814 76.08 572.934 75.981C570.888 75.7566 569.096 75.1957 567.559 74.2983 565.508 73.1017 563.951 71.4222 562.887 69.26 561.823 67.0977 561.291 64.547 561.291 61.608 561.291 58.669 561.823 56.1113 562.887 53.9351 563.951 51.7588 565.508 50.0724 567.559 48.8758 569.609 47.6792 572.111 47.0809 575.065 47.0809Z" fill="url(#fill0)" fill-rule="evenodd"/><text fill="#000000" fill-opacity="0" font-family="Arial,Arial_MSFontService,sans-serif" font-size="35.6041" x="538.593" y="78.2345">EQUIPO #1</text><path d="M709.06 465.887 708.388 470.779 712.587 470.779 713.217 465.887ZM642.493 458.645 642.493 467.336 647.133 467.336C648.505 467.336 649.614 466.972 650.461 466.244 651.308 465.516 651.731 464.439 651.731 463.011 651.731 461.528 651.297 460.429 650.429 459.715 649.561 459.001 648.463 458.645 647.133 458.645ZM675.065 458.414C673.217 458.414 671.73 458.848 670.603 459.715 669.476 460.583 668.657 461.745 668.146 463.2 667.635 464.656 667.38 466.265 667.38 468.028 667.38 469.764 667.635 471.359 668.146 472.815 668.657 474.27 669.476 475.432 670.603 476.3 671.73 477.167 673.217 477.601 675.065 477.601 676.898 477.601 678.375 477.167 679.495 476.3 680.615 475.432 681.433 474.27 681.951 472.815 682.469 471.359 682.728 469.764 682.728 468.028 682.728 466.265 682.469 464.656 681.951 463.2 681.433 461.745 680.615 460.583 679.495 459.715 678.375 458.848 676.898 458.414 675.065 458.414ZM575.065 458.414C573.217 458.414 571.73 458.848 570.603 459.715 569.476 460.583 568.657 461.745 568.146 463.2 567.635 464.656 567.38 466.265 567.38 468.028 567.38 469.764 567.635 471.359 568.146 472.815 568.657 474.27 569.476 475.432 570.603 476.3 571.73 477.167 573.217 477.601 575.065 477.601 576.898 477.601 578.375 477.167 579.495 476.3 580.615 475.432 581.433 474.27 581.951 472.815 582.469 471.359 582.728 469.764 582.728 468.028 582.728 466.265 582.469 464.656 581.951 463.2 581.433 461.745 580.615 460.583 579.495 459.715 578.375 458.848 576.898 458.414 575.065 458.414ZM706.813 454.635 710.613 454.635 709.543 462.423 713.721 462.423 714.792 454.635 718.634 454.635 717.542 462.423 721.489 462.423 721.489 465.887 717.038 465.887 716.387 470.779 720.293 470.779 720.293 474.263 715.904 474.263 714.813 482.136 710.991 482.136 712.062 474.263 707.884 474.263 706.792 482.136 702.95 482.136 704.042 474.263 700.031 474.263 700.031 470.779 704.545 470.779 705.217 465.887 701.186 465.887 701.186 462.423 705.721 462.423ZM733.76 454.257C735.608 454.257 737.218 454.586 738.589 455.244 739.961 455.901 741.025 456.846 741.781 458.078 742.537 459.309 742.915 460.807 742.915 462.57 742.915 464.04 742.652 465.345 742.127 466.485 741.602 467.626 740.888 468.683 739.986 469.655 739.083 470.628 738.072 471.611 736.952 472.605L731.514 477.412 743.649 477.412 743.649 482.136 723.724 482.136 723.724 478.273 733.781 469.12C734.943 468.056 735.807 467.028 736.374 466.034 736.941 465.04 737.225 464.019 737.225 462.969 737.225 461.878 736.966 460.968 736.448 460.24 735.93 459.512 735.034 459.148 733.76 459.148 732.319 459.148 731.286 459.589 730.663 460.471 730.041 461.353 729.729 462.493 729.729 463.893L724.396 463.893C724.396 461.878 724.76 460.149 725.488 458.708 726.216 457.266 727.28 456.164 728.679 455.401 730.079 454.638 731.773 454.257 733.76 454.257ZM636.593 453.879 647.679 453.879C649.54 453.879 651.238 454.208 652.77 454.866 654.303 455.524 655.524 456.524 656.434 457.868 657.344 459.211 657.799 460.926 657.799 463.011 657.799 465.068 657.344 466.769 656.434 468.112 655.524 469.456 654.303 470.453 652.77 471.104 651.238 471.755 649.54 472.08 647.679 472.08L642.493 472.08 642.493 482.136 636.593 482.136ZM623.593 453.879 629.493 453.879 629.493 482.136 623.593 482.136ZM594.257 453.879 600.304 453.879 600.304 470.758C600.304 473.081 600.78 474.809 601.732 475.943 602.683 477.076 604.181 477.643 606.225 477.643 608.282 477.643 609.77 477.076 610.686 475.943 611.603 474.809 612.062 473.081 612.062 470.758L612.062 453.879 618.129 453.879 618.129 470.905C618.129 473.396 617.717 475.509 616.891 477.244 616.065 478.98 614.774 480.292 613.017 481.181 611.26 482.069 608.982 482.514 606.183 482.514 603.411 482.514 601.144 482.069 599.38 481.181 597.616 480.292 596.322 478.98 595.496 477.244 594.67 475.509 594.257 473.396 594.257 470.905ZM538.593 453.879 557.552 453.879 557.552 458.771 544.493 458.771 544.493 465.341 556.335 465.341 556.335 470.065 544.493 470.065 544.493 477.244 557.552 477.244 557.552 482.136 538.593 482.136ZM675.065 453.501C678.018 453.501 680.516 454.1 682.56 455.296 684.604 456.493 686.157 458.179 687.221 460.356 688.285 462.532 688.817 465.089 688.817 468.028 688.817 470.967 688.285 473.518 687.221 475.68 686.157 477.843 684.604 479.522 682.56 480.719 680.516 481.915 678.018 482.514 675.065 482.514 672.111 482.514 669.609 481.915 667.558 480.719 665.508 479.522 663.951 477.843 662.887 475.68 661.823 473.518 661.291 470.967 661.291 468.028 661.291 465.089 661.823 462.532 662.887 460.356 663.951 458.179 665.508 456.493 667.558 455.296 669.609 454.1 672.111 453.501 675.065 453.501ZM575.065 453.501C578.018 453.501 580.516 454.1 582.56 455.296 584.604 456.493 586.157 458.179 587.221 460.356 588.285 462.532 588.817 465.089 588.817 468.028 588.817 470.967 588.285 473.518 587.221 475.68 586.157 477.843 584.604 479.522 582.56 480.719 582.049 481.018 581.51 481.28 580.942 481.504L579.745 481.879 580.765 482.892C581.346 483.283 582.109 483.574 583.054 483.763 583.998 483.952 585.22 484.046 586.717 484.046L587.83 484.046 587.83 489.105 586.423 489.105C584.394 489.105 582.707 488.913 581.363 488.528 580.02 488.143 578.917 487.608 578.056 486.922 577.196 486.236 576.478 485.435 575.904 484.518L574.814 482.5 572.934 482.401C570.888 482.177 569.096 481.616 567.558 480.719 565.508 479.522 563.951 477.843 562.887 475.68 561.823 473.518 561.291 470.967 561.291 468.028 561.291 465.089 561.823 462.532 562.887 460.356 563.951 458.179 565.508 456.493 567.558 455.296 569.609 454.1 572.111 453.501 575.065 453.501Z" fill="url(#fill1)" fill-rule="evenodd"/><text fill="#000000" fill-opacity="0" font-family="Arial,Arial_MSFontService,sans-serif" font-size="35.6041" x="538.593" y="484.655">EQUIPO #2</text><path d="M75.0676 505.269 180.886 505.269 180.886 558.196 75.0676 558.196Z" fill="#156082" fill-rule="evenodd"/><path d="M180.886 505.269 826.935 505.269 826.935 558.196 180.886 558.196Z" fill="#156082" fill-rule="evenodd"/><path d="M826.935 505.269 1202.93 505.269 1202.93 558.196 826.935 558.196Z" fill="#156082" fill-rule="evenodd"/><path d="M75.0676 558.196 180.886 558.196 180.886 611.122 75.0676 611.122Z" fill="#156082" fill-rule="evenodd"/><path d="M180.886 558.196 826.935 558.196 826.935 611.122 180.886 611.122Z" fill="#CCD2D8" fill-rule="evenodd"/><path d="M826.935 558.196 1202.93 558.196 1202.93 822.827 826.935 822.827Z" fill="#CCD2D8" fill-rule="evenodd"/><path d="M75.0676 611.122 180.886 611.122 180.886 664.048 75.0676 664.048Z" fill="#156082" fill-rule="evenodd"/><path d="M180.886 611.122 826.935 611.122 826.935 664.048 180.886 664.048Z" fill="#E7EAED" fill-rule="evenodd"/><path d="M75.0676 664.048 180.886 664.048 180.886 716.974 75.0676 716.974Z" fill="#156082" fill-rule="evenodd"/><path d="M180.886 664.048 826.935 664.048 826.935 716.974 180.886 716.974Z" fill="#CCD2D8" fill-rule="evenodd"/><path d="M75.0676 716.974 180.886 716.974 180.886 769.901 75.0676 769.901Z" fill="#156082" fill-rule="evenodd"/><path d="M180.886 716.974 826.935 716.974 826.935 769.901 180.886 769.901Z" fill="#E7EAED" fill-rule="evenodd"/><path d="M75.0676 769.901 180.886 769.901 180.886 822.827 75.0676 822.827Z" fill="#156082" fill-rule="evenodd"/><path d="M180.886 769.901 826.935 769.901 826.935 822.827 180.886 822.827Z" fill="#CCD2D8" fill-rule="evenodd"/><path d="M180.886 504.602 180.886 823.494" stroke="#FFFFFF" stroke-width="1.33386" stroke-linejoin="round" stroke-miterlimit="10" fill="none" fill-rule="evenodd"/><path d="M826.935 504.602 826.935 823.494" stroke="#FFFFFF" stroke-width="1.33386" stroke-linejoin="round" stroke-miterlimit="10" fill="none" fill-rule="evenodd"/><path d="M74.4007 558.196 1203.6 558.196" stroke="#FFFFFF" stroke-width="4.00157" stroke-linejoin="round" stroke-miterlimit="10" fill="none" fill-rule="evenodd"/><path d="M74.4007 611.122 827.602 611.122" stroke="#FFFFFF" stroke-width="1.33386" stroke-linejoin="round" stroke-miterlimit="10" fill="none" fill-rule="evenodd"/><path d="M74.4007 664.048 827.602 664.048" stroke="#FFFFFF" stroke-width="1.33386" stroke-linejoin="round" stroke-miterlimit="10" fill="none" fill-rule="evenodd"/><path d="M74.4007 716.974 827.602 716.974" stroke="#FFFFFF" stroke-width="1.33386" stroke-linejoin="round" stroke-miterlimit="10" fill="none" fill-rule="evenodd"/><path d="M74.4007 769.901 827.602 769.901" stroke="#FFFFFF" stroke-width="1.33386" stroke-linejoin="round" stroke-miterlimit="10" fill="none" fill-rule="evenodd"/><path d="M75.0676 504.602 75.0676 823.494" stroke="#FFFFFF" stroke-width="1.33386" stroke-linejoin="round" stroke-miterlimit="10" fill="none" fill-rule="evenodd"/><path d="M1202.93 504.602 1202.93 823.494" stroke="#FFFFFF" stroke-width="1.33386" stroke-linejoin="round" stroke-miterlimit="10" fill="none" fill-rule="evenodd"/><path d="M74.4007 505.269 1203.6 505.269" stroke="#FFFFFF" stroke-width="1.33386" stroke-linejoin="round" stroke-miterlimit="10" fill="none" fill-rule="evenodd"/><path d="M74.4007 822.827 1203.6 822.827" stroke="#FFFFFF" stroke-width="1.33386" stroke-linejoin="round" stroke-miterlimit="10" fill="none" fill-rule="evenodd"/><text fill="#FFFFFF" font-family="Aptos,Aptos_MSFontService,sans-serif" font-weight="700" font-size="43" transform="matrix(1 0 0 0.999853 942.018 546)">GRADO</text><text fill="#FFFFFF" font-family="Aptos,Aptos_MSFontService,sans-serif" font-weight="700" font-size="43" transform="matrix(1 0 0 0.999853 416.21 546)">NOMBRE</text><text fill="#FFFFFF" font-family="Aptos,Aptos_MSFontService,sans-serif" font-weight="700" font-size="43" transform="matrix(1 0 0 0.999853 104.468 546)">N</text><text fill="#FFFFFF" font-family="Aptos,Aptos_MSFontService,sans-serif" font-weight="700" font-size="43" transform="matrix(1 0 0 0.999853 135.313 546)">°</text><text font-family="Aptos,Aptos_MSFontService,sans-serif" font-weight="400" font-size="43" transform="matrix(1 0 0 0.999853 967.937 730)">3M</text><text font-family="Aptos,Aptos_MSFontService,sans-serif" font-weight="400" font-size="43" transform="matrix(1 0 0 0.999853 1024.46 730)">-</text><text font-family="Aptos,Aptos_MSFontService,sans-serif" font-weight="400" font-size="43" transform="matrix(1 0 0 0.999853 1038.96 730)">2</text><g><text font-family="Aptos,Aptos_MSFontService,sans-serif" font-weight="400" font-size="43" transform="matrix(1 0 0 0.999853 188.089 599)">Lucas Henao</text></g><text fill="#FFFFFF" font-family="Aptos,Aptos_MSFontService,sans-serif" font-weight="700" font-size="43" transform="matrix(1 0 0 0.999853 116.556 599)">1</text><g><text font-family="Aptos,Aptos_MSFontService,sans-serif" font-weight="400" font-size="43" transform="matrix(1 0 0 0.999853 188.089 652)">Martin jimenez</text></g><text fill="#FFFFFF" font-family="Aptos,Aptos_MSFontService,sans-serif" font-weight="700" font-size="43" transform="matrix(1 0 0 0.999853 116.556 652)">2</text><g><text font-family="Aptos,Aptos_MSFontService,sans-serif" font-weight="400" font-size="43" transform="matrix(1 0 0 0.999853 188.089 705)">Dylan Insuasty</text></g><text fill="#FFFFFF" font-family="Aptos,Aptos_MSFontService,sans-serif" font-weight="700" font-size="43" transform="matrix(1 0 0 0.999853 116.556 705)">3</text><g><text font-family="Aptos,Aptos_MSFontService,sans-serif" font-weight="400" font-size="43" transform="matrix(1 0 0 0.999853 188.089 758)">Yasser martinez</text></g><text fill="#FFFFFF" font-family="Aptos,Aptos_MSFontService,sans-serif" font-weight="700" font-size="43" transform="matrix(1 0 0 0.999853 116.556 758)">4</text><g><text font-family="Aptos,Aptos_MSFontService,sans-serif" font-weight="400" font-size="43" transform="matrix(1 0 0 0.999853 188.089 811)">Christopher barbosa</text></g><text fill="#FFFFFF" font-family="Aptos,Aptos_MSFontService,sans-serif" font-weight="700" font-size="43" transform="matrix(1 0 0 0.999853 116.556 811)">5</text><path d="M710.644 868.661 709.972 873.552 714.171 873.552 714.801 868.661ZM644.077 861.419 644.077 870.11 648.717 870.11C650.089 870.11 651.198 869.746 652.045 869.018 652.892 868.29 653.315 867.213 653.315 865.785 653.315 864.302 652.881 863.203 652.014 862.489 651.146 861.775 650.047 861.419 648.717 861.419ZM676.649 861.188C674.801 861.188 673.314 861.621 672.187 862.489 671.06 863.357 670.242 864.518 669.731 865.974 669.22 867.43 668.964 869.039 668.964 870.802 668.964 872.538 669.22 874.133 669.731 875.589 670.242 877.044 671.06 878.206 672.187 879.074 673.314 879.941 674.801 880.375 676.649 880.375 678.482 880.375 679.959 879.941 681.079 879.074 682.199 878.206 683.018 877.044 683.536 875.589 684.053 874.133 684.312 872.538 684.312 870.802 684.312 869.039 684.053 867.43 683.536 865.974 683.018 864.518 682.199 863.357 681.079 862.489 679.959 861.621 678.482 861.188 676.649 861.188ZM576.649 861.188C574.801 861.188 573.314 861.621 572.187 862.489 571.06 863.357 570.242 864.518 569.731 865.974 569.22 867.43 568.964 869.039 568.964 870.802 568.964 872.538 569.22 874.133 569.731 875.589 570.242 877.044 571.06 878.206 572.187 879.074 573.314 879.941 574.801 880.375 576.649 880.375 578.482 880.375 579.959 879.941 581.079 879.074 582.199 878.206 583.018 877.044 583.536 875.589 584.053 874.133 584.312 872.538 584.312 870.802 584.312 869.039 584.053 867.43 583.536 865.974 583.018 864.518 582.199 863.357 581.079 862.489 579.959 861.621 578.482 861.188 576.649 861.188ZM708.397 857.409 712.198 857.409 711.127 865.197 715.305 865.197 716.376 857.409 720.218 857.409 719.126 865.197 723.074 865.197 723.074 868.661 718.622 868.661 717.972 873.552 721.877 873.552 721.877 877.037 717.489 877.037 716.397 884.91 712.576 884.91 713.646 877.037 709.468 877.037 708.376 884.91 704.534 884.91 705.626 877.037 701.616 877.037 701.616 873.552 706.13 873.552 706.802 868.661 702.77 868.661 702.77 865.197 707.306 865.197ZM735.345 857.031C736.996 857.031 738.522 857.286 739.922 857.797 741.321 858.308 742.445 859.099 743.292 860.169 744.138 861.24 744.562 862.615 744.562 864.295 744.562 865.988 744.138 867.328 743.292 868.315 742.445 869.301 741.3 869.998 739.859 870.404 741.426 870.725 742.728 871.422 743.764 872.492 744.8 873.563 745.318 875.078 745.318 877.037 745.318 878.815 744.915 880.316 744.11 881.54 743.306 882.765 742.165 883.692 740.688 884.322 739.211 884.952 737.451 885.267 735.408 885.267 732.174 885.267 729.669 884.525 727.891 883.041 726.113 881.558 725.224 879.312 725.224 876.303L730.557 876.303C730.557 877.688 730.981 878.769 731.828 879.546 732.675 880.323 733.861 880.711 735.387 880.711 736.772 880.711 737.826 880.382 738.547 879.724 739.267 879.067 739.628 878.031 739.628 876.617 739.628 875.246 739.18 874.252 738.284 873.636 737.388 873.021 736.24 872.713 734.841 872.713L733.14 872.713 733.14 868.346 735.009 868.346C736.268 868.346 737.283 868.021 738.053 867.37 738.823 866.719 739.208 865.862 739.208 864.798 739.208 863.707 738.868 862.902 738.19 862.384 737.511 861.866 736.569 861.607 735.366 861.607 734.064 861.607 733.06 861.94 732.353 862.605 731.646 863.269 731.292 864.19 731.292 865.365L725.959 865.365C725.959 863.462 726.376 861.898 727.209 860.673 728.041 859.449 729.165 858.536 730.578 857.934 731.992 857.332 733.581 857.031 735.345 857.031ZM638.177 856.653 649.263 856.653C651.125 856.653 652.822 856.982 654.355 857.64 655.887 858.298 657.109 859.298 658.018 860.642 658.928 861.985 659.383 863.7 659.383 865.785 659.383 867.842 658.928 869.543 658.018 870.886 657.109 872.23 655.887 873.227 654.355 873.878 652.822 874.529 651.125 874.854 649.263 874.854L644.077 874.854 644.077 884.91 638.177 884.91ZM625.177 856.653 631.077 856.653 631.077 884.91 625.177 884.91ZM595.841 856.653 601.888 856.653 601.888 873.531C601.888 875.855 602.364 877.583 603.316 878.717 604.268 879.85 605.765 880.417 607.809 880.417 609.867 880.417 611.354 879.85 612.271 878.717 613.188 877.583 613.646 875.855 613.646 873.531L613.646 856.653 619.714 856.653 619.714 873.678C619.714 876.17 619.301 878.283 618.475 880.018 617.649 881.754 616.358 883.066 614.601 883.955 612.845 884.843 610.566 885.288 607.767 885.288 604.995 885.288 602.728 884.843 600.964 883.955 599.201 883.066 597.906 881.754 597.08 880.018 596.254 878.283 595.841 876.17 595.841 873.678ZM540.177 856.653 559.137 856.653 559.137 861.544 546.077 861.544 546.077 868.115 557.919 868.115 557.919 872.839 546.077 872.839 546.077 880.018 559.137 880.018 559.137 884.91 540.177 884.91ZM676.649 856.275C679.602 856.275 682.101 856.874 684.144 858.07 686.188 859.267 687.742 860.953 688.806 863.129 689.869 865.306 690.401 867.863 690.401 870.802 690.401 873.741 689.869 876.292 688.806 878.454 687.742 880.617 686.188 882.296 684.144 883.493 682.101 884.689 679.602 885.288 676.649 885.288 673.695 885.288 671.193 884.689 669.143 883.493 667.092 882.296 665.535 880.617 664.471 878.454 663.407 876.292 662.875 873.741 662.875 870.802 662.875 867.863 663.407 865.306 664.471 863.129 665.535 860.953 667.092 859.267 669.143 858.07 671.193 856.874 673.695 856.275 676.649 856.275ZM576.649 856.275C579.602 856.275 582.101 856.874 584.144 858.07 586.188 859.267 587.742 860.953 588.806 863.129 589.869 865.306 590.401 867.863 590.401 870.802 590.401 873.741 589.869 876.292 588.806 878.454 587.742 880.617 586.188 882.296 584.144 883.493 583.633 883.792 583.094 884.054 582.526 884.278L581.33 884.653 582.349 885.665C582.93 886.057 583.693 886.348 584.638 886.537 585.583 886.726 586.804 886.82 588.302 886.82L589.414 886.82 589.414 891.879 588.008 891.879C585.978 891.879 584.291 891.687 582.948 891.302 581.604 890.917 580.502 890.382 579.641 889.696 578.78 889.01 578.063 888.209 577.489 887.292L576.398 885.274 574.518 885.175C572.473 884.951 570.681 884.39 569.143 883.493 567.092 882.296 565.535 880.617 564.471 878.454 563.407 876.292 562.875 873.741 562.875 870.802 562.875 867.863 563.407 865.306 564.471 863.129 565.535 860.953 567.092 859.267 569.143 858.07 571.193 856.874 573.695 856.275 576.649 856.275Z" fill="url(#fill2)" fill-rule="evenodd"/><text fill="#000000" fill-opacity="0" font-family="Arial,Arial_MSFontService,sans-serif" font-size="35.6041" x="540.177" y="887.429">EQUIPO #3</text><path d="M69.0152 907.022 180.07 907.022 180.07 959.948 69.0152 959.948Z" fill="#156082" fill-rule="evenodd"/><path d="M180.07 907.022 820.882 907.022 820.882 959.948 180.07 959.948Z" fill="#156082" fill-rule="evenodd"/><path d="M820.882 907.022 1196.88 907.022 1196.88 959.948 820.882 959.948Z" fill="#156082" fill-rule="evenodd"/><path d="M69.0152 959.948 180.07 959.948 180.07 1012.87 69.0152 1012.87Z" fill="#156082" fill-rule="evenodd"/><path d="M180.07 959.948 820.882 959.948 820.882 1012.87 180.07 1012.87Z" fill="#CCD2D8" fill-rule="evenodd"/><path d="M820.882 959.948 1196.88 959.948 1196.88 1224.58 820.882 1224.58Z" fill="#CCD2D8" fill-rule="evenodd"/><path d="M69.0152 1012.87 180.07 1012.87 180.07 1065.8 69.0152 1065.8Z" fill="#156082" fill-rule="evenodd"/><path d="M180.07 1012.87 820.882 1012.87 820.882 1065.8 180.07 1065.8Z" fill="#E7EAED" fill-rule="evenodd"/><path d="M69.0152 1065.8 180.07 1065.8 180.07 1118.73 69.0152 1118.73Z" fill="#156082" fill-rule="evenodd"/><path d="M180.07 1065.8 820.882 1065.8 820.882 1118.73 180.07 1118.73Z" fill="#CCD2D8" fill-rule="evenodd"/><path d="M69.0152 1118.73 180.07 1118.73 180.07 1171.65 69.0152 1171.65Z" fill="#156082" fill-rule="evenodd"/><path d="M180.07 1118.73 820.882 1118.73 820.882 1171.65 180.07 1171.65Z" fill="#E7EAED" fill-rule="evenodd"/><path d="M69.0152 1171.65 180.07 1171.65 180.07 1224.58 69.0152 1224.58Z" fill="#156082" fill-rule="evenodd"/><path d="M180.07 1171.65 820.882 1171.65 820.882 1224.58 180.07 1224.58Z" fill="#CCD2D8" fill-rule="evenodd"/><path d="M180.07 906.355 180.07 1225.25" stroke="#FFFFFF" stroke-width="1.33386" stroke-linejoin="round" stroke-miterlimit="10" fill="none" fill-rule="evenodd"/><path d="M820.882 906.355 820.882 1225.25" stroke="#FFFFFF" stroke-width="1.33386" stroke-linejoin="round" stroke-miterlimit="10" fill="none" fill-rule="evenodd"/><path d="M68.3483 959.948 1197.55 959.948" stroke="#FFFFFF" stroke-width="4.00157" stroke-linejoin="round" stroke-miterlimit="10" fill="none" fill-rule="evenodd"/><path d="M68.3483 1012.87 821.549 1012.87" stroke="#FFFFFF" stroke-width="1.33386" stroke-linejoin="round" stroke-miterlimit="10" fill="none" fill-rule="evenodd"/><path d="M68.3483 1065.8 821.549 1065.8" stroke="#FFFFFF" stroke-width="1.33386" stroke-linejoin="round" stroke-miterlimit="10" fill="none" fill-rule="evenodd"/><path d="M68.3483 1118.73 821.549 1118.73" stroke="#FFFFFF" stroke-width="1.33386" stroke-linejoin="round" stroke-miterlimit="10" fill="none" fill-rule="evenodd"/><path d="M68.3483 1171.65 821.549 1171.65" stroke="#FFFFFF" stroke-width="1.33386" stroke-linejoin="round" stroke-miterlimit="10" fill="none" fill-rule="evenodd"/><path d="M69.0152 906.355 69.0152 1225.25" stroke="#FFFFFF" stroke-width="1.33386" stroke-linejoin="round" stroke-miterlimit="10" fill="none" fill-rule="evenodd"/><path d="M1196.88 906.355 1196.88 1225.25" stroke="#FFFFFF" stroke-width="1.33386" stroke-linejoin="round" stroke-miterlimit="10" fill="none" fill-rule="evenodd"/><path d="M68.3483 907.022 1197.55 907.022" stroke="#FFFFFF" stroke-width="1.33386" stroke-linejoin="round" stroke-miterlimit="10" fill="none" fill-rule="evenodd"/><path d="M68.3483 1224.58 1197.55 1224.58" stroke="#FFFFFF" stroke-width="1.33386" stroke-linejoin="round" stroke-miterlimit="10" fill="none" fill-rule="evenodd"/><text fill="#FFFFFF" font-family="Aptos,Aptos_MSFontService,sans-serif" font-weight="700" font-size="43" transform="matrix(1 0 0 0.999853 935.966 948)">GRADO</text><text fill="#FFFFFF" font-family="Aptos,Aptos_MSFontService,sans-serif" font-weight="700" font-size="43" transform="matrix(1 0 0 0.999853 412.775 948)">NOMBRE</text><text fill="#FFFFFF" font-family="Aptos,Aptos_MSFontService,sans-serif" font-weight="700" font-size="43" transform="matrix(1 0 0 0.999853 101.034 948)">N</text><text fill="#FFFFFF" font-family="Aptos,Aptos_MSFontService,sans-serif" font-weight="700" font-size="43" transform="matrix(1 0 0 0.999853 131.879 948)">°</text><text font-family="Aptos,Aptos_MSFontService,sans-serif" font-weight="400" font-size="43" transform="matrix(1 0 0 0.999853 987.147 1132)">3T</text><g><text font-family="Aptos,Aptos_MSFontService,sans-serif" font-weight="400" font-size="43" transform="matrix(1 0 0 0.999853 187.273 1001)">Zabdiel viera</text></g><text fill="#FFFFFF" font-family="Aptos,Aptos_MSFontService,sans-serif" font-weight="700" font-size="43" transform="matrix(1 0 0 0.999853 113.122 1001)">1</text><g><text font-family="Aptos,Aptos_MSFontService,sans-serif" font-weight="400" font-size="43" transform="matrix(1 0 0 0.999853 187.273 1054)">Danier guali</text></g><text fill="#FFFFFF" font-family="Aptos,Aptos_MSFontService,sans-serif" font-weight="700" font-size="43" transform="matrix(1 0 0 0.999853 113.122 1054)">2</text><g><text font-family="Aptos,Aptos_MSFontService,sans-serif" font-weight="400" font-size="43" transform="matrix(1 0 0 0.999853 187.273 1107)">Mathias aragon</text></g><text fill="#FFFFFF" font-family="Aptos,Aptos_MSFontService,sans-serif" font-weight="700" font-size="43" transform="matrix(1 0 0 0.999853 113.122 1107)">3</text><g><text font-family="Aptos,Aptos_MSFontService,sans-serif" font-weight="400" font-size="43" transform="matrix(1 0 0 0.999853 187.273 1160)">Samuel acosta</text></g><text fill="#FFFFFF" font-family="Aptos,Aptos_MSFontService,sans-serif" font-weight="700" font-size="43" transform="matrix(1 0 0 0.999853 113.122 1160)">4</text><g><text font-family="Aptos,Aptos_MSFontService,sans-serif" font-weight="400" font-size="43" transform="matrix(1 0 0 0.999853 187.273 1212)">Jhoan chapal</text></g><text fill="#FFFFFF" font-family="Aptos,Aptos_MSFontService,sans-serif" font-weight="700" font-size="43" transform="matrix(1 0 0 0.999853 113.122 1212)">5</text><path d="M90.4464 1318.62 160.497 1318.62 160.497 1371.54 90.4464 1371.54Z" fill="#156082" fill-rule="evenodd"/><path d="M160.497 1318.62 823.98 1318.62 823.98 1371.54 160.497 1371.54Z" fill="#156082" fill-rule="evenodd"/><path d="M823.98 1318.62 1190.81 1318.62 1190.81 1371.54 823.98 1371.54Z" fill="#156082" fill-rule="evenodd"/><path d="M90.4464 1371.54 160.497 1371.54 160.497 1424.47 90.4464 1424.47Z" fill="#156082" fill-rule="evenodd"/><path d="M160.497 1371.54 823.98 1371.54 823.98 1424.47 160.497 1424.47Z" fill="#CCD2D8" fill-rule="evenodd"/><path d="M823.98 1371.54 1190.81 1371.54 1190.81 1636.18 823.98 1636.18Z" fill="#CCD2D8" fill-rule="evenodd"/><path d="M90.4464 1424.47 160.497 1424.47 160.497 1477.4 90.4464 1477.4Z" fill="#156082" fill-rule="evenodd"/><path d="M160.497 1424.47 823.98 1424.47 823.98 1477.4 160.497 1477.4Z" fill="#E7EAED" fill-rule="evenodd"/><path d="M90.4464 1477.4 160.497 1477.4 160.497 1530.32 90.4464 1530.32Z" fill="#156082" fill-rule="evenodd"/><path d="M160.497 1477.4 823.98 1477.4 823.98 1530.32 160.497 1530.32Z" fill="#CCD2D8" fill-rule="evenodd"/><path d="M90.4464 1530.32 160.497 1530.32 160.497 1583.25 90.4464 1583.25Z" fill="#156082" fill-rule="evenodd"/><path d="M160.497 1530.32 823.98 1530.32 823.98 1583.25 160.497 1583.25Z" fill="#E7EAED" fill-rule="evenodd"/><path d="M90.4464 1583.25 160.497 1583.25 160.497 1636.18 90.4464 1636.18Z" fill="#156082" fill-rule="evenodd"/><path d="M160.497 1583.25 823.98 1583.25 823.98 1636.18 160.497 1636.18Z" fill="#CCD2D8" fill-rule="evenodd"/><path d="M160.497 1317.95 160.497 1636.84" stroke="#FFFFFF" stroke-width="1.33386" stroke-linejoin="round" stroke-miterlimit="10" fill="none" fill-rule="evenodd"/><path d="M823.98 1317.95 823.98 1636.84" stroke="#FFFFFF" stroke-width="1.33386" stroke-linejoin="round" stroke-miterlimit="10" fill="none" fill-rule="evenodd"/><path d="M89.7795 1371.54 1191.48 1371.54" stroke="#FFFFFF" stroke-width="4.00157" stroke-linejoin="round" stroke-miterlimit="10" fill="none" fill-rule="evenodd"/><path d="M89.7795 1424.47 824.647 1424.47" stroke="#FFFFFF" stroke-width="1.33386" stroke-linejoin="round" stroke-miterlimit="10" fill="none" fill-rule="evenodd"/><path d="M89.7795 1477.4 824.647 1477.4" stroke="#FFFFFF" stroke-width="1.33386" stroke-linejoin="round" stroke-miterlimit="10" fill="none" fill-rule="evenodd"/><path d="M89.7795 1530.32 824.647 1530.32" stroke="#FFFFFF" stroke-width="1.33386" stroke-linejoin="round" stroke-miterlimit="10" fill="none" fill-rule="evenodd"/><path d="M89.7795 1583.25 824.647 1583.25" stroke="#FFFFFF" stroke-width="1.33386" stroke-linejoin="round" stroke-miterlimit="10" fill="none" fill-rule="evenodd"/><path d="M90.4464 1317.95 90.4464 1636.84" stroke="#FFFFFF" stroke-width="1.33386" stroke-linejoin="round" stroke-miterlimit="10" fill="none" fill-rule="evenodd"/><path d="M1190.81 1317.95 1190.81 1636.84" stroke="#FFFFFF" stroke-width="1.33386" stroke-linejoin="round" stroke-miterlimit="10" fill="none" fill-rule="evenodd"/><path d="M89.7795 1318.62 1191.48 1318.62" stroke="#FFFFFF" stroke-width="1.33386" stroke-linejoin="round" stroke-miterlimit="10" fill="none" fill-rule="evenodd"/><path d="M89.7795 1636.18 1191.48 1636.18" stroke="#FFFFFF" stroke-width="1.33386" stroke-linejoin="round" stroke-miterlimit="10" fill="none" fill-rule="evenodd"/><text fill="#FFFFFF" font-family="Aptos,Aptos_MSFontService,sans-serif" font-weight="700" font-size="43" transform="matrix(1 0 0 0.999853 934.479 1359)">GRADO</text><text fill="#FFFFFF" font-family="Aptos,Aptos_MSFontService,sans-serif" font-weight="700" font-size="43" transform="matrix(1 0 0 0.999853 404.537 1359)">NOMBRE</text><g><text fill="#FFFFFF" font-family="Aptos,Aptos_MSFontService,sans-serif" font-weight="700" font-size="43" transform="matrix(1 0 0 0.999853 101.962 1359)">N</text></g><g><text fill="#FFFFFF" font-family="Aptos,Aptos_MSFontService,sans-serif" font-weight="700" font-size="43" transform="matrix(1 0 0 0.999853 132.808 1359)">°</text></g><text font-family="Aptos,Aptos_MSFontService,sans-serif" font-weight="400" font-size="43" transform="matrix(1 0 0 0.999853 979.074 1543)">4M</text><g><text font-family="Aptos,Aptos_MSFontService,sans-serif" font-weight="400" font-size="43" transform="matrix(1 0 0 0.999853 167.7 1412)">Johan posada</text></g><g><text fill="#FFFFFF" font-family="Aptos,Aptos_MSFontService,sans-serif" font-weight="700" font-size="43" transform="matrix(1 0 0 0.999853 114.05 1412)">1</text></g><g><text font-family="Aptos,Aptos_MSFontService,sans-serif" font-weight="400" font-size="43" transform="matrix(1 0 0 0.999853 167.7 1465)">Samuel forero</text></g><g><text fill="#FFFFFF" font-family="Aptos,Aptos_MSFontService,sans-serif" font-weight="700" font-size="43" transform="matrix(1 0 0 0.999853 114.05 1465)">2</text></g><g><text font-family="Aptos,Aptos_MSFontService,sans-serif" font-weight="400" font-size="43" transform="matrix(1 0 0 0.999853 167.7 1518)">Mathew ospina</text></g><g><text fill="#FFFFFF" font-family="Aptos,Aptos_MSFontService,sans-serif" font-weight="700" font-size="43" transform="matrix(1 0 0 0.999853 114.05 1518)">3</text></g><g><text font-family="Aptos,Aptos_MSFontService,sans-serif" font-weight="400" font-size="43" transform="matrix(1 0 0 0.999853 167.7 1571)">Dominick dominguez</text></g><g><text fill="#FFFFFF" font-family="Aptos,Aptos_MSFontService,sans-serif" font-weight="700" font-size="43" transform="matrix(1 0 0 0.999853 114.05 1571)">4</text></g><g><text font-family="Aptos,Aptos_MSFontService,sans-serif" font-weight="400" font-size="43" transform="matrix(1 0 0 0.999853 167.7 1624)">Diego cardozo</text></g><g><text fill="#FFFFFF" font-family="Aptos,Aptos_MSFontService,sans-serif" font-weight="700" font-size="43" transform="matrix(1 0 0 0.999853 114.05 1624)">5</text></g><path d="M710.644 1276.48 709.972 1281.38 714.171 1281.38 714.801 1276.48ZM736.919 1272.2 729.634 1283.1 736.919 1283.1ZM644.077 1269.24 644.077 1277.93 648.717 1277.93C650.089 1277.93 651.198 1277.57 652.045 1276.84 652.892 1276.11 653.315 1275.04 653.315 1273.61 653.315 1272.12 652.881 1271.03 652.014 1270.31 651.146 1269.6 650.047 1269.24 648.717 1269.24ZM676.649 1269.01C674.801 1269.01 673.314 1269.44 672.187 1270.31 671.06 1271.18 670.242 1272.34 669.731 1273.8 669.22 1275.25 668.964 1276.86 668.964 1278.63 668.964 1280.36 669.22 1281.96 669.731 1283.41 670.242 1284.87 671.06 1286.03 672.187 1286.9 673.314 1287.76 674.801 1288.2 676.649 1288.2 678.482 1288.2 679.959 1287.76 681.079 1286.9 682.199 1286.03 683.018 1284.87 683.536 1283.41 684.053 1281.96 684.312 1280.36 684.312 1278.63 684.312 1276.86 684.053 1275.25 683.536 1273.8 683.018 1272.34 682.199 1271.18 681.079 1270.31 679.959 1269.44 678.482 1269.01 676.649 1269.01ZM576.649 1269.01C574.801 1269.01 573.314 1269.44 572.187 1270.31 571.06 1271.18 570.242 1272.34 569.731 1273.8 569.22 1275.25 568.964 1276.86 568.964 1278.63 568.964 1280.36 569.22 1281.96 569.731 1283.41 570.242 1284.87 571.06 1286.03 572.187 1286.9 573.314 1287.76 574.801 1288.2 576.649 1288.2 578.482 1288.2 579.959 1287.76 581.079 1286.9 582.199 1286.03 583.018 1284.87 583.536 1283.41 584.053 1281.96 584.312 1280.36 584.312 1278.63 584.312 1276.86 584.053 1275.25 583.536 1273.8 583.018 1272.34 582.199 1271.18 581.079 1270.31 579.959 1269.44 578.482 1269.01 576.649 1269.01ZM708.397 1265.23 712.198 1265.23 711.127 1273.02 715.305 1273.02 716.376 1265.23 720.218 1265.23 719.126 1273.02 723.074 1273.02 723.074 1276.48 718.622 1276.48 717.972 1281.38 721.877 1281.38 721.877 1284.86 717.489 1284.86 716.397 1292.73 712.576 1292.73 713.646 1284.86 709.468 1284.86 708.376 1292.73 704.534 1292.73 705.626 1284.86 701.616 1284.86 701.616 1281.38 706.13 1281.38 706.802 1276.48 702.77 1276.48 702.77 1273.02 707.306 1273.02ZM736.814 1265.17 742.336 1265.17 742.336 1283.1 745.99 1283.1 745.99 1287.67 742.336 1287.67 742.336 1292.73 736.814 1292.73 736.814 1287.67 724.553 1287.67 724.553 1282.95ZM638.177 1264.48 649.263 1264.48C651.125 1264.48 652.822 1264.8 654.355 1265.46 655.887 1266.12 657.109 1267.12 658.018 1268.46 658.928 1269.81 659.383 1271.52 659.383 1273.61 659.383 1275.67 658.928 1277.37 658.018 1278.71 657.109 1280.05 655.887 1281.05 654.355 1281.7 652.822 1282.35 651.125 1282.68 649.263 1282.68L644.077 1282.68 644.077 1292.73 638.177 1292.73ZM625.177 1264.48 631.077 1264.48 631.077 1292.73 625.177 1292.73ZM595.841 1264.48 601.888 1264.48 601.888 1281.35C601.888 1283.68 602.364 1285.41 603.316 1286.54 604.268 1287.67 605.765 1288.24 607.809 1288.24 609.867 1288.24 611.354 1287.67 612.271 1286.54 613.187 1285.41 613.646 1283.68 613.646 1281.35L613.646 1264.48 619.714 1264.48 619.714 1281.5C619.714 1283.99 619.301 1286.11 618.475 1287.84 617.649 1289.58 616.358 1290.89 614.601 1291.78 612.845 1292.67 610.566 1293.11 607.767 1293.11 604.995 1293.11 602.728 1292.67 600.964 1291.78 599.201 1290.89 597.906 1289.58 597.08 1287.84 596.254 1286.11 595.841 1283.99 595.841 1281.5ZM540.177 1264.48 559.137 1264.48 559.137 1269.37 546.077 1269.37 546.077 1275.94 557.919 1275.94 557.919 1280.66 546.077 1280.66 546.077 1287.84 559.137 1287.84 559.137 1292.73 540.177 1292.73ZM676.649 1264.1C679.602 1264.1 682.101 1264.7 684.144 1265.89 686.188 1267.09 687.742 1268.78 688.806 1270.95 689.869 1273.13 690.401 1275.69 690.401 1278.63 690.401 1281.56 689.869 1284.11 688.806 1286.28 687.742 1288.44 686.188 1290.12 684.144 1291.32 682.101 1292.51 679.602 1293.11 676.649 1293.11 673.695 1293.11 671.193 1292.51 669.143 1291.32 667.092 1290.12 665.535 1288.44 664.471 1286.28 663.407 1284.11 662.875 1281.56 662.875 1278.63 662.875 1275.69 663.407 1273.13 664.471 1270.95 665.535 1268.78 667.092 1267.09 669.143 1265.89 671.193 1264.7 673.695 1264.1 676.649 1264.1ZM576.649 1264.1C579.602 1264.1 582.101 1264.7 584.144 1265.89 586.188 1267.09 587.742 1268.78 588.806 1270.95 589.869 1273.13 590.401 1275.69 590.401 1278.63 590.401 1281.56 589.869 1284.11 588.806 1286.28 587.742 1288.44 586.188 1290.12 584.144 1291.32 583.633 1291.61 583.094 1291.88 582.526 1292.1L581.33 1292.48 582.349 1293.49C582.93 1293.88 583.693 1294.17 584.638 1294.36 585.583 1294.55 586.804 1294.64 588.302 1294.64L589.414 1294.64 589.414 1299.7 588.008 1299.7C585.978 1299.7 584.291 1299.51 582.948 1299.12 581.604 1298.74 580.502 1298.2 579.641 1297.52 578.78 1296.83 578.063 1296.03 577.489 1295.12L576.398 1293.1 574.518 1293C572.473 1292.77 570.681 1292.21 569.143 1291.32 567.092 1290.12 565.535 1288.44 564.471 1286.28 563.407 1284.11 562.875 1281.56 562.875 1278.63 562.875 1275.69 563.407 1273.13 564.471 1270.95 565.535 1268.78 567.092 1267.09 569.143 1265.89 571.193 1264.7 573.695 1264.1 576.649 1264.1Z" fill="url(#fill3)" fill-rule="evenodd"/><text fill="#000000" fill-opacity="0" font-family="Arial,Arial_MSFontService,sans-serif" font-size="35.6041" x="540.177" y="1295.25">EQUIPO #4</text><path d="M90.4463 1700.17 160.497 1700.17 160.497 1753.09 90.4463 1753.09Z" fill="#156082" fill-rule="evenodd"/><path d="M160.497 1700.17 823.98 1700.17 823.98 1753.09 160.497 1753.09Z" fill="#156082" fill-rule="evenodd"/><path d="M823.98 1700.17 1190.81 1700.17 1190.81 1753.09 823.98 1753.09Z" fill="#156082" fill-rule="evenodd"/><path d="M90.4463 1753.09 160.497 1753.09 160.497 1806.02 90.4463 1806.02Z" fill="#156082" fill-rule="evenodd"/><path d="M160.497 1753.09 823.98 1753.09 823.98 1806.02 160.497 1806.02Z" fill="#CCD2D8" fill-rule="evenodd"/><path d="M823.98 1753.09 1190.81 1753.09 1190.81 2017.73 823.98 2017.73Z" fill="#CCD2D8" fill-rule="evenodd"/><path d="M90.4463 1806.02 160.497 1806.02 160.497 1858.95 90.4463 1858.95Z" fill="#156082" fill-rule="evenodd"/><path d="M160.497 1806.02 823.98 1806.02 823.98 1858.95 160.497 1858.95Z" fill="#E7EAED" fill-rule="evenodd"/><path d="M90.4463 1858.95 160.497 1858.95 160.497 1911.87 90.4463 1911.87Z" fill="#156082" fill-rule="evenodd"/><path d="M160.497 1858.95 823.98 1858.95 823.98 1911.87 160.497 1911.87Z" fill="#CCD2D8" fill-rule="evenodd"/><path d="M90.4463 1911.87 160.497 1911.87 160.497 1964.8 90.4463 1964.8Z" fill="#156082" fill-rule="evenodd"/><path d="M160.497 1911.87 823.98 1911.87 823.98 1964.8 160.497 1964.8Z" fill="#E7EAED" fill-rule="evenodd"/><path d="M90.4463 1964.8 160.497 1964.8 160.497 2017.73 90.4463 2017.73Z" fill="#156082" fill-rule="evenodd"/><path d="M160.497 1964.8 823.98 1964.8 823.98 2017.73 160.497 2017.73Z" fill="#CCD2D8" fill-rule="evenodd"/><path d="M160.497 1699.5 160.497 2018.39" stroke="#FFFFFF" stroke-width="1.33386" stroke-linejoin="round" stroke-miterlimit="10" fill="none" fill-rule="evenodd"/><path d="M823.98 1699.5 823.98 2018.39" stroke="#FFFFFF" stroke-width="1.33386" stroke-linejoin="round" stroke-miterlimit="10" fill="none" fill-rule="evenodd"/><path d="M89.7794 1753.09 1191.48 1753.09" stroke="#FFFFFF" stroke-width="4.00157" stroke-linejoin="round" stroke-miterlimit="10" fill="none" fill-rule="evenodd"/><path d="M89.7794 1806.02 824.647 1806.02" stroke="#FFFFFF" stroke-width="1.33386" stroke-linejoin="round" stroke-miterlimit="10" fill="none" fill-rule="evenodd"/><path d="M89.7794 1858.95 824.647 1858.95" stroke="#FFFFFF" stroke-width="1.33386" stroke-linejoin="round" stroke-miterlimit="10" fill="none" fill-rule="evenodd"/><path d="M89.7794 1911.87 824.647 1911.87" stroke="#FFFFFF" stroke-width="1.33386" stroke-linejoin="round" stroke-miterlimit="10" fill="none" fill-rule="evenodd"/><path d="M89.7794 1964.8 824.647 1964.8" stroke="#FFFFFF" stroke-width="1.33386" stroke-linejoin="round" stroke-miterlimit="10" fill="none" fill-rule="evenodd"/><path d="M90.4463 1699.5 90.4463 2018.39" stroke="#FFFFFF" stroke-width="1.33386" stroke-linejoin="round" stroke-miterlimit="10" fill="none" fill-rule="evenodd"/><path d="M1190.81 1699.5 1190.81 2018.39" stroke="#FFFFFF" stroke-width="1.33386" stroke-linejoin="round" stroke-miterlimit="10" fill="none" fill-rule="evenodd"/><path d="M89.7794 1700.17 1191.48 1700.17" stroke="#FFFFFF" stroke-width="1.33386" stroke-linejoin="round" stroke-miterlimit="10" fill="none" fill-rule="evenodd"/><path d="M89.7794 2017.73 1191.48 2017.73" stroke="#FFFFFF" stroke-width="1.33386" stroke-linejoin="round" stroke-miterlimit="10" fill="none" fill-rule="evenodd"/><text fill="#FFFFFF" font-family="Aptos,Aptos_MSFontService,sans-serif" font-weight="700" font-size="43" transform="matrix(1 0 0 0.999853 934.479 1741)">GRADO</text><text fill="#FFFFFF" font-family="Aptos,Aptos_MSFontService,sans-serif" font-weight="700" font-size="43" transform="matrix(1 0 0 0.999853 404.537 1741)">NOMBRE</text><g><text fill="#FFFFFF" font-family="Aptos,Aptos_MSFontService,sans-serif" font-weight="700" font-size="43" transform="matrix(1 0 0 0.999853 101.962 1741)">N</text></g><g><text fill="#FFFFFF" font-family="Aptos,Aptos_MSFontService,sans-serif" font-weight="700" font-size="43" transform="matrix(1 0 0 0.999853 132.808 1741)">°</text></g><text font-family="Aptos,Aptos_MSFontService,sans-serif" font-weight="400" font-size="43" transform="matrix(1 0 0 0.999853 985.656 1925)">4T</text><g><text font-family="Aptos,Aptos_MSFontService,sans-serif" font-weight="400" font-size="43" transform="matrix(1 0 0 0.999853 167.699 1794)">Santiago blandon</text></g><g><text fill="#FFFFFF" font-family="Aptos,Aptos_MSFontService,sans-serif" font-weight="700" font-size="43" transform="matrix(1 0 0 0.999853 114.05 1794)">1</text></g><g><text font-family="Aptos,Aptos_MSFontService,sans-serif" font-weight="400" font-size="43" transform="matrix(1 0 0 0.999853 167.699 1847)">Dominic gonzalez</text></g><g><text fill="#FFFFFF" font-family="Aptos,Aptos_MSFontService,sans-serif" font-weight="700" font-size="43" transform="matrix(1 0 0 0.999853 114.05 1847)">2</text></g><g><text font-family="Aptos,Aptos_MSFontService,sans-serif" font-weight="400" font-size="43" transform="matrix(1 0 0 0.999853 167.699 1900)">Ithan ríos</text></g><g><text fill="#FFFFFF" font-family="Aptos,Aptos_MSFontService,sans-serif" font-weight="700" font-size="43" transform="matrix(1 0 0 0.999853 114.05 1900)">3</text></g><g><text font-family="Aptos,Aptos_MSFontService,sans-serif" font-weight="400" font-size="43" transform="matrix(1 0 0 0.999853 167.699 1953)">David camelo</text></g><g><text fill="#FFFFFF" font-family="Aptos,Aptos_MSFontService,sans-serif" font-weight="700" font-size="43" transform="matrix(1 0 0 0.999853 114.05 1953)">4</text></g><g><text font-family="Aptos,Aptos_MSFontService,sans-serif" font-weight="400" font-size="43" transform="matrix(1 0 0 0.999853 167.699 2006)">Amaury quique</text></g><g><text fill="#FFFFFF" font-family="Aptos,Aptos_MSFontService,sans-serif" font-weight="700" font-size="43" transform="matrix(1 0 0 0.999853 114.05 2006)">5</text></g><path d="M709.06 1668.61 708.388 1673.5 712.587 1673.5 713.217 1668.61ZM642.493 1661.37 642.493 1670.06 647.133 1670.06C648.505 1670.06 649.614 1669.7 650.461 1668.97 651.308 1668.24 651.731 1667.16 651.731 1665.73 651.731 1664.25 651.297 1663.15 650.429 1662.44 649.562 1661.72 648.463 1661.37 647.133 1661.37ZM675.065 1661.14C673.217 1661.14 671.73 1661.57 670.603 1662.44 669.476 1663.31 668.657 1664.47 668.146 1665.92 667.635 1667.38 667.38 1668.99 667.38 1670.75 667.38 1672.49 667.635 1674.08 668.146 1675.54 668.657 1676.99 669.476 1678.16 670.603 1679.02 671.73 1679.89 673.217 1680.32 675.065 1680.32 676.898 1680.32 678.375 1679.89 679.495 1679.02 680.615 1678.16 681.433 1676.99 681.951 1675.54 682.469 1674.08 682.728 1672.49 682.728 1670.75 682.728 1668.99 682.469 1667.38 681.951 1665.92 681.433 1664.47 680.615 1663.31 679.495 1662.44 678.375 1661.57 676.898 1661.14 675.065 1661.14ZM575.065 1661.14C573.217 1661.14 571.73 1661.57 570.603 1662.44 569.476 1663.31 568.657 1664.47 568.146 1665.92 567.635 1667.38 567.38 1668.99 567.38 1670.75 567.38 1672.49 567.635 1674.08 568.146 1675.54 568.657 1676.99 569.476 1678.16 570.603 1679.02 571.73 1679.89 573.217 1680.32 575.065 1680.32 576.898 1680.32 578.375 1679.89 579.495 1679.02 580.615 1678.16 581.433 1676.99 581.951 1675.54 582.469 1674.08 582.728 1672.49 582.728 1670.75 582.728 1668.99 582.469 1667.38 581.951 1665.92 581.433 1664.47 580.615 1663.31 579.495 1662.44 578.375 1661.57 576.898 1661.14 575.065 1661.14ZM725.845 1657.36 741.655 1657.36 741.655 1662.1 730.359 1662.1 729.876 1668.34C730.338 1667.86 730.971 1667.45 731.776 1667.11 732.581 1666.77 733.578 1666.6 734.768 1666.6 736.364 1666.6 737.848 1666.9 739.219 1667.5 740.591 1668.1 741.697 1669.06 742.537 1670.37 743.377 1671.69 743.797 1673.43 743.797 1675.58 743.797 1677.74 743.356 1679.53 742.474 1680.95 741.592 1682.38 740.399 1683.45 738.894 1684.17 737.389 1684.88 735.692 1685.24 733.802 1685.24 731.913 1685.24 730.198 1684.93 728.658 1684.31 727.119 1683.7 725.894 1682.76 724.984 1681.49 724.074 1680.22 723.619 1678.63 723.619 1676.71L729.183 1676.71C729.183 1677.97 729.617 1678.95 730.485 1679.64 731.353 1680.34 732.459 1680.68 733.802 1680.68 735.076 1680.68 736.109 1680.28 736.899 1679.46 737.69 1678.65 738.086 1677.36 738.086 1675.58 738.086 1673.96 737.669 1672.78 736.836 1672.06 736.004 1671.34 734.929 1670.98 733.613 1670.98 732.592 1670.98 731.769 1671.14 731.146 1671.46 730.524 1671.77 730.023 1672.16 729.645 1672.62L724.648 1672.62ZM706.813 1657.36 710.613 1657.36 709.543 1665.15 713.721 1665.15 714.792 1657.36 718.634 1657.36 717.542 1665.15 721.489 1665.15 721.489 1668.61 717.038 1668.61 716.387 1673.5 720.293 1673.5 720.293 1676.99 715.904 1676.99 714.813 1684.86 710.991 1684.86 712.062 1676.99 707.884 1676.99 706.792 1684.86 702.95 1684.86 704.042 1676.99 700.031 1676.99 700.031 1673.5 704.546 1673.5 705.217 1668.61 701.186 1668.61 701.186 1665.15 705.721 1665.15ZM636.593 1656.6 647.679 1656.6C649.541 1656.6 651.238 1656.93 652.77 1657.59 654.303 1658.25 655.524 1659.25 656.434 1660.59 657.344 1661.93 657.799 1663.65 657.799 1665.73 657.799 1667.79 657.344 1669.49 656.434 1670.84 655.524 1672.18 654.303 1673.18 652.77 1673.83 651.238 1674.48 649.541 1674.8 647.679 1674.8L642.493 1674.8 642.493 1684.86 636.593 1684.86ZM623.593 1656.6 629.493 1656.6 629.493 1684.86 623.593 1684.86ZM594.257 1656.6 600.304 1656.6 600.304 1673.48C600.304 1675.8 600.78 1677.53 601.732 1678.67 602.683 1679.8 604.181 1680.37 606.225 1680.37 608.282 1680.37 609.77 1679.8 610.686 1678.67 611.603 1677.53 612.062 1675.8 612.062 1673.48L612.062 1656.6 618.13 1656.6 618.13 1673.63C618.13 1676.12 617.717 1678.23 616.891 1679.97 616.065 1681.7 614.774 1683.02 613.017 1683.9 611.26 1684.79 608.982 1685.24 606.183 1685.24 603.411 1685.24 601.144 1684.79 599.38 1683.9 597.616 1683.02 596.322 1681.7 595.496 1679.97 594.67 1678.23 594.257 1676.12 594.257 1673.63ZM538.593 1656.6 557.552 1656.6 557.552 1661.49 544.493 1661.49 544.493 1668.06 556.335 1668.06 556.335 1672.79 544.493 1672.79 544.493 1679.97 557.552 1679.97 557.552 1684.86 538.593 1684.86ZM675.065 1656.22C678.018 1656.22 680.517 1656.82 682.56 1658.02 684.604 1659.22 686.158 1660.9 687.221 1663.08 688.285 1665.26 688.817 1667.81 688.817 1670.75 688.817 1673.69 688.285 1676.24 687.221 1678.4 686.158 1680.57 684.604 1682.25 682.56 1683.44 680.517 1684.64 678.018 1685.24 675.065 1685.24 672.111 1685.24 669.609 1684.64 667.559 1683.44 665.508 1682.25 663.951 1680.57 662.887 1678.4 661.823 1676.24 661.291 1673.69 661.291 1670.75 661.291 1667.81 661.823 1665.26 662.887 1663.08 663.951 1660.9 665.508 1659.22 667.559 1658.02 669.609 1656.82 672.111 1656.22 675.065 1656.22ZM575.065 1656.22C578.018 1656.22 580.517 1656.82 582.56 1658.02 584.604 1659.22 586.158 1660.9 587.221 1663.08 588.285 1665.26 588.817 1667.81 588.817 1670.75 588.817 1673.69 588.285 1676.24 587.221 1678.4 586.158 1680.57 584.604 1682.25 582.56 1683.44 582.049 1683.74 581.51 1684 580.942 1684.23L579.746 1684.6 580.765 1685.61C581.346 1686.01 582.109 1686.3 583.054 1686.49 583.998 1686.68 585.22 1686.77 586.717 1686.77L587.83 1686.77 587.83 1691.83 586.424 1691.83C584.394 1691.83 582.707 1691.64 581.363 1691.25 580.02 1690.87 578.917 1690.33 578.057 1689.65 577.196 1688.96 576.478 1688.16 575.904 1687.24L574.814 1685.22 572.934 1685.12C570.888 1684.9 569.096 1684.34 567.559 1683.44 565.508 1682.25 563.951 1680.57 562.887 1678.4 561.823 1676.24 561.291 1673.69 561.291 1670.75 561.291 1667.81 561.823 1665.26 562.887 1663.08 563.951 1660.9 565.508 1659.22 567.559 1658.02 569.609 1656.82 572.111 1656.22 575.065 1656.22Z" fill="url(#fill4)" fill-rule="evenodd"/><text fill="#000000" fill-opacity="0" font-family="Arial,Arial_MSFontService,sans-serif" font-size="35.6041" x="538.593" y="1687.38">EQUIPO #5</text></g></svg>