<svg width="1278" height="2049" xmlns="http://www.w3.org/2000/svg" xmlns:xlink="http://www.w3.org/1999/xlink" overflow="hidden"><defs><linearGradient x1="628.883" y1="1596.5" x2="652.286" y2="1693.25" gradientUnits="userSpaceOnUse" spreadMethod="reflect" id="fill0"><stop offset="0" stop-color="#002C3F"/><stop offset="0.5" stop-color="#00445F"/><stop offset="1" stop-color="#005272"/></linearGradient><linearGradient x1="628.926" y1="1211.09" x2="652.329" y2="1307.84" gradientUnits="userSpaceOnUse" spreadMethod="reflect" id="fill1"><stop offset="0" stop-color="#002C3F"/><stop offset="0.5" stop-color="#00445F"/><stop offset="1" stop-color="#005272"/></linearGradient><linearGradient x1="628.926" y1="812.879" x2="652.329" y2="909.63" gradientUnits="userSpaceOnUse" spreadMethod="reflect" id="fill2"><stop offset="0" stop-color="#002C3F"/><stop offset="0.5" stop-color="#00445F"/><stop offset="1" stop-color="#005272"/></linearGradient><linearGradient x1="627.298" y1="416.11" x2="650.701" y2="512.861" gradientUnits="userSpaceOnUse" spreadMethod="reflect" id="fill3"><stop offset="0" stop-color="#002C3F"/><stop offset="0.5" stop-color="#00445F"/><stop offset="1" stop-color="#005272"/></linearGradient><linearGradient x1="628.883" y1="22.6099" x2="652.286" y2="119.361" gradientUnits="userSpaceOnUse" spreadMethod="reflect" id="fill4"><stop offset="0" stop-color="#002C3F"/><stop offset="0.5" stop-color="#00445F"/><stop offset="1" stop-color="#005272"/></linearGradient></defs><g><rect x="0" y="0" width="1278" height="2048.7" fill="#FFFFFF"/><path d="M90.4464 103.693 160.497 103.693 160.497 156.619 90.4464 156.619Z" fill="#156082" fill-rule="evenodd"/><path d="M160.497 103.693 823.98 103.693 823.98 156.619 160.497 156.619Z" fill="#156082" fill-rule="evenodd"/><path d="M823.98 103.693 1190.81 103.693 1190.81 156.619 823.98 156.619Z" fill="#156082" fill-rule="evenodd"/><path d="M90.4464 156.619 160.497 156.619 160.497 209.545 90.4464 209.545Z" fill="#156082" fill-rule="evenodd"/><path d="M160.497 156.619 823.98 156.619 823.98 209.545 160.497 209.545Z" fill="#CCD2D8" fill-rule="evenodd"/><path d="M823.98 156.619 1190.81 156.619 1190.81 421.25 823.98 421.25Z" fill="#CCD2D8" fill-rule="evenodd"/><path d="M90.4464 209.545 160.497 209.545 160.497 262.471 90.4464 262.471Z" fill="#156082" fill-rule="evenodd"/><path d="M160.497 209.545 823.98 209.545 823.98 262.471 160.497 262.471Z" fill="#E7EAED" fill-rule="evenodd"/><path d="M90.4464 262.471 160.497 262.471 160.497 315.398 90.4464 315.398Z" fill="#156082" fill-rule="evenodd"/><path d="M160.497 262.471 823.98 262.471 823.98 315.398 160.497 315.398Z" fill="#CCD2D8" fill-rule="evenodd"/><path d="M90.4464 315.398 160.497 315.398 160.497 368.324 90.4464 368.324Z" fill="#156082" fill-rule="evenodd"/><path d="M160.497 315.398 823.98 315.398 823.98 368.324 160.497 368.324Z" fill="#E7EAED" fill-rule="evenodd"/><path d="M90.4464 368.324 160.497 368.324 160.497 421.25 90.4464 421.25Z" fill="#156082" fill-rule="evenodd"/><path d="M160.497 368.324 823.98 368.324 823.98 421.25 160.497 421.25Z" fill="#CCD2D8" fill-rule="evenodd"/><path d="M160.497 103.026 160.497 421.917" stroke="#FFFFFF" stroke-width="1.33386" stroke-linejoin="round" stroke-miterlimit="10" fill="none" fill-rule="evenodd"/><path d="M823.98 103.026 823.98 421.917" stroke="#FFFFFF" stroke-width="1.33386" stroke-linejoin="round" stroke-miterlimit="10" fill="none" fill-rule="evenodd"/><path d="M89.7795 156.619 1191.48 156.619" stroke="#FFFFFF" stroke-width="4.00157" stroke-linejoin="round" stroke-miterlimit="10" fill="none" fill-rule="evenodd"/><path d="M89.7795 209.545 824.647 209.545" stroke="#FFFFFF" stroke-width="1.33386" stroke-linejoin="round" stroke-miterlimit="10" fill="none" fill-rule="evenodd"/><path d="M89.7795 262.471 824.647 262.471" stroke="#FFFFFF" stroke-width="1.33386" stroke-linejoin="round" stroke-miterlimit="10" fill="none" fill-rule="evenodd"/><path d="M89.7795 315.398 824.647 315.398" stroke="#FFFFFF" stroke-width="1.33386" stroke-linejoin="round" stroke-miterlimit="10" fill="none" fill-rule="evenodd"/><path d="M89.7795 368.324 824.647 368.324" stroke="#FFFFFF" stroke-width="1.33386" stroke-linejoin="round" stroke-miterlimit="10" fill="none" fill-rule="evenodd"/><path d="M90.4464 103.026 90.4464 421.917" stroke="#FFFFFF" stroke-width="1.33386" stroke-linejoin="round" stroke-miterlimit="10" fill="none" fill-rule="evenodd"/><path d="M1190.81 103.026 1190.81 421.917" stroke="#FFFFFF" stroke-width="1.33386" stroke-linejoin="round" stroke-miterlimit="10" fill="none" fill-rule="evenodd"/><path d="M89.7795 103.693 1191.48 103.693" stroke="#FFFFFF" stroke-width="1.33386" stroke-linejoin="round" stroke-miterlimit="10" fill="none" fill-rule="evenodd"/><path d="M89.7795 421.25 1191.48 421.25" stroke="#FFFFFF" stroke-width="1.33386" stroke-linejoin="round" stroke-miterlimit="10" fill="none" fill-rule="evenodd"/><text fill="#FFFFFF" font-family="Aptos,Aptos_MSFontService,sans-serif" font-weight="700" font-size="43" transform="matrix(1 0 0 0.999853 934.479 145)">GRADO</text><text fill="#FFFFFF" font-family="Aptos,Aptos_MSFontService,sans-serif" font-weight="700" font-size="43" transform="matrix(1 0 0 0.999853 404.537 145)">NOMBRE</text><g><text fill="#FFFFFF" font-family="Aptos,Aptos_MSFontService,sans-serif" font-weight="700" font-size="43" transform="matrix(1 0 0 0.999853 101.962 145)">N</text></g><g><text fill="#FFFFFF" font-family="Aptos,Aptos_MSFontService,sans-serif" font-weight="700" font-size="43" transform="matrix(1 0 0 0.999853 132.808 145)">°</text></g><text font-family="Aptos,Aptos_MSFontService,sans-serif" font-weight="400" font-size="43" transform="matrix(1 0 0 0.999853 979.074 329)">4M</text><g><text font-family="Aptos,Aptos_MSFontService,sans-serif" font-weight="400" font-size="43" transform="matrix(1 0 0 0.999853 167.7 198)">Johan posada</text></g><g><text fill="#FFFFFF" font-family="Aptos,Aptos_MSFontService,sans-serif" font-weight="700" font-size="43" transform="matrix(1 0 0 0.999853 114.05 198)">1</text></g><g><text font-family="Aptos,Aptos_MSFontService,sans-serif" font-weight="400" font-size="43" transform="matrix(1 0 0 0.999853 167.7 251)">Samuel forero</text></g><g><text fill="#FFFFFF" font-family="Aptos,Aptos_MSFontService,sans-serif" font-weight="700" font-size="43" transform="matrix(1 0 0 0.999853 114.05 251)">2</text></g><g><text font-family="Aptos,Aptos_MSFontService,sans-serif" font-weight="400" font-size="43" transform="matrix(1 0 0 0.999853 167.7 303)">Mathew ospina</text></g><g><text fill="#FFFFFF" font-family="Aptos,Aptos_MSFontService,sans-serif" font-weight="700" font-size="43" transform="matrix(1 0 0 0.999853 114.05 303)">3</text></g><g><text font-family="Aptos,Aptos_MSFontService,sans-serif" font-weight="400" font-size="43" transform="matrix(1 0 0 0.999853 167.7 356)">Dominick dominguez</text></g><g><text fill="#FFFFFF" font-family="Aptos,Aptos_MSFontService,sans-serif" font-weight="700" font-size="43" transform="matrix(1 0 0 0.999853 114.05 356)">4</text></g><g><text font-family="Aptos,Aptos_MSFontService,sans-serif" font-weight="400" font-size="43" transform="matrix(1 0 0 0.999853 167.7 409)">Diego cardozo</text></g><g><text fill="#FFFFFF" font-family="Aptos,Aptos_MSFontService,sans-serif" font-weight="700" font-size="43" transform="matrix(1 0 0 0.999853 114.05 409)">5</text></g><path d="M90.4463 493.018 160.497 493.018 160.497 545.944 90.4463 545.944Z" fill="#156082" fill-rule="evenodd"/><path d="M160.497 493.018 823.98 493.018 823.98 545.944 160.497 545.944Z" fill="#156082" fill-rule="evenodd"/><path d="M823.98 493.018 1190.81 493.018 1190.81 545.944 823.98 545.944Z" fill="#156082" fill-rule="evenodd"/><path d="M90.4463 545.944 160.497 545.944 160.497 598.87 90.4463 598.87Z" fill="#156082" fill-rule="evenodd"/><path d="M160.497 545.944 823.98 545.944 823.98 598.87 160.497 598.87Z" fill="#CCD2D8" fill-rule="evenodd"/><path d="M823.98 545.944 1190.81 545.944 1190.81 810.575 823.98 810.575Z" fill="#CCD2D8" fill-rule="evenodd"/><path d="M90.4463 598.87 160.497 598.87 160.497 651.796 90.4463 651.796Z" fill="#156082" fill-rule="evenodd"/><path d="M160.497 598.87 823.98 598.87 823.98 651.796 160.497 651.796Z" fill="#E7EAED" fill-rule="evenodd"/><path d="M90.4463 651.796 160.497 651.796 160.497 704.723 90.4463 704.723Z" fill="#156082" fill-rule="evenodd"/><path d="M160.497 651.796 823.98 651.796 823.98 704.723 160.497 704.723Z" fill="#CCD2D8" fill-rule="evenodd"/><path d="M90.4463 704.723 160.497 704.723 160.497 757.649 90.4463 757.649Z" fill="#156082" fill-rule="evenodd"/><path d="M160.497 704.723 823.98 704.723 823.98 757.649 160.497 757.649Z" fill="#E7EAED" fill-rule="evenodd"/><path d="M90.4463 757.649 160.497 757.649 160.497 810.575 90.4463 810.575Z" fill="#156082" fill-rule="evenodd"/><path d="M160.497 757.649 823.98 757.649 823.98 810.575 160.497 810.575Z" fill="#CCD2D8" fill-rule="evenodd"/><path d="M160.497 492.351 160.497 811.242" stroke="#FFFFFF" stroke-width="1.33386" stroke-linejoin="round" stroke-miterlimit="10" fill="none" fill-rule="evenodd"/><path d="M823.98 492.351 823.98 811.242" stroke="#FFFFFF" stroke-width="1.33386" stroke-linejoin="round" stroke-miterlimit="10" fill="none" fill-rule="evenodd"/><path d="M89.7794 545.944 1191.48 545.944" stroke="#FFFFFF" stroke-width="4.00157" stroke-linejoin="round" stroke-miterlimit="10" fill="none" fill-rule="evenodd"/><path d="M89.7794 598.87 824.647 598.87" stroke="#FFFFFF" stroke-width="1.33386" stroke-linejoin="round" stroke-miterlimit="10" fill="none" fill-rule="evenodd"/><path d="M89.7794 651.796 824.647 651.796" stroke="#FFFFFF" stroke-width="1.33386" stroke-linejoin="round" stroke-miterlimit="10" fill="none" fill-rule="evenodd"/><path d="M89.7794 704.723 824.647 704.723" stroke="#FFFFFF" stroke-width="1.33386" stroke-linejoin="round" stroke-miterlimit="10" fill="none" fill-rule="evenodd"/><path d="M89.7794 757.649 824.647 757.649" stroke="#FFFFFF" stroke-width="1.33386" stroke-linejoin="round" stroke-miterlimit="10" fill="none" fill-rule="evenodd"/><path d="M90.4463 492.351 90.4463 811.242" stroke="#FFFFFF" stroke-width="1.33386" stroke-linejoin="round" stroke-miterlimit="10" fill="none" fill-rule="evenodd"/><path d="M1190.81 492.351 1190.81 811.242" stroke="#FFFFFF" stroke-width="1.33386" stroke-linejoin="round" stroke-miterlimit="10" fill="none" fill-rule="evenodd"/><path d="M89.7794 493.018 1191.48 493.018" stroke="#FFFFFF" stroke-width="1.33386" stroke-linejoin="round" stroke-miterlimit="10" fill="none" fill-rule="evenodd"/><path d="M89.7794 810.575 1191.48 810.575" stroke="#FFFFFF" stroke-width="1.33386" stroke-linejoin="round" stroke-miterlimit="10" fill="none" fill-rule="evenodd"/><text fill="#FFFFFF" font-family="Aptos,Aptos_MSFontService,sans-serif" font-weight="700" font-size="43" transform="matrix(1 0 0 0.999853 934.479 534)">GRADO</text><text fill="#FFFFFF" font-family="Aptos,Aptos_MSFontService,sans-serif" font-weight="700" font-size="43" transform="matrix(1 0 0 0.999853 404.537 534)">NOMBRE</text><g><text fill="#FFFFFF" font-family="Aptos,Aptos_MSFontService,sans-serif" font-weight="700" font-size="43" transform="matrix(1 0 0 0.999853 101.962 534)">N</text></g><g><text fill="#FFFFFF" font-family="Aptos,Aptos_MSFontService,sans-serif" font-weight="700" font-size="43" transform="matrix(1 0 0 0.999853 132.808 534)">°</text></g><text font-family="Aptos,Aptos_MSFontService,sans-serif" font-weight="400" font-size="43" transform="matrix(1 0 0 0.999853 985.656 718)">4T</text><g><text font-family="Aptos,Aptos_MSFontService,sans-serif" font-weight="400" font-size="43" transform="matrix(1 0 0 0.999853 167.699 587)">Santiago blandon</text></g><g><text fill="#FFFFFF" font-family="Aptos,Aptos_MSFontService,sans-serif" font-weight="700" font-size="43" transform="matrix(1 0 0 0.999853 114.05 587)">1</text></g><g><text font-family="Aptos,Aptos_MSFontService,sans-serif" font-weight="400" font-size="43" transform="matrix(1 0 0 0.999853 167.699 640)">Dominic gonzalez</text></g><g><text fill="#FFFFFF" font-family="Aptos,Aptos_MSFontService,sans-serif" font-weight="700" font-size="43" transform="matrix(1 0 0 0.999853 114.05 640)">2</text></g><g><text font-family="Aptos,Aptos_MSFontService,sans-serif" font-weight="400" font-size="43" transform="matrix(1 0 0 0.999853 167.699 693)">Ithan ríos</text></g><g><text fill="#FFFFFF" font-family="Aptos,Aptos_MSFontService,sans-serif" font-weight="700" font-size="43" transform="matrix(1 0 0 0.999853 114.05 693)">3</text></g><g><text font-family="Aptos,Aptos_MSFontService,sans-serif" font-weight="400" font-size="43" transform="matrix(1 0 0 0.999853 167.699 746)">David camelo</text></g><g><text fill="#FFFFFF" font-family="Aptos,Aptos_MSFontService,sans-serif" font-weight="700" font-size="43" transform="matrix(1 0 0 0.999853 114.05 746)">4</text></g><g><text font-family="Aptos,Aptos_MSFontService,sans-serif" font-weight="400" font-size="43" transform="matrix(1 0 0 0.999853 167.699 799)">Amaury quique</text></g><g><text fill="#FFFFFF" font-family="Aptos,Aptos_MSFontService,sans-serif" font-weight="700" font-size="43" transform="matrix(1 0 0 0.999853 114.05 799)">5</text></g><path d="M90.4463 891.29 160.497 891.29 160.497 944.216 90.4463 944.216Z" fill="#156082" fill-rule="evenodd"/><path d="M160.497 891.29 823.98 891.29 823.98 944.216 160.497 944.216Z" fill="#156082" fill-rule="evenodd"/><path d="M823.98 891.29 1190.81 891.29 1190.81 944.216 823.98 944.216Z" fill="#156082" fill-rule="evenodd"/><path d="M90.4463 944.216 160.497 944.216 160.497 997.143 90.4463 997.143Z" fill="#156082" fill-rule="evenodd"/><path d="M160.497 944.216 823.98 944.216 823.98 997.143 160.497 997.143Z" fill="#CCD2D8" fill-rule="evenodd"/><path d="M823.98 944.216 1190.81 944.216 1190.81 1208.85 823.98 1208.85Z" fill="#CCD2D8" fill-rule="evenodd"/><path d="M90.4463 997.143 160.497 997.143 160.497 1050.07 90.4463 1050.07Z" fill="#156082" fill-rule="evenodd"/><path d="M160.497 997.143 823.98 997.143 823.98 1050.07 160.497 1050.07Z" fill="#E7EAED" fill-rule="evenodd"/><path d="M90.4463 1050.07 160.497 1050.07 160.497 1103 90.4463 1103Z" fill="#156082" fill-rule="evenodd"/><path d="M160.497 1050.07 823.98 1050.07 823.98 1103 160.497 1103Z" fill="#CCD2D8" fill-rule="evenodd"/><path d="M90.4463 1103 160.497 1103 160.497 1155.92 90.4463 1155.92Z" fill="#156082" fill-rule="evenodd"/><path d="M160.497 1103 823.98 1103 823.98 1155.92 160.497 1155.92Z" fill="#E7EAED" fill-rule="evenodd"/><path d="M90.4463 1155.92 160.497 1155.92 160.497 1208.85 90.4463 1208.85Z" fill="#156082" fill-rule="evenodd"/><path d="M160.497 1155.92 823.98 1155.92 823.98 1208.85 160.497 1208.85Z" fill="#CCD2D8" fill-rule="evenodd"/><path d="M160.497 890.623 160.497 1209.51" stroke="#FFFFFF" stroke-width="1.33386" stroke-linejoin="round" stroke-miterlimit="10" fill="none" fill-rule="evenodd"/><path d="M823.98 890.623 823.98 1209.51" stroke="#FFFFFF" stroke-width="1.33386" stroke-linejoin="round" stroke-miterlimit="10" fill="none" fill-rule="evenodd"/><path d="M89.7794 944.216 1191.48 944.216" stroke="#FFFFFF" stroke-width="4.00157" stroke-linejoin="round" stroke-miterlimit="10" fill="none" fill-rule="evenodd"/><path d="M89.7794 997.143 824.647 997.143" stroke="#FFFFFF" stroke-width="1.33386" stroke-linejoin="round" stroke-miterlimit="10" fill="none" fill-rule="evenodd"/><path d="M89.7794 1050.07 824.647 1050.07" stroke="#FFFFFF" stroke-width="1.33386" stroke-linejoin="round" stroke-miterlimit="10" fill="none" fill-rule="evenodd"/><path d="M89.7794 1103 824.647 1103" stroke="#FFFFFF" stroke-width="1.33386" stroke-linejoin="round" stroke-miterlimit="10" fill="none" fill-rule="evenodd"/><path d="M89.7794 1155.92 824.647 1155.92" stroke="#FFFFFF" stroke-width="1.33386" stroke-linejoin="round" stroke-miterlimit="10" fill="none" fill-rule="evenodd"/><path d="M90.4463 890.623 90.4463 1209.51" stroke="#FFFFFF" stroke-width="1.33386" stroke-linejoin="round" stroke-miterlimit="10" fill="none" fill-rule="evenodd"/><path d="M1190.81 890.623 1190.81 1209.51" stroke="#FFFFFF" stroke-width="1.33386" stroke-linejoin="round" stroke-miterlimit="10" fill="none" fill-rule="evenodd"/><path d="M89.7794 891.29 1191.48 891.29" stroke="#FFFFFF" stroke-width="1.33386" stroke-linejoin="round" stroke-miterlimit="10" fill="none" fill-rule="evenodd"/><path d="M89.7794 1208.85 1191.48 1208.85" stroke="#FFFFFF" stroke-width="1.33386" stroke-linejoin="round" stroke-miterlimit="10" fill="none" fill-rule="evenodd"/><text fill="#FFFFFF" font-family="Aptos,Aptos_MSFontService,sans-serif" font-weight="700" font-size="43" transform="matrix(1 0 0 0.999853 934.479 932)">GRADO</text><text fill="#FFFFFF" font-family="Aptos,Aptos_MSFontService,sans-serif" font-weight="700" font-size="43" transform="matrix(1 0 0 0.999853 404.537 932)">NOMBRE</text><g><text fill="#FFFFFF" font-family="Aptos,Aptos_MSFontService,sans-serif" font-weight="700" font-size="43" transform="matrix(1 0 0 0.999853 101.962 932)">N</text></g><g><text fill="#FFFFFF" font-family="Aptos,Aptos_MSFontService,sans-serif" font-weight="700" font-size="43" transform="matrix(1 0 0 0.999853 132.808 932)">°</text></g><text font-family="Aptos,Aptos_MSFontService,sans-serif" font-weight="400" font-size="43" transform="matrix(1 0 0 0.999853 968.163 1116)">4T</text><text font-family="Aptos,Aptos_MSFontService,sans-serif" font-weight="400" font-size="43" transform="matrix(1 0 0 0.999853 1009.16 1116)">-</text><text font-family="Aptos,Aptos_MSFontService,sans-serif" font-weight="400" font-size="43" transform="matrix(1 0 0 0.999853 1023.66 1116)">2</text><g><text font-family="Aptos,Aptos_MSFontService,sans-serif" font-weight="400" font-size="43" transform="matrix(1 0 0 0.999853 167.699 985)">Kenny peña</text></g><g><text fill="#FFFFFF" font-family="Aptos,Aptos_MSFontService,sans-serif" font-weight="700" font-size="43" transform="matrix(1 0 0 0.999853 114.05 985)">1</text></g><g><text font-family="Aptos,Aptos_MSFontService,sans-serif" font-weight="400" font-size="43" transform="matrix(1 0 0 0.999853 167.699 1038)">Nicolas bedoya</text></g><g><text fill="#FFFFFF" font-family="Aptos,Aptos_MSFontService,sans-serif" font-weight="700" font-size="43" transform="matrix(1 0 0 0.999853 114.05 1038)">2</text></g><g><text font-family="Aptos,Aptos_MSFontService,sans-serif" font-weight="400" font-size="43" transform="matrix(1 0 0 0.999853 167.699 1091)">Dilan Rodríguez</text></g><g><text fill="#FFFFFF" font-family="Aptos,Aptos_MSFontService,sans-serif" font-weight="700" font-size="43" transform="matrix(1 0 0 0.999853 114.05 1091)">3</text></g><g><text font-family="Aptos,Aptos_MSFontService,sans-serif" font-weight="400" font-size="43" transform="matrix(1 0 0 0.999853 167.699 1144)">Santiago Ochoa 3T</text></g><g><text fill="#FFFFFF" font-family="Aptos,Aptos_MSFontService,sans-serif" font-weight="700" font-size="43" transform="matrix(1 0 0 0.999853 114.05 1144)">4</text></g><g><text font-family="Aptos,Aptos_MSFontService,sans-serif" font-weight="400" font-size="43" transform="matrix(1 0 0 0.999853 167.699 1197)">Esteba cobo 3T</text></g><g><text fill="#FFFFFF" font-family="Aptos,Aptos_MSFontService,sans-serif" font-weight="700" font-size="43" transform="matrix(1 0 0 0.999853 114.05 1197)">5</text></g><path d="M90.4462 1287.89 160.496 1287.89 160.496 1340.82 90.4462 1340.82Z" fill="#156082" fill-rule="evenodd"/><path d="M160.496 1287.89 823.98 1287.89 823.98 1340.82 160.496 1340.82Z" fill="#156082" fill-rule="evenodd"/><path d="M823.98 1287.89 1190.81 1287.89 1190.81 1340.82 823.98 1340.82Z" fill="#156082" fill-rule="evenodd"/><path d="M90.4462 1340.82 160.496 1340.82 160.496 1393.75 90.4462 1393.75Z" fill="#156082" fill-rule="evenodd"/><path d="M160.496 1340.82 823.98 1340.82 823.98 1393.75 160.496 1393.75Z" fill="#CCD2D8" fill-rule="evenodd"/><path d="M823.98 1340.82 1190.81 1340.82 1190.81 1605.45 823.98 1605.45Z" fill="#CCD2D8" fill-rule="evenodd"/><path d="M90.4462 1393.75 160.496 1393.75 160.496 1446.67 90.4462 1446.67Z" fill="#156082" fill-rule="evenodd"/><path d="M160.496 1393.75 823.98 1393.75 823.98 1446.67 160.496 1446.67Z" fill="#E7EAED" fill-rule="evenodd"/><path d="M90.4462 1446.67 160.496 1446.67 160.496 1499.6 90.4462 1499.6Z" fill="#156082" fill-rule="evenodd"/><path d="M160.496 1446.67 823.98 1446.67 823.98 1499.6 160.496 1499.6Z" fill="#CCD2D8" fill-rule="evenodd"/><path d="M90.4462 1499.6 160.496 1499.6 160.496 1552.53 90.4462 1552.53Z" fill="#156082" fill-rule="evenodd"/><path d="M160.496 1499.6 823.98 1499.6 823.98 1552.53 160.496 1552.53Z" fill="#E7EAED" fill-rule="evenodd"/><path d="M90.4462 1552.53 160.496 1552.53 160.496 1605.45 90.4462 1605.45Z" fill="#156082" fill-rule="evenodd"/><path d="M160.496 1552.53 823.98 1552.53 823.98 1605.45 160.496 1605.45Z" fill="#CCD2D8" fill-rule="evenodd"/><path d="M160.496 1287.23 160.496 1606.12" stroke="#FFFFFF" stroke-width="1.33386" stroke-linejoin="round" stroke-miterlimit="10" fill="none" fill-rule="evenodd"/><path d="M823.98 1287.23 823.98 1606.12" stroke="#FFFFFF" stroke-width="1.33386" stroke-linejoin="round" stroke-miterlimit="10" fill="none" fill-rule="evenodd"/><path d="M89.7793 1340.82 1191.48 1340.82" stroke="#FFFFFF" stroke-width="4.00157" stroke-linejoin="round" stroke-miterlimit="10" fill="none" fill-rule="evenodd"/><path d="M89.7793 1393.75 824.647 1393.75" stroke="#FFFFFF" stroke-width="1.33386" stroke-linejoin="round" stroke-miterlimit="10" fill="none" fill-rule="evenodd"/><path d="M89.7793 1446.67 824.647 1446.67" stroke="#FFFFFF" stroke-width="1.33386" stroke-linejoin="round" stroke-miterlimit="10" fill="none" fill-rule="evenodd"/><path d="M89.7793 1499.6 824.647 1499.6" stroke="#FFFFFF" stroke-width="1.33386" stroke-linejoin="round" stroke-miterlimit="10" fill="none" fill-rule="evenodd"/><path d="M89.7793 1552.53 824.647 1552.53" stroke="#FFFFFF" stroke-width="1.33386" stroke-linejoin="round" stroke-miterlimit="10" fill="none" fill-rule="evenodd"/><path d="M90.4462 1287.23 90.4462 1606.12" stroke="#FFFFFF" stroke-width="1.33386" stroke-linejoin="round" stroke-miterlimit="10" fill="none" fill-rule="evenodd"/><path d="M1190.81 1287.23 1190.81 1606.12" stroke="#FFFFFF" stroke-width="1.33386" stroke-linejoin="round" stroke-miterlimit="10" fill="none" fill-rule="evenodd"/><path d="M89.7793 1287.89 1191.48 1287.89" stroke="#FFFFFF" stroke-width="1.33386" stroke-linejoin="round" stroke-miterlimit="10" fill="none" fill-rule="evenodd"/><path d="M89.7793 1605.45 1191.48 1605.45" stroke="#FFFFFF" stroke-width="1.33386" stroke-linejoin="round" stroke-miterlimit="10" fill="none" fill-rule="evenodd"/><text fill="#FFFFFF" font-family="Aptos,Aptos_MSFontService,sans-serif" font-weight="700" font-size="43" transform="matrix(1 0 0 0.999853 934.479 1329)">GRADO</text><text fill="#FFFFFF" font-family="Aptos,Aptos_MSFontService,sans-serif" font-weight="700" font-size="43" transform="matrix(1 0 0 0.999853 404.537 1329)">NOMBRE</text><g><text fill="#FFFFFF" font-family="Aptos,Aptos_MSFontService,sans-serif" font-weight="700" font-size="43" transform="matrix(1 0 0 0.999853 101.962 1329)">N</text></g><g><text fill="#FFFFFF" font-family="Aptos,Aptos_MSFontService,sans-serif" font-weight="700" font-size="43" transform="matrix(1 0 0 0.999853 132.807 1329)">°</text></g><text font-family="Aptos,Aptos_MSFontService,sans-serif" font-weight="400" font-size="43" transform="matrix(1 0 0 0.999853 979.074 1513)">5M</text><g><text font-family="Aptos,Aptos_MSFontService,sans-serif" font-weight="400" font-size="43" transform="matrix(1 0 0 0.999853 167.699 1382)">Alejandro marin</text></g><g><text fill="#FFFFFF" font-family="Aptos,Aptos_MSFontService,sans-serif" font-weight="700" font-size="43" transform="matrix(1 0 0 0.999853 114.05 1382)">1</text></g><g><text font-family="Aptos,Aptos_MSFontService,sans-serif" font-weight="400" font-size="43" transform="matrix(1 0 0 0.999853 167.699 1435)">Najib benitez</text></g><g><text fill="#FFFFFF" font-family="Aptos,Aptos_MSFontService,sans-serif" font-weight="700" font-size="43" transform="matrix(1 0 0 0.999853 114.05 1435)">2</text></g><g><text font-family="Aptos,Aptos_MSFontService,sans-serif" font-weight="400" font-size="43" transform="matrix(1 0 0 0.999853 167.699 1487)">Dylan Arango</text></g><g><text fill="#FFFFFF" font-family="Aptos,Aptos_MSFontService,sans-serif" font-weight="700" font-size="43" transform="matrix(1 0 0 0.999853 114.05 1487)">3</text></g><g><text font-family="Aptos,Aptos_MSFontService,sans-serif" font-weight="400" font-size="43" transform="matrix(1 0 0 0.999853 167.699 1540)">Sergio Triviño</text></g><g><text fill="#FFFFFF" font-family="Aptos,Aptos_MSFontService,sans-serif" font-weight="700" font-size="43" transform="matrix(1 0 0 0.999853 114.05 1540)">4</text></g><g><text font-family="Aptos,Aptos_MSFontService,sans-serif" font-weight="400" font-size="43" transform="matrix(1 0 0 0.999853 167.699 1593)">Geronimo loaiza</text></g><g><text fill="#FFFFFF" font-family="Aptos,Aptos_MSFontService,sans-serif" font-weight="700" font-size="43" transform="matrix(1 0 0 0.999853 114.05 1593)">5</text></g><path d="M88.8186 1671.34 158.973 1671.34 158.973 1724.27 88.8186 1724.27Z" fill="#156082" fill-rule="evenodd"/><path d="M158.973 1671.34 823.437 1671.34 823.437 1724.27 158.973 1724.27Z" fill="#156082" fill-rule="evenodd"/><path d="M823.437 1671.34 1190.81 1671.34 1190.81 1724.27 823.437 1724.27Z" fill="#156082" fill-rule="evenodd"/><path d="M88.8186 1724.27 158.973 1724.27 158.973 1777.19 88.8186 1777.19Z" fill="#156082" fill-rule="evenodd"/><path d="M158.973 1724.27 823.437 1724.27 823.437 1777.19 158.973 1777.19Z" fill="#CCD2D8" fill-rule="evenodd"/><path d="M823.437 1724.27 1190.81 1724.27 1190.81 1988.9 823.437 1988.9Z" fill="#CCD2D8" fill-rule="evenodd"/><path d="M88.8186 1777.19 158.973 1777.19 158.973 1830.12 88.8186 1830.12Z" fill="#156082" fill-rule="evenodd"/><path d="M158.973 1777.19 823.437 1777.19 823.437 1830.12 158.973 1830.12Z" fill="#E7EAED" fill-rule="evenodd"/><path d="M88.8186 1830.12 158.973 1830.12 158.973 1883.04 88.8186 1883.04Z" fill="#156082" fill-rule="evenodd"/><path d="M158.973 1830.12 823.437 1830.12 823.437 1883.04 158.973 1883.04Z" fill="#CCD2D8" fill-rule="evenodd"/><path d="M88.8186 1883.04 158.973 1883.04 158.973 1935.97 88.8186 1935.97Z" fill="#156082" fill-rule="evenodd"/><path d="M158.973 1883.04 823.437 1883.04 823.437 1935.97 158.973 1935.97Z" fill="#E7EAED" fill-rule="evenodd"/><path d="M88.8186 1935.97 158.973 1935.97 158.973 1988.9 88.8186 1988.9Z" fill="#156082" fill-rule="evenodd"/><path d="M158.973 1935.97 823.437 1935.97 823.437 1988.9 158.973 1988.9Z" fill="#CCD2D8" fill-rule="evenodd"/><path d="M158.973 1670.67 158.973 1989.56" stroke="#FFFFFF" stroke-width="1.33386" stroke-linejoin="round" stroke-miterlimit="10" fill="none" fill-rule="evenodd"/><path d="M823.437 1670.67 823.437 1989.56" stroke="#FFFFFF" stroke-width="1.33386" stroke-linejoin="round" stroke-miterlimit="10" fill="none" fill-rule="evenodd"/><path d="M88.1516 1724.27 1191.48 1724.27" stroke="#FFFFFF" stroke-width="4.00157" stroke-linejoin="round" stroke-miterlimit="10" fill="none" fill-rule="evenodd"/><path d="M88.1516 1777.19 824.104 1777.19" stroke="#FFFFFF" stroke-width="1.33386" stroke-linejoin="round" stroke-miterlimit="10" fill="none" fill-rule="evenodd"/><path d="M88.1516 1830.12 824.104 1830.12" stroke="#FFFFFF" stroke-width="1.33386" stroke-linejoin="round" stroke-miterlimit="10" fill="none" fill-rule="evenodd"/><path d="M88.1516 1883.04 824.104 1883.04" stroke="#FFFFFF" stroke-width="1.33386" stroke-linejoin="round" stroke-miterlimit="10" fill="none" fill-rule="evenodd"/><path d="M88.1516 1935.97 824.104 1935.97" stroke="#FFFFFF" stroke-width="1.33386" stroke-linejoin="round" stroke-miterlimit="10" fill="none" fill-rule="evenodd"/><path d="M88.8186 1670.67 88.8186 1989.56" stroke="#FFFFFF" stroke-width="1.33386" stroke-linejoin="round" stroke-miterlimit="10" fill="none" fill-rule="evenodd"/><path d="M1190.81 1670.67 1190.81 1989.56" stroke="#FFFFFF" stroke-width="1.33386" stroke-linejoin="round" stroke-miterlimit="10" fill="none" fill-rule="evenodd"/><path d="M88.1516 1671.34 1191.48 1671.34" stroke="#FFFFFF" stroke-width="1.33386" stroke-linejoin="round" stroke-miterlimit="10" fill="none" fill-rule="evenodd"/><path d="M88.1516 1988.9 1191.48 1988.9" stroke="#FFFFFF" stroke-width="1.33386" stroke-linejoin="round" stroke-miterlimit="10" fill="none" fill-rule="evenodd"/><text fill="#FFFFFF" font-family="Aptos,Aptos_MSFontService,sans-serif" font-weight="700" font-size="43" transform="matrix(1 0 0 0.999853 934.208 1712)">GRADO</text><text fill="#FFFFFF" font-family="Aptos,Aptos_MSFontService,sans-serif" font-weight="700" font-size="43" transform="matrix(1 0 0 0.999853 403.504 1712)">NOMBRE</text><g><text fill="#FFFFFF" font-family="Aptos,Aptos_MSFontService,sans-serif" font-weight="700" font-size="43" transform="matrix(1 0 0 0.999853 100.386 1712)">N</text></g><g><text fill="#FFFFFF" font-family="Aptos,Aptos_MSFontService,sans-serif" font-weight="700" font-size="43" transform="matrix(1 0 0 0.999853 131.232 1712)">°</text></g><text font-family="Aptos,Aptos_MSFontService,sans-serif" font-weight="400" font-size="43" transform="matrix(1 0 0 0.999853 985.367 1896)">5T</text><g><text font-family="Aptos,Aptos_MSFontService,sans-serif" font-weight="400" font-size="43" transform="matrix(1 0 0 0.999853 166.175 1765)">Josue Clavijo 5T</text></g><g><text fill="#FFFFFF" font-family="Aptos,Aptos_MSFontService,sans-serif" font-weight="700" font-size="43" transform="matrix(1 0 0 0.999853 112.474 1765)">1</text></g><g><text font-family="Aptos,Aptos_MSFontService,sans-serif" font-weight="400" font-size="43" transform="matrix(1 0 0 0.999853 166.175 1818)">Juan Henao</text></g><g><text fill="#FFFFFF" font-family="Aptos,Aptos_MSFontService,sans-serif" font-weight="700" font-size="43" transform="matrix(1 0 0 0.999853 112.474 1818)">2</text></g><g><text font-family="Aptos,Aptos_MSFontService,sans-serif" font-weight="400" font-size="43" transform="matrix(1 0 0 0.999853 166.175 1871)">Sergio dominguez</text></g><g><text fill="#FFFFFF" font-family="Aptos,Aptos_MSFontService,sans-serif" font-weight="700" font-size="43" transform="matrix(1 0 0 0.999853 112.474 1871)">3</text></g><g><text font-family="Aptos,Aptos_MSFontService,sans-serif" font-weight="400" font-size="43" transform="matrix(1 0 0 0.999853 166.175 1924)">Enmanuel Agudelo</text></g><g><text fill="#FFFFFF" font-family="Aptos,Aptos_MSFontService,sans-serif" font-weight="700" font-size="43" transform="matrix(1 0 0 0.999853 112.474 1924)">4</text></g><g><text font-family="Aptos,Aptos_MSFontService,sans-serif" font-weight="400" font-size="43" transform="matrix(1 0 0 0.999853 166.175 1977)">Jehiner correa 4M</text></g><g><text fill="#FFFFFF" font-family="Aptos,Aptos_MSFontService,sans-serif" font-weight="700" font-size="43" transform="matrix(1 0 0 0.999853 112.474 1977)">5</text></g><path d="M735.303 1646.02C734.603 1646 733.931 1646.14 733.287 1646.44 732.643 1646.73 732.118 1647.17 731.712 1647.77 731.306 1648.36 731.103 1649.1 731.103 1649.98 731.103 1651.38 731.523 1652.43 732.363 1653.13 733.203 1653.83 734.176 1654.18 735.282 1654.18 736.009 1654.18 736.695 1654.03 737.339 1653.74 737.983 1653.45 738.501 1652.99 738.893 1652.37 739.285 1651.74 739.481 1650.95 739.481 1649.98 739.481 1649.12 739.292 1648.38 738.914 1647.79 738.536 1647.19 738.032 1646.75 737.402 1646.45 736.772 1646.14 736.072 1646 735.303 1646.02ZM710.644 1642.03 709.972 1646.92 714.171 1646.92 714.801 1642.03ZM644.077 1634.78 644.077 1643.47 648.717 1643.47C650.089 1643.47 651.198 1643.11 652.045 1642.38 652.892 1641.66 653.315 1640.58 653.315 1639.15 653.315 1637.67 652.881 1636.57 652.014 1635.85 651.146 1635.14 650.047 1634.78 648.717 1634.78ZM735.303 1634.62C734.687 1634.62 734.106 1634.74 733.56 1634.99 733.014 1635.25 732.57 1635.63 732.227 1636.14 731.884 1636.65 731.712 1637.3 731.712 1638.1 731.712 1638.88 731.877 1639.55 732.206 1640.11 732.535 1640.66 732.976 1641.07 733.528 1641.35 734.081 1641.63 734.673 1641.77 735.303 1641.75 735.946 1641.77 736.541 1641.63 737.087 1641.35 737.633 1641.07 738.071 1640.66 738.4 1640.12 738.728 1639.57 738.893 1638.9 738.893 1638.1 738.893 1636.9 738.536 1636.02 737.822 1635.46 737.108 1634.9 736.268 1634.62 735.303 1634.62ZM676.649 1634.55C674.801 1634.55 673.314 1634.99 672.187 1635.85 671.06 1636.72 670.242 1637.88 669.731 1639.34 669.22 1640.79 668.964 1642.4 668.964 1644.17 668.964 1645.9 669.22 1647.5 669.731 1648.95 670.242 1650.41 671.06 1651.57 672.187 1652.44 673.314 1653.31 674.801 1653.74 676.649 1653.74 678.482 1653.74 679.959 1653.31 681.079 1652.44 682.199 1651.57 683.018 1650.41 683.536 1648.95 684.053 1647.5 684.312 1645.9 684.312 1644.17 684.312 1642.4 684.053 1640.79 683.536 1639.34 683.018 1637.88 682.199 1636.72 681.079 1635.85 679.959 1634.99 678.482 1634.55 676.649 1634.55ZM576.649 1634.55C574.801 1634.55 573.314 1634.99 572.187 1635.85 571.06 1636.72 570.242 1637.88 569.731 1639.34 569.22 1640.79 568.964 1642.4 568.964 1644.17 568.964 1645.9 569.22 1647.5 569.731 1648.95 570.242 1650.41 571.06 1651.57 572.187 1652.44 573.314 1653.31 574.801 1653.74 576.649 1653.74 578.482 1653.74 579.959 1653.31 581.079 1652.44 582.199 1651.57 583.018 1650.41 583.536 1648.95 584.053 1647.5 584.312 1645.9 584.312 1644.17 584.312 1642.4 584.053 1640.79 583.536 1639.34 583.018 1637.88 582.199 1636.72 581.079 1635.85 579.959 1634.99 578.482 1634.55 576.649 1634.55ZM708.397 1630.77 712.198 1630.77 711.127 1638.56 715.305 1638.56 716.376 1630.77 720.218 1630.77 719.126 1638.56 723.074 1638.56 723.074 1642.03 718.622 1642.03 717.972 1646.92 721.877 1646.92 721.877 1650.4 717.489 1650.4 716.397 1658.28 712.576 1658.28 713.646 1650.4 709.468 1650.4 708.376 1658.28 704.534 1658.28 705.626 1650.4 701.616 1650.4 701.616 1646.92 706.13 1646.92 706.802 1642.03 702.77 1642.03 702.77 1638.56 707.306 1638.56ZM735.303 1630.4C736.8 1630.4 738.214 1630.64 739.544 1631.14 740.874 1631.64 741.951 1632.42 742.777 1633.49 743.603 1634.56 744.016 1635.97 744.016 1637.7 744.016 1639.27 743.628 1640.59 742.851 1641.66 742.074 1642.73 741.154 1643.46 740.09 1643.85 741.587 1644.29 742.802 1645.06 743.733 1646.16 744.663 1647.27 745.129 1648.69 745.129 1650.42 745.129 1651.89 744.852 1653.15 744.299 1654.19 743.747 1655.23 743.005 1656.08 742.074 1656.74 741.143 1657.4 740.093 1657.88 738.924 1658.19 737.756 1658.5 736.548 1658.65 735.303 1658.65 734.071 1658.65 732.867 1658.5 731.691 1658.19 730.516 1657.88 729.455 1657.4 728.51 1656.74 727.566 1656.08 726.817 1655.23 726.264 1654.19 725.711 1653.15 725.434 1651.89 725.434 1650.42 725.434 1648.69 725.903 1647.27 726.841 1646.16 727.779 1645.06 729.004 1644.29 730.516 1643.85 729.326 1643.41 728.37 1642.66 727.65 1641.62 726.929 1640.57 726.568 1639.27 726.568 1637.7 726.568 1635.97 726.981 1634.56 727.807 1633.48 728.633 1632.4 729.711 1631.62 731.04 1631.13 732.37 1630.64 733.791 1630.4 735.303 1630.4ZM638.177 1630.02 649.263 1630.02C651.125 1630.02 652.822 1630.35 654.355 1631.01 655.887 1631.66 657.109 1632.66 658.018 1634.01 658.928 1635.35 659.383 1637.07 659.383 1639.15 659.383 1641.21 658.928 1642.91 658.018 1644.25 657.109 1645.6 655.887 1646.59 654.355 1647.24 652.822 1647.89 651.125 1648.22 649.263 1648.22L644.077 1648.22 644.077 1658.28 638.177 1658.28ZM625.177 1630.02 631.077 1630.02 631.077 1658.28 625.177 1658.28ZM595.841 1630.02 601.888 1630.02 601.888 1646.9C601.888 1649.22 602.364 1650.95 603.316 1652.08 604.268 1653.22 605.765 1653.78 607.809 1653.78 609.867 1653.78 611.354 1653.22 612.271 1652.08 613.188 1650.95 613.646 1649.22 613.646 1646.9L613.646 1630.02 619.714 1630.02 619.714 1647.04C619.714 1649.54 619.301 1651.65 618.475 1653.38 617.649 1655.12 616.358 1656.43 614.601 1657.32 612.845 1658.21 610.566 1658.65 607.767 1658.65 604.995 1658.65 602.728 1658.21 600.964 1657.32 599.201 1656.43 597.906 1655.12 597.08 1653.38 596.254 1651.65 595.841 1649.54 595.841 1647.04ZM540.177 1630.02 559.137 1630.02 559.137 1634.91 546.077 1634.91 546.077 1641.48 557.919 1641.48 557.919 1646.2 546.077 1646.2 546.077 1653.38 559.137 1653.38 559.137 1658.28 540.177 1658.28ZM676.649 1629.64C679.602 1629.64 682.101 1630.24 684.144 1631.44 686.188 1632.63 687.742 1634.32 688.806 1636.49 689.869 1638.67 690.401 1641.23 690.401 1644.17 690.401 1647.11 689.869 1649.66 688.806 1651.82 687.742 1653.98 686.188 1655.66 684.144 1656.86 682.101 1658.05 679.602 1658.65 676.649 1658.65 673.695 1658.65 671.193 1658.05 669.143 1656.86 667.092 1655.66 665.535 1653.98 664.471 1651.82 663.407 1649.66 662.875 1647.11 662.875 1644.17 662.875 1641.23 663.407 1638.67 664.471 1636.49 665.535 1634.32 667.092 1632.63 669.143 1631.44 671.193 1630.24 673.695 1629.64 676.649 1629.64ZM576.649 1629.64C579.602 1629.64 582.101 1630.24 584.144 1631.44 586.188 1632.63 587.742 1634.32 588.806 1636.49 589.869 1638.67 590.401 1641.23 590.401 1644.17 590.401 1647.11 589.869 1649.66 588.806 1651.82 587.742 1653.98 586.188 1655.66 584.144 1656.86 583.633 1657.16 583.094 1657.42 582.526 1657.64L581.33 1658.02 582.349 1659.03C582.93 1659.42 583.693 1659.71 584.638 1659.9 585.583 1660.09 586.804 1660.19 588.302 1660.19L589.414 1660.19 589.414 1665.24 588.008 1665.24C585.978 1665.24 584.291 1665.05 582.948 1664.67 581.604 1664.28 580.502 1663.75 579.641 1663.06 578.78 1662.38 578.063 1661.57 577.489 1660.66L576.398 1658.64 574.518 1658.54C572.473 1658.32 570.681 1657.76 569.143 1656.86 567.092 1655.66 565.535 1653.98 564.471 1651.82 563.407 1649.66 562.875 1647.11 562.875 1644.17 562.875 1641.23 563.407 1638.67 564.471 1636.49 565.535 1634.32 567.092 1632.63 569.143 1631.44 571.193 1630.24 573.695 1629.64 576.649 1629.64Z" fill="url(#fill0)" fill-rule="evenodd"/><text fill="#000000" fill-opacity="0" font-family="Arial,Arial_MSFontService,sans-serif" font-size="35.6041" x="540.177" y="1660.79">EQUIPO #8</text><path d="M710.687 1256.62 710.016 1261.51 714.215 1261.51 714.845 1256.62ZM644.12 1249.37 644.12 1258.06 648.761 1258.06C650.132 1258.06 651.242 1257.7 652.089 1256.97 652.935 1256.24 653.359 1255.17 653.359 1253.74 653.359 1252.26 652.925 1251.16 652.057 1250.44 651.189 1249.73 650.09 1249.37 648.761 1249.37ZM676.692 1249.14C674.845 1249.14 673.357 1249.58 672.231 1250.44 671.104 1251.31 670.285 1252.47 669.774 1253.93 669.263 1255.38 669.008 1256.99 669.008 1258.76 669.008 1260.49 669.263 1262.09 669.774 1263.54 670.285 1265 671.104 1266.16 672.231 1267.03 673.357 1267.9 674.845 1268.33 676.692 1268.33 678.526 1268.33 680.003 1267.9 681.122 1267.03 682.242 1266.16 683.061 1265 683.579 1263.54 684.097 1262.09 684.356 1260.49 684.356 1258.76 684.356 1256.99 684.097 1255.38 683.579 1253.93 683.061 1252.47 682.242 1251.31 681.122 1250.44 680.003 1249.58 678.526 1249.14 676.692 1249.14ZM576.692 1249.14C574.845 1249.14 573.357 1249.58 572.231 1250.44 571.104 1251.31 570.285 1252.47 569.774 1253.93 569.263 1255.38 569.008 1256.99 569.008 1258.76 569.008 1260.49 569.263 1262.09 569.774 1263.54 570.285 1265 571.104 1266.16 572.231 1267.03 573.357 1267.9 574.845 1268.33 576.692 1268.33 578.526 1268.33 580.003 1267.9 581.122 1267.03 582.242 1266.16 583.061 1265 583.579 1263.54 584.097 1262.09 584.356 1260.49 584.356 1258.76 584.356 1256.99 584.097 1255.38 583.579 1253.93 583.061 1252.47 582.242 1251.31 581.122 1250.44 580.003 1249.58 578.526 1249.14 576.692 1249.14ZM725.52 1245.36 745.193 1245.36 745.193 1249.92 734.107 1272.86 728.102 1272.86 739.566 1250.38 725.52 1250.38ZM708.441 1245.36 712.241 1245.36 711.17 1253.15 715.349 1253.15 716.419 1245.36 720.262 1245.36 719.17 1253.15 723.117 1253.15 723.117 1256.62 718.666 1256.62 718.015 1261.51 721.92 1261.51 721.92 1264.99 717.532 1264.99 716.44 1272.86 712.619 1272.86 713.69 1264.99 709.512 1264.99 708.42 1272.86 704.578 1272.86 705.669 1264.99 701.659 1264.99 701.659 1261.51 706.173 1261.51 706.845 1256.62 702.814 1256.62 702.814 1253.15 707.349 1253.15ZM638.221 1244.61 649.307 1244.61C651.168 1244.61 652.865 1244.94 654.398 1245.59 655.931 1246.25 657.152 1247.25 658.062 1248.6 658.972 1249.94 659.427 1251.65 659.427 1253.74 659.427 1255.8 658.972 1257.5 658.062 1258.84 657.152 1260.18 655.931 1261.18 654.398 1261.83 652.865 1262.48 651.168 1262.81 649.307 1262.81L644.12 1262.81 644.12 1272.86 638.221 1272.86ZM625.221 1244.61 631.12 1244.61 631.12 1272.86 625.221 1272.86ZM595.885 1244.61 601.932 1244.61 601.932 1261.49C601.932 1263.81 602.407 1265.54 603.359 1266.67 604.311 1267.8 605.809 1268.37 607.852 1268.37 609.91 1268.37 611.397 1267.8 612.314 1266.67 613.231 1265.54 613.689 1263.81 613.689 1261.49L613.689 1244.61 619.757 1244.61 619.757 1261.63C619.757 1264.12 619.344 1266.24 618.518 1267.97 617.693 1269.71 616.401 1271.02 614.645 1271.91 612.888 1272.8 610.61 1273.24 607.81 1273.24 605.039 1273.24 602.771 1272.8 601.008 1271.91 599.244 1271.02 597.949 1269.71 597.123 1267.97 596.298 1266.24 595.885 1264.12 595.885 1261.63ZM540.221 1244.61 559.18 1244.61 559.18 1249.5 546.12 1249.5 546.12 1256.07 557.962 1256.07 557.962 1260.79 546.12 1260.79 546.12 1267.97 559.18 1267.97 559.18 1272.86 540.221 1272.86ZM676.692 1244.23C679.646 1244.23 682.144 1244.83 684.188 1246.02 686.232 1247.22 687.785 1248.91 688.849 1251.08 689.913 1253.26 690.445 1255.82 690.445 1258.76 690.445 1261.7 689.913 1264.25 688.849 1266.41 687.785 1268.57 686.232 1270.25 684.188 1271.45 682.144 1272.64 679.646 1273.24 676.692 1273.24 673.739 1273.24 671.237 1272.64 669.186 1271.45 667.136 1270.25 665.578 1268.57 664.515 1266.41 663.451 1264.25 662.919 1261.7 662.919 1258.76 662.919 1255.82 663.451 1253.26 664.515 1251.08 665.578 1248.91 667.136 1247.22 669.186 1246.02 671.237 1244.83 673.739 1244.23 676.692 1244.23ZM576.692 1244.23C579.646 1244.23 582.144 1244.83 584.188 1246.02 586.232 1247.22 587.785 1248.91 588.849 1251.08 589.913 1253.26 590.445 1255.82 590.445 1258.76 590.445 1261.7 589.913 1264.25 588.849 1266.41 587.785 1268.57 586.232 1270.25 584.188 1271.45 583.677 1271.75 583.138 1272.01 582.57 1272.23L581.373 1272.61 582.393 1273.62C582.974 1274.01 583.736 1274.3 584.681 1274.49 585.626 1274.68 586.847 1274.77 588.345 1274.77L589.458 1274.77 589.458 1279.83 588.051 1279.83C586.022 1279.83 584.335 1279.64 582.991 1279.26 581.647 1278.87 580.545 1278.34 579.684 1277.65 578.823 1276.96 578.106 1276.16 577.532 1275.25L576.442 1273.23 574.562 1273.13C572.516 1272.91 570.724 1272.34 569.186 1271.45 567.136 1270.25 565.578 1268.57 564.515 1266.41 563.451 1264.25 562.919 1261.7 562.919 1258.76 562.919 1255.82 563.451 1253.26 564.515 1251.08 565.578 1248.91 567.136 1247.22 569.186 1246.02 571.237 1244.83 573.739 1244.23 576.692 1244.23Z" fill="url(#fill1)" fill-rule="evenodd"/><text fill="#000000" fill-opacity="0" font-family="Arial,Arial_MSFontService,sans-serif" font-size="35.6041" x="540.221" y="1275.38">EQUIPO #7</text><path d="M736.207 861.808C734.667 861.808 733.334 862.183 732.207 862.931L731.073 863.887 731.157 865.154C731.276 865.943 731.455 866.63 731.693 867.214 732.169 868.383 732.781 869.219 733.53 869.723 734.279 870.227 735.066 870.478 735.892 870.478 737.194 870.478 738.17 870.045 738.821 869.177 739.472 868.309 739.797 867.211 739.797 865.881 739.797 864.607 739.479 863.61 738.842 862.889 738.205 862.169 737.327 861.808 736.207 861.808ZM710.687 858.407 710.016 863.299 714.215 863.299 714.845 858.407ZM644.12 851.165 644.12 859.856 648.761 859.856C650.132 859.856 651.242 859.492 652.089 858.764 652.935 858.037 653.359 856.959 653.359 855.531 653.359 854.048 652.925 852.949 652.057 852.236 651.189 851.522 650.09 851.165 648.761 851.165ZM676.692 850.934C674.845 850.934 673.357 851.368 672.231 852.236 671.104 853.103 670.285 854.265 669.774 855.72 669.263 857.176 669.008 858.785 669.008 860.549 669.008 862.284 669.263 863.88 669.774 865.335 670.285 866.791 671.104 867.952 672.231 868.82 673.357 869.688 674.845 870.122 676.692 870.122 678.526 870.122 680.003 869.688 681.122 868.82 682.242 867.952 683.061 866.791 683.579 865.335 684.097 863.88 684.356 862.284 684.356 860.549 684.356 858.785 684.097 857.176 683.579 855.72 683.061 854.265 682.242 853.103 681.122 852.236 680.003 851.368 678.526 850.934 676.692 850.934ZM576.692 850.934C574.845 850.934 573.357 851.368 572.231 852.236 571.104 853.103 570.285 854.265 569.774 855.72 569.263 857.176 569.008 858.785 569.008 860.549 569.008 862.284 569.263 863.88 569.774 865.335 570.285 866.791 571.104 867.952 572.231 868.82 573.357 869.688 574.845 870.122 576.692 870.122 578.526 870.122 580.003 869.688 581.122 868.82 582.242 867.952 583.061 866.791 583.579 865.335 584.097 863.88 584.356 862.284 584.356 860.549 584.356 858.785 584.097 857.176 583.579 855.72 583.061 854.265 582.242 853.103 581.122 852.236 580.003 851.368 578.526 850.934 576.692 850.934ZM708.441 847.155 712.241 847.155 711.17 854.944 715.349 854.944 716.419 847.155 720.262 847.155 719.17 854.944 723.117 854.944 723.117 858.407 718.666 858.407 718.015 863.299 721.92 863.299 721.92 866.784 717.532 866.784 716.44 874.656 712.619 874.656 713.69 866.784 709.512 866.784 708.42 874.656 704.578 874.656 705.669 866.784 701.659 866.784 701.659 863.299 706.173 863.299 706.845 858.407 702.814 858.407 702.814 854.944 707.349 854.944ZM735.913 846.777C738.488 846.777 740.543 847.442 742.075 848.772 743.608 850.101 744.563 851.984 744.941 854.419L739.587 854.419C739.363 853.383 738.94 852.613 738.317 852.11 737.694 851.606 736.893 851.354 735.913 851.354 734.317 851.354 733.096 852.152 732.249 853.747 731.614 854.944 731.217 856.62 731.058 858.777L731.024 859.78 731.273 859.51C732.015 858.831 732.869 858.292 733.834 857.893 734.8 857.494 735.934 857.295 737.236 857.295 738.803 857.295 740.207 857.617 741.445 858.26 742.684 858.904 743.668 859.863 744.395 861.137 745.123 862.41 745.487 863.978 745.487 865.839 745.487 867.63 745.116 869.215 744.374 870.594 743.633 871.972 742.548 873.057 741.12 873.848 739.692 874.639 737.95 875.034 735.892 875.034 733.848 875.034 732.029 874.558 730.433 873.606 728.837 872.655 727.581 871.154 726.664 869.103 725.747 867.053 725.289 864.383 725.289 861.095 725.289 857.806 725.744 855.108 726.654 853.002 727.564 850.895 728.82 849.331 730.422 848.31 732.025 847.288 733.855 846.777 735.913 846.777ZM638.221 846.399 649.307 846.399C651.168 846.399 652.865 846.728 654.398 847.386 655.931 848.044 657.152 849.045 658.062 850.388 658.972 851.732 659.427 853.446 659.427 855.531 659.427 857.589 658.972 859.289 658.062 860.633 657.152 861.976 655.931 862.973 654.398 863.624 652.865 864.275 651.168 864.6 649.307 864.6L644.12 864.6 644.12 874.656 638.221 874.656ZM625.221 846.399 631.12 846.399 631.12 874.656 625.221 874.656ZM595.885 846.399 601.932 846.399 601.932 863.278C601.932 865.601 602.407 867.329 603.359 868.463 604.311 869.597 605.809 870.164 607.852 870.164 609.91 870.164 611.397 869.597 612.314 868.463 613.231 867.329 613.689 865.601 613.689 863.278L613.689 846.399 619.757 846.399 619.757 863.425C619.757 865.916 619.344 868.029 618.518 869.765 617.693 871.5 616.401 872.812 614.645 873.701 612.888 874.59 610.61 875.034 607.81 875.034 605.039 875.034 602.771 874.59 601.008 873.701 599.244 872.812 597.949 871.5 597.123 869.765 596.298 868.029 595.885 865.916 595.885 863.425ZM540.221 846.399 559.18 846.399 559.18 851.291 546.12 851.291 546.12 857.862 557.962 857.862 557.962 862.585 546.12 862.585 546.12 869.765 559.18 869.765 559.18 874.656 540.221 874.656ZM676.692 846.022C679.646 846.022 682.144 846.62 684.188 847.816 686.232 849.013 687.785 850.7 688.849 852.876 689.913 855.052 690.445 857.61 690.445 860.549 690.445 863.488 689.913 866.038 688.849 868.201 687.785 870.363 686.232 872.042 684.188 873.239 682.144 874.436 679.646 875.034 676.692 875.034 673.739 875.034 671.237 874.436 669.186 873.239 667.136 872.042 665.578 870.363 664.515 868.201 663.451 866.038 662.919 863.488 662.919 860.549 662.919 857.61 663.451 855.052 664.515 852.876 665.578 850.7 667.136 849.013 669.186 847.816 671.237 846.62 673.739 846.022 676.692 846.022ZM576.692 846.022C579.646 846.022 582.144 846.62 584.188 847.816 586.232 849.013 587.785 850.7 588.849 852.876 589.913 855.052 590.445 857.61 590.445 860.549 590.445 863.488 589.913 866.038 588.849 868.201 587.785 870.363 586.232 872.042 584.188 873.239 583.677 873.538 583.138 873.8 582.57 874.024L581.373 874.4 582.393 875.412C582.974 875.804 583.736 876.094 584.681 876.283 585.626 876.472 586.847 876.566 588.345 876.566L589.458 876.566 589.458 881.626 588.051 881.626C586.022 881.626 584.335 881.433 582.991 881.048 581.647 880.664 580.545 880.128 579.684 879.442 578.823 878.757 578.106 877.955 577.532 877.039L576.442 875.021 574.562 874.922C572.516 874.697 570.724 874.136 569.186 873.239 567.136 872.042 565.578 870.363 564.515 868.201 563.451 866.038 562.919 863.488 562.919 860.549 562.919 857.61 563.451 855.052 564.515 852.876 565.578 850.7 567.136 849.013 569.186 847.816 571.237 846.62 573.739 846.022 576.692 846.022Z" fill="url(#fill2)" fill-rule="evenodd"/><text fill="#000000" fill-opacity="0" font-family="Arial,Arial_MSFontService,sans-serif" font-size="35.6041" x="540.221" y="877.175">EQUIPO #6</text><path d="M709.06 461.638 708.388 466.53 712.587 466.53 713.217 461.638ZM642.493 454.396 642.493 463.087 647.133 463.087C648.505 463.087 649.614 462.723 650.461 461.995 651.308 461.267 651.731 460.19 651.731 458.762 651.731 457.279 651.297 456.18 650.429 455.466 649.562 454.753 648.463 454.396 647.133 454.396ZM675.065 454.165C673.217 454.165 671.73 454.599 670.603 455.466 669.476 456.334 668.657 457.496 668.146 458.951 667.635 460.407 667.38 462.016 667.38 463.78 667.38 465.515 667.635 467.11 668.146 468.566 668.657 470.021 669.476 471.183 670.603 472.051 671.73 472.918 673.217 473.352 675.065 473.352 676.898 473.352 678.375 472.918 679.495 472.051 680.615 471.183 681.433 470.021 681.951 468.566 682.469 467.11 682.728 465.515 682.728 463.78 682.728 462.016 682.469 460.407 681.951 458.951 681.433 457.496 680.615 456.334 679.495 455.466 678.375 454.599 676.898 454.165 675.065 454.165ZM575.065 454.165C573.217 454.165 571.73 454.599 570.603 455.466 569.476 456.334 568.657 457.496 568.146 458.951 567.635 460.407 567.38 462.016 567.38 463.78 567.38 465.515 567.635 467.11 568.146 468.566 568.657 470.021 569.476 471.183 570.603 472.051 571.73 472.918 573.217 473.352 575.065 473.352 576.898 473.352 578.375 472.918 579.495 472.051 580.615 471.183 581.433 470.021 581.951 468.566 582.469 467.11 582.728 465.515 582.728 463.78 582.728 462.016 582.469 460.407 581.951 458.951 581.433 457.496 580.615 456.334 579.495 455.466 578.375 454.599 576.898 454.165 575.065 454.165ZM725.845 450.386 741.655 450.386 741.655 455.13 730.359 455.13 729.876 461.365C730.338 460.889 730.971 460.48 731.776 460.137 732.581 459.794 733.578 459.623 734.768 459.623 736.364 459.623 737.848 459.924 739.219 460.526 740.591 461.127 741.697 462.086 742.537 463.402 743.377 464.717 743.797 466.453 743.797 468.608 743.797 470.763 743.356 472.555 742.474 473.982 741.592 475.41 740.399 476.48 738.894 477.194 737.389 477.908 735.692 478.265 733.802 478.265 731.913 478.265 730.198 477.957 728.658 477.341 727.119 476.725 725.894 475.784 724.984 474.517 724.074 473.251 723.619 471.659 723.619 469.742L729.183 469.742C729.183 471.001 729.617 471.977 730.485 472.67 731.353 473.363 732.459 473.709 733.802 473.709 735.076 473.709 736.109 473.303 736.899 472.492 737.69 471.68 738.086 470.385 738.086 468.608 738.086 466.984 737.669 465.812 736.836 465.092 736.004 464.371 734.929 464.01 733.613 464.01 732.592 464.01 731.769 464.168 731.146 464.483 730.524 464.798 730.023 465.186 729.645 465.648L724.648 465.648ZM706.813 450.386 710.613 450.386 709.543 458.174 713.721 458.174 714.792 450.386 718.634 450.386 717.542 458.174 721.489 458.174 721.489 461.638 717.038 461.638 716.387 466.53 720.293 466.53 720.293 470.014 715.904 470.014 714.813 477.887 710.991 477.887 712.062 470.014 707.884 470.014 706.792 477.887 702.95 477.887 704.042 470.014 700.031 470.014 700.031 466.53 704.546 466.53 705.217 461.638 701.186 461.638 701.186 458.174 705.721 458.174ZM636.593 449.63 647.679 449.63C649.541 449.63 651.238 449.959 652.77 450.617 654.303 451.275 655.524 452.275 656.434 453.619 657.344 454.962 657.799 456.677 657.799 458.762 657.799 460.82 657.344 462.52 656.434 463.863 655.524 465.207 654.303 466.204 652.77 466.855 651.238 467.506 649.541 467.831 647.679 467.831L642.493 467.831 642.493 477.887 636.593 477.887ZM623.593 449.63 629.493 449.63 629.493 477.887 623.593 477.887ZM594.257 449.63 600.304 449.63 600.304 466.509C600.304 468.832 600.78 470.56 601.732 471.694 602.683 472.828 604.181 473.394 606.225 473.394 608.282 473.394 609.77 472.828 610.686 471.694 611.603 470.56 612.062 468.832 612.062 466.509L612.062 449.63 618.13 449.63 618.13 466.656C618.13 469.147 617.717 471.26 616.891 472.995 616.065 474.731 614.774 476.043 613.017 476.932 611.26 477.82 608.982 478.265 606.183 478.265 603.411 478.265 601.144 477.82 599.38 476.932 597.616 476.043 596.322 474.731 595.496 472.995 594.67 471.26 594.257 469.147 594.257 466.656ZM538.593 449.63 557.552 449.63 557.552 454.522 544.493 454.522 544.493 461.092 556.335 461.092 556.335 465.816 544.493 465.816 544.493 472.995 557.552 472.995 557.552 477.887 538.593 477.887ZM675.065 449.252C678.018 449.252 680.517 449.851 682.56 451.047 684.604 452.244 686.158 453.93 687.221 456.107 688.285 458.283 688.817 460.841 688.817 463.78 688.817 466.719 688.285 469.269 687.221 471.431 686.158 473.594 684.604 475.273 682.56 476.47 680.517 477.666 678.018 478.265 675.065 478.265 672.111 478.265 669.609 477.666 667.559 476.47 665.508 475.273 663.951 473.594 662.887 471.431 661.823 469.269 661.291 466.719 661.291 463.78 661.291 460.841 661.823 458.283 662.887 456.107 663.951 453.93 665.508 452.244 667.559 451.047 669.609 449.851 672.111 449.252 675.065 449.252ZM575.065 449.252C578.018 449.252 580.517 449.851 582.56 451.047 584.604 452.244 586.158 453.93 587.221 456.107 588.285 458.283 588.817 460.841 588.817 463.78 588.817 466.719 588.285 469.269 587.221 471.431 586.158 473.594 584.604 475.273 582.56 476.47 582.049 476.769 581.51 477.031 580.942 477.255L579.746 477.63 580.765 478.643C581.346 479.034 582.109 479.325 583.054 479.514 583.998 479.703 585.22 479.797 586.717 479.797L587.83 479.797 587.83 484.857 586.424 484.857C584.394 484.857 582.707 484.664 581.363 484.279 580.02 483.894 578.917 483.359 578.057 482.673 577.196 481.987 576.478 481.186 575.904 480.27L574.814 478.251 572.934 478.153C570.888 477.928 569.096 477.367 567.559 476.47 565.508 475.273 563.951 473.594 562.887 471.431 561.823 469.269 561.291 466.719 561.291 463.78 561.291 460.841 561.823 458.283 562.887 456.107 563.951 453.93 565.508 452.244 567.559 451.047 569.609 449.851 572.111 449.252 575.065 449.252Z" fill="url(#fill3)" fill-rule="evenodd"/><text fill="#000000" fill-opacity="0" font-family="Arial,Arial_MSFontService,sans-serif" font-size="35.6041" x="538.593" y="480.406">EQUIPO #5</text><path d="M710.644 68.1379 709.972 73.0293 714.171 73.0293 714.801 68.1379ZM736.919 63.8553 729.634 74.7507 736.919 74.7507ZM644.077 60.8953 644.077 69.5864 648.717 69.5864C650.089 69.5864 651.198 69.2225 652.045 68.4948 652.892 67.767 653.315 66.6894 653.315 65.2619 653.315 63.7784 652.881 62.6797 652.014 61.966 651.146 61.2522 650.047 60.8953 648.717 60.8953ZM676.649 60.6644C674.801 60.6644 673.314 61.0983 672.187 61.966 671.06 62.8337 670.242 63.9953 669.731 65.4508 669.22 66.9063 668.964 68.5158 668.964 70.2792 668.964 72.0146 669.22 73.6101 669.731 75.0656 670.242 76.5211 671.06 77.6827 672.187 78.5504 673.314 79.4181 674.801 79.852 676.649 79.852 678.482 79.852 679.959 79.4181 681.079 78.5504 682.199 77.6827 683.018 76.5211 683.536 75.0656 684.053 73.6101 684.312 72.0146 684.312 70.2792 684.312 68.5158 684.053 66.9063 683.536 65.4508 683.018 63.9953 682.199 62.8337 681.079 61.966 679.959 61.0983 678.482 60.6644 676.649 60.6644ZM576.649 60.6644C574.801 60.6644 573.314 61.0983 572.187 61.966 571.06 62.8337 570.242 63.9953 569.731 65.4508 569.22 66.9063 568.964 68.5158 568.964 70.2792 568.964 72.0146 569.22 73.6101 569.731 75.0656 570.242 76.5211 571.06 77.6827 572.187 78.5504 573.314 79.4181 574.801 79.852 576.649 79.852 578.482 79.852 579.959 79.4181 581.079 78.5504 582.199 77.6827 583.018 76.5211 583.536 75.0656 584.053 73.6101 584.312 72.0146 584.312 70.2792 584.312 68.5158 584.053 66.9063 583.536 65.4508 583.018 63.9953 582.199 62.8337 581.079 61.966 579.959 61.0983 578.482 60.6644 576.649 60.6644ZM708.397 56.8857 712.198 56.8857 711.127 64.6741 715.305 64.6741 716.376 56.8857 720.218 56.8857 719.126 64.6741 723.074 64.6741 723.074 68.1379 718.622 68.1379 717.972 73.0293 721.877 73.0293 721.877 76.5141 717.489 76.5141 716.397 84.3865 712.576 84.3865 713.646 76.5141 709.468 76.5141 708.376 84.3865 704.534 84.3865 705.626 76.5141 701.616 76.5141 701.616 73.0293 706.13 73.0293 706.802 68.1379 702.77 68.1379 702.77 64.6741 707.306 64.6741ZM736.814 56.8227 742.336 56.8227 742.336 74.7507 745.99 74.7507 745.99 79.3272 742.336 79.3272 742.336 84.3865 736.814 84.3865 736.814 79.3272 724.553 79.3272 724.553 74.6037ZM638.177 56.1299 649.263 56.1299C651.125 56.1299 652.822 56.4588 654.355 57.1166 655.887 57.7744 657.109 58.775 658.018 60.1186 658.928 61.4621 659.383 63.1766 659.383 65.2619 659.383 67.3192 658.928 69.0196 658.018 70.3632 657.109 71.7067 655.887 72.7039 654.355 73.3547 652.822 74.0054 651.125 74.3308 649.263 74.3308L644.077 74.3308 644.077 84.3865 638.177 84.3865ZM625.177 56.1299 631.077 56.1299 631.077 84.3865 625.177 84.3865ZM595.841 56.1299 601.888 56.1299 601.888 73.0083C601.888 75.3315 602.364 77.0599 603.316 78.1936 604.268 79.3272 605.765 79.894 607.809 79.894 609.867 79.894 611.354 79.3272 612.271 78.1936 613.187 77.0599 613.646 75.3315 613.646 73.0083L613.646 56.1299 619.714 56.1299 619.714 73.1552C619.714 75.6464 619.301 77.7597 618.475 79.4951 617.649 81.2305 616.358 82.5426 614.601 83.4313 612.845 84.32 610.566 84.7644 607.767 84.7644 604.995 84.7644 602.728 84.32 600.964 83.4313 599.201 82.5426 597.906 81.2305 597.08 79.4951 596.254 77.7597 595.841 75.6464 595.841 73.1552ZM540.177 56.1299 559.137 56.1299 559.137 61.0213 546.077 61.0213 546.077 67.5921 557.919 67.5921 557.919 72.3155 546.077 72.3155 546.077 79.4951 559.137 79.4951 559.137 84.3865 540.177 84.3865ZM676.649 55.752C679.602 55.752 682.101 56.3503 684.144 57.5469 686.188 58.7435 687.742 60.43 688.806 62.6062 689.869 64.7825 690.401 67.3402 690.401 70.2792 690.401 73.2182 689.869 75.7689 688.806 77.9311 687.742 80.0934 686.188 81.7729 684.144 82.9695 682.101 84.1661 679.602 84.7644 676.649 84.7644 673.695 84.7644 671.193 84.1661 669.143 82.9695 667.092 81.7729 665.535 80.0934 664.471 77.9311 663.407 75.7689 662.875 73.2182 662.875 70.2792 662.875 67.3402 663.407 64.7825 664.471 62.6062 665.535 60.43 667.092 58.7435 669.143 57.5469 671.193 56.3503 673.695 55.752 676.649 55.752ZM576.649 55.752C579.602 55.752 582.101 56.3503 584.144 57.5469 586.188 58.7435 587.742 60.43 588.806 62.6062 589.869 64.7825 590.401 67.3402 590.401 70.2792 590.401 73.2182 589.869 75.7689 588.806 77.9311 587.742 80.0934 586.188 81.7729 584.144 82.9695 583.633 83.2686 583.094 83.5304 582.526 83.7547L581.33 84.13 582.349 85.1422C582.93 85.5341 583.693 85.8245 584.638 86.0134 585.583 86.2024 586.804 86.2968 588.302 86.2968L589.414 86.2968 589.414 91.3562 588.008 91.3562C585.978 91.3562 584.291 91.1637 582.948 90.7789 581.604 90.394 580.502 89.8587 579.641 89.1729 578.78 88.4871 578.063 87.6859 577.489 86.7692L576.398 84.7512 574.518 84.6522C572.473 84.4278 570.681 83.8669 569.143 82.9695 567.092 81.7729 565.535 80.0934 564.471 77.9311 563.407 75.7689 562.875 73.2182 562.875 70.2792 562.875 67.3402 563.407 64.7825 564.471 62.6062 565.535 60.43 567.092 58.7435 569.143 57.5469 571.193 56.3503 573.695 55.752 576.649 55.752Z" fill="url(#fill4)" fill-rule="evenodd"/><text fill="#000000" fill-opacity="0" font-family="Arial,Arial_MSFontService,sans-serif" font-size="35.6041" x="540.177" y="86.9056">EQUIPO #4</text></g></svg>