<svg width="1278" height="2049" xmlns="http://www.w3.org/2000/svg" xmlns:xlink="http://www.w3.org/1999/xlink" overflow="hidden"><defs><filter id="fx0" x="-10%" y="-10%" width="120%" height="120%" filterUnits="userSpaceOnUse" primitiveUnits="userSpaceOnUse"><feComponentTransfer color-interpolation-filters="sRGB"><feFuncR type="discrete" tableValues="0 0"/><feFuncG type="discrete" tableValues="0 0"/><feFuncB type="discrete" tableValues="0 0"/><feFuncA type="linear" slope="0.4" intercept="0"/></feComponentTransfer><feGaussianBlur stdDeviation="1.77847 1.77821"/></filter><filter id="fx1" x="-10%" y="-10%" width="120%" height="120%" filterUnits="userSpaceOnUse" primitiveUnits="userSpaceOnUse"><feComponentTransfer color-interpolation-filters="sRGB"><feFuncR type="discrete" tableValues="0 0"/><feFuncG type="discrete" tableValues="0 0"/><feFuncB type="discrete" tableValues="0 0"/><feFuncA type="linear" slope="0.4" intercept="0"/></feComponentTransfer><feGaussianBlur stdDeviation="1.77847 1.77821"/></filter><linearGradient x1="628.883" y1="1191.89" x2="652.286" y2="1288.64" gradientUnits="userSpaceOnUse" spreadMethod="reflect" id="fill2"><stop offset="0" stop-color="#002C3F"/><stop offset="0.5" stop-color="#00445F"/><stop offset="1" stop-color="#005272"/></linearGradient><linearGradient x1="628.926" y1="806.477" x2="652.329" y2="903.228" gradientUnits="userSpaceOnUse" spreadMethod="reflect" id="fill3"><stop offset="0" stop-color="#002C3F"/><stop offset="0.5" stop-color="#00445F"/><stop offset="1" stop-color="#005272"/></linearGradient><linearGradient x1="628.926" y1="408.269" x2="652.329" y2="505.02" gradientUnits="userSpaceOnUse" spreadMethod="reflect" id="fill4"><stop offset="0" stop-color="#002C3F"/><stop offset="0.5" stop-color="#00445F"/><stop offset="1" stop-color="#005272"/></linearGradient><linearGradient x1="627.298" y1="11.4998" x2="650.701" y2="108.25" gradientUnits="userSpaceOnUse" spreadMethod="reflect" id="fill5"><stop offset="0" stop-color="#002C3F"/><stop offset="0.5" stop-color="#00445F"/><stop offset="1" stop-color="#005272"/></linearGradient><clipPath id="clip6"><path d="M75.0001 1642.76 75.0001 1960.71 1203 1960.71 1203 1642.76ZM1.90437e-05 3.05325e-05 1278 3.05325e-05 1278 2049 1.90437e-05 2049Z" fill-rule="evenodd" clip-rule="evenodd"/></clipPath><linearGradient x1="631.524" y1="1738.08" x2="646.475" y2="1864.32" gradientUnits="userSpaceOnUse" spreadMethod="reflect" id="fill7"><stop offset="0" stop-color="#002C3F"/><stop offset="0.5" stop-color="#00445F"/><stop offset="1" stop-color="#005272"/></linearGradient></defs><g><rect x="0" y="0" width="1278" height="2048.7" fill="#FFFFFF"/><path d="M90.4463 88.3475 160.497 88.3475 160.497 141.274 90.4463 141.274Z" fill="#156082" fill-rule="evenodd"/><path d="M160.497 88.3475 823.98 88.3475 823.98 141.274 160.497 141.274Z" fill="#156082" fill-rule="evenodd"/><path d="M823.98 88.3475 1190.81 88.3475 1190.81 141.274 823.98 141.274Z" fill="#156082" fill-rule="evenodd"/><path d="M90.4463 141.274 160.497 141.274 160.497 194.2 90.4463 194.2Z" fill="#156082" fill-rule="evenodd"/><path d="M160.497 141.274 823.98 141.274 823.98 194.2 160.497 194.2Z" fill="#CCD2D8" fill-rule="evenodd"/><path d="M823.98 141.274 1190.81 141.274 1190.81 405.905 823.98 405.905Z" fill="#CCD2D8" fill-rule="evenodd"/><path d="M90.4463 194.2 160.497 194.2 160.497 247.126 90.4463 247.126Z" fill="#156082" fill-rule="evenodd"/><path d="M160.497 194.2 823.98 194.2 823.98 247.126 160.497 247.126Z" fill="#E7EAED" fill-rule="evenodd"/><path d="M90.4463 247.126 160.497 247.126 160.497 300.053 90.4463 300.053Z" fill="#156082" fill-rule="evenodd"/><path d="M160.497 247.126 823.98 247.126 823.98 300.053 160.497 300.053Z" fill="#CCD2D8" fill-rule="evenodd"/><path d="M90.4463 300.053 160.497 300.053 160.497 352.979 90.4463 352.979Z" fill="#156082" fill-rule="evenodd"/><path d="M160.497 300.053 823.98 300.053 823.98 352.979 160.497 352.979Z" fill="#E7EAED" fill-rule="evenodd"/><path d="M90.4463 352.979 160.497 352.979 160.497 405.905 90.4463 405.905Z" fill="#156082" fill-rule="evenodd"/><path d="M160.497 352.979 823.98 352.979 823.98 405.905 160.497 405.905Z" fill="#CCD2D8" fill-rule="evenodd"/><path d="M160.497 87.6807 160.497 406.572" stroke="#FFFFFF" stroke-width="1.33386" stroke-linejoin="round" stroke-miterlimit="10" fill="none" fill-rule="evenodd"/><path d="M823.98 87.6807 823.98 406.572" stroke="#FFFFFF" stroke-width="1.33386" stroke-linejoin="round" stroke-miterlimit="10" fill="none" fill-rule="evenodd"/><path d="M89.7794 141.274 1191.48 141.274" stroke="#FFFFFF" stroke-width="4.00157" stroke-linejoin="round" stroke-miterlimit="10" fill="none" fill-rule="evenodd"/><path d="M89.7794 194.2 824.647 194.2" stroke="#FFFFFF" stroke-width="1.33386" stroke-linejoin="round" stroke-miterlimit="10" fill="none" fill-rule="evenodd"/><path d="M89.7794 247.126 824.647 247.126" stroke="#FFFFFF" stroke-width="1.33386" stroke-linejoin="round" stroke-miterlimit="10" fill="none" fill-rule="evenodd"/><path d="M89.7794 300.053 824.647 300.053" stroke="#FFFFFF" stroke-width="1.33386" stroke-linejoin="round" stroke-miterlimit="10" fill="none" fill-rule="evenodd"/><path d="M89.7794 352.979 824.647 352.979" stroke="#FFFFFF" stroke-width="1.33386" stroke-linejoin="round" stroke-miterlimit="10" fill="none" fill-rule="evenodd"/><path d="M90.4463 87.6807 90.4463 406.572" stroke="#FFFFFF" stroke-width="1.33386" stroke-linejoin="round" stroke-miterlimit="10" fill="none" fill-rule="evenodd"/><path d="M1190.81 87.6807 1190.81 406.572" stroke="#FFFFFF" stroke-width="1.33386" stroke-linejoin="round" stroke-miterlimit="10" fill="none" fill-rule="evenodd"/><path d="M89.7794 88.3475 1191.48 88.3475" stroke="#FFFFFF" stroke-width="1.33386" stroke-linejoin="round" stroke-miterlimit="10" fill="none" fill-rule="evenodd"/><path d="M89.7794 405.905 1191.48 405.905" stroke="#FFFFFF" stroke-width="1.33386" stroke-linejoin="round" stroke-miterlimit="10" fill="none" fill-rule="evenodd"/><text fill="#FFFFFF" font-family="Aptos,Aptos_MSFontService,sans-serif" font-weight="700" font-size="43" transform="matrix(1 0 0 0.999853 934.479 129)">GRADO</text><text fill="#FFFFFF" font-family="Aptos,Aptos_MSFontService,sans-serif" font-weight="700" font-size="43" transform="matrix(1 0 0 0.999853 404.537 129)">NOMBRE</text><g><text fill="#FFFFFF" font-family="Aptos,Aptos_MSFontService,sans-serif" font-weight="700" font-size="43" transform="matrix(1 0 0 0.999853 101.962 129)">N</text></g><g><text fill="#FFFFFF" font-family="Aptos,Aptos_MSFontService,sans-serif" font-weight="700" font-size="43" transform="matrix(1 0 0 0.999853 132.808 129)">°</text></g><text font-family="Aptos,Aptos_MSFontService,sans-serif" font-weight="400" font-size="43" transform="matrix(1 0 0 0.999853 985.656 313)">4T</text><g><text font-family="Aptos,Aptos_MSFontService,sans-serif" font-weight="400" font-size="43" transform="matrix(1 0 0 0.999853 167.699 182)">Santiago blandon</text></g><g><text fill="#FFFFFF" font-family="Aptos,Aptos_MSFontService,sans-serif" font-weight="700" font-size="43" transform="matrix(1 0 0 0.999853 114.05 182)">1</text></g><g><text font-family="Aptos,Aptos_MSFontService,sans-serif" font-weight="400" font-size="43" transform="matrix(1 0 0 0.999853 167.699 235)">Dominic gonzalez</text></g><g><text fill="#FFFFFF" font-family="Aptos,Aptos_MSFontService,sans-serif" font-weight="700" font-size="43" transform="matrix(1 0 0 0.999853 114.05 235)">2</text></g><g><text font-family="Aptos,Aptos_MSFontService,sans-serif" font-weight="400" font-size="43" transform="matrix(1 0 0 0.999853 167.699 288)">Ithan ríos</text></g><g><text fill="#FFFFFF" font-family="Aptos,Aptos_MSFontService,sans-serif" font-weight="700" font-size="43" transform="matrix(1 0 0 0.999853 114.05 288)">3</text></g><g><text font-family="Aptos,Aptos_MSFontService,sans-serif" font-weight="400" font-size="43" transform="matrix(1 0 0 0.999853 167.699 341)">David camelo</text></g><g><text fill="#FFFFFF" font-family="Aptos,Aptos_MSFontService,sans-serif" font-weight="700" font-size="43" transform="matrix(1 0 0 0.999853 114.05 341)">4</text></g><g><text font-family="Aptos,Aptos_MSFontService,sans-serif" font-weight="400" font-size="43" transform="matrix(1 0 0 0.999853 167.699 394)">Amaury quique</text></g><g><text fill="#FFFFFF" font-family="Aptos,Aptos_MSFontService,sans-serif" font-weight="700" font-size="43" transform="matrix(1 0 0 0.999853 114.05 394)">5</text></g><path d="M90.4463 486.62 160.497 486.62 160.497 539.546 90.4463 539.546Z" fill="#156082" fill-rule="evenodd"/><path d="M160.497 486.62 823.98 486.62 823.98 539.546 160.497 539.546Z" fill="#156082" fill-rule="evenodd"/><path d="M823.98 486.62 1190.81 486.62 1190.81 539.546 823.98 539.546Z" fill="#156082" fill-rule="evenodd"/><path d="M90.4463 539.546 160.497 539.546 160.497 592.473 90.4463 592.473Z" fill="#156082" fill-rule="evenodd"/><path d="M160.497 539.546 823.98 539.546 823.98 592.473 160.497 592.473Z" fill="#CCD2D8" fill-rule="evenodd"/><path d="M823.98 539.546 1190.81 539.546 1190.81 804.178 823.98 804.178Z" fill="#CCD2D8" fill-rule="evenodd"/><path d="M90.4463 592.473 160.497 592.473 160.497 645.399 90.4463 645.399Z" fill="#156082" fill-rule="evenodd"/><path d="M160.497 592.473 823.98 592.473 823.98 645.399 160.497 645.399Z" fill="#E7EAED" fill-rule="evenodd"/><path d="M90.4463 645.399 160.497 645.399 160.497 698.325 90.4463 698.325Z" fill="#156082" fill-rule="evenodd"/><path d="M160.497 645.399 823.98 645.399 823.98 698.325 160.497 698.325Z" fill="#CCD2D8" fill-rule="evenodd"/><path d="M90.4463 698.325 160.497 698.325 160.497 751.252 90.4463 751.252Z" fill="#156082" fill-rule="evenodd"/><path d="M160.497 698.325 823.98 698.325 823.98 751.252 160.497 751.252Z" fill="#E7EAED" fill-rule="evenodd"/><path d="M90.4463 751.252 160.497 751.252 160.497 804.178 90.4463 804.178Z" fill="#156082" fill-rule="evenodd"/><path d="M160.497 751.252 823.98 751.252 823.98 804.178 160.497 804.178Z" fill="#CCD2D8" fill-rule="evenodd"/><path d="M160.497 485.953 160.497 804.845" stroke="#FFFFFF" stroke-width="1.33386" stroke-linejoin="round" stroke-miterlimit="10" fill="none" fill-rule="evenodd"/><path d="M823.98 485.953 823.98 804.845" stroke="#FFFFFF" stroke-width="1.33386" stroke-linejoin="round" stroke-miterlimit="10" fill="none" fill-rule="evenodd"/><path d="M89.7794 539.546 1191.48 539.546" stroke="#FFFFFF" stroke-width="4.00157" stroke-linejoin="round" stroke-miterlimit="10" fill="none" fill-rule="evenodd"/><path d="M89.7794 592.473 824.647 592.473" stroke="#FFFFFF" stroke-width="1.33386" stroke-linejoin="round" stroke-miterlimit="10" fill="none" fill-rule="evenodd"/><path d="M89.7794 645.399 824.647 645.399" stroke="#FFFFFF" stroke-width="1.33386" stroke-linejoin="round" stroke-miterlimit="10" fill="none" fill-rule="evenodd"/><path d="M89.7794 698.325 824.647 698.325" stroke="#FFFFFF" stroke-width="1.33386" stroke-linejoin="round" stroke-miterlimit="10" fill="none" fill-rule="evenodd"/><path d="M89.7794 751.252 824.647 751.252" stroke="#FFFFFF" stroke-width="1.33386" stroke-linejoin="round" stroke-miterlimit="10" fill="none" fill-rule="evenodd"/><path d="M90.4463 485.953 90.4463 804.845" stroke="#FFFFFF" stroke-width="1.33386" stroke-linejoin="round" stroke-miterlimit="10" fill="none" fill-rule="evenodd"/><path d="M1190.81 485.953 1190.81 804.845" stroke="#FFFFFF" stroke-width="1.33386" stroke-linejoin="round" stroke-miterlimit="10" fill="none" fill-rule="evenodd"/><path d="M89.7794 486.62 1191.48 486.62" stroke="#FFFFFF" stroke-width="1.33386" stroke-linejoin="round" stroke-miterlimit="10" fill="none" fill-rule="evenodd"/><path d="M89.7794 804.178 1191.48 804.178" stroke="#FFFFFF" stroke-width="1.33386" stroke-linejoin="round" stroke-miterlimit="10" fill="none" fill-rule="evenodd"/><text fill="#FFFFFF" font-family="Aptos,Aptos_MSFontService,sans-serif" font-weight="700" font-size="43" transform="matrix(1 0 0 0.999853 934.479 528)">GRADO</text><text fill="#FFFFFF" font-family="Aptos,Aptos_MSFontService,sans-serif" font-weight="700" font-size="43" transform="matrix(1 0 0 0.999853 404.537 528)">NOMBRE</text><g><text fill="#FFFFFF" font-family="Aptos,Aptos_MSFontService,sans-serif" font-weight="700" font-size="43" transform="matrix(1 0 0 0.999853 101.962 528)">N</text></g><g><text fill="#FFFFFF" font-family="Aptos,Aptos_MSFontService,sans-serif" font-weight="700" font-size="43" transform="matrix(1 0 0 0.999853 132.808 528)">°</text></g><text font-family="Aptos,Aptos_MSFontService,sans-serif" font-weight="400" font-size="43" transform="matrix(1 0 0 0.999853 968.163 711)">4T</text><text font-family="Aptos,Aptos_MSFontService,sans-serif" font-weight="400" font-size="43" transform="matrix(1 0 0 0.999853 1009.16 711)">-</text><text font-family="Aptos,Aptos_MSFontService,sans-serif" font-weight="400" font-size="43" transform="matrix(1 0 0 0.999853 1023.66 711)">2</text><g><text font-family="Aptos,Aptos_MSFontService,sans-serif" font-weight="400" font-size="43" transform="matrix(1 0 0 0.999853 167.699 580)">Kenny peña</text></g><g><text fill="#FFFFFF" font-family="Aptos,Aptos_MSFontService,sans-serif" font-weight="700" font-size="43" transform="matrix(1 0 0 0.999853 114.05 580)">1</text></g><g><text font-family="Aptos,Aptos_MSFontService,sans-serif" font-weight="400" font-size="43" transform="matrix(1 0 0 0.999853 167.699 633)">Nicolas bedoya</text></g><g><text fill="#FFFFFF" font-family="Aptos,Aptos_MSFontService,sans-serif" font-weight="700" font-size="43" transform="matrix(1 0 0 0.999853 114.05 633)">2</text></g><g><text font-family="Aptos,Aptos_MSFontService,sans-serif" font-weight="400" font-size="43" transform="matrix(1 0 0 0.999853 167.699 686)">Dilan Rodríguez</text></g><g><text fill="#FFFFFF" font-family="Aptos,Aptos_MSFontService,sans-serif" font-weight="700" font-size="43" transform="matrix(1 0 0 0.999853 114.05 686)">3</text></g><g><text font-family="Aptos,Aptos_MSFontService,sans-serif" font-weight="400" font-size="43" transform="matrix(1 0 0 0.999853 167.699 739)">Santiago Ochoa 3T</text></g><g><text fill="#FFFFFF" font-family="Aptos,Aptos_MSFontService,sans-serif" font-weight="700" font-size="43" transform="matrix(1 0 0 0.999853 114.05 739)">4</text></g><g><text font-family="Aptos,Aptos_MSFontService,sans-serif" font-weight="400" font-size="43" transform="matrix(1 0 0 0.999853 167.699 792)">Esteba cobo 3T</text></g><g><text fill="#FFFFFF" font-family="Aptos,Aptos_MSFontService,sans-serif" font-weight="700" font-size="43" transform="matrix(1 0 0 0.999853 114.05 792)">5</text></g><path d="M90.4462 883.224 160.496 883.224 160.496 936.15 90.4462 936.15Z" fill="#156082" fill-rule="evenodd"/><path d="M160.496 883.224 823.98 883.224 823.98 936.15 160.496 936.15Z" fill="#156082" fill-rule="evenodd"/><path d="M823.98 883.224 1190.81 883.224 1190.81 936.15 823.98 936.15Z" fill="#156082" fill-rule="evenodd"/><path d="M90.4462 936.15 160.496 936.15 160.496 989.076 90.4462 989.076Z" fill="#156082" fill-rule="evenodd"/><path d="M160.496 936.15 823.98 936.15 823.98 989.076 160.496 989.076Z" fill="#CCD2D8" fill-rule="evenodd"/><path d="M823.98 936.15 1190.81 936.15 1190.81 1200.78 823.98 1200.78Z" fill="#CCD2D8" fill-rule="evenodd"/><path d="M90.4462 989.076 160.496 989.076 160.496 1042 90.4462 1042Z" fill="#156082" fill-rule="evenodd"/><path d="M160.496 989.076 823.98 989.076 823.98 1042 160.496 1042Z" fill="#E7EAED" fill-rule="evenodd"/><path d="M90.4462 1042 160.496 1042 160.496 1094.93 90.4462 1094.93Z" fill="#156082" fill-rule="evenodd"/><path d="M160.496 1042 823.98 1042 823.98 1094.93 160.496 1094.93Z" fill="#CCD2D8" fill-rule="evenodd"/><path d="M90.4462 1094.93 160.496 1094.93 160.496 1147.86 90.4462 1147.86Z" fill="#156082" fill-rule="evenodd"/><path d="M160.496 1094.93 823.98 1094.93 823.98 1147.86 160.496 1147.86Z" fill="#E7EAED" fill-rule="evenodd"/><path d="M90.4462 1147.86 160.496 1147.86 160.496 1200.78 90.4462 1200.78Z" fill="#156082" fill-rule="evenodd"/><path d="M160.496 1147.86 823.98 1147.86 823.98 1200.78 160.496 1200.78Z" fill="#CCD2D8" fill-rule="evenodd"/><path d="M160.496 882.557 160.496 1201.45" stroke="#FFFFFF" stroke-width="1.33386" stroke-linejoin="round" stroke-miterlimit="10" fill="none" fill-rule="evenodd"/><path d="M823.98 882.557 823.98 1201.45" stroke="#FFFFFF" stroke-width="1.33386" stroke-linejoin="round" stroke-miterlimit="10" fill="none" fill-rule="evenodd"/><path d="M89.7793 936.15 1191.48 936.15" stroke="#FFFFFF" stroke-width="4.00157" stroke-linejoin="round" stroke-miterlimit="10" fill="none" fill-rule="evenodd"/><path d="M89.7793 989.076 824.647 989.076" stroke="#FFFFFF" stroke-width="1.33386" stroke-linejoin="round" stroke-miterlimit="10" fill="none" fill-rule="evenodd"/><path d="M89.7793 1042 824.647 1042" stroke="#FFFFFF" stroke-width="1.33386" stroke-linejoin="round" stroke-miterlimit="10" fill="none" fill-rule="evenodd"/><path d="M89.7793 1094.93 824.647 1094.93" stroke="#FFFFFF" stroke-width="1.33386" stroke-linejoin="round" stroke-miterlimit="10" fill="none" fill-rule="evenodd"/><path d="M89.7793 1147.86 824.647 1147.86" stroke="#FFFFFF" stroke-width="1.33386" stroke-linejoin="round" stroke-miterlimit="10" fill="none" fill-rule="evenodd"/><path d="M90.4462 882.557 90.4462 1201.45" stroke="#FFFFFF" stroke-width="1.33386" stroke-linejoin="round" stroke-miterlimit="10" fill="none" fill-rule="evenodd"/><path d="M1190.81 882.557 1190.81 1201.45" stroke="#FFFFFF" stroke-width="1.33386" stroke-linejoin="round" stroke-miterlimit="10" fill="none" fill-rule="evenodd"/><path d="M89.7793 883.224 1191.48 883.224" stroke="#FFFFFF" stroke-width="1.33386" stroke-linejoin="round" stroke-miterlimit="10" fill="none" fill-rule="evenodd"/><path d="M89.7793 1200.78 1191.48 1200.78" stroke="#FFFFFF" stroke-width="1.33386" stroke-linejoin="round" stroke-miterlimit="10" fill="none" fill-rule="evenodd"/><text fill="#FFFFFF" font-family="Aptos,Aptos_MSFontService,sans-serif" font-weight="700" font-size="43" transform="matrix(1 0 0 0.999853 934.479 924)">GRADO</text><text fill="#FFFFFF" font-family="Aptos,Aptos_MSFontService,sans-serif" font-weight="700" font-size="43" transform="matrix(1 0 0 0.999853 404.537 924)">NOMBRE</text><g><text fill="#FFFFFF" font-family="Aptos,Aptos_MSFontService,sans-serif" font-weight="700" font-size="43" transform="matrix(1 0 0 0.999853 101.962 924)">N</text></g><g><text fill="#FFFFFF" font-family="Aptos,Aptos_MSFontService,sans-serif" font-weight="700" font-size="43" transform="matrix(1 0 0 0.999853 132.807 924)">°</text></g><text font-family="Aptos,Aptos_MSFontService,sans-serif" font-weight="400" font-size="43" transform="matrix(1 0 0 0.999853 979.074 1108)">5M</text><g><text font-family="Aptos,Aptos_MSFontService,sans-serif" font-weight="400" font-size="43" transform="matrix(1 0 0 0.999853 167.699 977)">Alejandro marin</text></g><g><text fill="#FFFFFF" font-family="Aptos,Aptos_MSFontService,sans-serif" font-weight="700" font-size="43" transform="matrix(1 0 0 0.999853 114.05 977)">1</text></g><g><text font-family="Aptos,Aptos_MSFontService,sans-serif" font-weight="400" font-size="43" transform="matrix(1 0 0 0.999853 167.699 1030)">Najib benitez</text></g><g><text fill="#FFFFFF" font-family="Aptos,Aptos_MSFontService,sans-serif" font-weight="700" font-size="43" transform="matrix(1 0 0 0.999853 114.05 1030)">2</text></g><g><text font-family="Aptos,Aptos_MSFontService,sans-serif" font-weight="400" font-size="43" transform="matrix(1 0 0 0.999853 167.699 1083)">Dylan Arango</text></g><g><text fill="#FFFFFF" font-family="Aptos,Aptos_MSFontService,sans-serif" font-weight="700" font-size="43" transform="matrix(1 0 0 0.999853 114.05 1083)">3</text></g><g><text font-family="Aptos,Aptos_MSFontService,sans-serif" font-weight="400" font-size="43" transform="matrix(1 0 0 0.999853 167.699 1136)">Sergio Triviño</text></g><g><text fill="#FFFFFF" font-family="Aptos,Aptos_MSFontService,sans-serif" font-weight="700" font-size="43" transform="matrix(1 0 0 0.999853 114.05 1136)">4</text></g><g><text font-family="Aptos,Aptos_MSFontService,sans-serif" font-weight="400" font-size="43" transform="matrix(1 0 0 0.999853 167.699 1189)">Geronimo loaiza</text></g><g><text fill="#FFFFFF" font-family="Aptos,Aptos_MSFontService,sans-serif" font-weight="700" font-size="43" transform="matrix(1 0 0 0.999853 114.05 1189)">5</text></g><path d="M88.8186 1266.67 158.973 1266.67 158.973 1319.6 88.8186 1319.6Z" fill="#156082" fill-rule="evenodd"/><path d="M158.973 1266.67 823.437 1266.67 823.437 1319.6 158.973 1319.6Z" fill="#156082" fill-rule="evenodd"/><path d="M823.437 1266.67 1190.81 1266.67 1190.81 1319.6 823.437 1319.6Z" fill="#156082" fill-rule="evenodd"/><path d="M88.8186 1319.6 158.973 1319.6 158.973 1372.52 88.8186 1372.52Z" fill="#156082" fill-rule="evenodd"/><path d="M158.973 1319.6 823.437 1319.6 823.437 1372.52 158.973 1372.52Z" fill="#CCD2D8" fill-rule="evenodd"/><path d="M823.437 1319.6 1190.81 1319.6 1190.81 1584.23 823.437 1584.23Z" fill="#CCD2D8" fill-rule="evenodd"/><path d="M88.8186 1372.52 158.973 1372.52 158.973 1425.45 88.8186 1425.45Z" fill="#156082" fill-rule="evenodd"/><path d="M158.973 1372.52 823.437 1372.52 823.437 1425.45 158.973 1425.45Z" fill="#E7EAED" fill-rule="evenodd"/><path d="M88.8186 1425.45 158.973 1425.45 158.973 1478.37 88.8186 1478.37Z" fill="#156082" fill-rule="evenodd"/><path d="M158.973 1425.45 823.437 1425.45 823.437 1478.37 158.973 1478.37Z" fill="#CCD2D8" fill-rule="evenodd"/><path d="M88.8186 1478.37 158.973 1478.37 158.973 1531.3 88.8186 1531.3Z" fill="#156082" fill-rule="evenodd"/><path d="M158.973 1478.37 823.437 1478.37 823.437 1531.3 158.973 1531.3Z" fill="#E7EAED" fill-rule="evenodd"/><path d="M88.8186 1531.3 158.973 1531.3 158.973 1584.23 88.8186 1584.23Z" fill="#156082" fill-rule="evenodd"/><path d="M158.973 1531.3 823.437 1531.3 823.437 1584.23 158.973 1584.23Z" fill="#CCD2D8" fill-rule="evenodd"/><path d="M158.973 1266 158.973 1584.89" stroke="#FFFFFF" stroke-width="1.33386" stroke-linejoin="round" stroke-miterlimit="10" fill="none" fill-rule="evenodd"/><path d="M823.437 1266 823.437 1584.89" stroke="#FFFFFF" stroke-width="1.33386" stroke-linejoin="round" stroke-miterlimit="10" fill="none" fill-rule="evenodd"/><path d="M88.1516 1319.6 1191.48 1319.6" stroke="#FFFFFF" stroke-width="4.00157" stroke-linejoin="round" stroke-miterlimit="10" fill="none" fill-rule="evenodd"/><path d="M88.1516 1372.52 824.104 1372.52" stroke="#FFFFFF" stroke-width="1.33386" stroke-linejoin="round" stroke-miterlimit="10" fill="none" fill-rule="evenodd"/><path d="M88.1516 1425.45 824.104 1425.45" stroke="#FFFFFF" stroke-width="1.33386" stroke-linejoin="round" stroke-miterlimit="10" fill="none" fill-rule="evenodd"/><path d="M88.1516 1478.37 824.104 1478.37" stroke="#FFFFFF" stroke-width="1.33386" stroke-linejoin="round" stroke-miterlimit="10" fill="none" fill-rule="evenodd"/><path d="M88.1516 1531.3 824.104 1531.3" stroke="#FFFFFF" stroke-width="1.33386" stroke-linejoin="round" stroke-miterlimit="10" fill="none" fill-rule="evenodd"/><path d="M88.8186 1266 88.8186 1584.89" stroke="#FFFFFF" stroke-width="1.33386" stroke-linejoin="round" stroke-miterlimit="10" fill="none" fill-rule="evenodd"/><path d="M1190.81 1266 1190.81 1584.89" stroke="#FFFFFF" stroke-width="1.33386" stroke-linejoin="round" stroke-miterlimit="10" fill="none" fill-rule="evenodd"/><path d="M88.1516 1266.67 1191.48 1266.67" stroke="#FFFFFF" stroke-width="1.33386" stroke-linejoin="round" stroke-miterlimit="10" fill="none" fill-rule="evenodd"/><path d="M88.1516 1584.23 1191.48 1584.23" stroke="#FFFFFF" stroke-width="1.33386" stroke-linejoin="round" stroke-miterlimit="10" fill="none" fill-rule="evenodd"/><text fill="#FFFFFF" font-family="Aptos,Aptos_MSFontService,sans-serif" font-weight="700" font-size="43" transform="matrix(1 0 0 0.999853 934.208 1307)">GRADO</text><text fill="#FFFFFF" font-family="Aptos,Aptos_MSFontService,sans-serif" font-weight="700" font-size="43" transform="matrix(1 0 0 0.999853 403.504 1307)">NOMBRE</text><g><text fill="#FFFFFF" font-family="Aptos,Aptos_MSFontService,sans-serif" font-weight="700" font-size="43" transform="matrix(1 0 0 0.999853 100.386 1307)">N</text></g><g><text fill="#FFFFFF" font-family="Aptos,Aptos_MSFontService,sans-serif" font-weight="700" font-size="43" transform="matrix(1 0 0 0.999853 131.232 1307)">°</text></g><text font-family="Aptos,Aptos_MSFontService,sans-serif" font-weight="400" font-size="43" transform="matrix(1 0 0 0.999853 985.367 1491)">5T</text><g><text font-family="Aptos,Aptos_MSFontService,sans-serif" font-weight="400" font-size="43" transform="matrix(1 0 0 0.999853 166.175 1360)">Josue Clavijo 5T</text></g><g><text fill="#FFFFFF" font-family="Aptos,Aptos_MSFontService,sans-serif" font-weight="700" font-size="43" transform="matrix(1 0 0 0.999853 112.474 1360)">1</text></g><g><text font-family="Aptos,Aptos_MSFontService,sans-serif" font-weight="400" font-size="43" transform="matrix(1 0 0 0.999853 166.175 1413)">Juan Henao</text></g><g><text fill="#FFFFFF" font-family="Aptos,Aptos_MSFontService,sans-serif" font-weight="700" font-size="43" transform="matrix(1 0 0 0.999853 112.474 1413)">2</text></g><g><text font-family="Aptos,Aptos_MSFontService,sans-serif" font-weight="400" font-size="43" transform="matrix(1 0 0 0.999853 166.175 1466)">Sergio dominguez</text></g><g><text fill="#FFFFFF" font-family="Aptos,Aptos_MSFontService,sans-serif" font-weight="700" font-size="43" transform="matrix(1 0 0 0.999853 112.474 1466)">3</text></g><g><text font-family="Aptos,Aptos_MSFontService,sans-serif" font-weight="400" font-size="43" transform="matrix(1 0 0 0.999853 166.175 1519)">Enmanuel Agudelo</text></g><g><text fill="#FFFFFF" font-family="Aptos,Aptos_MSFontService,sans-serif" font-weight="700" font-size="43" transform="matrix(1 0 0 0.999853 112.474 1519)">4</text></g><g><text font-family="Aptos,Aptos_MSFontService,sans-serif" font-weight="400" font-size="43" transform="matrix(1 0 0 0.999853 166.175 1572)">Jehiner correa 4M</text></g><g><text fill="#FFFFFF" font-family="Aptos,Aptos_MSFontService,sans-serif" font-weight="700" font-size="43" transform="matrix(1 0 0 0.999853 112.474 1572)">5</text></g><path d="M735.303 1241.4C734.603 1241.39 733.931 1241.53 733.287 1241.82 732.643 1242.12 732.118 1242.56 731.712 1243.16 731.306 1243.75 731.103 1244.49 731.103 1245.37 731.103 1246.77 731.523 1247.82 732.363 1248.52 733.203 1249.22 734.176 1249.57 735.282 1249.57 736.009 1249.57 736.695 1249.42 737.339 1249.13 737.983 1248.84 738.501 1248.38 738.893 1247.76 739.285 1247.13 739.481 1246.34 739.481 1245.37 739.481 1244.5 739.292 1243.77 738.914 1243.18 738.536 1242.58 738.032 1242.14 737.402 1241.84 736.772 1241.53 736.072 1241.39 735.303 1241.4ZM710.644 1237.42 709.972 1242.31 714.171 1242.31 714.801 1237.42ZM644.077 1230.17 644.077 1238.86 648.717 1238.86C650.089 1238.86 651.198 1238.5 652.045 1237.77 652.892 1237.05 653.315 1235.97 653.315 1234.54 653.315 1233.06 652.881 1231.96 652.014 1231.24 651.146 1230.53 650.047 1230.17 648.717 1230.17ZM735.303 1230.01C734.687 1230.01 734.106 1230.13 733.56 1230.38 733.014 1230.64 732.57 1231.02 732.227 1231.53 731.884 1232.04 731.712 1232.69 731.712 1233.49 731.712 1234.27 731.877 1234.94 732.206 1235.5 732.535 1236.05 732.976 1236.46 733.528 1236.74 734.081 1237.02 734.673 1237.16 735.303 1237.14 735.946 1237.16 736.541 1237.02 737.087 1236.74 737.633 1236.46 738.071 1236.05 738.4 1235.51 738.728 1234.96 738.893 1234.29 738.893 1233.49 738.893 1232.29 738.536 1231.41 737.822 1230.85 737.108 1230.29 736.268 1230.01 735.303 1230.01ZM676.649 1229.94C674.801 1229.94 673.314 1230.38 672.187 1231.24 671.06 1232.11 670.242 1233.27 669.731 1234.73 669.22 1236.18 668.964 1237.79 668.964 1239.56 668.964 1241.29 669.22 1242.89 669.731 1244.34 670.242 1245.8 671.06 1246.96 672.187 1247.83 673.314 1248.7 674.801 1249.13 676.649 1249.13 678.482 1249.13 679.959 1248.7 681.079 1247.83 682.199 1246.96 683.018 1245.8 683.536 1244.34 684.053 1242.89 684.312 1241.29 684.312 1239.56 684.312 1237.79 684.053 1236.18 683.536 1234.73 683.018 1233.27 682.199 1232.11 681.079 1231.24 679.959 1230.38 678.482 1229.94 676.649 1229.94ZM576.649 1229.94C574.801 1229.94 573.314 1230.38 572.187 1231.24 571.06 1232.11 570.242 1233.27 569.731 1234.73 569.22 1236.18 568.964 1237.79 568.964 1239.56 568.964 1241.29 569.22 1242.89 569.731 1244.34 570.242 1245.8 571.06 1246.96 572.187 1247.83 573.314 1248.7 574.801 1249.13 576.649 1249.13 578.482 1249.13 579.959 1248.7 581.079 1247.83 582.199 1246.96 583.018 1245.8 583.536 1244.34 584.053 1242.89 584.312 1241.29 584.312 1239.56 584.312 1237.79 584.053 1236.18 583.536 1234.73 583.018 1233.27 582.199 1232.11 581.079 1231.24 579.959 1230.38 578.482 1229.94 576.649 1229.94ZM708.397 1226.16 712.198 1226.16 711.127 1233.95 715.305 1233.95 716.376 1226.16 720.218 1226.16 719.126 1233.95 723.074 1233.95 723.074 1237.42 718.622 1237.42 717.972 1242.31 721.877 1242.31 721.877 1245.79 717.489 1245.79 716.397 1253.66 712.576 1253.66 713.646 1245.79 709.468 1245.79 708.376 1253.66 704.534 1253.66 705.626 1245.79 701.616 1245.79 701.616 1242.31 706.13 1242.31 706.802 1237.42 702.77 1237.42 702.77 1233.95 707.306 1233.95ZM735.303 1225.79C736.8 1225.79 738.214 1226.03 739.544 1226.53 740.874 1227.03 741.951 1227.81 742.777 1228.88 743.603 1229.95 744.016 1231.36 744.016 1233.09 744.016 1234.66 743.628 1235.98 742.851 1237.05 742.074 1238.12 741.154 1238.85 740.09 1239.24 741.587 1239.68 742.802 1240.45 743.733 1241.55 744.663 1242.66 745.129 1244.08 745.129 1245.81 745.129 1247.28 744.852 1248.54 744.299 1249.58 743.747 1250.62 743.005 1251.47 742.074 1252.13 741.143 1252.79 740.093 1253.27 738.924 1253.58 737.756 1253.89 736.548 1254.04 735.303 1254.04 734.071 1254.04 732.867 1253.89 731.691 1253.58 730.516 1253.27 729.455 1252.79 728.51 1252.13 727.566 1251.47 726.817 1250.62 726.264 1249.58 725.711 1248.54 725.434 1247.28 725.434 1245.81 725.434 1244.08 725.903 1242.66 726.841 1241.55 727.779 1240.45 729.004 1239.68 730.516 1239.24 729.326 1238.79 728.37 1238.05 727.65 1237.01 726.929 1235.96 726.568 1234.66 726.568 1233.09 726.568 1231.36 726.981 1229.95 727.807 1228.87 728.633 1227.79 729.711 1227.01 731.04 1226.52 732.37 1226.03 733.791 1225.79 735.303 1225.79ZM638.177 1225.41 649.263 1225.41C651.125 1225.41 652.822 1225.74 654.355 1226.39 655.887 1227.05 657.109 1228.05 658.018 1229.4 658.928 1230.74 659.383 1232.45 659.383 1234.54 659.383 1236.6 658.928 1238.3 658.018 1239.64 657.109 1240.98 655.887 1241.98 654.355 1242.63 652.822 1243.28 651.125 1243.61 649.263 1243.61L644.077 1243.61 644.077 1253.66 638.177 1253.66ZM625.177 1225.41 631.077 1225.41 631.077 1253.66 625.177 1253.66ZM595.841 1225.41 601.888 1225.41 601.888 1242.29C601.888 1244.61 602.364 1246.34 603.316 1247.47 604.268 1248.61 605.765 1249.17 607.809 1249.17 609.867 1249.17 611.354 1248.61 612.271 1247.47 613.188 1246.34 613.646 1244.61 613.646 1242.29L613.646 1225.41 619.714 1225.41 619.714 1242.43C619.714 1244.92 619.301 1247.04 618.475 1248.77 617.649 1250.51 616.358 1251.82 614.601 1252.71 612.845 1253.6 610.566 1254.04 607.767 1254.04 604.995 1254.04 602.728 1253.6 600.964 1252.71 599.201 1251.82 597.906 1250.51 597.08 1248.77 596.254 1247.04 595.841 1244.92 595.841 1242.43ZM540.177 1225.41 559.137 1225.41 559.137 1230.3 546.077 1230.3 546.077 1236.87 557.919 1236.87 557.919 1241.59 546.077 1241.59 546.077 1248.77 559.137 1248.77 559.137 1253.66 540.177 1253.66ZM676.649 1225.03C679.602 1225.03 682.101 1225.63 684.144 1226.83 686.188 1228.02 687.742 1229.71 688.806 1231.88 689.869 1234.06 690.401 1236.62 690.401 1239.56 690.401 1242.5 689.869 1245.05 688.806 1247.21 687.742 1249.37 686.188 1251.05 684.144 1252.25 682.101 1253.44 679.602 1254.04 676.649 1254.04 673.695 1254.04 671.193 1253.44 669.143 1252.25 667.092 1251.05 665.535 1249.37 664.471 1247.21 663.407 1245.05 662.875 1242.5 662.875 1239.56 662.875 1236.62 663.407 1234.06 664.471 1231.88 665.535 1229.71 667.092 1228.02 669.143 1226.83 671.193 1225.63 673.695 1225.03 676.649 1225.03ZM576.649 1225.03C579.602 1225.03 582.101 1225.63 584.144 1226.83 586.188 1228.02 587.742 1229.71 588.806 1231.88 589.869 1234.06 590.401 1236.62 590.401 1239.56 590.401 1242.5 589.869 1245.05 588.806 1247.21 587.742 1249.37 586.188 1251.05 584.144 1252.25 583.633 1252.55 583.094 1252.81 582.526 1253.03L581.33 1253.41 582.349 1254.42C582.93 1254.81 583.693 1255.1 584.638 1255.29 585.583 1255.48 586.804 1255.58 588.302 1255.58L589.414 1255.58 589.414 1260.63 588.008 1260.63C585.978 1260.63 584.291 1260.44 582.948 1260.06 581.604 1259.67 580.502 1259.14 579.641 1258.45 578.78 1257.77 578.063 1256.96 577.489 1256.05L576.398 1254.03 574.518 1253.93C572.473 1253.71 570.681 1253.15 569.143 1252.25 567.092 1251.05 565.535 1249.37 564.471 1247.21 563.407 1245.05 562.875 1242.5 562.875 1239.56 562.875 1236.62 563.407 1234.06 564.471 1231.88 565.535 1229.71 567.092 1228.02 569.143 1226.83 571.193 1225.63 573.695 1225.03 576.649 1225.03Z" fill="url(#fill2)" fill-rule="evenodd"/><text fill="#000000" fill-opacity="0" font-family="Arial,Arial_MSFontService,sans-serif" font-size="35.6041" x="540.177" y="1256.18">EQUIPO #8</text><path d="M710.687 852.005 710.016 856.896 714.215 856.896 714.845 852.005ZM644.12 844.762 644.12 853.454 648.761 853.454C650.132 853.454 651.242 853.09 652.089 852.362 652.935 851.634 653.359 850.557 653.359 849.129 653.359 847.646 652.925 846.547 652.057 845.833 651.189 845.119 650.09 844.762 648.761 844.762ZM676.692 844.532C674.845 844.532 673.357 844.965 672.231 845.833 671.104 846.701 670.285 847.862 669.774 849.318 669.263 850.773 669.008 852.383 669.008 854.146 669.008 855.882 669.263 857.477 669.774 858.933 670.285 860.388 671.104 861.55 672.231 862.418 673.357 863.285 674.845 863.719 676.692 863.719 678.526 863.719 680.003 863.285 681.122 862.418 682.242 861.55 683.061 860.388 683.579 858.933 684.097 857.477 684.356 855.882 684.356 854.146 684.356 852.383 684.097 850.773 683.579 849.318 683.061 847.862 682.242 846.701 681.122 845.833 680.003 844.965 678.526 844.532 676.692 844.532ZM576.692 844.532C574.845 844.532 573.357 844.965 572.231 845.833 571.104 846.701 570.285 847.862 569.774 849.318 569.263 850.773 569.008 852.383 569.008 854.146 569.008 855.882 569.263 857.477 569.774 858.933 570.285 860.388 571.104 861.55 572.231 862.418 573.357 863.285 574.845 863.719 576.692 863.719 578.526 863.719 580.003 863.285 581.122 862.418 582.242 861.55 583.061 860.388 583.579 858.933 584.097 857.477 584.356 855.882 584.356 854.146 584.356 852.383 584.097 850.773 583.579 849.318 583.061 847.862 582.242 846.701 581.122 845.833 580.003 844.965 578.526 844.532 576.692 844.532ZM725.52 840.753 745.193 840.753 745.193 845.308 734.107 868.254 728.102 868.254 739.566 845.77 725.52 845.77ZM708.441 840.753 712.241 840.753 711.17 848.541 715.349 848.541 716.419 840.753 720.262 840.753 719.17 848.541 723.117 848.541 723.117 852.005 718.666 852.005 718.015 856.896 721.92 856.896 721.92 860.381 717.532 860.381 716.44 868.254 712.619 868.254 713.69 860.381 709.512 860.381 708.42 868.254 704.578 868.254 705.669 860.381 701.659 860.381 701.659 856.896 706.173 856.896 706.845 852.005 702.814 852.005 702.814 848.541 707.349 848.541ZM638.221 839.997 649.307 839.997C651.168 839.997 652.865 840.326 654.398 840.984 655.931 841.642 657.152 842.642 658.062 843.986 658.972 845.329 659.427 847.044 659.427 849.129 659.427 851.186 658.972 852.887 658.062 854.23 657.152 855.574 655.931 856.571 654.398 857.222 652.865 857.873 651.168 858.198 649.307 858.198L644.12 858.198 644.12 868.254 638.221 868.254ZM625.221 839.997 631.12 839.997 631.12 868.254 625.221 868.254ZM595.885 839.997 601.932 839.997 601.932 856.875C601.932 859.199 602.407 860.927 603.359 862.061 604.311 863.194 605.809 863.761 607.852 863.761 609.91 863.761 611.397 863.194 612.314 862.061 613.231 860.927 613.689 859.199 613.689 856.875L613.689 839.997 619.757 839.997 619.757 857.022C619.757 859.514 619.344 861.627 618.518 863.362 617.693 865.098 616.401 866.41 614.645 867.298 612.888 868.187 610.61 868.632 607.81 868.632 605.039 868.632 602.771 868.187 601.008 867.298 599.244 866.41 597.949 865.098 597.123 863.362 596.298 861.627 595.885 859.514 595.885 857.022ZM540.221 839.997 559.18 839.997 559.18 844.888 546.12 844.888 546.12 851.459 557.962 851.459 557.962 856.183 546.12 856.183 546.12 863.362 559.18 863.362 559.18 868.254 540.221 868.254ZM676.692 839.619C679.646 839.619 682.144 840.217 684.188 841.414 686.232 842.611 687.785 844.297 688.849 846.473 689.913 848.65 690.445 851.207 690.445 854.146 690.445 857.085 689.913 859.636 688.849 861.798 687.785 863.961 686.232 865.64 684.188 866.837 682.144 868.033 679.646 868.632 676.692 868.632 673.739 868.632 671.237 868.033 669.186 866.837 667.136 865.64 665.578 863.961 664.515 861.798 663.451 859.636 662.919 857.085 662.919 854.146 662.919 851.207 663.451 848.65 664.515 846.473 665.578 844.297 667.136 842.611 669.186 841.414 671.237 840.217 673.739 839.619 676.692 839.619ZM576.692 839.619C579.646 839.619 582.144 840.217 584.188 841.414 586.232 842.611 587.785 844.297 588.849 846.473 589.913 848.65 590.445 851.207 590.445 854.146 590.445 857.085 589.913 859.636 588.849 861.798 587.785 863.961 586.232 865.64 584.188 866.837 583.677 867.136 583.138 867.398 582.57 867.622L581.373 867.997 582.393 869.009C582.974 869.401 583.736 869.692 584.681 869.881 585.626 870.07 586.847 870.164 588.345 870.164L589.458 870.164 589.458 875.223 588.051 875.223C586.022 875.223 584.335 875.031 582.991 874.646 581.647 874.261 580.545 873.726 579.684 873.04 578.823 872.354 578.106 871.553 577.532 870.636L576.442 868.618 574.562 868.519C572.516 868.295 570.724 867.734 569.186 866.837 567.136 865.64 565.578 863.961 564.515 861.798 563.451 859.636 562.919 857.085 562.919 854.146 562.919 851.207 563.451 848.65 564.515 846.473 565.578 844.297 567.136 842.611 569.186 841.414 571.237 840.217 573.739 839.619 576.692 839.619Z" fill="url(#fill3)" fill-rule="evenodd"/><text fill="#000000" fill-opacity="0" font-family="Arial,Arial_MSFontService,sans-serif" font-size="35.6041" x="540.221" y="870.773">EQUIPO #7</text><path d="M736.207 457.198C734.667 457.198 733.334 457.572 732.207 458.321L731.073 459.276 731.157 460.544C731.276 461.333 731.455 462.019 731.693 462.604 732.169 463.772 732.781 464.608 733.53 465.112 734.279 465.616 735.066 465.868 735.892 465.868 737.194 465.868 738.17 465.434 738.821 464.566 739.472 463.699 739.797 462.6 739.797 461.271 739.797 459.997 739.479 459 738.842 458.279 738.205 457.558 737.327 457.198 736.207 457.198ZM710.687 453.797 710.016 458.688 714.215 458.688 714.845 453.797ZM644.12 446.554 644.12 455.246 648.761 455.246C650.132 455.246 651.242 454.882 652.089 454.154 652.935 453.426 653.359 452.349 653.359 450.921 653.359 449.438 652.925 448.339 652.057 447.625 651.189 446.911 650.09 446.554 648.761 446.554ZM676.692 446.324C674.845 446.324 673.357 446.757 672.231 447.625 671.104 448.493 670.285 449.654 669.774 451.11 669.263 452.565 669.008 454.175 669.008 455.938 669.008 457.674 669.263 459.269 669.774 460.725 670.285 462.18 671.104 463.342 672.231 464.21 673.357 465.077 674.845 465.511 676.692 465.511 678.526 465.511 680.003 465.077 681.122 464.21 682.242 463.342 683.061 462.18 683.579 460.725 684.097 459.269 684.356 457.674 684.356 455.938 684.356 454.175 684.097 452.565 683.579 451.11 683.061 449.654 682.242 448.493 681.122 447.625 680.003 446.757 678.526 446.324 676.692 446.324ZM576.692 446.324C574.845 446.324 573.357 446.757 572.231 447.625 571.104 448.493 570.285 449.654 569.774 451.11 569.263 452.565 569.008 454.175 569.008 455.938 569.008 457.674 569.263 459.269 569.774 460.725 570.285 462.18 571.104 463.342 572.231 464.21 573.357 465.077 574.845 465.511 576.692 465.511 578.526 465.511 580.003 465.077 581.122 464.21 582.242 463.342 583.061 462.18 583.579 460.725 584.097 459.269 584.356 457.674 584.356 455.938 584.356 454.175 584.097 452.565 583.579 451.11 583.061 449.654 582.242 448.493 581.122 447.625 580.003 446.757 578.526 446.324 576.692 446.324ZM708.441 442.545 712.241 442.545 711.17 450.333 715.349 450.333 716.419 442.545 720.262 442.545 719.17 450.333 723.117 450.333 723.117 453.797 718.666 453.797 718.015 458.688 721.92 458.688 721.92 462.173 717.532 462.173 716.44 470.046 712.619 470.046 713.69 462.173 709.512 462.173 708.42 470.046 704.578 470.046 705.669 462.173 701.659 462.173 701.659 458.688 706.173 458.688 706.845 453.797 702.814 453.797 702.814 450.333 707.349 450.333ZM735.913 442.167C738.488 442.167 740.543 442.832 742.075 444.161 743.608 445.491 744.563 447.373 744.941 449.808L739.587 449.808C739.363 448.773 738.94 448.003 738.317 447.499 737.694 446.995 736.893 446.743 735.913 446.743 734.317 446.743 733.096 447.541 732.249 449.137 731.614 450.333 731.217 452.01 731.058 454.167L731.024 455.17 731.273 454.899C732.015 454.22 732.869 453.682 733.834 453.283 734.8 452.884 735.934 452.684 737.236 452.684 738.803 452.684 740.207 453.006 741.445 453.65 742.684 454.294 743.668 455.253 744.395 456.526 745.123 457.8 745.487 459.367 745.487 461.229 745.487 463.02 745.116 464.605 744.374 465.983 743.633 467.362 742.548 468.447 741.12 469.237 739.692 470.028 737.95 470.424 735.892 470.424 733.848 470.424 732.029 469.948 730.433 468.996 728.837 468.044 727.581 466.543 726.664 464.493 725.747 462.443 725.289 459.773 725.289 456.484 725.289 453.195 725.744 450.498 726.654 448.391 727.564 446.285 728.82 444.721 730.422 443.699 732.025 442.678 733.855 442.167 735.913 442.167ZM638.221 441.789 649.307 441.789C651.168 441.789 652.865 442.118 654.398 442.776 655.931 443.434 657.152 444.434 658.062 445.778 658.972 447.121 659.427 448.836 659.427 450.921 659.427 452.978 658.972 454.679 658.062 456.022 657.152 457.366 655.931 458.363 654.398 459.014 652.865 459.665 651.168 459.99 649.307 459.99L644.12 459.99 644.12 470.046 638.221 470.046ZM625.221 441.789 631.12 441.789 631.12 470.046 625.221 470.046ZM595.885 441.789 601.932 441.789 601.932 458.667C601.932 460.991 602.407 462.719 603.359 463.853 604.311 464.986 605.809 465.553 607.852 465.553 609.91 465.553 611.397 464.986 612.314 463.853 613.231 462.719 613.689 460.991 613.689 458.667L613.689 441.789 619.757 441.789 619.757 458.814C619.757 461.306 619.344 463.419 618.518 465.154 617.693 466.89 616.401 468.202 614.645 469.09 612.888 469.979 610.61 470.424 607.81 470.424 605.039 470.424 602.771 469.979 601.008 469.09 599.244 468.202 597.949 466.89 597.123 465.154 596.298 463.419 595.885 461.306 595.885 458.814ZM540.221 441.789 559.18 441.789 559.18 446.68 546.12 446.68 546.12 453.251 557.962 453.251 557.962 457.975 546.12 457.975 546.12 465.154 559.18 465.154 559.18 470.046 540.221 470.046ZM676.692 441.411C679.646 441.411 682.144 442.009 684.188 443.206 686.232 444.403 687.785 446.089 688.849 448.265 689.913 450.442 690.445 452.999 690.445 455.938 690.445 458.877 689.913 461.428 688.849 463.59 687.785 465.753 686.232 467.432 684.188 468.629 682.144 469.825 679.646 470.424 676.692 470.424 673.739 470.424 671.237 469.825 669.186 468.629 667.136 467.432 665.578 465.753 664.515 463.59 663.451 461.428 662.919 458.877 662.919 455.938 662.919 452.999 663.451 450.442 664.515 448.265 665.578 446.089 667.136 444.403 669.186 443.206 671.237 442.009 673.739 441.411 676.692 441.411ZM576.692 441.411C579.646 441.411 582.144 442.009 584.188 443.206 586.232 444.403 587.785 446.089 588.849 448.265 589.913 450.442 590.445 452.999 590.445 455.938 590.445 458.877 589.913 461.428 588.849 463.59 587.785 465.753 586.232 467.432 584.188 468.629 583.677 468.928 583.138 469.19 582.57 469.414L581.373 469.789 582.393 470.801C582.974 471.193 583.736 471.484 584.681 471.673 585.626 471.862 586.847 471.956 588.345 471.956L589.458 471.956 589.458 477.015 588.051 477.015C586.022 477.015 584.335 476.823 582.991 476.438 581.647 476.053 580.545 475.518 579.684 474.832 578.823 474.146 578.106 473.345 577.532 472.428L576.442 470.41 574.562 470.311C572.516 470.087 570.724 469.526 569.186 468.629 567.136 467.432 565.578 465.753 564.515 463.59 563.451 461.428 562.919 458.877 562.919 455.938 562.919 452.999 563.451 450.442 564.515 448.265 565.578 446.089 567.136 444.403 569.186 443.206 571.237 442.009 573.739 441.411 576.692 441.411Z" fill="url(#fill4)" fill-rule="evenodd"/><text fill="#000000" fill-opacity="0" font-family="Arial,Arial_MSFontService,sans-serif" font-size="35.6041" x="540.221" y="472.565">EQUIPO #6</text><path d="M709.06 57.0279 708.388 61.9192 712.587 61.9192 713.217 57.0279ZM642.493 49.7853 642.493 58.4764 647.133 58.4764C648.505 58.4764 649.614 58.1125 650.461 57.3847 651.308 56.657 651.731 55.5793 651.731 54.1518 651.731 52.6683 651.297 51.5697 650.429 50.8559 649.562 50.1421 648.463 49.7853 647.133 49.7853ZM675.065 49.5543C673.217 49.5543 671.73 49.9882 670.603 50.8559 669.476 51.7236 668.657 52.8852 668.146 54.3407 667.635 55.7963 667.38 57.4057 667.38 59.1691 667.38 60.9046 667.635 62.5 668.146 63.9555 668.657 65.4111 669.476 66.5727 670.603 67.4404 671.73 68.3081 673.217 68.7419 675.065 68.7419 676.898 68.7419 678.375 68.3081 679.495 67.4404 680.615 66.5727 681.433 65.4111 681.951 63.9555 682.469 62.5 682.728 60.9046 682.728 59.1691 682.728 57.4057 682.469 55.7963 681.951 54.3407 681.433 52.8852 680.615 51.7236 679.495 50.8559 678.375 49.9882 676.898 49.5543 675.065 49.5543ZM575.065 49.5543C573.217 49.5543 571.73 49.9882 570.603 50.8559 569.476 51.7236 568.657 52.8852 568.146 54.3407 567.635 55.7963 567.38 57.4057 567.38 59.1691 567.38 60.9046 567.635 62.5 568.146 63.9555 568.657 65.4111 569.476 66.5727 570.603 67.4404 571.73 68.3081 573.217 68.7419 575.065 68.7419 576.898 68.7419 578.375 68.3081 579.495 67.4404 580.615 66.5727 581.433 65.4111 581.951 63.9555 582.469 62.5 582.728 60.9046 582.728 59.1691 582.728 57.4057 582.469 55.7963 581.951 54.3407 581.433 52.8852 580.615 51.7236 579.495 50.8559 578.375 49.9882 576.898 49.5543 575.065 49.5543ZM725.845 45.7756 741.655 45.7756 741.655 50.52 730.359 50.52 729.876 56.7549C730.338 56.2791 730.971 55.8697 731.776 55.5269 732.581 55.184 733.578 55.0125 734.768 55.0125 736.364 55.0125 737.848 55.3134 739.219 55.9152 740.591 56.517 741.697 57.4757 742.537 58.7913 743.377 60.1068 743.797 61.8422 743.797 63.9975 743.797 66.1528 743.356 67.9442 742.474 69.3717 741.592 70.7993 740.399 71.8699 738.894 72.5837 737.389 73.2974 735.692 73.6543 733.802 73.6543 731.913 73.6543 730.198 73.3464 728.658 72.7306 727.119 72.1148 725.894 71.1736 724.984 69.9071 724.074 68.6405 723.619 67.0485 723.619 65.1311L729.183 65.1311C729.183 66.3907 729.617 67.3669 730.485 68.0597 731.353 68.7524 732.459 69.0988 733.802 69.0988 735.076 69.0988 736.109 68.693 736.899 67.8812 737.69 67.0695 738.086 65.7749 738.086 63.9975 738.086 62.3741 737.669 61.202 736.836 60.4812 736.004 59.7604 734.929 59.4001 733.613 59.4001 732.592 59.4001 731.769 59.5575 731.146 59.8724 730.524 60.1873 730.023 60.5757 729.645 61.0375L724.648 61.0375ZM706.813 45.7756 710.613 45.7756 709.543 53.564 713.721 53.564 714.792 45.7756 718.634 45.7756 717.542 53.564 721.489 53.564 721.489 57.0279 717.038 57.0279 716.387 61.9192 720.293 61.9192 720.293 65.4041 715.904 65.4041 714.813 73.2764 710.991 73.2764 712.062 65.4041 707.884 65.4041 706.792 73.2764 702.95 73.2764 704.042 65.4041 700.031 65.4041 700.031 61.9192 704.546 61.9192 705.217 57.0279 701.186 57.0279 701.186 53.564 705.721 53.564ZM636.593 45.0199 647.679 45.0199C649.541 45.0199 651.238 45.3487 652.77 46.0065 654.303 46.6643 655.524 47.665 656.434 49.0085 657.344 50.3521 657.799 52.0665 657.799 54.1518 657.799 56.2091 657.344 57.9096 656.434 59.2531 655.524 60.5967 654.303 61.5938 652.77 62.2446 651.238 62.8954 649.541 63.2208 647.679 63.2208L642.493 63.2208 642.493 73.2764 636.593 73.2764ZM623.593 45.0199 629.493 45.0199 629.493 73.2764 623.593 73.2764ZM594.257 45.0199 600.304 45.0199 600.304 61.8982C600.304 64.2215 600.78 65.9499 601.732 67.0835 602.683 68.2171 604.181 68.7839 606.225 68.7839 608.282 68.7839 609.77 68.2171 610.686 67.0835 611.603 65.9499 612.062 64.2215 612.062 61.8982L612.062 45.0199 618.13 45.0199 618.13 62.0452C618.13 64.5363 617.717 66.6496 616.891 68.3851 616.065 70.1205 614.774 71.4325 613.017 72.3213 611.26 73.21 608.982 73.6543 606.183 73.6543 603.411 73.6543 601.144 73.21 599.38 72.3213 597.616 71.4325 596.322 70.1205 595.496 68.3851 594.67 66.6496 594.257 64.5363 594.257 62.0452ZM538.593 45.0199 557.552 45.0199 557.552 49.9112 544.493 49.9112 544.493 56.482 556.335 56.482 556.335 61.2055 544.493 61.2055 544.493 68.3851 557.552 68.3851 557.552 73.2764 538.593 73.2764ZM675.065 44.642C678.018 44.642 680.517 45.2403 682.56 46.4369 684.604 47.6335 686.158 49.3199 687.221 51.4962 688.285 53.6725 688.817 56.2301 688.817 59.1691 688.817 62.1082 688.285 64.6588 687.221 66.8211 686.158 68.9834 684.604 70.6628 682.56 71.8594 680.517 73.056 678.018 73.6543 675.065 73.6543 672.111 73.6543 669.609 73.056 667.559 71.8594 665.508 70.6628 663.951 68.9834 662.887 66.8211 661.823 64.6588 661.291 62.1082 661.291 59.1691 661.291 56.2301 661.823 53.6725 662.887 51.4962 663.951 49.3199 665.508 47.6335 667.559 46.4369 669.609 45.2403 672.111 44.642 675.065 44.642ZM575.065 44.642C578.018 44.642 580.517 45.2403 582.56 46.4369 584.604 47.6335 586.158 49.3199 587.221 51.4962 588.285 53.6725 588.817 56.2301 588.817 59.1691 588.817 62.1082 588.285 64.6588 587.221 66.8211 586.158 68.9834 584.604 70.6628 582.56 71.8594 582.049 72.1586 581.51 72.4203 580.942 72.6447L579.746 73.0199 580.765 74.0322C581.346 74.424 582.109 74.7145 583.054 74.9034 583.998 75.0923 585.22 75.1868 586.717 75.1868L587.83 75.1868 587.83 80.2461 586.424 80.2461C584.394 80.2461 582.707 80.0537 581.363 79.6688 580.02 79.2839 578.917 78.7486 578.057 78.0628 577.196 77.3771 576.478 76.5758 575.904 75.6591L574.814 73.6411 572.934 73.5421C570.888 73.3178 569.096 72.7569 567.559 71.8594 565.508 70.6628 563.951 68.9834 562.887 66.8211 561.823 64.6588 561.291 62.1082 561.291 59.1691 561.291 56.2301 561.823 53.6725 562.887 51.4962 563.951 49.3199 565.508 47.6335 567.559 46.4369 569.609 45.2403 572.111 44.642 575.065 44.642Z" fill="url(#fill5)" fill-rule="evenodd"/><text fill="#000000" fill-opacity="0" font-family="Arial,Arial_MSFontService,sans-serif" font-size="35.6041" x="538.593" y="75.7956">EQUIPO #5</text><g clip-path="url(#clip6)"><g filter="url(#fx0)" transform="translate(67 1639)"><g><rect x="8.00005" y="7.75903" width="1128" height="317.953" stroke="#F2F2F2" stroke-width="2" stroke-miterlimit="8" fill="#FFFFFF"/></g></g><g filter="url(#fx1)" transform="translate(364 1780)"><g><path d="M529.383 12.005 523.431 28.5392 535.284 28.5392ZM263.383 12.005 257.431 28.5392 269.284 28.5392ZM57.3833 12.005 51.4311 28.5392 63.2836 28.5392ZM210.914 11.2546 210.914 23.5712 218.832 23.5712C220.109 23.5712 221.265 23.3297 222.3 22.8467 223.335 22.3637 224.159 21.6651 224.772 20.7508 225.384 19.8365 225.69 18.7325 225.69 17.4388 225.69 15.4895 225.117 13.9715 223.969 12.8848 222.822 11.798 221.153 11.2546 218.962 11.2546ZM182.11 10.7113C179.315 10.7113 177.05 11.3452 175.317 12.6131 173.583 13.881 172.319 15.5801 171.525 17.7105 170.732 19.8409 170.335 22.2084 170.335 24.8132 170.335 27.4007 170.732 29.7596 171.525 31.89 172.319 34.0204 173.583 35.7152 175.317 36.9745 177.05 38.2337 179.315 38.8634 182.11 38.8634 184.905 38.8634 187.165 38.2337 188.89 36.9745 190.615 35.7152 191.879 34.0204 192.681 31.89 193.484 29.7596 193.885 27.4007 193.885 24.8132 193.885 22.2084 193.484 19.8409 192.681 17.7105 191.879 15.5801 190.615 13.881 188.89 12.6131 187.165 11.3452 184.905 10.7113 182.11 10.7113ZM526.951 7.37337 531.868 7.37337 544.729 42.2012 539.916 42.2012 536.604 32.4463 522.163 32.4463 518.695 42.2012 513.908 42.2012ZM504.255 7.37337 508.914 7.37337 508.914 42.2012 504.255 42.2012ZM467.255 7.37337 472.017 7.37337 491.116 35.0856 491.116 7.37337 495.541 7.37337 495.541 42.2012 490.779 42.2012 471.655 14.4373 471.655 42.2012 467.255 42.2012ZM424.255 7.37337 429.353 7.37337 440.796 26.3139 452.023 7.37337 456.992 7.37337 456.992 42.2012 452.412 42.2012 452.412 13.9682 442.189 31.2561 439.136 31.2561 428.732 13.9273 428.732 42.2012 424.255 42.2012ZM395.255 7.37337 417.485 7.37337 417.485 11.2546 399.914 11.2546 399.914 22.3551 416.088 22.3551 416.088 26.1846 399.914 26.1846 399.914 38.32 417.485 38.32 417.485 42.2012 395.255 42.2012ZM353.255 7.37337 358.354 7.37337 369.796 26.3139 381.023 7.37337 385.992 7.37337 385.992 42.2012 381.412 42.2012 381.412 13.9682 371.189 31.2561 368.136 31.2561 357.732 13.9272 357.732 42.2012 353.255 42.2012ZM323.255 7.37337 345.485 7.37337 345.485 11.2546 327.914 11.2546 327.914 22.3551 344.088 22.3551 344.088 26.1846 327.914 26.1846 327.914 38.32 345.485 38.32 345.485 42.2012 323.255 42.2012ZM295.255 7.37337 316.942 7.37337 316.942 11.2546 299.914 11.2546 299.914 22.3809 315.337 22.3809 315.337 26.1846 299.914 26.1846 299.914 42.2012 295.255 42.2012ZM260.951 7.37337 265.868 7.37337 278.729 42.2012 273.916 42.2012 270.603 32.4463 256.163 32.4463 252.695 42.2012 247.908 42.2012ZM239.255 7.37337 243.914 7.37337 243.914 42.2012 239.255 42.2012ZM206.255 7.37337 219.428 7.37337C221.446 7.37337 223.279 7.6925 224.927 8.33076 226.575 8.96901 227.89 9.96951 228.873 11.3323 229.857 12.695 230.349 14.4632 230.349 16.6367 230.349 18.8447 229.732 20.7249 228.498 22.2774 227.265 23.8299 225.457 24.8822 223.077 25.4342 224.388 25.6239 225.466 26.0466 226.311 26.7021 227.157 27.3576 227.86 28.2416 228.421 29.3543 228.981 30.4669 229.469 31.8426 229.883 33.4813L232.16 42.2012 227.398 42.2012 225.406 34.2059C225.061 32.7741 224.651 31.5536 224.176 30.5445 223.702 29.5354 223.068 28.7678 222.274 28.2416 221.481 27.7155 220.42 27.4524 219.091 27.4524L210.914 27.4524 210.914 42.2012 206.255 42.2012ZM100.255 7.37337 122.485 7.37337 122.485 11.2546 104.914 11.2546 104.914 22.3551 121.088 22.3551 121.088 26.1846 104.914 26.1846 104.914 38.32 122.485 38.32 122.485 42.2012 100.255 42.2012ZM71.1664 7.37337 95.5962 7.37337 95.5962 11.2805 85.7104 11.2805 85.7104 42.2012 81.0781 42.2012 81.0781 11.2805 71.1664 11.2805ZM54.9507 7.37337 59.8676 7.37337 72.7295 42.2012 67.916 42.2012 64.6035 32.4463 50.1631 32.4463 46.6953 42.2012 41.9077 42.2012ZM182.11 6.90762C185.75 6.90762 188.795 7.66663 191.245 9.18463 193.695 10.7026 195.545 12.8072 196.796 15.4982 198.047 18.1892 198.672 21.2942 198.672 24.8132 198.672 28.3322 198.047 31.4286 196.796 34.1024 195.545 36.7761 193.695 38.872 191.245 40.39 188.795 41.908 185.75 42.667 182.11 42.667 178.47 42.667 175.416 41.908 172.949 40.39 170.482 38.872 168.623 36.7761 167.372 34.1024 166.121 31.4286 165.496 28.3322 165.496 24.8132 165.496 21.2942 166.121 18.1892 167.372 15.4982 168.623 12.8072 170.482 10.7026 172.949 9.18463 175.416 7.66663 178.47 6.90762 182.11 6.90762ZM144.162 6.90762C145.956 6.90762 147.672 7.13618 149.311 7.59332 150.95 8.05045 152.434 8.74045 153.763 9.66333 155.091 10.5862 156.182 11.7463 157.036 13.1435 157.89 14.5408 158.412 16.1882 158.602 18.0857L153.944 18.0857C153.771 16.7574 153.275 15.537 152.456 14.4243 151.636 13.3117 150.523 12.4147 149.117 11.7333 147.711 11.0519 146.042 10.7113 144.11 10.7113 141.315 10.7113 139.038 11.3452 137.278 12.6131 135.518 13.881 134.233 15.5758 133.422 17.6975 132.611 19.8193 132.206 22.1912 132.206 24.8132 132.206 27.418 132.615 29.7769 133.435 31.89 134.254 34.0032 135.544 35.6807 137.304 36.9227 139.063 38.1647 141.349 38.7857 144.162 38.7857 146.594 38.7857 148.591 38.3502 150.153 37.479 151.714 36.6079 152.878 35.3918 153.646 33.8307 154.414 32.2695 154.815 30.4712 154.85 28.4357L144.679 28.4357 144.679 24.5803 159.404 24.5803 159.404 27.2972C159.404 30.316 158.839 32.9811 157.709 35.2926 156.579 37.6041 154.888 39.4111 152.637 40.7134 150.385 42.0158 147.56 42.667 144.162 42.667 140.539 42.667 137.489 41.9166 135.013 40.4159 132.538 38.9151 130.666 36.8235 129.398 34.1412 128.13 31.4588 127.496 28.3494 127.496 24.8132 127.496 21.2597 128.13 18.1374 129.398 15.4464 130.666 12.7554 132.538 10.6595 135.013 9.15875 137.489 7.658 140.539 6.90762 144.162 6.90762ZM24.1098 6.90762C26.4907 6.90762 28.7378 7.32162 30.8513 8.14963 32.9647 8.97763 34.7245 10.2412 36.1306 11.9403 37.5367 13.6395 38.3605 15.7828 38.602 18.3703L33.9179 18.3703C33.7109 16.628 33.1286 15.192 32.1711 14.0621 31.2136 12.9322 30.0318 12.0913 28.6257 11.5393 27.2196 10.9873 25.7143 10.7113 24.1098 10.7113 21.3149 10.7113 19.0505 11.3495 17.3166 12.626 15.5827 13.9025 14.319 15.6017 13.5254 17.7234 12.7317 19.8452 12.3349 22.2084 12.3349 24.8132 12.3349 27.4007 12.7317 29.7553 13.5254 31.8771 14.319 33.9988 15.5827 35.685 17.3166 36.9357 19.0505 38.1863 21.3149 38.8116 24.1098 38.8116 26.9393 38.8116 29.2338 38.113 30.9936 36.7157 32.7534 35.3185 33.7713 33.2312 34.0473 30.454L38.7573 30.454C38.4813 33.1967 37.679 35.4694 36.3506 37.272 35.0221 39.0747 33.3055 40.4245 31.2006 41.3215 29.0958 42.2185 26.7322 42.667 24.1098 42.667 20.504 42.667 17.4676 41.908 15.0004 40.39 12.5333 38.872 10.6657 36.7761 9.39767 34.1024 8.12958 31.4286 7.49557 28.3322 7.49557 24.8132 7.49557 21.2942 8.12958 18.1892 9.39767 15.4982 10.6657 12.8072 12.5333 10.7026 15.0004 9.18463 17.4676 7.66663 20.504 6.90762 24.1098 6.90762Z" fill="#FF0000" fill-rule="evenodd"/></g></g></g><rect x="75.0001" y="1642.76" width="1128" height="317.953" stroke="#F2F2F2" stroke-width="2.00078" stroke-miterlimit="8" fill="#FFFFFF"/><path d="M893.383 1788 887.431 1804.54 899.284 1804.54ZM627.383 1788 621.431 1804.54 633.284 1804.54ZM421.383 1788 415.431 1804.54 427.284 1804.54ZM574.914 1787.25 574.914 1799.57 582.832 1799.57C584.109 1799.57 585.265 1799.33 586.3 1798.85 587.335 1798.36 588.159 1797.66 588.772 1796.75 589.384 1795.84 589.69 1794.73 589.69 1793.44 589.69 1791.49 589.117 1789.97 587.969 1788.88 586.822 1787.8 585.153 1787.25 582.962 1787.25ZM546.11 1786.71C543.315 1786.71 541.05 1787.34 539.317 1788.61 537.583 1789.88 536.319 1791.58 535.525 1793.71 534.732 1795.84 534.335 1798.21 534.335 1800.81 534.335 1803.4 534.732 1805.76 535.525 1807.89 536.319 1810.02 537.583 1811.71 539.317 1812.97 541.05 1814.23 543.315 1814.86 546.11 1814.86 548.905 1814.86 551.165 1814.23 552.89 1812.97 554.615 1811.71 555.879 1810.02 556.681 1807.89 557.484 1805.76 557.885 1803.4 557.885 1800.81 557.885 1798.21 557.484 1795.84 556.681 1793.71 555.879 1791.58 554.615 1789.88 552.89 1788.61 551.165 1787.34 548.905 1786.71 546.11 1786.71ZM890.951 1783.37 895.868 1783.37 908.729 1818.2 903.916 1818.2 900.604 1808.45 886.163 1808.45 882.695 1818.2 877.908 1818.2ZM868.255 1783.37 872.914 1783.37 872.914 1818.2 868.255 1818.2ZM831.255 1783.37 836.017 1783.37 855.116 1811.08 855.116 1783.37 859.541 1783.37 859.541 1818.2 854.779 1818.2 835.655 1790.44 835.655 1818.2 831.255 1818.2ZM788.255 1783.37 793.353 1783.37 804.796 1802.31 816.023 1783.37 820.992 1783.37 820.992 1818.2 816.412 1818.2 816.412 1789.97 806.189 1807.26 803.136 1807.26 792.732 1789.93 792.732 1818.2 788.255 1818.2ZM759.255 1783.37 781.485 1783.37 781.485 1787.25 763.914 1787.25 763.914 1798.35 780.088 1798.35 780.088 1802.18 763.914 1802.18 763.914 1814.32 781.485 1814.32 781.485 1818.2 759.255 1818.2ZM717.255 1783.37 722.354 1783.37 733.796 1802.31 745.023 1783.37 749.992 1783.37 749.992 1818.2 745.412 1818.2 745.412 1789.97 735.189 1807.26 732.136 1807.26 721.732 1789.93 721.732 1818.2 717.255 1818.2ZM687.255 1783.37 709.485 1783.37 709.485 1787.25 691.914 1787.25 691.914 1798.35 708.088 1798.35 708.088 1802.18 691.914 1802.18 691.914 1814.32 709.485 1814.32 709.485 1818.2 687.255 1818.2ZM659.255 1783.37 680.942 1783.37 680.942 1787.25 663.914 1787.25 663.914 1798.38 679.337 1798.38 679.337 1802.18 663.914 1802.18 663.914 1818.2 659.255 1818.2ZM624.951 1783.37 629.868 1783.37 642.729 1818.2 637.916 1818.2 634.603 1808.45 620.163 1808.45 616.695 1818.2 611.908 1818.2ZM603.255 1783.37 607.914 1783.37 607.914 1818.2 603.255 1818.2ZM570.255 1783.37 583.428 1783.37C585.446 1783.37 587.279 1783.69 588.927 1784.33 590.575 1784.97 591.89 1785.97 592.873 1787.33 593.857 1788.69 594.349 1790.46 594.349 1792.64 594.349 1794.84 593.732 1796.72 592.498 1798.28 591.265 1799.83 589.457 1800.88 587.077 1801.43 588.388 1801.62 589.466 1802.05 590.311 1802.7 591.157 1803.36 591.86 1804.24 592.421 1805.35 592.981 1806.47 593.469 1807.84 593.883 1809.48L596.16 1818.2 591.398 1818.2 589.406 1810.2C589.061 1808.77 588.651 1807.55 588.176 1806.54 587.702 1805.53 587.068 1804.77 586.274 1804.24 585.481 1803.71 584.42 1803.45 583.091 1803.45L574.914 1803.45 574.914 1818.2 570.255 1818.2ZM464.255 1783.37 486.485 1783.37 486.485 1787.25 468.914 1787.25 468.914 1798.35 485.088 1798.35 485.088 1802.18 468.914 1802.18 468.914 1814.32 486.485 1814.32 486.485 1818.2 464.255 1818.2ZM435.166 1783.37 459.596 1783.37 459.596 1787.28 449.71 1787.28 449.71 1818.2 445.078 1818.2 445.078 1787.28 435.166 1787.28ZM418.951 1783.37 423.868 1783.37 436.729 1818.2 431.916 1818.2 428.603 1808.45 414.163 1808.45 410.695 1818.2 405.908 1818.2ZM546.11 1782.91C549.75 1782.91 552.795 1783.67 555.245 1785.18 557.695 1786.7 559.545 1788.81 560.796 1791.5 562.047 1794.19 562.672 1797.29 562.672 1800.81 562.672 1804.33 562.047 1807.43 560.796 1810.1 559.545 1812.78 557.695 1814.87 555.245 1816.39 552.795 1817.91 549.75 1818.67 546.11 1818.67 542.469 1818.67 539.416 1817.91 536.949 1816.39 534.482 1814.87 532.623 1812.78 531.372 1810.1 530.121 1807.43 529.496 1804.33 529.496 1800.81 529.496 1797.29 530.121 1794.19 531.372 1791.5 532.623 1788.81 534.482 1786.7 536.949 1785.18 539.416 1783.67 542.469 1782.91 546.11 1782.91ZM508.162 1782.91C509.956 1782.91 511.672 1783.14 513.311 1783.59 514.95 1784.05 516.434 1784.74 517.763 1785.66 519.091 1786.59 520.182 1787.75 521.036 1789.14 521.89 1790.54 522.412 1792.19 522.602 1794.08L517.944 1794.08C517.771 1792.76 517.275 1791.54 516.456 1790.42 515.636 1789.31 514.523 1788.41 513.117 1787.73 511.711 1787.05 510.042 1786.71 508.11 1786.71 505.315 1786.71 503.038 1787.34 501.278 1788.61 499.518 1789.88 498.233 1791.57 497.422 1793.7 496.611 1795.82 496.206 1798.19 496.206 1800.81 496.206 1803.42 496.615 1805.78 497.435 1807.89 498.254 1810 499.544 1811.68 501.304 1812.92 503.063 1814.16 505.349 1814.78 508.162 1814.78 510.594 1814.78 512.591 1814.35 514.153 1813.48 515.714 1812.61 516.878 1811.39 517.646 1809.83 518.414 1808.27 518.815 1806.47 518.85 1804.43L508.679 1804.43 508.679 1800.58 523.404 1800.58 523.404 1803.3C523.404 1806.31 522.839 1808.98 521.709 1811.29 520.579 1813.6 518.888 1815.41 516.637 1816.71 514.385 1818.01 511.56 1818.67 508.162 1818.67 504.539 1818.67 501.489 1817.92 499.013 1816.41 496.538 1814.91 494.666 1812.82 493.398 1810.14 492.13 1807.46 491.496 1804.35 491.496 1800.81 491.496 1797.26 492.13 1794.14 493.398 1791.45 494.666 1788.75 496.538 1786.66 499.013 1785.16 501.489 1783.66 504.539 1782.91 508.162 1782.91ZM388.11 1782.91C390.491 1782.91 392.738 1783.32 394.851 1784.15 396.965 1784.98 398.724 1786.24 400.131 1787.94 401.537 1789.64 402.36 1791.78 402.602 1794.37L397.918 1794.37C397.711 1792.63 397.129 1791.19 396.171 1790.06 395.214 1788.93 394.032 1788.09 392.626 1787.54 391.22 1786.99 389.714 1786.71 388.11 1786.71 385.315 1786.71 383.051 1787.35 381.317 1788.62 379.583 1789.9 378.319 1791.6 377.525 1793.72 376.732 1795.84 376.335 1798.21 376.335 1800.81 376.335 1803.4 376.732 1805.75 377.525 1807.88 378.319 1810 379.583 1811.68 381.317 1812.93 383.051 1814.19 385.315 1814.81 388.11 1814.81 390.939 1814.81 393.234 1814.11 394.994 1812.71 396.753 1811.32 397.771 1809.23 398.047 1806.45L402.757 1806.45C402.481 1809.2 401.679 1811.47 400.351 1813.27 399.022 1815.07 397.305 1816.42 395.201 1817.32 393.096 1818.22 390.732 1818.67 388.11 1818.67 384.504 1818.67 381.468 1817.91 379 1816.39 376.533 1814.87 374.666 1812.78 373.398 1810.1 372.13 1807.43 371.496 1804.33 371.496 1800.81 371.496 1797.29 372.13 1794.19 373.398 1791.5 374.666 1788.81 376.533 1786.7 379 1785.18 381.468 1783.67 384.504 1782.91 388.11 1782.91Z" fill="url(#fill7)" fill-rule="evenodd"/><text fill="#000000" fill-opacity="0" font-family="Arial,Arial_MSFontService,sans-serif" font-size="35.7594" x="371.496" y="1814.2">CATEGORIA FEMEMNIA</text></g></svg>