<svg width="1278" height="2049" xmlns="http://www.w3.org/2000/svg" xmlns:xlink="http://www.w3.org/1999/xlink" overflow="hidden"><defs><linearGradient x1="635.034" y1="9.37293" x2="644.353" y2="110.928" gradientUnits="userSpaceOnUse" spreadMethod="reflect" id="fill0"><stop offset="0" stop-color="#002C3F"/><stop offset="0.5" stop-color="#00445F"/><stop offset="1" stop-color="#005272"/></linearGradient><linearGradient x1="637.432" y1="494.484" x2="640.568" y2="580.357" gradientUnits="userSpaceOnUse" spreadMethod="reflect" id="fill1"><stop offset="0" stop-color="#7E8892"/><stop offset="0.5" stop-color="#B6C4D2"/><stop offset="1" stop-color="#D9EAF9"/></linearGradient></defs><g><rect x="0" y="0" width="1278" height="2048.7" fill="#FFFFFF"/><path d="M48.9327 571.539 124.072 571.539 124.072 624.466 48.9327 624.466Z" fill="#156082" fill-rule="evenodd"/><path d="M124.072 571.539 835.756 571.539 835.756 624.466 124.072 624.466Z" fill="#156082" fill-rule="evenodd"/><path d="M835.756 571.539 1229.23 571.539 1229.23 624.466 835.756 624.466Z" fill="#156082" fill-rule="evenodd"/><path d="M48.9327 624.466 124.072 624.466 124.072 677.392 48.9327 677.392Z" fill="#156082" fill-rule="evenodd"/><path d="M124.072 624.466 835.756 624.466 835.756 677.392 124.072 677.392Z" fill="#CCD2D8" fill-rule="evenodd"/><path d="M835.756 624.466 1229.23 624.466 1229.23 836.171 835.756 836.171Z" fill="#CCD2D8" fill-rule="evenodd"/><path d="M48.9327 677.392 124.072 677.392 124.072 730.318 48.9327 730.318Z" fill="#156082" fill-rule="evenodd"/><path d="M124.072 677.392 835.756 677.392 835.756 730.318 124.072 730.318Z" fill="#E7EAED" fill-rule="evenodd"/><path d="M48.9327 730.318 124.072 730.318 124.072 783.245 48.9327 783.245Z" fill="#156082" fill-rule="evenodd"/><path d="M124.072 730.318 835.756 730.318 835.756 783.245 124.072 783.245Z" fill="#CCD2D8" fill-rule="evenodd"/><path d="M48.9327 783.245 124.072 783.245 124.072 836.171 48.9327 836.171Z" fill="#156082" fill-rule="evenodd"/><path d="M124.072 783.245 835.756 783.245 835.756 836.171 124.072 836.171Z" fill="#E7EAED" fill-rule="evenodd"/><path d="M124.072 570.873 124.072 836.838" stroke="#FFFFFF" stroke-width="1.33386" stroke-linejoin="round" stroke-miterlimit="10" fill="none" fill-rule="evenodd"/><path d="M835.756 570.873 835.756 836.838" stroke="#FFFFFF" stroke-width="1.33386" stroke-linejoin="round" stroke-miterlimit="10" fill="none" fill-rule="evenodd"/><path d="M48.2658 624.466 1229.9 624.466" stroke="#FFFFFF" stroke-width="4.00157" stroke-linejoin="round" stroke-miterlimit="10" fill="none" fill-rule="evenodd"/><path d="M48.2658 677.392 836.423 677.392" stroke="#FFFFFF" stroke-width="1.33386" stroke-linejoin="round" stroke-miterlimit="10" fill="none" fill-rule="evenodd"/><path d="M48.2658 730.318 836.423 730.318" stroke="#FFFFFF" stroke-width="1.33386" stroke-linejoin="round" stroke-miterlimit="10" fill="none" fill-rule="evenodd"/><path d="M48.2658 783.245 836.423 783.245" stroke="#FFFFFF" stroke-width="1.33386" stroke-linejoin="round" stroke-miterlimit="10" fill="none" fill-rule="evenodd"/><path d="M48.9327 570.873 48.9327 836.838" stroke="#FFFFFF" stroke-width="1.33386" stroke-linejoin="round" stroke-miterlimit="10" fill="none" fill-rule="evenodd"/><path d="M1229.23 570.873 1229.23 836.838" stroke="#FFFFFF" stroke-width="1.33386" stroke-linejoin="round" stroke-miterlimit="10" fill="none" fill-rule="evenodd"/><path d="M48.2658 571.539 1229.9 571.539" stroke="#FFFFFF" stroke-width="1.33386" stroke-linejoin="round" stroke-miterlimit="10" fill="none" fill-rule="evenodd"/><path d="M48.2658 836.171 1229.9 836.171" stroke="#FFFFFF" stroke-width="1.33386" stroke-linejoin="round" stroke-miterlimit="10" fill="none" fill-rule="evenodd"/><text fill="#FFFFFF" font-family="Aptos,Aptos_MSFontService,sans-serif" font-weight="700" font-size="43" transform="matrix(1 0 0 0.999853 942.366 612)">RELEVOS</text><text fill="#FFFFFF" font-family="Aptos,Aptos_MSFontService,sans-serif" font-weight="700" font-size="43" transform="matrix(1 0 0 0.999853 392.213 612)">NOMBRE</text><g><text fill="#FFFFFF" font-family="Aptos,Aptos_MSFontService,sans-serif" font-weight="700" font-size="43" transform="matrix(1 0 0 0.999853 62.9931 612)">N</text></g><g><text fill="#FFFFFF" font-family="Aptos,Aptos_MSFontService,sans-serif" font-weight="700" font-size="43" transform="matrix(1 0 0 0.999853 93.8385 612)">°</text></g><text font-family="Aptos,Aptos_MSFontService,sans-serif" font-weight="400" font-size="43" transform="matrix(1 0 0 0.999853 928.831 731)">EQUIPO</text><text font-family="Aptos,Aptos_MSFontService,sans-serif" font-weight="400" font-size="43" transform="matrix(1 0 0 0.999853 1088.31 731)">M1</text><g><text font-family="Aptos,Aptos_MSFontService,sans-serif" font-weight="400" font-size="43" transform="matrix(1 0 0 0.999853 131.275 665)">Elizabeth Pérez quirama 5T</text></g><text fill="#FFFFFF" font-family="Aptos,Aptos_MSFontService,sans-serif" font-weight="700" font-size="43" transform="matrix(1 0 0 0.999853 75.0812 665)">1</text><g><text font-family="Aptos,Aptos_MSFontService,sans-serif" font-weight="400" font-size="43" transform="matrix(1 0 0 0.999853 131.275 718)">Alison duque mercado 5M</text></g><text fill="#FFFFFF" font-family="Aptos,Aptos_MSFontService,sans-serif" font-weight="700" font-size="43" transform="matrix(1 0 0 0.999853 75.0812 718)">2</text><g><text font-family="Aptos,Aptos_MSFontService,sans-serif" font-weight="400" font-size="43" transform="matrix(1 0 0 0.999853 131.275 771)">Gabriela barbosa 4M</text></g><text fill="#FFFFFF" font-family="Aptos,Aptos_MSFontService,sans-serif" font-weight="700" font-size="43" transform="matrix(1 0 0 0.999853 75.0812 771)">3</text><g><text font-family="Aptos,Aptos_MSFontService,sans-serif" font-weight="400" font-size="43" transform="matrix(1 0 0 0.999853 131.275 824)">Samuel López</text></g><text fill="#FFFFFF" font-family="Aptos,Aptos_MSFontService,sans-serif" font-weight="700" font-size="43" transform="matrix(1 0 0 0.999853 75.0812 824)">4</text><path d="M50.3197 861.426 125.371 861.426 125.371 914.352 50.3197 914.352Z" fill="#156082" fill-rule="evenodd"/><path d="M125.371 861.426 836.218 861.426 836.218 914.352 125.371 914.352Z" fill="#156082" fill-rule="evenodd"/><path d="M836.218 861.426 1229.23 861.426 1229.23 914.352 836.218 914.352Z" fill="#156082" fill-rule="evenodd"/><path d="M50.3197 914.352 125.371 914.352 125.371 967.279 50.3197 967.279Z" fill="#156082" fill-rule="evenodd"/><path d="M125.371 914.352 836.218 914.352 836.218 967.279 125.371 967.279Z" fill="#CCD2D8" fill-rule="evenodd"/><path d="M836.218 914.352 1229.23 914.352 1229.23 1126.06 836.218 1126.06Z" fill="#CCD2D8" fill-rule="evenodd"/><path d="M50.3197 967.279 125.371 967.279 125.371 1020.2 50.3197 1020.2Z" fill="#156082" fill-rule="evenodd"/><path d="M125.371 967.279 836.218 967.279 836.218 1020.2 125.371 1020.2Z" fill="#E7EAED" fill-rule="evenodd"/><path d="M50.3197 1020.2 125.371 1020.2 125.371 1073.13 50.3197 1073.13Z" fill="#156082" fill-rule="evenodd"/><path d="M125.371 1020.2 836.218 1020.2 836.218 1073.13 125.371 1073.13Z" fill="#CCD2D8" fill-rule="evenodd"/><path d="M50.3197 1073.13 125.371 1073.13 125.371 1126.06 50.3197 1126.06Z" fill="#156082" fill-rule="evenodd"/><path d="M125.371 1073.13 836.218 1073.13 836.218 1126.06 125.371 1126.06Z" fill="#E7EAED" fill-rule="evenodd"/><path d="M125.371 860.759 125.371 1126.72" stroke="#FFFFFF" stroke-width="1.33386" stroke-linejoin="round" stroke-miterlimit="10" fill="none" fill-rule="evenodd"/><path d="M836.218 860.759 836.218 1126.72" stroke="#FFFFFF" stroke-width="1.33386" stroke-linejoin="round" stroke-miterlimit="10" fill="none" fill-rule="evenodd"/><path d="M49.6528 914.352 1229.9 914.352" stroke="#FFFFFF" stroke-width="4.00157" stroke-linejoin="round" stroke-miterlimit="10" fill="none" fill-rule="evenodd"/><path d="M49.6528 967.279 836.885 967.279" stroke="#FFFFFF" stroke-width="1.33386" stroke-linejoin="round" stroke-miterlimit="10" fill="none" fill-rule="evenodd"/><path d="M49.6528 1020.2 836.885 1020.2" stroke="#FFFFFF" stroke-width="1.33386" stroke-linejoin="round" stroke-miterlimit="10" fill="none" fill-rule="evenodd"/><path d="M49.6528 1073.13 836.885 1073.13" stroke="#FFFFFF" stroke-width="1.33386" stroke-linejoin="round" stroke-miterlimit="10" fill="none" fill-rule="evenodd"/><path d="M50.3197 860.759 50.3197 1126.72" stroke="#FFFFFF" stroke-width="1.33386" stroke-linejoin="round" stroke-miterlimit="10" fill="none" fill-rule="evenodd"/><path d="M1229.23 860.759 1229.23 1126.72" stroke="#FFFFFF" stroke-width="1.33386" stroke-linejoin="round" stroke-miterlimit="10" fill="none" fill-rule="evenodd"/><path d="M49.6528 861.426 1229.9 861.426" stroke="#FFFFFF" stroke-width="1.33386" stroke-linejoin="round" stroke-miterlimit="10" fill="none" fill-rule="evenodd"/><path d="M49.6528 1126.06 1229.9 1126.06" stroke="#FFFFFF" stroke-width="1.33386" stroke-linejoin="round" stroke-miterlimit="10" fill="none" fill-rule="evenodd"/><text fill="#FFFFFF" font-family="Aptos,Aptos_MSFontService,sans-serif" font-weight="700" font-size="43" transform="matrix(1 0 0 0.999853 942.597 902)">RELEVOS</text><text fill="#FFFFFF" font-family="Aptos,Aptos_MSFontService,sans-serif" font-weight="700" font-size="43" transform="matrix(1 0 0 0.999853 393.093 902)">NOMBRE</text><g><text fill="#FFFFFF" font-family="Aptos,Aptos_MSFontService,sans-serif" font-weight="700" font-size="43" transform="matrix(1 0 0 0.999853 64.336 902)">N</text></g><g><text fill="#FFFFFF" font-family="Aptos,Aptos_MSFontService,sans-serif" font-weight="700" font-size="43" transform="matrix(1 0 0 0.999853 95.1814 902)">°</text></g><text font-family="Aptos,Aptos_MSFontService,sans-serif" font-weight="400" font-size="43" transform="matrix(1 0 0 0.999853 929.062 1021)">EQUIPO</text><text font-family="Aptos,Aptos_MSFontService,sans-serif" font-weight="400" font-size="43" transform="matrix(1 0 0 0.999853 1088.54 1021)">M2</text><g><text font-family="Aptos,Aptos_MSFontService,sans-serif" font-weight="400" font-size="43" transform="matrix(1 0 0 0.999853 132.574 955)">Jhojan Gómez</text></g><text fill="#FFFFFF" font-family="Aptos,Aptos_MSFontService,sans-serif" font-weight="700" font-size="43" transform="matrix(1 0 0 0.999853 76.4241 955)">1</text><g><text font-family="Aptos,Aptos_MSFontService,sans-serif" font-weight="400" font-size="43" transform="matrix(1 0 0 0.999853 132.574 1008)">Nikol duque 4T</text></g><text fill="#FFFFFF" font-family="Aptos,Aptos_MSFontService,sans-serif" font-weight="700" font-size="43" transform="matrix(1 0 0 0.999853 76.4241 1008)">2</text><g><text font-family="Aptos,Aptos_MSFontService,sans-serif" font-weight="400" font-size="43" transform="matrix(1 0 0 0.999853 132.574 1061)">Salome guarín 5T</text></g><text fill="#FFFFFF" font-family="Aptos,Aptos_MSFontService,sans-serif" font-weight="700" font-size="43" transform="matrix(1 0 0 0.999853 76.4241 1061)">3</text><g><text font-family="Aptos,Aptos_MSFontService,sans-serif" font-weight="400" font-size="43" transform="matrix(1 0 0 0.999853 132.574 1114)">Salome Rodríguez 5T</text></g><text fill="#FFFFFF" font-family="Aptos,Aptos_MSFontService,sans-serif" font-weight="700" font-size="43" transform="matrix(1 0 0 0.999853 76.4241 1114)">4</text><path d="M50.2363 1155.07 125.287 1155.07 125.287 1207.99 50.2363 1207.99Z" fill="#156082" fill-rule="evenodd"/><path d="M125.287 1155.07 836.135 1155.07 836.135 1207.99 125.287 1207.99Z" fill="#156082" fill-rule="evenodd"/><path d="M836.135 1155.07 1229.15 1155.07 1229.15 1207.99 836.135 1207.99Z" fill="#156082" fill-rule="evenodd"/><path d="M50.2363 1207.99 125.287 1207.99 125.287 1260.92 50.2363 1260.92Z" fill="#156082" fill-rule="evenodd"/><path d="M125.287 1207.99 836.135 1207.99 836.135 1260.92 125.287 1260.92Z" fill="#CCD2D8" fill-rule="evenodd"/><path d="M836.135 1207.99 1229.15 1207.99 1229.15 1419.7 836.135 1419.7Z" fill="#CCD2D8" fill-rule="evenodd"/><path d="M50.2363 1260.92 125.287 1260.92 125.287 1313.85 50.2363 1313.85Z" fill="#156082" fill-rule="evenodd"/><path d="M125.287 1260.92 836.135 1260.92 836.135 1313.85 125.287 1313.85Z" fill="#E7EAED" fill-rule="evenodd"/><path d="M50.2363 1313.85 125.287 1313.85 125.287 1366.77 50.2363 1366.77Z" fill="#156082" fill-rule="evenodd"/><path d="M125.287 1313.85 836.135 1313.85 836.135 1366.77 125.287 1366.77Z" fill="#CCD2D8" fill-rule="evenodd"/><path d="M50.2363 1366.77 125.287 1366.77 125.287 1419.7 50.2363 1419.7Z" fill="#156082" fill-rule="evenodd"/><path d="M125.287 1366.77 836.135 1366.77 836.135 1419.7 125.287 1419.7Z" fill="#E7EAED" fill-rule="evenodd"/><path d="M125.287 1154.4 125.287 1420.37" stroke="#FFFFFF" stroke-width="1.33386" stroke-linejoin="round" stroke-miterlimit="10" fill="none" fill-rule="evenodd"/><path d="M836.135 1154.4 836.135 1420.37" stroke="#FFFFFF" stroke-width="1.33386" stroke-linejoin="round" stroke-miterlimit="10" fill="none" fill-rule="evenodd"/><path d="M49.5694 1207.99 1229.82 1207.99" stroke="#FFFFFF" stroke-width="4.00157" stroke-linejoin="round" stroke-miterlimit="10" fill="none" fill-rule="evenodd"/><path d="M49.5694 1260.92 836.802 1260.92" stroke="#FFFFFF" stroke-width="1.33386" stroke-linejoin="round" stroke-miterlimit="10" fill="none" fill-rule="evenodd"/><path d="M49.5694 1313.85 836.802 1313.85" stroke="#FFFFFF" stroke-width="1.33386" stroke-linejoin="round" stroke-miterlimit="10" fill="none" fill-rule="evenodd"/><path d="M49.5694 1366.77 836.802 1366.77" stroke="#FFFFFF" stroke-width="1.33386" stroke-linejoin="round" stroke-miterlimit="10" fill="none" fill-rule="evenodd"/><path d="M50.2363 1154.4 50.2363 1420.37" stroke="#FFFFFF" stroke-width="1.33386" stroke-linejoin="round" stroke-miterlimit="10" fill="none" fill-rule="evenodd"/><path d="M1229.15 1154.4 1229.15 1420.37" stroke="#FFFFFF" stroke-width="1.33386" stroke-linejoin="round" stroke-miterlimit="10" fill="none" fill-rule="evenodd"/><path d="M49.5694 1155.07 1229.82 1155.07" stroke="#FFFFFF" stroke-width="1.33386" stroke-linejoin="round" stroke-miterlimit="10" fill="none" fill-rule="evenodd"/><path d="M49.5694 1419.7 1229.82 1419.7" stroke="#FFFFFF" stroke-width="1.33386" stroke-linejoin="round" stroke-miterlimit="10" fill="none" fill-rule="evenodd"/><text fill="#FFFFFF" font-family="Aptos,Aptos_MSFontService,sans-serif" font-weight="700" font-size="43" transform="matrix(1 0 0 0.999853 942.514 1196)">RELEVOS</text><text fill="#FFFFFF" font-family="Aptos,Aptos_MSFontService,sans-serif" font-weight="700" font-size="43" transform="matrix(1 0 0 0.999853 393.01 1196)">NOMBRE</text><g><text fill="#FFFFFF" font-family="Aptos,Aptos_MSFontService,sans-serif" font-weight="700" font-size="43" transform="matrix(1 0 0 0.999853 64.2526 1196)">N</text></g><g><text fill="#FFFFFF" font-family="Aptos,Aptos_MSFontService,sans-serif" font-weight="700" font-size="43" transform="matrix(1 0 0 0.999853 95.098 1196)">°</text></g><text font-family="Aptos,Aptos_MSFontService,sans-serif" font-weight="400" font-size="43" transform="matrix(1 0 0 0.999853 916.891 1315)">EQUIPOS</text><text font-family="Aptos,Aptos_MSFontService,sans-serif" font-weight="400" font-size="43" transform="matrix(1 0 0 0.999853 1100.54 1315)">M3</text><g><text font-family="Aptos,Aptos_MSFontService,sans-serif" font-weight="400" font-size="43" transform="matrix(1 0 0 0.999853 132.49 1249)">Ethan Alberto</text></g><text fill="#FFFFFF" font-family="Aptos,Aptos_MSFontService,sans-serif" font-weight="700" font-size="43" transform="matrix(1 0 0 0.999853 76.3407 1249)">1</text><g><text font-family="Aptos,Aptos_MSFontService,sans-serif" font-weight="400" font-size="43" transform="matrix(1 0 0 0.999853 132.49 1302)">Laura valentina 5M</text></g><text fill="#FFFFFF" font-family="Aptos,Aptos_MSFontService,sans-serif" font-weight="700" font-size="43" transform="matrix(1 0 0 0.999853 76.3407 1302)">2</text><g><text font-family="Aptos,Aptos_MSFontService,sans-serif" font-weight="400" font-size="43" transform="matrix(1 0 0 0.999853 132.49 1355)">Saray guarín 5T</text></g><text fill="#FFFFFF" font-family="Aptos,Aptos_MSFontService,sans-serif" font-weight="700" font-size="43" transform="matrix(1 0 0 0.999853 76.3407 1355)">3</text><g><text font-family="Aptos,Aptos_MSFontService,sans-serif" font-weight="400" font-size="43" transform="matrix(1 0 0 0.999853 132.49 1408)">Saray Rodríguez 5T</text></g><text fill="#FFFFFF" font-family="Aptos,Aptos_MSFontService,sans-serif" font-weight="700" font-size="43" transform="matrix(1 0 0 0.999853 76.3407 1408)">4</text><path d="M50.2362 1450.22 125.287 1450.22 125.287 1503.15 50.2362 1503.15Z" fill="#156082" fill-rule="evenodd"/><path d="M125.287 1450.22 836.135 1450.22 836.135 1503.15 125.287 1503.15Z" fill="#156082" fill-rule="evenodd"/><path d="M836.135 1450.22 1229.15 1450.22 1229.15 1503.15 836.135 1503.15Z" fill="#156082" fill-rule="evenodd"/><path d="M50.2362 1503.15 125.287 1503.15 125.287 1556.08 50.2362 1556.08Z" fill="#156082" fill-rule="evenodd"/><path d="M125.287 1503.15 836.135 1503.15 836.135 1556.08 125.287 1556.08Z" fill="#CCD2D8" fill-rule="evenodd"/><path d="M836.135 1503.15 1229.15 1503.15 1229.15 1714.85 836.135 1714.85Z" fill="#CCD2D8" fill-rule="evenodd"/><path d="M50.2362 1556.08 125.287 1556.08 125.287 1609 50.2362 1609Z" fill="#156082" fill-rule="evenodd"/><path d="M125.287 1556.08 836.135 1556.08 836.135 1609 125.287 1609Z" fill="#E7EAED" fill-rule="evenodd"/><path d="M50.2362 1609 125.287 1609 125.287 1661.93 50.2362 1661.93Z" fill="#156082" fill-rule="evenodd"/><path d="M125.287 1609 836.135 1609 836.135 1661.93 125.287 1661.93Z" fill="#CCD2D8" fill-rule="evenodd"/><path d="M50.2362 1661.93 125.287 1661.93 125.287 1714.85 50.2362 1714.85Z" fill="#156082" fill-rule="evenodd"/><path d="M125.287 1661.93 836.135 1661.93 836.135 1714.85 125.287 1714.85Z" fill="#E7EAED" fill-rule="evenodd"/><path d="M125.287 1449.56 125.287 1715.52" stroke="#FFFFFF" stroke-width="1.33386" stroke-linejoin="round" stroke-miterlimit="10" fill="none" fill-rule="evenodd"/><path d="M836.135 1449.56 836.135 1715.52" stroke="#FFFFFF" stroke-width="1.33386" stroke-linejoin="round" stroke-miterlimit="10" fill="none" fill-rule="evenodd"/><path d="M49.5693 1503.15 1229.82 1503.15" stroke="#FFFFFF" stroke-width="4.00157" stroke-linejoin="round" stroke-miterlimit="10" fill="none" fill-rule="evenodd"/><path d="M49.5693 1556.08 836.802 1556.08" stroke="#FFFFFF" stroke-width="1.33386" stroke-linejoin="round" stroke-miterlimit="10" fill="none" fill-rule="evenodd"/><path d="M49.5693 1609 836.802 1609" stroke="#FFFFFF" stroke-width="1.33386" stroke-linejoin="round" stroke-miterlimit="10" fill="none" fill-rule="evenodd"/><path d="M49.5693 1661.93 836.802 1661.93" stroke="#FFFFFF" stroke-width="1.33386" stroke-linejoin="round" stroke-miterlimit="10" fill="none" fill-rule="evenodd"/><path d="M50.2362 1449.56 50.2362 1715.52" stroke="#FFFFFF" stroke-width="1.33386" stroke-linejoin="round" stroke-miterlimit="10" fill="none" fill-rule="evenodd"/><path d="M1229.15 1449.56 1229.15 1715.52" stroke="#FFFFFF" stroke-width="1.33386" stroke-linejoin="round" stroke-miterlimit="10" fill="none" fill-rule="evenodd"/><path d="M49.5693 1450.22 1229.82 1450.22" stroke="#FFFFFF" stroke-width="1.33386" stroke-linejoin="round" stroke-miterlimit="10" fill="none" fill-rule="evenodd"/><path d="M49.5693 1714.85 1229.82 1714.85" stroke="#FFFFFF" stroke-width="1.33386" stroke-linejoin="round" stroke-miterlimit="10" fill="none" fill-rule="evenodd"/><text fill="#FFFFFF" font-family="Aptos,Aptos_MSFontService,sans-serif" font-weight="700" font-size="43" transform="matrix(1 0 0 0.999853 942.514 1491)">RELEVOS</text><text fill="#FFFFFF" font-family="Aptos,Aptos_MSFontService,sans-serif" font-weight="700" font-size="43" transform="matrix(1 0 0 0.999853 393.01 1491)">NOMBRE</text><g><text fill="#FFFFFF" font-family="Aptos,Aptos_MSFontService,sans-serif" font-weight="700" font-size="43" transform="matrix(1 0 0 0.999853 64.2525 1491)">N</text></g><g><text fill="#FFFFFF" font-family="Aptos,Aptos_MSFontService,sans-serif" font-weight="700" font-size="43" transform="matrix(1 0 0 0.999853 95.0979 1491)">°</text></g><text font-family="Aptos,Aptos_MSFontService,sans-serif" font-weight="400" font-size="43" transform="matrix(1 0 0 0.999853 912.555 1675)">EQUIPOS M4</text><g><text font-family="Aptos,Aptos_MSFontService,sans-serif" font-weight="400" font-size="43" transform="matrix(1 0 0 0.999853 132.49 1544)">Meghan rivera 5T</text></g><text fill="#FFFFFF" font-family="Aptos,Aptos_MSFontService,sans-serif" font-weight="700" font-size="43" transform="matrix(1 0 0 0.999853 76.3406 1544)">1</text><g><text font-family="Aptos,Aptos_MSFontService,sans-serif" font-weight="400" font-size="43" transform="matrix(1 0 0 0.999853 132.49 1597)">Salome Gómez 5M</text></g><text fill="#FFFFFF" font-family="Aptos,Aptos_MSFontService,sans-serif" font-weight="700" font-size="43" transform="matrix(1 0 0 0.999853 76.3406 1597)">2</text><g><text font-family="Aptos,Aptos_MSFontService,sans-serif" font-weight="400" font-size="43" transform="matrix(1 0 0 0.999853 132.49 1650)">Manuela moreno 5T</text></g><text fill="#FFFFFF" font-family="Aptos,Aptos_MSFontService,sans-serif" font-weight="700" font-size="43" transform="matrix(1 0 0 0.999853 76.3406 1650)">3</text><g><text font-family="Aptos,Aptos_MSFontService,sans-serif" font-weight="400" font-size="43" transform="matrix(1 0 0 0.999853 132.49 1703)">Jeronimo aristizabal 5M</text></g><text fill="#FFFFFF" font-family="Aptos,Aptos_MSFontService,sans-serif" font-weight="700" font-size="43" transform="matrix(1 0 0 0.999853 76.3406 1703)">4</text><path d="M50.2363 109.509 1229.07 109.509 1229.07 162.435 50.2363 162.435Z" fill="#156082" fill-rule="evenodd"/><path d="M50.2363 162.435 256.1 162.435 256.1 215.362 50.2363 215.362Z" fill="#156082" fill-rule="evenodd"/><path d="M256.1 162.435 848.332 162.435 848.332 215.362 256.1 215.362Z" fill="#CCD2D8" fill-rule="evenodd"/><path d="M848.332 162.435 1229.07 162.435 1229.07 215.362 848.332 215.362Z" fill="#CCD2D8" fill-rule="evenodd"/><path d="M50.2363 215.362 256.1 215.362 256.1 268.288 50.2363 268.288Z" fill="#156082" fill-rule="evenodd"/><path d="M256.1 215.362 848.332 215.362 848.332 268.288 256.1 268.288Z" fill="#E7EAED" fill-rule="evenodd"/><path d="M848.332 215.362 1229.07 215.362 1229.07 268.288 848.332 268.288Z" fill="#E7EAED" fill-rule="evenodd"/><path d="M50.2363 268.288 256.1 268.288 256.1 321.214 50.2363 321.214Z" fill="#156082" fill-rule="evenodd"/><path d="M256.1 268.288 848.332 268.288 848.332 321.214 256.1 321.214Z" fill="#CCD2D8" fill-rule="evenodd"/><path d="M848.332 268.288 1229.07 268.288 1229.07 321.214 848.332 321.214Z" fill="#CCD2D8" fill-rule="evenodd"/><path d="M256.1 160.435 256.1 321.881" stroke="#FFFFFF" stroke-width="1.33386" stroke-linejoin="round" stroke-miterlimit="10" fill="none" fill-rule="evenodd"/><path d="M848.332 160.435 848.332 321.881" stroke="#FFFFFF" stroke-width="1.33386" stroke-linejoin="round" stroke-miterlimit="10" fill="none" fill-rule="evenodd"/><path d="M49.5694 162.435 1229.73 162.435" stroke="#FFFFFF" stroke-width="4.00157" stroke-linejoin="round" stroke-miterlimit="10" fill="none" fill-rule="evenodd"/><path d="M49.5694 215.362 1229.73 215.362" stroke="#FFFFFF" stroke-width="1.33386" stroke-linejoin="round" stroke-miterlimit="10" fill="none" fill-rule="evenodd"/><path d="M49.5694 268.288 1229.73 268.288" stroke="#FFFFFF" stroke-width="1.33386" stroke-linejoin="round" stroke-miterlimit="10" fill="none" fill-rule="evenodd"/><path d="M50.2363 108.842 50.2363 321.881" stroke="#FFFFFF" stroke-width="1.33386" stroke-linejoin="round" stroke-miterlimit="10" fill="none" fill-rule="evenodd"/><path d="M1229.07 108.842 1229.07 321.881" stroke="#FFFFFF" stroke-width="1.33386" stroke-linejoin="round" stroke-miterlimit="10" fill="none" fill-rule="evenodd"/><path d="M49.5694 109.509 1229.73 109.509" stroke="#FFFFFF" stroke-width="1.33386" stroke-linejoin="round" stroke-miterlimit="10" fill="none" fill-rule="evenodd"/><path d="M49.5694 321.214 1229.73 321.214" stroke="#FFFFFF" stroke-width="1.33386" stroke-linejoin="round" stroke-miterlimit="10" fill="none" fill-rule="evenodd"/><text fill="#FFFFFF" font-family="Aptos,Aptos_MSFontService,sans-serif" font-weight="700" font-size="43" transform="matrix(1 0 0 0.999853 322.728 150)">EQUIPOS MIXTOS</text><text fill="#FFFFFF" font-family="Aptos,Aptos_MSFontService,sans-serif" font-weight="700" font-size="43" transform="matrix(1 0 0 0.999853 671.297 150)">-</text><text fill="#FFFFFF" font-family="Aptos,Aptos_MSFontService,sans-serif" font-weight="700" font-size="43" transform="matrix(1 0 0 0.999853 694.473 150)">SEMIFINALES</text><text font-family="Aptos,Aptos_MSFontService,sans-serif" font-weight="400" font-size="43" transform="matrix(1 0 0 0.999853 982.511 203)">HORA</text><text font-family="Aptos,Aptos_MSFontService,sans-serif" font-weight="400" font-size="43" transform="matrix(1 0 0 0.999853 476.813 203)">EQUIPO</text><g><text fill="#FFFFFF" font-family="Aptos,Aptos_MSFontService,sans-serif" font-weight="700" font-size="43" transform="matrix(1 0 0 0.999853 59.0047 203)">CARRERA</text></g><text font-family="Aptos,Aptos_MSFontService,sans-serif" font-weight="400" font-size="43" transform="matrix(1 0 0 0.999853 882.889 256)">10:00</text><text font-family="Aptos,Aptos_MSFontService,sans-serif" font-weight="400" font-size="43" transform="matrix(1 0 0 0.999853 995.099 256)">–</text><text font-family="Aptos,Aptos_MSFontService,sans-serif" font-weight="400" font-size="43" transform="matrix(1 0 0 0.999853 1023.44 256)">10:05 AM</text><text font-family="Aptos,Aptos_MSFontService,sans-serif" font-weight="400" font-size="43" transform="matrix(1 0 0 0.999853 329.255 256)">Equipo M1 vs Equipo M2</text><text fill="#FFFFFF" font-family="Aptos,Aptos_MSFontService,sans-serif" font-weight="700" font-size="43" transform="matrix(1 0 0 0.999853 87.3091 256)">Serie 1</text><text font-family="Aptos,Aptos_MSFontService,sans-serif" font-weight="400" font-size="43" transform="matrix(1 0 0 0.999853 882.889 309)">10:10</text><text font-family="Aptos,Aptos_MSFontService,sans-serif" font-weight="400" font-size="43" transform="matrix(1 0 0 0.999853 995.099 309)">–</text><text font-family="Aptos,Aptos_MSFontService,sans-serif" font-weight="400" font-size="43" transform="matrix(1 0 0 0.999853 1023.44 309)">10:15 AM</text><text font-family="Aptos,Aptos_MSFontService,sans-serif" font-weight="400" font-size="43" transform="matrix(1 0 0 0.999853 329.255 309)">Equipo M3 vs Equipo M4</text><text fill="#FFFFFF" font-family="Aptos,Aptos_MSFontService,sans-serif" font-weight="700" font-size="43" transform="matrix(1 0 0 0.999853 87.3091 309)">Serie 2</text><path d="M50.2362 344.542 1229.07 344.542 1229.07 397.468 50.2362 397.468Z" fill="#156082" fill-rule="evenodd"/><path d="M50.2362 397.468 256.1 397.468 256.1 450.394 50.2362 450.394Z" fill="#156082" fill-rule="evenodd"/><path d="M256.1 397.468 854.229 397.468 854.229 450.394 256.1 450.394Z" fill="#CCD2D8" fill-rule="evenodd"/><path d="M854.229 397.468 1229.07 397.468 1229.07 450.394 854.229 450.394Z" fill="#CCD2D8" fill-rule="evenodd"/><path d="M50.2362 450.394 256.1 450.394 256.1 503.32 50.2362 503.32Z" fill="#156082" fill-rule="evenodd"/><path d="M256.1 450.394 854.229 450.394 854.229 503.32 256.1 503.32Z" fill="#E7EAED" fill-rule="evenodd"/><path d="M854.229 450.394 1229.07 450.394 1229.07 503.32 854.229 503.32Z" fill="#E7EAED" fill-rule="evenodd"/><path d="M256.1 395.467 256.1 503.987" stroke="#FFFFFF" stroke-width="1.33386" stroke-linejoin="round" stroke-miterlimit="10" fill="none" fill-rule="evenodd"/><path d="M854.229 395.467 854.229 503.987" stroke="#FFFFFF" stroke-width="1.33386" stroke-linejoin="round" stroke-miterlimit="10" fill="none" fill-rule="evenodd"/><path d="M49.5693 397.468 1229.73 397.468" stroke="#FFFFFF" stroke-width="4.00157" stroke-linejoin="round" stroke-miterlimit="10" fill="none" fill-rule="evenodd"/><path d="M49.5693 450.394 1229.73 450.394" stroke="#FFFFFF" stroke-width="1.33386" stroke-linejoin="round" stroke-miterlimit="10" fill="none" fill-rule="evenodd"/><path d="M50.2362 343.875 50.2362 503.987" stroke="#FFFFFF" stroke-width="1.33386" stroke-linejoin="round" stroke-miterlimit="10" fill="none" fill-rule="evenodd"/><path d="M1229.07 343.875 1229.07 503.987" stroke="#FFFFFF" stroke-width="1.33386" stroke-linejoin="round" stroke-miterlimit="10" fill="none" fill-rule="evenodd"/><path d="M49.5693 344.542 1229.73 344.542" stroke="#FFFFFF" stroke-width="1.33386" stroke-linejoin="round" stroke-miterlimit="10" fill="none" fill-rule="evenodd"/><path d="M49.5693 503.32 1229.73 503.32" stroke="#FFFFFF" stroke-width="1.33386" stroke-linejoin="round" stroke-miterlimit="10" fill="none" fill-rule="evenodd"/><text fill="#FFFFFF" font-family="Aptos,Aptos_MSFontService,sans-serif" font-weight="700" font-size="43" transform="matrix(1 0 0 0.999853 557.37 385)">FINALES</text><text font-family="Aptos,Aptos_MSFontService,sans-serif" font-weight="400" font-size="43" transform="matrix(1 0 0 0.999853 985.459 438)">HORA</text><text font-family="Aptos,Aptos_MSFontService,sans-serif" font-weight="400" font-size="43" transform="matrix(1 0 0 0.999853 479.762 438)">EQUIPO</text><g><text fill="#FFFFFF" font-family="Aptos,Aptos_MSFontService,sans-serif" font-weight="700" font-size="43" transform="matrix(1 0 0 0.999853 59.0047 438)">CARRERA</text></g><text font-family="Aptos,Aptos_MSFontService,sans-serif" font-weight="400" font-size="43" transform="matrix(1 0 0 0.999853 885.837 491)">10:30</text><text font-family="Aptos,Aptos_MSFontService,sans-serif" font-weight="400" font-size="43" transform="matrix(1 0 0 0.999853 998.048 491)">–</text><text font-family="Aptos,Aptos_MSFontService,sans-serif" font-weight="400" font-size="43" transform="matrix(1 0 0 0.999853 1026.39 491)">10:35 AM</text><text font-family="Aptos,Aptos_MSFontService,sans-serif" font-weight="400" font-size="43" transform="matrix(1 0 0 0.999853 311.529 491)">Equipo GS1 vs Equipo GS2</text><text fill="#FFFFFF" font-family="Aptos,Aptos_MSFontService,sans-serif" font-weight="700" font-size="43" transform="matrix(1 0 0 0.999853 87.3091 491)">Serie 1</text><path d="M906.328 49.0529 901.499 62.4674 911.115 62.4674ZM460.328 49.0529 455.499 62.4674 465.115 62.4674ZM582.079 48.4651 582.079 70.3818 586.971 70.3818C589.448 70.3818 591.492 69.9864 593.102 69.1957 594.711 68.405 595.911 67.1944 596.702 65.5639 597.493 63.9334 597.889 61.8796 597.889 59.4025 597.889 56.9393 597.486 54.8995 596.681 53.283 595.877 51.6665 594.666 50.4594 593.049 49.6617 591.432 48.864 589.406 48.4651 586.971 48.4651ZM480.079 48.4441 480.079 58.4368 486.503 58.4368C487.539 58.4368 488.477 58.2408 489.317 57.849 490.157 57.4571 490.825 56.8903 491.322 56.1485 491.819 55.4068 492.067 54.5111 492.067 53.4614 492.067 51.88 491.602 50.6484 490.671 49.7667 489.74 48.885 488.386 48.4441 486.608 48.4441ZM430.079 48.4441 430.079 58.4368 436.503 58.4368C437.539 58.4368 438.477 58.2408 439.317 57.849 440.157 57.4571 440.825 56.8903 441.322 56.1485 441.819 55.4068 442.067 54.5111 442.067 53.4614 442.067 51.88 441.602 50.6484 440.671 49.7667 439.74 48.885 438.386 48.4441 436.608 48.4441ZM738.079 48.4021 738.079 59.2765 744.209 59.2765C745.917 59.2765 747.299 58.8391 748.356 57.9644 749.413 57.0897 749.941 55.7637 749.941 53.9863 749.941 52.0829 749.41 50.6764 748.346 49.7667 747.282 48.857 745.903 48.4021 744.209 48.4021ZM681.351 48.0033C679.083 48.0033 677.246 48.5176 675.84 49.5462 674.433 50.5749 673.408 51.9534 672.764 53.6819 672.12 55.4103 671.798 57.3311 671.798 59.4444 671.798 61.5437 672.12 63.4576 672.764 65.186 673.408 66.9144 674.433 68.2895 675.84 69.3111 677.246 70.3328 679.083 70.8436 681.351 70.8436 683.619 70.8436 685.452 70.3328 686.852 69.3111 688.252 68.2895 689.277 66.9144 689.928 65.186 690.579 63.4576 690.904 61.5437 690.904 59.4444 690.904 57.3311 690.579 55.4103 689.928 53.6819 689.277 51.9534 688.252 50.5749 686.852 49.5462 685.452 48.5176 683.619 48.0033 681.351 48.0033ZM525.351 48.0033C523.083 48.0033 521.246 48.5176 519.84 49.5462 518.433 50.5749 517.408 51.9534 516.764 53.6819 516.12 55.4103 515.798 57.3311 515.798 59.4444 515.798 61.5437 516.12 63.4576 516.764 65.186 517.408 66.9144 518.433 68.2895 519.84 69.3111 521.246 70.3328 523.083 70.8436 525.351 70.8436 527.619 70.8436 529.452 70.3328 530.852 69.3111 532.252 68.2895 533.277 66.9144 533.928 65.186 534.579 63.4576 534.904 61.5437 534.904 59.4444 534.904 57.3311 534.579 55.4103 533.928 53.6819 533.277 51.9534 532.252 50.5749 530.852 49.5462 529.452 48.5176 527.619 48.0033 525.351 48.0033ZM406.351 48.0033C404.084 48.0033 402.246 48.5176 400.84 49.5462 399.433 50.5749 398.408 51.9534 397.764 53.6819 397.12 55.4103 396.798 57.3311 396.798 59.4444 396.798 61.5437 397.12 63.4576 397.764 65.186 398.408 66.9144 399.433 68.2895 400.84 69.3111 402.246 70.3328 404.084 70.8436 406.351 70.8436 408.619 70.8436 410.452 70.3328 411.852 69.3111 413.252 68.2895 414.277 66.9144 414.928 65.186 415.579 63.4576 415.904 61.5437 415.904 59.4444 415.904 57.3311 415.579 55.4103 414.928 53.6819 414.277 51.9534 413.252 50.5749 411.852 49.5462 410.452 48.5176 408.619 48.0033 406.351 48.0033ZM904.354 45.2952 908.343 45.2952 918.778 73.5517 914.873 73.5517 912.186 65.6374 900.47 65.6374 897.656 73.5517 893.772 73.5517ZM886.299 45.2952 890.079 45.2952 890.079 73.5517 886.299 73.5517ZM826.299 45.2952 830.163 45.2952 845.658 67.7787 845.658 45.2952 849.248 45.2952 849.248 73.5517 845.385 73.5517 829.869 51.0262 829.869 73.5517 826.299 73.5517ZM802.299 45.2952 820.335 45.2952 820.335 48.4441 806.079 48.4441 806.079 57.4501 819.201 57.4501 819.201 60.5571 806.079 60.5571 806.079 70.4028 820.335 70.4028 820.335 73.5517 802.299 73.5517ZM778.982 45.2952 798.802 45.2952 798.802 48.4651 790.782 48.4651 790.782 73.5517 787.023 73.5517 787.023 48.4651 778.982 48.4651ZM758.299 45.2952 776.335 45.2952 776.335 48.4441 762.079 48.4441 762.079 57.4501 775.201 57.4501 775.201 60.5571 762.079 60.5571 762.079 70.4028 776.335 70.4028 776.335 73.5517 758.299 73.5517ZM734.299 45.2952 744.503 45.2952C746.253 45.2952 747.828 45.6275 749.228 46.2923 750.627 46.9571 751.733 47.9368 752.545 49.2313 753.357 50.5259 753.763 52.1109 753.763 53.9863 753.763 55.8196 753.357 57.3591 752.545 58.6047 751.733 59.8503 750.627 60.795 749.228 61.4388 747.828 62.0826 746.253 62.4045 744.503 62.4045L738.079 62.4045 738.079 73.5517 734.299 73.5517ZM700.299 45.2952 704.436 45.2952 713.719 60.662 722.828 45.2952 726.859 45.2952 726.859 73.5517 723.143 73.5517 723.143 50.6457 714.85 64.6717 712.372 64.6717 703.932 50.6124 703.932 73.5517 700.299 73.5517ZM607.299 45.2952 625.335 45.2952 625.335 48.4441 611.079 48.4441 611.079 57.4501 624.201 57.4501 624.201 60.5571 611.079 60.5571 611.079 70.4028 625.335 70.4028 625.335 73.5517 607.299 73.5517ZM578.299 45.2952 587.811 45.2952C590.764 45.2952 593.284 45.8515 595.369 46.9641 597.455 48.0767 599.043 49.6897 600.135 51.803 601.227 53.9163 601.773 56.4564 601.773 59.4234 601.773 62.4045 601.224 64.9516 600.125 67.0649 599.026 69.1782 597.434 70.7877 595.348 71.8933 593.263 72.9989 590.75 73.5517 587.811 73.5517L578.299 73.5517ZM502.299 45.2952 506.079 45.2952 506.079 73.5517 502.299 73.5517ZM476.299 45.2952 486.986 45.2952C488.624 45.2952 490.111 45.5541 491.448 46.0719 492.785 46.5897 493.852 47.4015 494.65 48.5071 495.448 49.6127 495.847 51.0472 495.847 52.8107 495.847 54.6021 495.346 56.1275 494.345 57.3871 493.345 58.6467 491.878 59.5004 489.947 59.9483 491.011 60.1022 491.885 60.4451 492.571 60.9769 493.257 61.5088 493.828 62.226 494.283 63.1287 494.737 64.0314 495.133 65.1475 495.469 66.4771L497.316 73.5517 493.453 73.5517 491.836 67.0649C491.556 65.9033 491.224 64.9131 490.839 64.0944 490.454 63.2757 489.94 62.6529 489.296 62.226 488.652 61.7992 487.791 61.5857 486.713 61.5857L480.079 61.5857 480.079 73.5517 476.299 73.5517ZM458.354 45.2952 462.343 45.2952 472.778 73.5517 468.873 73.5517 466.186 65.6374 454.47 65.6374 451.656 73.5517 447.772 73.5517ZM426.299 45.2952 436.986 45.2952C438.624 45.2952 440.111 45.5541 441.448 46.0719 442.785 46.5897 443.852 47.4015 444.65 48.5071 445.448 49.6127 445.847 51.0472 445.847 52.8107 445.847 54.6021 445.346 56.1275 444.345 57.3871 443.345 58.6467 441.878 59.5004 439.947 59.9483 441.011 60.1022 441.885 60.4451 442.571 60.9769 443.257 61.5088 443.828 62.226 444.283 63.1287 444.737 64.0314 445.133 65.1475 445.469 66.4771L447.316 73.5517 443.453 73.5517 441.836 67.0649C441.557 65.9033 441.224 64.9131 440.839 64.0944 440.454 63.2757 439.94 62.6529 439.296 62.226 438.652 61.7992 437.791 61.5857 436.713 61.5857L430.079 61.5857 430.079 73.5517 426.299 73.5517ZM364.299 45.2952 368.079 45.2952 368.079 57.1562 383.532 57.1562 383.532 45.2952 387.269 45.2952 387.269 73.5517 383.532 73.5517 383.532 60.4311 368.079 60.4311 368.079 73.5517 364.299 73.5517ZM868.351 44.9173C870.283 44.9173 872.106 45.2532 873.821 45.9249 875.535 46.5967 876.963 47.6219 878.104 49.0004 879.245 50.379 879.913 52.1179 880.109 54.2172L876.309 54.2172C876.141 52.8036 875.668 51.6385 874.891 50.7218 874.115 49.8052 873.156 49.1229 872.015 48.675 870.874 48.2272 869.653 48.0033 868.351 48.0033 866.083 48.0033 864.246 48.5211 862.84 49.5567 861.433 50.5924 860.408 51.9709 859.764 53.6924 859.12 55.4138 858.798 57.3311 858.798 59.4444 858.798 61.5437 859.12 63.4541 859.764 65.1755 860.408 66.897 861.433 68.265 862.84 69.2797 864.246 70.2943 866.083 70.8017 868.351 70.8017 870.647 70.8017 872.508 70.2348 873.936 69.1012 875.364 67.9676 876.19 66.2742 876.414 64.0209L880.235 64.0209C880.011 66.2462 879.36 68.0901 878.282 69.5526 877.204 71.0151 875.812 72.1102 874.104 72.838 872.396 73.5657 870.479 73.9296 868.351 73.9296 865.426 73.9296 862.962 73.3138 860.96 72.0822 858.959 70.8506 857.444 69.1502 856.415 66.9809 855.386 64.8116 854.872 62.2995 854.872 59.4444 854.872 56.5894 855.386 54.0702 856.415 51.887 857.444 49.7037 858.959 47.9963 860.96 46.7647 862.962 45.5331 865.426 44.9173 868.351 44.9173ZM681.351 44.9173C684.305 44.9173 686.775 45.5331 688.763 46.7647 690.75 47.9963 692.252 49.7037 693.266 51.887 694.281 54.0702 694.789 56.5894 694.789 59.4444 694.789 62.2995 694.281 64.8116 693.266 66.9809 692.252 69.1502 690.75 70.8506 688.763 72.0822 686.775 73.3138 684.305 73.9296 681.351 73.9296 678.398 73.9296 675.92 73.3138 673.918 72.0822 671.917 70.8506 670.409 69.1502 669.394 66.9809 668.379 64.8116 667.872 62.2995 667.872 59.4444 667.872 56.5894 668.379 54.0702 669.394 51.887 670.409 49.7037 671.917 47.9963 673.918 46.7647 675.92 45.5331 678.398 44.9173 681.351 44.9173ZM651.351 44.9173C653.283 44.9173 655.106 45.2532 656.821 45.9249 658.535 46.5967 659.963 47.6219 661.104 49.0004 662.245 50.379 662.913 52.1179 663.109 54.2172L659.309 54.2172C659.141 52.8036 658.668 51.6385 657.891 50.7218 657.115 49.8052 656.156 49.1229 655.015 48.675 653.874 48.2272 652.653 48.0033 651.351 48.0033 649.083 48.0033 647.246 48.5211 645.84 49.5567 644.433 50.5924 643.408 51.9709 642.764 53.6924 642.12 55.4138 641.798 57.3311 641.798 59.4444 641.798 61.5437 642.12 63.4541 642.764 65.1755 643.408 66.897 644.433 68.265 645.84 69.2797 647.246 70.2943 649.083 70.8017 651.351 70.8017 653.647 70.8017 655.508 70.2348 656.936 69.1012 658.364 67.9676 659.19 66.2742 659.414 64.0209L663.235 64.0209C663.011 66.2462 662.36 68.0901 661.282 69.5526 660.204 71.0151 658.812 72.1102 657.104 72.838 655.396 73.5657 653.479 73.9296 651.351 73.9296 648.426 73.9296 645.962 73.3138 643.96 72.0822 641.959 70.8506 640.444 69.1502 639.415 66.9809 638.386 64.8116 637.872 62.2995 637.872 59.4444 637.872 56.5894 638.386 54.0702 639.415 51.887 640.444 49.7037 641.959 47.9963 643.96 46.7647 645.962 45.5331 648.426 44.9173 651.351 44.9173ZM553.446 44.9173C555.266 44.9173 556.931 45.2112 558.443 45.799 559.955 46.3868 561.162 47.2685 562.065 48.4441 562.968 49.6197 563.419 51.0822 563.419 52.8316L559.64 52.8316C559.654 51.2362 559.066 50.0291 557.876 49.2104 556.686 48.3916 555.216 47.9823 553.467 47.9823 551.661 47.9823 550.258 48.3426 549.257 49.0634 548.256 49.7842 547.756 50.8373 547.756 52.2228 547.756 53.0486 547.973 53.7378 548.407 54.2907 548.841 54.8435 549.586 55.3438 550.643 55.7917 551.7 56.2395 553.173 56.7084 555.062 57.1982 557.246 57.786 559.02 58.4158 560.385 59.0876 561.75 59.7593 562.754 60.62 563.398 61.6697 564.042 62.7193 564.364 64.0979 564.364 65.8053 564.364 67.6247 563.909 69.1327 562.999 70.3293 562.089 71.5259 560.85 72.4251 559.283 73.0269 557.715 73.6287 555.944 73.9296 553.971 73.9296 551.955 73.9296 550.135 73.6217 548.512 73.0059 546.888 72.3901 545.597 71.4244 544.638 70.1089 543.679 68.7933 543.2 67.0859 543.2 64.9866L547 64.9866C547 66.4841 547.325 67.6597 547.976 68.5134 548.627 69.3671 549.492 69.9689 550.569 70.3188 551.647 70.6687 552.83 70.8436 554.118 70.8436 555.307 70.8436 556.396 70.6652 557.383 70.3083 558.369 69.9514 559.157 69.4126 559.745 68.6919 560.333 67.9711 560.626 67.0439 560.626 65.9103 560.626 64.9306 560.396 64.1259 559.934 63.4961 559.472 62.8663 558.705 62.317 557.635 61.8481 556.564 61.3793 555.125 60.9139 553.32 60.4521 551.192 59.8923 549.443 59.28 548.071 58.6152 546.699 57.9504 545.681 57.1212 545.016 56.1275 544.351 55.1339 544.019 53.8743 544.019 52.3488 544.019 50.7393 544.396 49.3853 545.152 48.2867 545.908 47.188 546.993 46.3518 548.407 45.778 549.82 45.2042 551.5 44.9173 553.446 44.9173ZM525.351 44.9173C528.305 44.9173 530.775 45.5331 532.763 46.7647 534.75 47.9963 536.252 49.7037 537.266 51.887 538.281 54.0702 538.789 56.5894 538.789 59.4444 538.789 62.2995 538.281 64.8116 537.266 66.9809 536.252 69.1502 534.75 70.8506 532.763 72.0822 530.775 73.3138 528.305 73.9296 525.351 73.9296 522.398 73.9296 519.92 73.3138 517.918 72.0822 515.917 70.8506 514.409 69.1502 513.394 66.9809 512.379 64.8116 511.872 62.2995 511.872 59.4444 511.872 56.5894 512.379 54.0702 513.394 51.887 514.409 49.7037 515.917 47.9963 517.918 46.7647 519.92 45.5331 522.398 44.9173 525.351 44.9173ZM406.351 44.9173C409.305 44.9173 411.775 45.5331 413.763 46.7647 415.75 47.9963 417.252 49.7037 418.266 51.887 419.281 54.0702 419.789 56.5894 419.789 59.4444 419.789 62.2995 419.281 64.8116 418.266 66.9809 417.252 69.1502 415.75 70.8506 413.763 72.0822 411.775 73.3138 409.305 73.9296 406.351 73.9296 403.398 73.9296 400.92 73.3138 398.918 72.0822 396.917 70.8506 395.409 69.1502 394.394 66.9809 393.379 64.8116 392.872 62.2995 392.872 59.4444 392.872 56.5894 393.379 54.0702 394.394 51.887 395.409 49.7037 396.917 47.9963 398.918 46.7647 400.92 45.5331 403.398 44.9173 406.351 44.9173Z" fill="url(#fill0)" fill-rule="evenodd"/><text fill="#000000" fill-opacity="0" font-family="Arial,Arial_MSFontService,sans-serif" font-size="29.0123" x="364.299" y="70.3031">HORARIOS DE COMPETENCIA</text><rect x="50" y="515.924" width="1178" height="42.9937" stroke="#FFFFFF" stroke-width="2.00078" stroke-miterlimit="8" fill="url(#fill1)"/></g></svg>